M48
; DRILL file {KiCad 8.0.4} date 2024-08-09T21:07:49+0100
; FORMAT={-:-/ absolute / inch / decimal}
; #@! TF.CreationDate,2024-08-09T21:07:49+01:00
; #@! TF.GenerationSoftware,Kicad,Pcbnew,8.0.4
; #@! TF.FileFunction,MixedPlating,1,2
FMAT,2
INCH
; #@! TA.AperFunction,Plated,PTH,ComponentDrill
T1C0.0339
; #@! TA.AperFunction,Plated,PTH,ComponentDrill
T2C0.0472
; #@! TA.AperFunction,Plated,PTH,ComponentDrill
T3C0.1110
; #@! TA.AperFunction,Plated,PTH,ViaDrill
T4C0.1772
%
G90
G05
T1
X5.7858Y-1.2283
X5.7858Y-1.378
X5.8358Y-1.3031
X5.8358Y-1.4528
X5.8858Y-1.2283
X5.8858Y-1.378
X5.9358Y-1.3031
X5.9358Y-1.4528
X5.9858Y-1.2283
X5.9858Y-1.378
X6.0358Y-1.3031
X6.0358Y-1.4528
X6.0858Y-1.2283
X6.0858Y-1.378
X6.1358Y-1.3031
X6.1358Y-1.4528
X6.1858Y-1.2283
X6.1858Y-1.378
X6.2358Y-1.3031
X6.2358Y-1.4528
X6.2858Y-1.2283
X6.2858Y-1.378
X6.3358Y-1.3031
X6.3358Y-1.4528
X6.3858Y-1.2283
X6.3858Y-1.378
X6.4358Y-1.3031
X6.4358Y-1.4528
X6.4858Y-1.2283
X6.4858Y-1.378
X6.5358Y-1.3031
X6.5358Y-1.4528
X6.5858Y-1.2283
X6.5858Y-1.378
X6.6358Y-1.3031
X6.6358Y-1.4528
X6.6858Y-1.2283
X6.6858Y-1.378
X6.7358Y-1.3031
X6.7358Y-1.4528
X6.7858Y-1.2283
X6.7858Y-1.378
X6.8358Y-1.3031
X6.8358Y-1.4528
X6.8858Y-1.2283
X6.8858Y-1.378
X6.9358Y-1.3031
X6.9358Y-1.4528
X6.9858Y-1.2283
X6.9858Y-1.378
X7.0358Y-1.3031
X7.0358Y-1.4528
X7.0858Y-1.2283
X7.0858Y-1.378
X7.1358Y-1.3031
X7.1358Y-1.4528
X7.1858Y-1.2283
X7.1858Y-1.378
X7.2358Y-1.3031
X7.2358Y-1.4528
X7.2858Y-1.2283
X7.2858Y-1.378
X7.3358Y-1.3031
X7.3358Y-1.4528
X7.3858Y-1.2283
X7.3858Y-1.378
X7.4358Y-1.3031
X7.4358Y-1.4528
T2
X3.7941Y-1.8346
X3.7941Y-2.3346
X3.9441Y-1.8346
X3.9441Y-2.3346
X4.0941Y-1.8346
X4.0941Y-2.3346
X4.2441Y-1.8346
X4.2441Y-2.3346
X4.3941Y-1.8346
X4.3941Y-2.3346
X4.5441Y-1.8346
X4.5441Y-2.3346
X4.6941Y-1.8346
X4.6941Y-2.3346
X4.8441Y-1.8346
X4.8441Y-2.3346
X4.9941Y-1.8346
X4.9941Y-2.3346
X5.1441Y-1.8346
X5.1441Y-2.3346
X5.2941Y-1.8346
X5.2941Y-2.3346
X5.4441Y-1.8346
X5.4441Y-2.3346
X5.7831Y-1.8346
X5.7831Y-2.3346
X5.9331Y-1.8346
X5.9331Y-2.3346
X6.0831Y-1.8346
X6.0831Y-2.3346
X6.2331Y-1.8346
X6.2331Y-2.3346
X6.3831Y-1.8346
X6.3831Y-2.3346
X6.5331Y-1.8346
X6.5331Y-2.3346
X6.6831Y-1.8346
X6.6831Y-2.3346
X6.8331Y-1.8346
X6.8331Y-2.3346
X6.9831Y-1.8346
X6.9831Y-2.3346
X7.1331Y-1.8346
X7.1331Y-2.3346
X7.2831Y-1.8346
X7.2831Y-2.3346
X7.4331Y-1.8346
X7.4331Y-2.3346
X7.7673Y-1.8346
X7.7673Y-2.3346
X7.9173Y-1.8346
X7.9173Y-2.3346
X8.0673Y-1.8346
X8.0673Y-2.3346
X8.2173Y-1.8346
X8.2173Y-2.3346
X8.3673Y-1.8346
X8.3673Y-2.3346
X8.5173Y-1.8346
X8.5173Y-2.3346
X8.6673Y-1.8346
X8.6673Y-2.3346
X8.8173Y-1.8346
X8.8173Y-2.3346
X8.9673Y-1.8346
X8.9673Y-2.3346
X9.1173Y-1.8346
X9.1173Y-2.3346
X9.2673Y-1.8346
X9.2673Y-2.3346
X9.4173Y-1.8346
X9.4173Y-2.3346
T3
X5.4959Y-1.3031
X7.7758Y-1.3031
T4
X3.4488Y-1.2992
X3.4488Y-2.2835
X9.748Y-1.2992
X9.748Y-2.2835
M30
