%TF.GenerationSoftware,KiCad,Pcbnew,8.0.4*%
%TF.CreationDate,2024-08-09T21:07:46+01:00*%
%TF.ProjectId,PULSAR-BREAKOUT-01,50554c53-4152-42d4-9252-45414b4f5554,rev?*%
%TF.SameCoordinates,Original*%
%TF.FileFunction,OtherDrawing,Comment*%
%FSLAX46Y46*%
G04 Gerber Fmt 4.6, Leading zero omitted, Abs format (unit mm)*
G04 Created by KiCad (PCBNEW 8.0.4) date 2024-08-09 21:07:46*
%MOMM*%
%LPD*%
G01*
G04 APERTURE LIST*
%ADD10C,0.100000*%
%ADD11C,0.150000*%
G04 APERTURE END LIST*
D10*
X82600000Y-28000000D02*
X252600000Y-28000000D01*
X252600000Y-63000000D01*
X82600000Y-63000000D01*
X82600000Y-28000000D01*
D11*
X112498683Y-79980323D02*
X112498683Y-78980323D01*
X112498683Y-78980323D02*
X112879635Y-78980323D01*
X112879635Y-78980323D02*
X112974873Y-79027942D01*
X112974873Y-79027942D02*
X113022492Y-79075561D01*
X113022492Y-79075561D02*
X113070111Y-79170799D01*
X113070111Y-79170799D02*
X113070111Y-79313656D01*
X113070111Y-79313656D02*
X113022492Y-79408894D01*
X113022492Y-79408894D02*
X112974873Y-79456513D01*
X112974873Y-79456513D02*
X112879635Y-79504132D01*
X112879635Y-79504132D02*
X112498683Y-79504132D01*
X114070111Y-79885084D02*
X114022492Y-79932704D01*
X114022492Y-79932704D02*
X113879635Y-79980323D01*
X113879635Y-79980323D02*
X113784397Y-79980323D01*
X113784397Y-79980323D02*
X113641540Y-79932704D01*
X113641540Y-79932704D02*
X113546302Y-79837465D01*
X113546302Y-79837465D02*
X113498683Y-79742227D01*
X113498683Y-79742227D02*
X113451064Y-79551751D01*
X113451064Y-79551751D02*
X113451064Y-79408894D01*
X113451064Y-79408894D02*
X113498683Y-79218418D01*
X113498683Y-79218418D02*
X113546302Y-79123180D01*
X113546302Y-79123180D02*
X113641540Y-79027942D01*
X113641540Y-79027942D02*
X113784397Y-78980323D01*
X113784397Y-78980323D02*
X113879635Y-78980323D01*
X113879635Y-78980323D02*
X114022492Y-79027942D01*
X114022492Y-79027942D02*
X114070111Y-79075561D01*
X114832016Y-79456513D02*
X114974873Y-79504132D01*
X114974873Y-79504132D02*
X115022492Y-79551751D01*
X115022492Y-79551751D02*
X115070111Y-79646989D01*
X115070111Y-79646989D02*
X115070111Y-79789846D01*
X115070111Y-79789846D02*
X115022492Y-79885084D01*
X115022492Y-79885084D02*
X114974873Y-79932704D01*
X114974873Y-79932704D02*
X114879635Y-79980323D01*
X114879635Y-79980323D02*
X114498683Y-79980323D01*
X114498683Y-79980323D02*
X114498683Y-78980323D01*
X114498683Y-78980323D02*
X114832016Y-78980323D01*
X114832016Y-78980323D02*
X114927254Y-79027942D01*
X114927254Y-79027942D02*
X114974873Y-79075561D01*
X114974873Y-79075561D02*
X115022492Y-79170799D01*
X115022492Y-79170799D02*
X115022492Y-79266037D01*
X115022492Y-79266037D02*
X114974873Y-79361275D01*
X114974873Y-79361275D02*
X114927254Y-79408894D01*
X114927254Y-79408894D02*
X114832016Y-79456513D01*
X114832016Y-79456513D02*
X114498683Y-79456513D01*
X116736778Y-79980323D02*
X116260588Y-79980323D01*
X116260588Y-79980323D02*
X116260588Y-78980323D01*
X117022493Y-79694608D02*
X117498683Y-79694608D01*
X116927255Y-79980323D02*
X117260588Y-78980323D01*
X117260588Y-78980323D02*
X117593921Y-79980323D01*
X118117731Y-79504132D02*
X118117731Y-79980323D01*
X117784398Y-78980323D02*
X118117731Y-79504132D01*
X118117731Y-79504132D02*
X118451064Y-78980323D01*
X118784398Y-79456513D02*
X119117731Y-79456513D01*
X119260588Y-79980323D02*
X118784398Y-79980323D01*
X118784398Y-79980323D02*
X118784398Y-78980323D01*
X118784398Y-78980323D02*
X119260588Y-78980323D01*
X120260588Y-79980323D02*
X119927255Y-79504132D01*
X119689160Y-79980323D02*
X119689160Y-78980323D01*
X119689160Y-78980323D02*
X120070112Y-78980323D01*
X120070112Y-78980323D02*
X120165350Y-79027942D01*
X120165350Y-79027942D02*
X120212969Y-79075561D01*
X120212969Y-79075561D02*
X120260588Y-79170799D01*
X120260588Y-79170799D02*
X120260588Y-79313656D01*
X120260588Y-79313656D02*
X120212969Y-79408894D01*
X120212969Y-79408894D02*
X120165350Y-79456513D01*
X120165350Y-79456513D02*
X120070112Y-79504132D01*
X120070112Y-79504132D02*
X119689160Y-79504132D01*
X121451065Y-79980323D02*
X121451065Y-78980323D01*
X121927255Y-79980323D02*
X121927255Y-78980323D01*
X121927255Y-78980323D02*
X122498683Y-79980323D01*
X122498683Y-79980323D02*
X122498683Y-78980323D01*
X123308207Y-79456513D02*
X122974874Y-79456513D01*
X122974874Y-79980323D02*
X122974874Y-78980323D01*
X122974874Y-78980323D02*
X123451064Y-78980323D01*
X124022493Y-78980323D02*
X124212969Y-78980323D01*
X124212969Y-78980323D02*
X124308207Y-79027942D01*
X124308207Y-79027942D02*
X124403445Y-79123180D01*
X124403445Y-79123180D02*
X124451064Y-79313656D01*
X124451064Y-79313656D02*
X124451064Y-79646989D01*
X124451064Y-79646989D02*
X124403445Y-79837465D01*
X124403445Y-79837465D02*
X124308207Y-79932704D01*
X124308207Y-79932704D02*
X124212969Y-79980323D01*
X124212969Y-79980323D02*
X124022493Y-79980323D01*
X124022493Y-79980323D02*
X123927255Y-79932704D01*
X123927255Y-79932704D02*
X123832017Y-79837465D01*
X123832017Y-79837465D02*
X123784398Y-79646989D01*
X123784398Y-79646989D02*
X123784398Y-79313656D01*
X123784398Y-79313656D02*
X123832017Y-79123180D01*
X123832017Y-79123180D02*
X123927255Y-79027942D01*
X123927255Y-79027942D02*
X124022493Y-78980323D01*
X125451064Y-79980323D02*
X125117731Y-79504132D01*
X124879636Y-79980323D02*
X124879636Y-78980323D01*
X124879636Y-78980323D02*
X125260588Y-78980323D01*
X125260588Y-78980323D02*
X125355826Y-79027942D01*
X125355826Y-79027942D02*
X125403445Y-79075561D01*
X125403445Y-79075561D02*
X125451064Y-79170799D01*
X125451064Y-79170799D02*
X125451064Y-79313656D01*
X125451064Y-79313656D02*
X125403445Y-79408894D01*
X125403445Y-79408894D02*
X125355826Y-79456513D01*
X125355826Y-79456513D02*
X125260588Y-79504132D01*
X125260588Y-79504132D02*
X124879636Y-79504132D01*
X125879636Y-79980323D02*
X125879636Y-78980323D01*
X125879636Y-78980323D02*
X126212969Y-79694608D01*
X126212969Y-79694608D02*
X126546302Y-78980323D01*
X126546302Y-78980323D02*
X126546302Y-79980323D01*
X126974874Y-79694608D02*
X127451064Y-79694608D01*
X126879636Y-79980323D02*
X127212969Y-78980323D01*
X127212969Y-78980323D02*
X127546302Y-79980323D01*
X127736779Y-78980323D02*
X128308207Y-78980323D01*
X128022493Y-79980323D02*
X128022493Y-78980323D01*
X128641541Y-79980323D02*
X128641541Y-78980323D01*
X129308207Y-78980323D02*
X129498683Y-78980323D01*
X129498683Y-78980323D02*
X129593921Y-79027942D01*
X129593921Y-79027942D02*
X129689159Y-79123180D01*
X129689159Y-79123180D02*
X129736778Y-79313656D01*
X129736778Y-79313656D02*
X129736778Y-79646989D01*
X129736778Y-79646989D02*
X129689159Y-79837465D01*
X129689159Y-79837465D02*
X129593921Y-79932704D01*
X129593921Y-79932704D02*
X129498683Y-79980323D01*
X129498683Y-79980323D02*
X129308207Y-79980323D01*
X129308207Y-79980323D02*
X129212969Y-79932704D01*
X129212969Y-79932704D02*
X129117731Y-79837465D01*
X129117731Y-79837465D02*
X129070112Y-79646989D01*
X129070112Y-79646989D02*
X129070112Y-79313656D01*
X129070112Y-79313656D02*
X129117731Y-79123180D01*
X129117731Y-79123180D02*
X129212969Y-79027942D01*
X129212969Y-79027942D02*
X129308207Y-78980323D01*
X130165350Y-79980323D02*
X130165350Y-78980323D01*
X130165350Y-78980323D02*
X130736778Y-79980323D01*
X130736778Y-79980323D02*
X130736778Y-78980323D01*
X96736779Y-83200211D02*
X96736779Y-82200211D01*
X96736779Y-82200211D02*
X96974874Y-82200211D01*
X96974874Y-82200211D02*
X97117731Y-82247830D01*
X97117731Y-82247830D02*
X97212969Y-82343068D01*
X97212969Y-82343068D02*
X97260588Y-82438306D01*
X97260588Y-82438306D02*
X97308207Y-82628782D01*
X97308207Y-82628782D02*
X97308207Y-82771639D01*
X97308207Y-82771639D02*
X97260588Y-82962115D01*
X97260588Y-82962115D02*
X97212969Y-83057353D01*
X97212969Y-83057353D02*
X97117731Y-83152592D01*
X97117731Y-83152592D02*
X96974874Y-83200211D01*
X96974874Y-83200211D02*
X96736779Y-83200211D01*
X97736779Y-82676401D02*
X98070112Y-82676401D01*
X98212969Y-83200211D02*
X97736779Y-83200211D01*
X97736779Y-83200211D02*
X97736779Y-82200211D01*
X97736779Y-82200211D02*
X98212969Y-82200211D01*
X98593922Y-83152592D02*
X98736779Y-83200211D01*
X98736779Y-83200211D02*
X98974874Y-83200211D01*
X98974874Y-83200211D02*
X99070112Y-83152592D01*
X99070112Y-83152592D02*
X99117731Y-83104972D01*
X99117731Y-83104972D02*
X99165350Y-83009734D01*
X99165350Y-83009734D02*
X99165350Y-82914496D01*
X99165350Y-82914496D02*
X99117731Y-82819258D01*
X99117731Y-82819258D02*
X99070112Y-82771639D01*
X99070112Y-82771639D02*
X98974874Y-82724020D01*
X98974874Y-82724020D02*
X98784398Y-82676401D01*
X98784398Y-82676401D02*
X98689160Y-82628782D01*
X98689160Y-82628782D02*
X98641541Y-82581163D01*
X98641541Y-82581163D02*
X98593922Y-82485925D01*
X98593922Y-82485925D02*
X98593922Y-82390687D01*
X98593922Y-82390687D02*
X98641541Y-82295449D01*
X98641541Y-82295449D02*
X98689160Y-82247830D01*
X98689160Y-82247830D02*
X98784398Y-82200211D01*
X98784398Y-82200211D02*
X99022493Y-82200211D01*
X99022493Y-82200211D02*
X99165350Y-82247830D01*
X100165350Y-83104972D02*
X100117731Y-83152592D01*
X100117731Y-83152592D02*
X99974874Y-83200211D01*
X99974874Y-83200211D02*
X99879636Y-83200211D01*
X99879636Y-83200211D02*
X99736779Y-83152592D01*
X99736779Y-83152592D02*
X99641541Y-83057353D01*
X99641541Y-83057353D02*
X99593922Y-82962115D01*
X99593922Y-82962115D02*
X99546303Y-82771639D01*
X99546303Y-82771639D02*
X99546303Y-82628782D01*
X99546303Y-82628782D02*
X99593922Y-82438306D01*
X99593922Y-82438306D02*
X99641541Y-82343068D01*
X99641541Y-82343068D02*
X99736779Y-82247830D01*
X99736779Y-82247830D02*
X99879636Y-82200211D01*
X99879636Y-82200211D02*
X99974874Y-82200211D01*
X99974874Y-82200211D02*
X100117731Y-82247830D01*
X100117731Y-82247830D02*
X100165350Y-82295449D01*
X101165350Y-83200211D02*
X100832017Y-82724020D01*
X100593922Y-83200211D02*
X100593922Y-82200211D01*
X100593922Y-82200211D02*
X100974874Y-82200211D01*
X100974874Y-82200211D02*
X101070112Y-82247830D01*
X101070112Y-82247830D02*
X101117731Y-82295449D01*
X101117731Y-82295449D02*
X101165350Y-82390687D01*
X101165350Y-82390687D02*
X101165350Y-82533544D01*
X101165350Y-82533544D02*
X101117731Y-82628782D01*
X101117731Y-82628782D02*
X101070112Y-82676401D01*
X101070112Y-82676401D02*
X100974874Y-82724020D01*
X100974874Y-82724020D02*
X100593922Y-82724020D01*
X101593922Y-83200211D02*
X101593922Y-82200211D01*
X102070112Y-83200211D02*
X102070112Y-82200211D01*
X102070112Y-82200211D02*
X102451064Y-82200211D01*
X102451064Y-82200211D02*
X102546302Y-82247830D01*
X102546302Y-82247830D02*
X102593921Y-82295449D01*
X102593921Y-82295449D02*
X102641540Y-82390687D01*
X102641540Y-82390687D02*
X102641540Y-82533544D01*
X102641540Y-82533544D02*
X102593921Y-82628782D01*
X102593921Y-82628782D02*
X102546302Y-82676401D01*
X102546302Y-82676401D02*
X102451064Y-82724020D01*
X102451064Y-82724020D02*
X102070112Y-82724020D01*
X102927255Y-82200211D02*
X103498683Y-82200211D01*
X103212969Y-83200211D02*
X103212969Y-82200211D01*
X103832017Y-83200211D02*
X103832017Y-82200211D01*
X104498683Y-82200211D02*
X104689159Y-82200211D01*
X104689159Y-82200211D02*
X104784397Y-82247830D01*
X104784397Y-82247830D02*
X104879635Y-82343068D01*
X104879635Y-82343068D02*
X104927254Y-82533544D01*
X104927254Y-82533544D02*
X104927254Y-82866877D01*
X104927254Y-82866877D02*
X104879635Y-83057353D01*
X104879635Y-83057353D02*
X104784397Y-83152592D01*
X104784397Y-83152592D02*
X104689159Y-83200211D01*
X104689159Y-83200211D02*
X104498683Y-83200211D01*
X104498683Y-83200211D02*
X104403445Y-83152592D01*
X104403445Y-83152592D02*
X104308207Y-83057353D01*
X104308207Y-83057353D02*
X104260588Y-82866877D01*
X104260588Y-82866877D02*
X104260588Y-82533544D01*
X104260588Y-82533544D02*
X104308207Y-82343068D01*
X104308207Y-82343068D02*
X104403445Y-82247830D01*
X104403445Y-82247830D02*
X104498683Y-82200211D01*
X105355826Y-83200211D02*
X105355826Y-82200211D01*
X105355826Y-82200211D02*
X105927254Y-83200211D01*
X105927254Y-83200211D02*
X105927254Y-82200211D01*
X124974873Y-83200211D02*
X124498683Y-83200211D01*
X124498683Y-83200211D02*
X124498683Y-82200211D01*
X125260588Y-82914496D02*
X125736778Y-82914496D01*
X125165350Y-83200211D02*
X125498683Y-82200211D01*
X125498683Y-82200211D02*
X125832016Y-83200211D01*
X126355826Y-82724020D02*
X126355826Y-83200211D01*
X126022493Y-82200211D02*
X126355826Y-82724020D01*
X126355826Y-82724020D02*
X126689159Y-82200211D01*
X127022493Y-82676401D02*
X127355826Y-82676401D01*
X127498683Y-83200211D02*
X127022493Y-83200211D01*
X127022493Y-83200211D02*
X127022493Y-82200211D01*
X127022493Y-82200211D02*
X127498683Y-82200211D01*
X128498683Y-83200211D02*
X128165350Y-82724020D01*
X127927255Y-83200211D02*
X127927255Y-82200211D01*
X127927255Y-82200211D02*
X128308207Y-82200211D01*
X128308207Y-82200211D02*
X128403445Y-82247830D01*
X128403445Y-82247830D02*
X128451064Y-82295449D01*
X128451064Y-82295449D02*
X128498683Y-82390687D01*
X128498683Y-82390687D02*
X128498683Y-82533544D01*
X128498683Y-82533544D02*
X128451064Y-82628782D01*
X128451064Y-82628782D02*
X128403445Y-82676401D01*
X128403445Y-82676401D02*
X128308207Y-82724020D01*
X128308207Y-82724020D02*
X127927255Y-82724020D01*
X132832016Y-82676401D02*
X132498683Y-82676401D01*
X132498683Y-83200211D02*
X132498683Y-82200211D01*
X132498683Y-82200211D02*
X132974873Y-82200211D01*
X133355826Y-83200211D02*
X133355826Y-82200211D01*
X134308206Y-83200211D02*
X133832016Y-83200211D01*
X133832016Y-83200211D02*
X133832016Y-82200211D01*
X134641540Y-82676401D02*
X134974873Y-82676401D01*
X135117730Y-83200211D02*
X134641540Y-83200211D01*
X134641540Y-83200211D02*
X134641540Y-82200211D01*
X134641540Y-82200211D02*
X135117730Y-82200211D01*
X135546302Y-83200211D02*
X135546302Y-82200211D01*
X135546302Y-82200211D02*
X136117730Y-83200211D01*
X136117730Y-83200211D02*
X136117730Y-82200211D01*
X136546302Y-82914496D02*
X137022492Y-82914496D01*
X136451064Y-83200211D02*
X136784397Y-82200211D01*
X136784397Y-82200211D02*
X137117730Y-83200211D01*
X137451064Y-83200211D02*
X137451064Y-82200211D01*
X137451064Y-82200211D02*
X137784397Y-82914496D01*
X137784397Y-82914496D02*
X138117730Y-82200211D01*
X138117730Y-82200211D02*
X138117730Y-83200211D01*
X138593921Y-82676401D02*
X138927254Y-82676401D01*
X139070111Y-83200211D02*
X138593921Y-83200211D01*
X138593921Y-83200211D02*
X138593921Y-82200211D01*
X138593921Y-82200211D02*
X139070111Y-82200211D01*
X96593922Y-83810155D02*
X97165350Y-83810155D01*
X96879636Y-84810155D02*
X96879636Y-83810155D01*
X97689160Y-83810155D02*
X97879636Y-83810155D01*
X97879636Y-83810155D02*
X97974874Y-83857774D01*
X97974874Y-83857774D02*
X98070112Y-83953012D01*
X98070112Y-83953012D02*
X98117731Y-84143488D01*
X98117731Y-84143488D02*
X98117731Y-84476821D01*
X98117731Y-84476821D02*
X98070112Y-84667297D01*
X98070112Y-84667297D02*
X97974874Y-84762536D01*
X97974874Y-84762536D02*
X97879636Y-84810155D01*
X97879636Y-84810155D02*
X97689160Y-84810155D01*
X97689160Y-84810155D02*
X97593922Y-84762536D01*
X97593922Y-84762536D02*
X97498684Y-84667297D01*
X97498684Y-84667297D02*
X97451065Y-84476821D01*
X97451065Y-84476821D02*
X97451065Y-84143488D01*
X97451065Y-84143488D02*
X97498684Y-83953012D01*
X97498684Y-83953012D02*
X97593922Y-83857774D01*
X97593922Y-83857774D02*
X97689160Y-83810155D01*
X98546303Y-84810155D02*
X98546303Y-83810155D01*
X98546303Y-83810155D02*
X98927255Y-83810155D01*
X98927255Y-83810155D02*
X99022493Y-83857774D01*
X99022493Y-83857774D02*
X99070112Y-83905393D01*
X99070112Y-83905393D02*
X99117731Y-84000631D01*
X99117731Y-84000631D02*
X99117731Y-84143488D01*
X99117731Y-84143488D02*
X99070112Y-84238726D01*
X99070112Y-84238726D02*
X99022493Y-84286345D01*
X99022493Y-84286345D02*
X98927255Y-84333964D01*
X98927255Y-84333964D02*
X98546303Y-84333964D01*
X100260589Y-84762536D02*
X100403446Y-84810155D01*
X100403446Y-84810155D02*
X100641541Y-84810155D01*
X100641541Y-84810155D02*
X100736779Y-84762536D01*
X100736779Y-84762536D02*
X100784398Y-84714916D01*
X100784398Y-84714916D02*
X100832017Y-84619678D01*
X100832017Y-84619678D02*
X100832017Y-84524440D01*
X100832017Y-84524440D02*
X100784398Y-84429202D01*
X100784398Y-84429202D02*
X100736779Y-84381583D01*
X100736779Y-84381583D02*
X100641541Y-84333964D01*
X100641541Y-84333964D02*
X100451065Y-84286345D01*
X100451065Y-84286345D02*
X100355827Y-84238726D01*
X100355827Y-84238726D02*
X100308208Y-84191107D01*
X100308208Y-84191107D02*
X100260589Y-84095869D01*
X100260589Y-84095869D02*
X100260589Y-84000631D01*
X100260589Y-84000631D02*
X100308208Y-83905393D01*
X100308208Y-83905393D02*
X100355827Y-83857774D01*
X100355827Y-83857774D02*
X100451065Y-83810155D01*
X100451065Y-83810155D02*
X100689160Y-83810155D01*
X100689160Y-83810155D02*
X100832017Y-83857774D01*
X101260589Y-84810155D02*
X101260589Y-83810155D01*
X102212969Y-84810155D02*
X101736779Y-84810155D01*
X101736779Y-84810155D02*
X101736779Y-83810155D01*
X102546303Y-84810155D02*
X102546303Y-83810155D01*
X103117731Y-84810155D02*
X102689160Y-84238726D01*
X103117731Y-83810155D02*
X102546303Y-84381583D01*
X103498684Y-84762536D02*
X103641541Y-84810155D01*
X103641541Y-84810155D02*
X103879636Y-84810155D01*
X103879636Y-84810155D02*
X103974874Y-84762536D01*
X103974874Y-84762536D02*
X104022493Y-84714916D01*
X104022493Y-84714916D02*
X104070112Y-84619678D01*
X104070112Y-84619678D02*
X104070112Y-84524440D01*
X104070112Y-84524440D02*
X104022493Y-84429202D01*
X104022493Y-84429202D02*
X103974874Y-84381583D01*
X103974874Y-84381583D02*
X103879636Y-84333964D01*
X103879636Y-84333964D02*
X103689160Y-84286345D01*
X103689160Y-84286345D02*
X103593922Y-84238726D01*
X103593922Y-84238726D02*
X103546303Y-84191107D01*
X103546303Y-84191107D02*
X103498684Y-84095869D01*
X103498684Y-84095869D02*
X103498684Y-84000631D01*
X103498684Y-84000631D02*
X103546303Y-83905393D01*
X103546303Y-83905393D02*
X103593922Y-83857774D01*
X103593922Y-83857774D02*
X103689160Y-83810155D01*
X103689160Y-83810155D02*
X103927255Y-83810155D01*
X103927255Y-83810155D02*
X104070112Y-83857774D01*
X105070112Y-84714916D02*
X105022493Y-84762536D01*
X105022493Y-84762536D02*
X104879636Y-84810155D01*
X104879636Y-84810155D02*
X104784398Y-84810155D01*
X104784398Y-84810155D02*
X104641541Y-84762536D01*
X104641541Y-84762536D02*
X104546303Y-84667297D01*
X104546303Y-84667297D02*
X104498684Y-84572059D01*
X104498684Y-84572059D02*
X104451065Y-84381583D01*
X104451065Y-84381583D02*
X104451065Y-84238726D01*
X104451065Y-84238726D02*
X104498684Y-84048250D01*
X104498684Y-84048250D02*
X104546303Y-83953012D01*
X104546303Y-83953012D02*
X104641541Y-83857774D01*
X104641541Y-83857774D02*
X104784398Y-83810155D01*
X104784398Y-83810155D02*
X104879636Y-83810155D01*
X104879636Y-83810155D02*
X105022493Y-83857774D01*
X105022493Y-83857774D02*
X105070112Y-83905393D01*
X106070112Y-84810155D02*
X105736779Y-84333964D01*
X105498684Y-84810155D02*
X105498684Y-83810155D01*
X105498684Y-83810155D02*
X105879636Y-83810155D01*
X105879636Y-83810155D02*
X105974874Y-83857774D01*
X105974874Y-83857774D02*
X106022493Y-83905393D01*
X106022493Y-83905393D02*
X106070112Y-84000631D01*
X106070112Y-84000631D02*
X106070112Y-84143488D01*
X106070112Y-84143488D02*
X106022493Y-84238726D01*
X106022493Y-84238726D02*
X105974874Y-84286345D01*
X105974874Y-84286345D02*
X105879636Y-84333964D01*
X105879636Y-84333964D02*
X105498684Y-84333964D01*
X106498684Y-84286345D02*
X106832017Y-84286345D01*
X106974874Y-84810155D02*
X106498684Y-84810155D01*
X106498684Y-84810155D02*
X106498684Y-83810155D01*
X106498684Y-83810155D02*
X106974874Y-83810155D01*
X107403446Y-84286345D02*
X107736779Y-84286345D01*
X107879636Y-84810155D02*
X107403446Y-84810155D01*
X107403446Y-84810155D02*
X107403446Y-83810155D01*
X107403446Y-83810155D02*
X107879636Y-83810155D01*
X108308208Y-84810155D02*
X108308208Y-83810155D01*
X108308208Y-83810155D02*
X108879636Y-84810155D01*
X108879636Y-84810155D02*
X108879636Y-83810155D01*
X110593922Y-84810155D02*
X110117732Y-84810155D01*
X110117732Y-84810155D02*
X110117732Y-83810155D01*
X110927256Y-84286345D02*
X111260589Y-84286345D01*
X111403446Y-84810155D02*
X110927256Y-84810155D01*
X110927256Y-84810155D02*
X110927256Y-83810155D01*
X110927256Y-83810155D02*
X111403446Y-83810155D01*
X112355827Y-83857774D02*
X112260589Y-83810155D01*
X112260589Y-83810155D02*
X112117732Y-83810155D01*
X112117732Y-83810155D02*
X111974875Y-83857774D01*
X111974875Y-83857774D02*
X111879637Y-83953012D01*
X111879637Y-83953012D02*
X111832018Y-84048250D01*
X111832018Y-84048250D02*
X111784399Y-84238726D01*
X111784399Y-84238726D02*
X111784399Y-84381583D01*
X111784399Y-84381583D02*
X111832018Y-84572059D01*
X111832018Y-84572059D02*
X111879637Y-84667297D01*
X111879637Y-84667297D02*
X111974875Y-84762536D01*
X111974875Y-84762536D02*
X112117732Y-84810155D01*
X112117732Y-84810155D02*
X112212970Y-84810155D01*
X112212970Y-84810155D02*
X112355827Y-84762536D01*
X112355827Y-84762536D02*
X112403446Y-84714916D01*
X112403446Y-84714916D02*
X112403446Y-84381583D01*
X112403446Y-84381583D02*
X112212970Y-84381583D01*
X112832018Y-84286345D02*
X113165351Y-84286345D01*
X113308208Y-84810155D02*
X112832018Y-84810155D01*
X112832018Y-84810155D02*
X112832018Y-83810155D01*
X112832018Y-83810155D02*
X113308208Y-83810155D01*
X113736780Y-84810155D02*
X113736780Y-83810155D01*
X113736780Y-83810155D02*
X114308208Y-84810155D01*
X114308208Y-84810155D02*
X114308208Y-83810155D01*
X114784399Y-84810155D02*
X114784399Y-83810155D01*
X114784399Y-83810155D02*
X115022494Y-83810155D01*
X115022494Y-83810155D02*
X115165351Y-83857774D01*
X115165351Y-83857774D02*
X115260589Y-83953012D01*
X115260589Y-83953012D02*
X115308208Y-84048250D01*
X115308208Y-84048250D02*
X115355827Y-84238726D01*
X115355827Y-84238726D02*
X115355827Y-84381583D01*
X115355827Y-84381583D02*
X115308208Y-84572059D01*
X115308208Y-84572059D02*
X115260589Y-84667297D01*
X115260589Y-84667297D02*
X115165351Y-84762536D01*
X115165351Y-84762536D02*
X115022494Y-84810155D01*
X115022494Y-84810155D02*
X114784399Y-84810155D01*
X115736780Y-84762536D02*
X115879637Y-84810155D01*
X115879637Y-84810155D02*
X116117732Y-84810155D01*
X116117732Y-84810155D02*
X116212970Y-84762536D01*
X116212970Y-84762536D02*
X116260589Y-84714916D01*
X116260589Y-84714916D02*
X116308208Y-84619678D01*
X116308208Y-84619678D02*
X116308208Y-84524440D01*
X116308208Y-84524440D02*
X116260589Y-84429202D01*
X116260589Y-84429202D02*
X116212970Y-84381583D01*
X116212970Y-84381583D02*
X116117732Y-84333964D01*
X116117732Y-84333964D02*
X115927256Y-84286345D01*
X115927256Y-84286345D02*
X115832018Y-84238726D01*
X115832018Y-84238726D02*
X115784399Y-84191107D01*
X115784399Y-84191107D02*
X115736780Y-84095869D01*
X115736780Y-84095869D02*
X115736780Y-84000631D01*
X115736780Y-84000631D02*
X115784399Y-83905393D01*
X115784399Y-83905393D02*
X115832018Y-83857774D01*
X115832018Y-83857774D02*
X115927256Y-83810155D01*
X115927256Y-83810155D02*
X116165351Y-83810155D01*
X116165351Y-83810155D02*
X116308208Y-83857774D01*
X132498683Y-84810155D02*
X132498683Y-83810155D01*
X132498683Y-83810155D02*
X132879635Y-83810155D01*
X132879635Y-83810155D02*
X132974873Y-83857774D01*
X132974873Y-83857774D02*
X133022492Y-83905393D01*
X133022492Y-83905393D02*
X133070111Y-84000631D01*
X133070111Y-84000631D02*
X133070111Y-84143488D01*
X133070111Y-84143488D02*
X133022492Y-84238726D01*
X133022492Y-84238726D02*
X132974873Y-84286345D01*
X132974873Y-84286345D02*
X132879635Y-84333964D01*
X132879635Y-84333964D02*
X132498683Y-84333964D01*
X133498683Y-83810155D02*
X133498683Y-84619678D01*
X133498683Y-84619678D02*
X133546302Y-84714916D01*
X133546302Y-84714916D02*
X133593921Y-84762536D01*
X133593921Y-84762536D02*
X133689159Y-84810155D01*
X133689159Y-84810155D02*
X133879635Y-84810155D01*
X133879635Y-84810155D02*
X133974873Y-84762536D01*
X133974873Y-84762536D02*
X134022492Y-84714916D01*
X134022492Y-84714916D02*
X134070111Y-84619678D01*
X134070111Y-84619678D02*
X134070111Y-83810155D01*
X135022492Y-84810155D02*
X134546302Y-84810155D01*
X134546302Y-84810155D02*
X134546302Y-83810155D01*
X135308207Y-84762536D02*
X135451064Y-84810155D01*
X135451064Y-84810155D02*
X135689159Y-84810155D01*
X135689159Y-84810155D02*
X135784397Y-84762536D01*
X135784397Y-84762536D02*
X135832016Y-84714916D01*
X135832016Y-84714916D02*
X135879635Y-84619678D01*
X135879635Y-84619678D02*
X135879635Y-84524440D01*
X135879635Y-84524440D02*
X135832016Y-84429202D01*
X135832016Y-84429202D02*
X135784397Y-84381583D01*
X135784397Y-84381583D02*
X135689159Y-84333964D01*
X135689159Y-84333964D02*
X135498683Y-84286345D01*
X135498683Y-84286345D02*
X135403445Y-84238726D01*
X135403445Y-84238726D02*
X135355826Y-84191107D01*
X135355826Y-84191107D02*
X135308207Y-84095869D01*
X135308207Y-84095869D02*
X135308207Y-84000631D01*
X135308207Y-84000631D02*
X135355826Y-83905393D01*
X135355826Y-83905393D02*
X135403445Y-83857774D01*
X135403445Y-83857774D02*
X135498683Y-83810155D01*
X135498683Y-83810155D02*
X135736778Y-83810155D01*
X135736778Y-83810155D02*
X135879635Y-83857774D01*
X136260588Y-84524440D02*
X136736778Y-84524440D01*
X136165350Y-84810155D02*
X136498683Y-83810155D01*
X136498683Y-83810155D02*
X136832016Y-84810155D01*
X137736778Y-84810155D02*
X137403445Y-84333964D01*
X137165350Y-84810155D02*
X137165350Y-83810155D01*
X137165350Y-83810155D02*
X137546302Y-83810155D01*
X137546302Y-83810155D02*
X137641540Y-83857774D01*
X137641540Y-83857774D02*
X137689159Y-83905393D01*
X137689159Y-83905393D02*
X137736778Y-84000631D01*
X137736778Y-84000631D02*
X137736778Y-84143488D01*
X137736778Y-84143488D02*
X137689159Y-84238726D01*
X137689159Y-84238726D02*
X137641540Y-84286345D01*
X137641540Y-84286345D02*
X137546302Y-84333964D01*
X137546302Y-84333964D02*
X137165350Y-84333964D01*
X138165350Y-84429202D02*
X138927255Y-84429202D01*
X139736778Y-84286345D02*
X139879635Y-84333964D01*
X139879635Y-84333964D02*
X139927254Y-84381583D01*
X139927254Y-84381583D02*
X139974873Y-84476821D01*
X139974873Y-84476821D02*
X139974873Y-84619678D01*
X139974873Y-84619678D02*
X139927254Y-84714916D01*
X139927254Y-84714916D02*
X139879635Y-84762536D01*
X139879635Y-84762536D02*
X139784397Y-84810155D01*
X139784397Y-84810155D02*
X139403445Y-84810155D01*
X139403445Y-84810155D02*
X139403445Y-83810155D01*
X139403445Y-83810155D02*
X139736778Y-83810155D01*
X139736778Y-83810155D02*
X139832016Y-83857774D01*
X139832016Y-83857774D02*
X139879635Y-83905393D01*
X139879635Y-83905393D02*
X139927254Y-84000631D01*
X139927254Y-84000631D02*
X139927254Y-84095869D01*
X139927254Y-84095869D02*
X139879635Y-84191107D01*
X139879635Y-84191107D02*
X139832016Y-84238726D01*
X139832016Y-84238726D02*
X139736778Y-84286345D01*
X139736778Y-84286345D02*
X139403445Y-84286345D01*
X140974873Y-84810155D02*
X140641540Y-84333964D01*
X140403445Y-84810155D02*
X140403445Y-83810155D01*
X140403445Y-83810155D02*
X140784397Y-83810155D01*
X140784397Y-83810155D02*
X140879635Y-83857774D01*
X140879635Y-83857774D02*
X140927254Y-83905393D01*
X140927254Y-83905393D02*
X140974873Y-84000631D01*
X140974873Y-84000631D02*
X140974873Y-84143488D01*
X140974873Y-84143488D02*
X140927254Y-84238726D01*
X140927254Y-84238726D02*
X140879635Y-84286345D01*
X140879635Y-84286345D02*
X140784397Y-84333964D01*
X140784397Y-84333964D02*
X140403445Y-84333964D01*
X141403445Y-84286345D02*
X141736778Y-84286345D01*
X141879635Y-84810155D02*
X141403445Y-84810155D01*
X141403445Y-84810155D02*
X141403445Y-83810155D01*
X141403445Y-83810155D02*
X141879635Y-83810155D01*
X142260588Y-84524440D02*
X142736778Y-84524440D01*
X142165350Y-84810155D02*
X142498683Y-83810155D01*
X142498683Y-83810155D02*
X142832016Y-84810155D01*
X143165350Y-84810155D02*
X143165350Y-83810155D01*
X143736778Y-84810155D02*
X143308207Y-84238726D01*
X143736778Y-83810155D02*
X143165350Y-84381583D01*
X144355826Y-83810155D02*
X144546302Y-83810155D01*
X144546302Y-83810155D02*
X144641540Y-83857774D01*
X144641540Y-83857774D02*
X144736778Y-83953012D01*
X144736778Y-83953012D02*
X144784397Y-84143488D01*
X144784397Y-84143488D02*
X144784397Y-84476821D01*
X144784397Y-84476821D02*
X144736778Y-84667297D01*
X144736778Y-84667297D02*
X144641540Y-84762536D01*
X144641540Y-84762536D02*
X144546302Y-84810155D01*
X144546302Y-84810155D02*
X144355826Y-84810155D01*
X144355826Y-84810155D02*
X144260588Y-84762536D01*
X144260588Y-84762536D02*
X144165350Y-84667297D01*
X144165350Y-84667297D02*
X144117731Y-84476821D01*
X144117731Y-84476821D02*
X144117731Y-84143488D01*
X144117731Y-84143488D02*
X144165350Y-83953012D01*
X144165350Y-83953012D02*
X144260588Y-83857774D01*
X144260588Y-83857774D02*
X144355826Y-83810155D01*
X145212969Y-83810155D02*
X145212969Y-84619678D01*
X145212969Y-84619678D02*
X145260588Y-84714916D01*
X145260588Y-84714916D02*
X145308207Y-84762536D01*
X145308207Y-84762536D02*
X145403445Y-84810155D01*
X145403445Y-84810155D02*
X145593921Y-84810155D01*
X145593921Y-84810155D02*
X145689159Y-84762536D01*
X145689159Y-84762536D02*
X145736778Y-84714916D01*
X145736778Y-84714916D02*
X145784397Y-84619678D01*
X145784397Y-84619678D02*
X145784397Y-83810155D01*
X146117731Y-83810155D02*
X146689159Y-83810155D01*
X146403445Y-84810155D02*
X146403445Y-83810155D01*
X147022493Y-84429202D02*
X147784398Y-84429202D01*
X148451064Y-83810155D02*
X148546302Y-83810155D01*
X148546302Y-83810155D02*
X148641540Y-83857774D01*
X148641540Y-83857774D02*
X148689159Y-83905393D01*
X148689159Y-83905393D02*
X148736778Y-84000631D01*
X148736778Y-84000631D02*
X148784397Y-84191107D01*
X148784397Y-84191107D02*
X148784397Y-84429202D01*
X148784397Y-84429202D02*
X148736778Y-84619678D01*
X148736778Y-84619678D02*
X148689159Y-84714916D01*
X148689159Y-84714916D02*
X148641540Y-84762536D01*
X148641540Y-84762536D02*
X148546302Y-84810155D01*
X148546302Y-84810155D02*
X148451064Y-84810155D01*
X148451064Y-84810155D02*
X148355826Y-84762536D01*
X148355826Y-84762536D02*
X148308207Y-84714916D01*
X148308207Y-84714916D02*
X148260588Y-84619678D01*
X148260588Y-84619678D02*
X148212969Y-84429202D01*
X148212969Y-84429202D02*
X148212969Y-84191107D01*
X148212969Y-84191107D02*
X148260588Y-84000631D01*
X148260588Y-84000631D02*
X148308207Y-83905393D01*
X148308207Y-83905393D02*
X148355826Y-83857774D01*
X148355826Y-83857774D02*
X148451064Y-83810155D01*
X149736778Y-84810155D02*
X149165350Y-84810155D01*
X149451064Y-84810155D02*
X149451064Y-83810155D01*
X149451064Y-83810155D02*
X149355826Y-83953012D01*
X149355826Y-83953012D02*
X149260588Y-84048250D01*
X149260588Y-84048250D02*
X149165350Y-84095869D01*
X150165350Y-84429202D02*
X150927255Y-84429202D01*
X151260588Y-83810155D02*
X151832016Y-83810155D01*
X151546302Y-84810155D02*
X151546302Y-83810155D01*
X152355826Y-83810155D02*
X152546302Y-83810155D01*
X152546302Y-83810155D02*
X152641540Y-83857774D01*
X152641540Y-83857774D02*
X152736778Y-83953012D01*
X152736778Y-83953012D02*
X152784397Y-84143488D01*
X152784397Y-84143488D02*
X152784397Y-84476821D01*
X152784397Y-84476821D02*
X152736778Y-84667297D01*
X152736778Y-84667297D02*
X152641540Y-84762536D01*
X152641540Y-84762536D02*
X152546302Y-84810155D01*
X152546302Y-84810155D02*
X152355826Y-84810155D01*
X152355826Y-84810155D02*
X152260588Y-84762536D01*
X152260588Y-84762536D02*
X152165350Y-84667297D01*
X152165350Y-84667297D02*
X152117731Y-84476821D01*
X152117731Y-84476821D02*
X152117731Y-84143488D01*
X152117731Y-84143488D02*
X152165350Y-83953012D01*
X152165350Y-83953012D02*
X152260588Y-83857774D01*
X152260588Y-83857774D02*
X152355826Y-83810155D01*
X153212969Y-84810155D02*
X153212969Y-83810155D01*
X153212969Y-83810155D02*
X153593921Y-83810155D01*
X153593921Y-83810155D02*
X153689159Y-83857774D01*
X153689159Y-83857774D02*
X153736778Y-83905393D01*
X153736778Y-83905393D02*
X153784397Y-84000631D01*
X153784397Y-84000631D02*
X153784397Y-84143488D01*
X153784397Y-84143488D02*
X153736778Y-84238726D01*
X153736778Y-84238726D02*
X153689159Y-84286345D01*
X153689159Y-84286345D02*
X153593921Y-84333964D01*
X153593921Y-84333964D02*
X153212969Y-84333964D01*
X154165350Y-84762536D02*
X154308207Y-84810155D01*
X154308207Y-84810155D02*
X154546302Y-84810155D01*
X154546302Y-84810155D02*
X154641540Y-84762536D01*
X154641540Y-84762536D02*
X154689159Y-84714916D01*
X154689159Y-84714916D02*
X154736778Y-84619678D01*
X154736778Y-84619678D02*
X154736778Y-84524440D01*
X154736778Y-84524440D02*
X154689159Y-84429202D01*
X154689159Y-84429202D02*
X154641540Y-84381583D01*
X154641540Y-84381583D02*
X154546302Y-84333964D01*
X154546302Y-84333964D02*
X154355826Y-84286345D01*
X154355826Y-84286345D02*
X154260588Y-84238726D01*
X154260588Y-84238726D02*
X154212969Y-84191107D01*
X154212969Y-84191107D02*
X154165350Y-84095869D01*
X154165350Y-84095869D02*
X154165350Y-84000631D01*
X154165350Y-84000631D02*
X154212969Y-83905393D01*
X154212969Y-83905393D02*
X154260588Y-83857774D01*
X154260588Y-83857774D02*
X154355826Y-83810155D01*
X154355826Y-83810155D02*
X154593921Y-83810155D01*
X154593921Y-83810155D02*
X154736778Y-83857774D01*
X155165350Y-84810155D02*
X155165350Y-83810155D01*
X156117730Y-84810155D02*
X155641540Y-84810155D01*
X155641540Y-84810155D02*
X155641540Y-83810155D01*
X156451064Y-84810155D02*
X156451064Y-83810155D01*
X157022492Y-84810155D02*
X156593921Y-84238726D01*
X157022492Y-83810155D02*
X156451064Y-84381583D01*
X157451064Y-84714916D02*
X157498683Y-84762536D01*
X157498683Y-84762536D02*
X157451064Y-84810155D01*
X157451064Y-84810155D02*
X157403445Y-84762536D01*
X157403445Y-84762536D02*
X157451064Y-84714916D01*
X157451064Y-84714916D02*
X157451064Y-84810155D01*
X158451063Y-83857774D02*
X158355825Y-83810155D01*
X158355825Y-83810155D02*
X158212968Y-83810155D01*
X158212968Y-83810155D02*
X158070111Y-83857774D01*
X158070111Y-83857774D02*
X157974873Y-83953012D01*
X157974873Y-83953012D02*
X157927254Y-84048250D01*
X157927254Y-84048250D02*
X157879635Y-84238726D01*
X157879635Y-84238726D02*
X157879635Y-84381583D01*
X157879635Y-84381583D02*
X157927254Y-84572059D01*
X157927254Y-84572059D02*
X157974873Y-84667297D01*
X157974873Y-84667297D02*
X158070111Y-84762536D01*
X158070111Y-84762536D02*
X158212968Y-84810155D01*
X158212968Y-84810155D02*
X158308206Y-84810155D01*
X158308206Y-84810155D02*
X158451063Y-84762536D01*
X158451063Y-84762536D02*
X158498682Y-84714916D01*
X158498682Y-84714916D02*
X158498682Y-84381583D01*
X158498682Y-84381583D02*
X158308206Y-84381583D01*
X159260587Y-84286345D02*
X159403444Y-84333964D01*
X159403444Y-84333964D02*
X159451063Y-84381583D01*
X159451063Y-84381583D02*
X159498682Y-84476821D01*
X159498682Y-84476821D02*
X159498682Y-84619678D01*
X159498682Y-84619678D02*
X159451063Y-84714916D01*
X159451063Y-84714916D02*
X159403444Y-84762536D01*
X159403444Y-84762536D02*
X159308206Y-84810155D01*
X159308206Y-84810155D02*
X158927254Y-84810155D01*
X158927254Y-84810155D02*
X158927254Y-83810155D01*
X158927254Y-83810155D02*
X159260587Y-83810155D01*
X159260587Y-83810155D02*
X159355825Y-83857774D01*
X159355825Y-83857774D02*
X159403444Y-83905393D01*
X159403444Y-83905393D02*
X159451063Y-84000631D01*
X159451063Y-84000631D02*
X159451063Y-84095869D01*
X159451063Y-84095869D02*
X159403444Y-84191107D01*
X159403444Y-84191107D02*
X159355825Y-84238726D01*
X159355825Y-84238726D02*
X159260587Y-84286345D01*
X159260587Y-84286345D02*
X158927254Y-84286345D01*
X160498682Y-84810155D02*
X160165349Y-84333964D01*
X159927254Y-84810155D02*
X159927254Y-83810155D01*
X159927254Y-83810155D02*
X160308206Y-83810155D01*
X160308206Y-83810155D02*
X160403444Y-83857774D01*
X160403444Y-83857774D02*
X160451063Y-83905393D01*
X160451063Y-83905393D02*
X160498682Y-84000631D01*
X160498682Y-84000631D02*
X160498682Y-84143488D01*
X160498682Y-84143488D02*
X160451063Y-84238726D01*
X160451063Y-84238726D02*
X160403444Y-84286345D01*
X160403444Y-84286345D02*
X160308206Y-84333964D01*
X160308206Y-84333964D02*
X159927254Y-84333964D01*
X96593922Y-85420099D02*
X97165350Y-85420099D01*
X96879636Y-86420099D02*
X96879636Y-85420099D01*
X97689160Y-85420099D02*
X97879636Y-85420099D01*
X97879636Y-85420099D02*
X97974874Y-85467718D01*
X97974874Y-85467718D02*
X98070112Y-85562956D01*
X98070112Y-85562956D02*
X98117731Y-85753432D01*
X98117731Y-85753432D02*
X98117731Y-86086765D01*
X98117731Y-86086765D02*
X98070112Y-86277241D01*
X98070112Y-86277241D02*
X97974874Y-86372480D01*
X97974874Y-86372480D02*
X97879636Y-86420099D01*
X97879636Y-86420099D02*
X97689160Y-86420099D01*
X97689160Y-86420099D02*
X97593922Y-86372480D01*
X97593922Y-86372480D02*
X97498684Y-86277241D01*
X97498684Y-86277241D02*
X97451065Y-86086765D01*
X97451065Y-86086765D02*
X97451065Y-85753432D01*
X97451065Y-85753432D02*
X97498684Y-85562956D01*
X97498684Y-85562956D02*
X97593922Y-85467718D01*
X97593922Y-85467718D02*
X97689160Y-85420099D01*
X98546303Y-86420099D02*
X98546303Y-85420099D01*
X98546303Y-85420099D02*
X98927255Y-85420099D01*
X98927255Y-85420099D02*
X99022493Y-85467718D01*
X99022493Y-85467718D02*
X99070112Y-85515337D01*
X99070112Y-85515337D02*
X99117731Y-85610575D01*
X99117731Y-85610575D02*
X99117731Y-85753432D01*
X99117731Y-85753432D02*
X99070112Y-85848670D01*
X99070112Y-85848670D02*
X99022493Y-85896289D01*
X99022493Y-85896289D02*
X98927255Y-85943908D01*
X98927255Y-85943908D02*
X98546303Y-85943908D01*
X100260589Y-86372480D02*
X100403446Y-86420099D01*
X100403446Y-86420099D02*
X100641541Y-86420099D01*
X100641541Y-86420099D02*
X100736779Y-86372480D01*
X100736779Y-86372480D02*
X100784398Y-86324860D01*
X100784398Y-86324860D02*
X100832017Y-86229622D01*
X100832017Y-86229622D02*
X100832017Y-86134384D01*
X100832017Y-86134384D02*
X100784398Y-86039146D01*
X100784398Y-86039146D02*
X100736779Y-85991527D01*
X100736779Y-85991527D02*
X100641541Y-85943908D01*
X100641541Y-85943908D02*
X100451065Y-85896289D01*
X100451065Y-85896289D02*
X100355827Y-85848670D01*
X100355827Y-85848670D02*
X100308208Y-85801051D01*
X100308208Y-85801051D02*
X100260589Y-85705813D01*
X100260589Y-85705813D02*
X100260589Y-85610575D01*
X100260589Y-85610575D02*
X100308208Y-85515337D01*
X100308208Y-85515337D02*
X100355827Y-85467718D01*
X100355827Y-85467718D02*
X100451065Y-85420099D01*
X100451065Y-85420099D02*
X100689160Y-85420099D01*
X100689160Y-85420099D02*
X100832017Y-85467718D01*
X101451065Y-85420099D02*
X101641541Y-85420099D01*
X101641541Y-85420099D02*
X101736779Y-85467718D01*
X101736779Y-85467718D02*
X101832017Y-85562956D01*
X101832017Y-85562956D02*
X101879636Y-85753432D01*
X101879636Y-85753432D02*
X101879636Y-86086765D01*
X101879636Y-86086765D02*
X101832017Y-86277241D01*
X101832017Y-86277241D02*
X101736779Y-86372480D01*
X101736779Y-86372480D02*
X101641541Y-86420099D01*
X101641541Y-86420099D02*
X101451065Y-86420099D01*
X101451065Y-86420099D02*
X101355827Y-86372480D01*
X101355827Y-86372480D02*
X101260589Y-86277241D01*
X101260589Y-86277241D02*
X101212970Y-86086765D01*
X101212970Y-86086765D02*
X101212970Y-85753432D01*
X101212970Y-85753432D02*
X101260589Y-85562956D01*
X101260589Y-85562956D02*
X101355827Y-85467718D01*
X101355827Y-85467718D02*
X101451065Y-85420099D01*
X102784398Y-86420099D02*
X102308208Y-86420099D01*
X102308208Y-86420099D02*
X102308208Y-85420099D01*
X103117732Y-86420099D02*
X103117732Y-85420099D01*
X103117732Y-85420099D02*
X103355827Y-85420099D01*
X103355827Y-85420099D02*
X103498684Y-85467718D01*
X103498684Y-85467718D02*
X103593922Y-85562956D01*
X103593922Y-85562956D02*
X103641541Y-85658194D01*
X103641541Y-85658194D02*
X103689160Y-85848670D01*
X103689160Y-85848670D02*
X103689160Y-85991527D01*
X103689160Y-85991527D02*
X103641541Y-86182003D01*
X103641541Y-86182003D02*
X103593922Y-86277241D01*
X103593922Y-86277241D02*
X103498684Y-86372480D01*
X103498684Y-86372480D02*
X103355827Y-86420099D01*
X103355827Y-86420099D02*
X103117732Y-86420099D01*
X104117732Y-85896289D02*
X104451065Y-85896289D01*
X104593922Y-86420099D02*
X104117732Y-86420099D01*
X104117732Y-86420099D02*
X104117732Y-85420099D01*
X104117732Y-85420099D02*
X104593922Y-85420099D01*
X105593922Y-86420099D02*
X105260589Y-85943908D01*
X105022494Y-86420099D02*
X105022494Y-85420099D01*
X105022494Y-85420099D02*
X105403446Y-85420099D01*
X105403446Y-85420099D02*
X105498684Y-85467718D01*
X105498684Y-85467718D02*
X105546303Y-85515337D01*
X105546303Y-85515337D02*
X105593922Y-85610575D01*
X105593922Y-85610575D02*
X105593922Y-85753432D01*
X105593922Y-85753432D02*
X105546303Y-85848670D01*
X105546303Y-85848670D02*
X105498684Y-85896289D01*
X105498684Y-85896289D02*
X105403446Y-85943908D01*
X105403446Y-85943908D02*
X105022494Y-85943908D01*
X107355827Y-86420099D02*
X107022494Y-85943908D01*
X106784399Y-86420099D02*
X106784399Y-85420099D01*
X106784399Y-85420099D02*
X107165351Y-85420099D01*
X107165351Y-85420099D02*
X107260589Y-85467718D01*
X107260589Y-85467718D02*
X107308208Y-85515337D01*
X107308208Y-85515337D02*
X107355827Y-85610575D01*
X107355827Y-85610575D02*
X107355827Y-85753432D01*
X107355827Y-85753432D02*
X107308208Y-85848670D01*
X107308208Y-85848670D02*
X107260589Y-85896289D01*
X107260589Y-85896289D02*
X107165351Y-85943908D01*
X107165351Y-85943908D02*
X106784399Y-85943908D01*
X107784399Y-85896289D02*
X108117732Y-85896289D01*
X108260589Y-86420099D02*
X107784399Y-86420099D01*
X107784399Y-86420099D02*
X107784399Y-85420099D01*
X107784399Y-85420099D02*
X108260589Y-85420099D01*
X108641542Y-86372480D02*
X108784399Y-86420099D01*
X108784399Y-86420099D02*
X109022494Y-86420099D01*
X109022494Y-86420099D02*
X109117732Y-86372480D01*
X109117732Y-86372480D02*
X109165351Y-86324860D01*
X109165351Y-86324860D02*
X109212970Y-86229622D01*
X109212970Y-86229622D02*
X109212970Y-86134384D01*
X109212970Y-86134384D02*
X109165351Y-86039146D01*
X109165351Y-86039146D02*
X109117732Y-85991527D01*
X109117732Y-85991527D02*
X109022494Y-85943908D01*
X109022494Y-85943908D02*
X108832018Y-85896289D01*
X108832018Y-85896289D02*
X108736780Y-85848670D01*
X108736780Y-85848670D02*
X108689161Y-85801051D01*
X108689161Y-85801051D02*
X108641542Y-85705813D01*
X108641542Y-85705813D02*
X108641542Y-85610575D01*
X108641542Y-85610575D02*
X108689161Y-85515337D01*
X108689161Y-85515337D02*
X108736780Y-85467718D01*
X108736780Y-85467718D02*
X108832018Y-85420099D01*
X108832018Y-85420099D02*
X109070113Y-85420099D01*
X109070113Y-85420099D02*
X109212970Y-85467718D01*
X109641542Y-86420099D02*
X109641542Y-85420099D01*
X110070113Y-86372480D02*
X110212970Y-86420099D01*
X110212970Y-86420099D02*
X110451065Y-86420099D01*
X110451065Y-86420099D02*
X110546303Y-86372480D01*
X110546303Y-86372480D02*
X110593922Y-86324860D01*
X110593922Y-86324860D02*
X110641541Y-86229622D01*
X110641541Y-86229622D02*
X110641541Y-86134384D01*
X110641541Y-86134384D02*
X110593922Y-86039146D01*
X110593922Y-86039146D02*
X110546303Y-85991527D01*
X110546303Y-85991527D02*
X110451065Y-85943908D01*
X110451065Y-85943908D02*
X110260589Y-85896289D01*
X110260589Y-85896289D02*
X110165351Y-85848670D01*
X110165351Y-85848670D02*
X110117732Y-85801051D01*
X110117732Y-85801051D02*
X110070113Y-85705813D01*
X110070113Y-85705813D02*
X110070113Y-85610575D01*
X110070113Y-85610575D02*
X110117732Y-85515337D01*
X110117732Y-85515337D02*
X110165351Y-85467718D01*
X110165351Y-85467718D02*
X110260589Y-85420099D01*
X110260589Y-85420099D02*
X110498684Y-85420099D01*
X110498684Y-85420099D02*
X110641541Y-85467718D01*
X110927256Y-85420099D02*
X111498684Y-85420099D01*
X111212970Y-86420099D02*
X111212970Y-85420099D01*
X132498683Y-86420099D02*
X132498683Y-85420099D01*
X132498683Y-85420099D02*
X132879635Y-85420099D01*
X132879635Y-85420099D02*
X132974873Y-85467718D01*
X132974873Y-85467718D02*
X133022492Y-85515337D01*
X133022492Y-85515337D02*
X133070111Y-85610575D01*
X133070111Y-85610575D02*
X133070111Y-85753432D01*
X133070111Y-85753432D02*
X133022492Y-85848670D01*
X133022492Y-85848670D02*
X132974873Y-85896289D01*
X132974873Y-85896289D02*
X132879635Y-85943908D01*
X132879635Y-85943908D02*
X132498683Y-85943908D01*
X133498683Y-85420099D02*
X133498683Y-86229622D01*
X133498683Y-86229622D02*
X133546302Y-86324860D01*
X133546302Y-86324860D02*
X133593921Y-86372480D01*
X133593921Y-86372480D02*
X133689159Y-86420099D01*
X133689159Y-86420099D02*
X133879635Y-86420099D01*
X133879635Y-86420099D02*
X133974873Y-86372480D01*
X133974873Y-86372480D02*
X134022492Y-86324860D01*
X134022492Y-86324860D02*
X134070111Y-86229622D01*
X134070111Y-86229622D02*
X134070111Y-85420099D01*
X135022492Y-86420099D02*
X134546302Y-86420099D01*
X134546302Y-86420099D02*
X134546302Y-85420099D01*
X135308207Y-86372480D02*
X135451064Y-86420099D01*
X135451064Y-86420099D02*
X135689159Y-86420099D01*
X135689159Y-86420099D02*
X135784397Y-86372480D01*
X135784397Y-86372480D02*
X135832016Y-86324860D01*
X135832016Y-86324860D02*
X135879635Y-86229622D01*
X135879635Y-86229622D02*
X135879635Y-86134384D01*
X135879635Y-86134384D02*
X135832016Y-86039146D01*
X135832016Y-86039146D02*
X135784397Y-85991527D01*
X135784397Y-85991527D02*
X135689159Y-85943908D01*
X135689159Y-85943908D02*
X135498683Y-85896289D01*
X135498683Y-85896289D02*
X135403445Y-85848670D01*
X135403445Y-85848670D02*
X135355826Y-85801051D01*
X135355826Y-85801051D02*
X135308207Y-85705813D01*
X135308207Y-85705813D02*
X135308207Y-85610575D01*
X135308207Y-85610575D02*
X135355826Y-85515337D01*
X135355826Y-85515337D02*
X135403445Y-85467718D01*
X135403445Y-85467718D02*
X135498683Y-85420099D01*
X135498683Y-85420099D02*
X135736778Y-85420099D01*
X135736778Y-85420099D02*
X135879635Y-85467718D01*
X136260588Y-86134384D02*
X136736778Y-86134384D01*
X136165350Y-86420099D02*
X136498683Y-85420099D01*
X136498683Y-85420099D02*
X136832016Y-86420099D01*
X137736778Y-86420099D02*
X137403445Y-85943908D01*
X137165350Y-86420099D02*
X137165350Y-85420099D01*
X137165350Y-85420099D02*
X137546302Y-85420099D01*
X137546302Y-85420099D02*
X137641540Y-85467718D01*
X137641540Y-85467718D02*
X137689159Y-85515337D01*
X137689159Y-85515337D02*
X137736778Y-85610575D01*
X137736778Y-85610575D02*
X137736778Y-85753432D01*
X137736778Y-85753432D02*
X137689159Y-85848670D01*
X137689159Y-85848670D02*
X137641540Y-85896289D01*
X137641540Y-85896289D02*
X137546302Y-85943908D01*
X137546302Y-85943908D02*
X137165350Y-85943908D01*
X138165350Y-86039146D02*
X138927255Y-86039146D01*
X139736778Y-85896289D02*
X139879635Y-85943908D01*
X139879635Y-85943908D02*
X139927254Y-85991527D01*
X139927254Y-85991527D02*
X139974873Y-86086765D01*
X139974873Y-86086765D02*
X139974873Y-86229622D01*
X139974873Y-86229622D02*
X139927254Y-86324860D01*
X139927254Y-86324860D02*
X139879635Y-86372480D01*
X139879635Y-86372480D02*
X139784397Y-86420099D01*
X139784397Y-86420099D02*
X139403445Y-86420099D01*
X139403445Y-86420099D02*
X139403445Y-85420099D01*
X139403445Y-85420099D02*
X139736778Y-85420099D01*
X139736778Y-85420099D02*
X139832016Y-85467718D01*
X139832016Y-85467718D02*
X139879635Y-85515337D01*
X139879635Y-85515337D02*
X139927254Y-85610575D01*
X139927254Y-85610575D02*
X139927254Y-85705813D01*
X139927254Y-85705813D02*
X139879635Y-85801051D01*
X139879635Y-85801051D02*
X139832016Y-85848670D01*
X139832016Y-85848670D02*
X139736778Y-85896289D01*
X139736778Y-85896289D02*
X139403445Y-85896289D01*
X140974873Y-86420099D02*
X140641540Y-85943908D01*
X140403445Y-86420099D02*
X140403445Y-85420099D01*
X140403445Y-85420099D02*
X140784397Y-85420099D01*
X140784397Y-85420099D02*
X140879635Y-85467718D01*
X140879635Y-85467718D02*
X140927254Y-85515337D01*
X140927254Y-85515337D02*
X140974873Y-85610575D01*
X140974873Y-85610575D02*
X140974873Y-85753432D01*
X140974873Y-85753432D02*
X140927254Y-85848670D01*
X140927254Y-85848670D02*
X140879635Y-85896289D01*
X140879635Y-85896289D02*
X140784397Y-85943908D01*
X140784397Y-85943908D02*
X140403445Y-85943908D01*
X141403445Y-85896289D02*
X141736778Y-85896289D01*
X141879635Y-86420099D02*
X141403445Y-86420099D01*
X141403445Y-86420099D02*
X141403445Y-85420099D01*
X141403445Y-85420099D02*
X141879635Y-85420099D01*
X142260588Y-86134384D02*
X142736778Y-86134384D01*
X142165350Y-86420099D02*
X142498683Y-85420099D01*
X142498683Y-85420099D02*
X142832016Y-86420099D01*
X143165350Y-86420099D02*
X143165350Y-85420099D01*
X143736778Y-86420099D02*
X143308207Y-85848670D01*
X143736778Y-85420099D02*
X143165350Y-85991527D01*
X144355826Y-85420099D02*
X144546302Y-85420099D01*
X144546302Y-85420099D02*
X144641540Y-85467718D01*
X144641540Y-85467718D02*
X144736778Y-85562956D01*
X144736778Y-85562956D02*
X144784397Y-85753432D01*
X144784397Y-85753432D02*
X144784397Y-86086765D01*
X144784397Y-86086765D02*
X144736778Y-86277241D01*
X144736778Y-86277241D02*
X144641540Y-86372480D01*
X144641540Y-86372480D02*
X144546302Y-86420099D01*
X144546302Y-86420099D02*
X144355826Y-86420099D01*
X144355826Y-86420099D02*
X144260588Y-86372480D01*
X144260588Y-86372480D02*
X144165350Y-86277241D01*
X144165350Y-86277241D02*
X144117731Y-86086765D01*
X144117731Y-86086765D02*
X144117731Y-85753432D01*
X144117731Y-85753432D02*
X144165350Y-85562956D01*
X144165350Y-85562956D02*
X144260588Y-85467718D01*
X144260588Y-85467718D02*
X144355826Y-85420099D01*
X145212969Y-85420099D02*
X145212969Y-86229622D01*
X145212969Y-86229622D02*
X145260588Y-86324860D01*
X145260588Y-86324860D02*
X145308207Y-86372480D01*
X145308207Y-86372480D02*
X145403445Y-86420099D01*
X145403445Y-86420099D02*
X145593921Y-86420099D01*
X145593921Y-86420099D02*
X145689159Y-86372480D01*
X145689159Y-86372480D02*
X145736778Y-86324860D01*
X145736778Y-86324860D02*
X145784397Y-86229622D01*
X145784397Y-86229622D02*
X145784397Y-85420099D01*
X146117731Y-85420099D02*
X146689159Y-85420099D01*
X146403445Y-86420099D02*
X146403445Y-85420099D01*
X147022493Y-86039146D02*
X147784398Y-86039146D01*
X148451064Y-85420099D02*
X148546302Y-85420099D01*
X148546302Y-85420099D02*
X148641540Y-85467718D01*
X148641540Y-85467718D02*
X148689159Y-85515337D01*
X148689159Y-85515337D02*
X148736778Y-85610575D01*
X148736778Y-85610575D02*
X148784397Y-85801051D01*
X148784397Y-85801051D02*
X148784397Y-86039146D01*
X148784397Y-86039146D02*
X148736778Y-86229622D01*
X148736778Y-86229622D02*
X148689159Y-86324860D01*
X148689159Y-86324860D02*
X148641540Y-86372480D01*
X148641540Y-86372480D02*
X148546302Y-86420099D01*
X148546302Y-86420099D02*
X148451064Y-86420099D01*
X148451064Y-86420099D02*
X148355826Y-86372480D01*
X148355826Y-86372480D02*
X148308207Y-86324860D01*
X148308207Y-86324860D02*
X148260588Y-86229622D01*
X148260588Y-86229622D02*
X148212969Y-86039146D01*
X148212969Y-86039146D02*
X148212969Y-85801051D01*
X148212969Y-85801051D02*
X148260588Y-85610575D01*
X148260588Y-85610575D02*
X148308207Y-85515337D01*
X148308207Y-85515337D02*
X148355826Y-85467718D01*
X148355826Y-85467718D02*
X148451064Y-85420099D01*
X149736778Y-86420099D02*
X149165350Y-86420099D01*
X149451064Y-86420099D02*
X149451064Y-85420099D01*
X149451064Y-85420099D02*
X149355826Y-85562956D01*
X149355826Y-85562956D02*
X149260588Y-85658194D01*
X149260588Y-85658194D02*
X149165350Y-85705813D01*
X150165350Y-86039146D02*
X150927255Y-86039146D01*
X151260588Y-85420099D02*
X151832016Y-85420099D01*
X151546302Y-86420099D02*
X151546302Y-85420099D01*
X152355826Y-85420099D02*
X152546302Y-85420099D01*
X152546302Y-85420099D02*
X152641540Y-85467718D01*
X152641540Y-85467718D02*
X152736778Y-85562956D01*
X152736778Y-85562956D02*
X152784397Y-85753432D01*
X152784397Y-85753432D02*
X152784397Y-86086765D01*
X152784397Y-86086765D02*
X152736778Y-86277241D01*
X152736778Y-86277241D02*
X152641540Y-86372480D01*
X152641540Y-86372480D02*
X152546302Y-86420099D01*
X152546302Y-86420099D02*
X152355826Y-86420099D01*
X152355826Y-86420099D02*
X152260588Y-86372480D01*
X152260588Y-86372480D02*
X152165350Y-86277241D01*
X152165350Y-86277241D02*
X152117731Y-86086765D01*
X152117731Y-86086765D02*
X152117731Y-85753432D01*
X152117731Y-85753432D02*
X152165350Y-85562956D01*
X152165350Y-85562956D02*
X152260588Y-85467718D01*
X152260588Y-85467718D02*
X152355826Y-85420099D01*
X153212969Y-86420099D02*
X153212969Y-85420099D01*
X153212969Y-85420099D02*
X153593921Y-85420099D01*
X153593921Y-85420099D02*
X153689159Y-85467718D01*
X153689159Y-85467718D02*
X153736778Y-85515337D01*
X153736778Y-85515337D02*
X153784397Y-85610575D01*
X153784397Y-85610575D02*
X153784397Y-85753432D01*
X153784397Y-85753432D02*
X153736778Y-85848670D01*
X153736778Y-85848670D02*
X153689159Y-85896289D01*
X153689159Y-85896289D02*
X153593921Y-85943908D01*
X153593921Y-85943908D02*
X153212969Y-85943908D01*
X154784397Y-86420099D02*
X154451064Y-85943908D01*
X154212969Y-86420099D02*
X154212969Y-85420099D01*
X154212969Y-85420099D02*
X154593921Y-85420099D01*
X154593921Y-85420099D02*
X154689159Y-85467718D01*
X154689159Y-85467718D02*
X154736778Y-85515337D01*
X154736778Y-85515337D02*
X154784397Y-85610575D01*
X154784397Y-85610575D02*
X154784397Y-85753432D01*
X154784397Y-85753432D02*
X154736778Y-85848670D01*
X154736778Y-85848670D02*
X154689159Y-85896289D01*
X154689159Y-85896289D02*
X154593921Y-85943908D01*
X154593921Y-85943908D02*
X154212969Y-85943908D01*
X155212969Y-85896289D02*
X155546302Y-85896289D01*
X155689159Y-86420099D02*
X155212969Y-86420099D01*
X155212969Y-86420099D02*
X155212969Y-85420099D01*
X155212969Y-85420099D02*
X155689159Y-85420099D01*
X156070112Y-86372480D02*
X156212969Y-86420099D01*
X156212969Y-86420099D02*
X156451064Y-86420099D01*
X156451064Y-86420099D02*
X156546302Y-86372480D01*
X156546302Y-86372480D02*
X156593921Y-86324860D01*
X156593921Y-86324860D02*
X156641540Y-86229622D01*
X156641540Y-86229622D02*
X156641540Y-86134384D01*
X156641540Y-86134384D02*
X156593921Y-86039146D01*
X156593921Y-86039146D02*
X156546302Y-85991527D01*
X156546302Y-85991527D02*
X156451064Y-85943908D01*
X156451064Y-85943908D02*
X156260588Y-85896289D01*
X156260588Y-85896289D02*
X156165350Y-85848670D01*
X156165350Y-85848670D02*
X156117731Y-85801051D01*
X156117731Y-85801051D02*
X156070112Y-85705813D01*
X156070112Y-85705813D02*
X156070112Y-85610575D01*
X156070112Y-85610575D02*
X156117731Y-85515337D01*
X156117731Y-85515337D02*
X156165350Y-85467718D01*
X156165350Y-85467718D02*
X156260588Y-85420099D01*
X156260588Y-85420099D02*
X156498683Y-85420099D01*
X156498683Y-85420099D02*
X156641540Y-85467718D01*
X157070112Y-86420099D02*
X157070112Y-85420099D01*
X157498683Y-86372480D02*
X157641540Y-86420099D01*
X157641540Y-86420099D02*
X157879635Y-86420099D01*
X157879635Y-86420099D02*
X157974873Y-86372480D01*
X157974873Y-86372480D02*
X158022492Y-86324860D01*
X158022492Y-86324860D02*
X158070111Y-86229622D01*
X158070111Y-86229622D02*
X158070111Y-86134384D01*
X158070111Y-86134384D02*
X158022492Y-86039146D01*
X158022492Y-86039146D02*
X157974873Y-85991527D01*
X157974873Y-85991527D02*
X157879635Y-85943908D01*
X157879635Y-85943908D02*
X157689159Y-85896289D01*
X157689159Y-85896289D02*
X157593921Y-85848670D01*
X157593921Y-85848670D02*
X157546302Y-85801051D01*
X157546302Y-85801051D02*
X157498683Y-85705813D01*
X157498683Y-85705813D02*
X157498683Y-85610575D01*
X157498683Y-85610575D02*
X157546302Y-85515337D01*
X157546302Y-85515337D02*
X157593921Y-85467718D01*
X157593921Y-85467718D02*
X157689159Y-85420099D01*
X157689159Y-85420099D02*
X157927254Y-85420099D01*
X157927254Y-85420099D02*
X158070111Y-85467718D01*
X158355826Y-85420099D02*
X158927254Y-85420099D01*
X158641540Y-86420099D02*
X158641540Y-85420099D01*
X159260588Y-86324860D02*
X159308207Y-86372480D01*
X159308207Y-86372480D02*
X159260588Y-86420099D01*
X159260588Y-86420099D02*
X159212969Y-86372480D01*
X159212969Y-86372480D02*
X159260588Y-86324860D01*
X159260588Y-86324860D02*
X159260588Y-86420099D01*
X160260587Y-85467718D02*
X160165349Y-85420099D01*
X160165349Y-85420099D02*
X160022492Y-85420099D01*
X160022492Y-85420099D02*
X159879635Y-85467718D01*
X159879635Y-85467718D02*
X159784397Y-85562956D01*
X159784397Y-85562956D02*
X159736778Y-85658194D01*
X159736778Y-85658194D02*
X159689159Y-85848670D01*
X159689159Y-85848670D02*
X159689159Y-85991527D01*
X159689159Y-85991527D02*
X159736778Y-86182003D01*
X159736778Y-86182003D02*
X159784397Y-86277241D01*
X159784397Y-86277241D02*
X159879635Y-86372480D01*
X159879635Y-86372480D02*
X160022492Y-86420099D01*
X160022492Y-86420099D02*
X160117730Y-86420099D01*
X160117730Y-86420099D02*
X160260587Y-86372480D01*
X160260587Y-86372480D02*
X160308206Y-86324860D01*
X160308206Y-86324860D02*
X160308206Y-85991527D01*
X160308206Y-85991527D02*
X160117730Y-85991527D01*
X161070111Y-85896289D02*
X161212968Y-85943908D01*
X161212968Y-85943908D02*
X161260587Y-85991527D01*
X161260587Y-85991527D02*
X161308206Y-86086765D01*
X161308206Y-86086765D02*
X161308206Y-86229622D01*
X161308206Y-86229622D02*
X161260587Y-86324860D01*
X161260587Y-86324860D02*
X161212968Y-86372480D01*
X161212968Y-86372480D02*
X161117730Y-86420099D01*
X161117730Y-86420099D02*
X160736778Y-86420099D01*
X160736778Y-86420099D02*
X160736778Y-85420099D01*
X160736778Y-85420099D02*
X161070111Y-85420099D01*
X161070111Y-85420099D02*
X161165349Y-85467718D01*
X161165349Y-85467718D02*
X161212968Y-85515337D01*
X161212968Y-85515337D02*
X161260587Y-85610575D01*
X161260587Y-85610575D02*
X161260587Y-85705813D01*
X161260587Y-85705813D02*
X161212968Y-85801051D01*
X161212968Y-85801051D02*
X161165349Y-85848670D01*
X161165349Y-85848670D02*
X161070111Y-85896289D01*
X161070111Y-85896289D02*
X160736778Y-85896289D01*
X162308206Y-86420099D02*
X161974873Y-85943908D01*
X161736778Y-86420099D02*
X161736778Y-85420099D01*
X161736778Y-85420099D02*
X162117730Y-85420099D01*
X162117730Y-85420099D02*
X162212968Y-85467718D01*
X162212968Y-85467718D02*
X162260587Y-85515337D01*
X162260587Y-85515337D02*
X162308206Y-85610575D01*
X162308206Y-85610575D02*
X162308206Y-85753432D01*
X162308206Y-85753432D02*
X162260587Y-85848670D01*
X162260587Y-85848670D02*
X162212968Y-85896289D01*
X162212968Y-85896289D02*
X162117730Y-85943908D01*
X162117730Y-85943908D02*
X161736778Y-85943908D01*
X96593922Y-87030043D02*
X97165350Y-87030043D01*
X96879636Y-88030043D02*
X96879636Y-87030043D01*
X97689160Y-87030043D02*
X97879636Y-87030043D01*
X97879636Y-87030043D02*
X97974874Y-87077662D01*
X97974874Y-87077662D02*
X98070112Y-87172900D01*
X98070112Y-87172900D02*
X98117731Y-87363376D01*
X98117731Y-87363376D02*
X98117731Y-87696709D01*
X98117731Y-87696709D02*
X98070112Y-87887185D01*
X98070112Y-87887185D02*
X97974874Y-87982424D01*
X97974874Y-87982424D02*
X97879636Y-88030043D01*
X97879636Y-88030043D02*
X97689160Y-88030043D01*
X97689160Y-88030043D02*
X97593922Y-87982424D01*
X97593922Y-87982424D02*
X97498684Y-87887185D01*
X97498684Y-87887185D02*
X97451065Y-87696709D01*
X97451065Y-87696709D02*
X97451065Y-87363376D01*
X97451065Y-87363376D02*
X97498684Y-87172900D01*
X97498684Y-87172900D02*
X97593922Y-87077662D01*
X97593922Y-87077662D02*
X97689160Y-87030043D01*
X98546303Y-88030043D02*
X98546303Y-87030043D01*
X98546303Y-87030043D02*
X98927255Y-87030043D01*
X98927255Y-87030043D02*
X99022493Y-87077662D01*
X99022493Y-87077662D02*
X99070112Y-87125281D01*
X99070112Y-87125281D02*
X99117731Y-87220519D01*
X99117731Y-87220519D02*
X99117731Y-87363376D01*
X99117731Y-87363376D02*
X99070112Y-87458614D01*
X99070112Y-87458614D02*
X99022493Y-87506233D01*
X99022493Y-87506233D02*
X98927255Y-87553852D01*
X98927255Y-87553852D02*
X98546303Y-87553852D01*
X100308208Y-87506233D02*
X100641541Y-87506233D01*
X100784398Y-88030043D02*
X100308208Y-88030043D01*
X100308208Y-88030043D02*
X100308208Y-87030043D01*
X100308208Y-87030043D02*
X100784398Y-87030043D01*
X101689160Y-88030043D02*
X101212970Y-88030043D01*
X101212970Y-88030043D02*
X101212970Y-87030043D01*
X102022494Y-87506233D02*
X102355827Y-87506233D01*
X102498684Y-88030043D02*
X102022494Y-88030043D01*
X102022494Y-88030043D02*
X102022494Y-87030043D01*
X102022494Y-87030043D02*
X102498684Y-87030043D01*
X103498684Y-87934804D02*
X103451065Y-87982424D01*
X103451065Y-87982424D02*
X103308208Y-88030043D01*
X103308208Y-88030043D02*
X103212970Y-88030043D01*
X103212970Y-88030043D02*
X103070113Y-87982424D01*
X103070113Y-87982424D02*
X102974875Y-87887185D01*
X102974875Y-87887185D02*
X102927256Y-87791947D01*
X102927256Y-87791947D02*
X102879637Y-87601471D01*
X102879637Y-87601471D02*
X102879637Y-87458614D01*
X102879637Y-87458614D02*
X102927256Y-87268138D01*
X102927256Y-87268138D02*
X102974875Y-87172900D01*
X102974875Y-87172900D02*
X103070113Y-87077662D01*
X103070113Y-87077662D02*
X103212970Y-87030043D01*
X103212970Y-87030043D02*
X103308208Y-87030043D01*
X103308208Y-87030043D02*
X103451065Y-87077662D01*
X103451065Y-87077662D02*
X103498684Y-87125281D01*
X103784399Y-87030043D02*
X104355827Y-87030043D01*
X104070113Y-88030043D02*
X104070113Y-87030043D01*
X105260589Y-88030043D02*
X104927256Y-87553852D01*
X104689161Y-88030043D02*
X104689161Y-87030043D01*
X104689161Y-87030043D02*
X105070113Y-87030043D01*
X105070113Y-87030043D02*
X105165351Y-87077662D01*
X105165351Y-87077662D02*
X105212970Y-87125281D01*
X105212970Y-87125281D02*
X105260589Y-87220519D01*
X105260589Y-87220519D02*
X105260589Y-87363376D01*
X105260589Y-87363376D02*
X105212970Y-87458614D01*
X105212970Y-87458614D02*
X105165351Y-87506233D01*
X105165351Y-87506233D02*
X105070113Y-87553852D01*
X105070113Y-87553852D02*
X104689161Y-87553852D01*
X105689161Y-88030043D02*
X105689161Y-87030043D01*
X106736779Y-87934804D02*
X106689160Y-87982424D01*
X106689160Y-87982424D02*
X106546303Y-88030043D01*
X106546303Y-88030043D02*
X106451065Y-88030043D01*
X106451065Y-88030043D02*
X106308208Y-87982424D01*
X106308208Y-87982424D02*
X106212970Y-87887185D01*
X106212970Y-87887185D02*
X106165351Y-87791947D01*
X106165351Y-87791947D02*
X106117732Y-87601471D01*
X106117732Y-87601471D02*
X106117732Y-87458614D01*
X106117732Y-87458614D02*
X106165351Y-87268138D01*
X106165351Y-87268138D02*
X106212970Y-87172900D01*
X106212970Y-87172900D02*
X106308208Y-87077662D01*
X106308208Y-87077662D02*
X106451065Y-87030043D01*
X106451065Y-87030043D02*
X106546303Y-87030043D01*
X106546303Y-87030043D02*
X106689160Y-87077662D01*
X106689160Y-87077662D02*
X106736779Y-87125281D01*
X107117732Y-87744328D02*
X107593922Y-87744328D01*
X107022494Y-88030043D02*
X107355827Y-87030043D01*
X107355827Y-87030043D02*
X107689160Y-88030043D01*
X108498684Y-88030043D02*
X108022494Y-88030043D01*
X108022494Y-88030043D02*
X108022494Y-87030043D01*
X125022492Y-88030043D02*
X124451064Y-88030043D01*
X124736778Y-88030043D02*
X124736778Y-87030043D01*
X124736778Y-87030043D02*
X124641540Y-87172900D01*
X124641540Y-87172900D02*
X124546302Y-87268138D01*
X124546302Y-87268138D02*
X124451064Y-87315757D01*
X132498683Y-88030043D02*
X132498683Y-87030043D01*
X132498683Y-87030043D02*
X132879635Y-87030043D01*
X132879635Y-87030043D02*
X132974873Y-87077662D01*
X132974873Y-87077662D02*
X133022492Y-87125281D01*
X133022492Y-87125281D02*
X133070111Y-87220519D01*
X133070111Y-87220519D02*
X133070111Y-87363376D01*
X133070111Y-87363376D02*
X133022492Y-87458614D01*
X133022492Y-87458614D02*
X132974873Y-87506233D01*
X132974873Y-87506233D02*
X132879635Y-87553852D01*
X132879635Y-87553852D02*
X132498683Y-87553852D01*
X133498683Y-87030043D02*
X133498683Y-87839566D01*
X133498683Y-87839566D02*
X133546302Y-87934804D01*
X133546302Y-87934804D02*
X133593921Y-87982424D01*
X133593921Y-87982424D02*
X133689159Y-88030043D01*
X133689159Y-88030043D02*
X133879635Y-88030043D01*
X133879635Y-88030043D02*
X133974873Y-87982424D01*
X133974873Y-87982424D02*
X134022492Y-87934804D01*
X134022492Y-87934804D02*
X134070111Y-87839566D01*
X134070111Y-87839566D02*
X134070111Y-87030043D01*
X135022492Y-88030043D02*
X134546302Y-88030043D01*
X134546302Y-88030043D02*
X134546302Y-87030043D01*
X135308207Y-87982424D02*
X135451064Y-88030043D01*
X135451064Y-88030043D02*
X135689159Y-88030043D01*
X135689159Y-88030043D02*
X135784397Y-87982424D01*
X135784397Y-87982424D02*
X135832016Y-87934804D01*
X135832016Y-87934804D02*
X135879635Y-87839566D01*
X135879635Y-87839566D02*
X135879635Y-87744328D01*
X135879635Y-87744328D02*
X135832016Y-87649090D01*
X135832016Y-87649090D02*
X135784397Y-87601471D01*
X135784397Y-87601471D02*
X135689159Y-87553852D01*
X135689159Y-87553852D02*
X135498683Y-87506233D01*
X135498683Y-87506233D02*
X135403445Y-87458614D01*
X135403445Y-87458614D02*
X135355826Y-87410995D01*
X135355826Y-87410995D02*
X135308207Y-87315757D01*
X135308207Y-87315757D02*
X135308207Y-87220519D01*
X135308207Y-87220519D02*
X135355826Y-87125281D01*
X135355826Y-87125281D02*
X135403445Y-87077662D01*
X135403445Y-87077662D02*
X135498683Y-87030043D01*
X135498683Y-87030043D02*
X135736778Y-87030043D01*
X135736778Y-87030043D02*
X135879635Y-87077662D01*
X136260588Y-87744328D02*
X136736778Y-87744328D01*
X136165350Y-88030043D02*
X136498683Y-87030043D01*
X136498683Y-87030043D02*
X136832016Y-88030043D01*
X137736778Y-88030043D02*
X137403445Y-87553852D01*
X137165350Y-88030043D02*
X137165350Y-87030043D01*
X137165350Y-87030043D02*
X137546302Y-87030043D01*
X137546302Y-87030043D02*
X137641540Y-87077662D01*
X137641540Y-87077662D02*
X137689159Y-87125281D01*
X137689159Y-87125281D02*
X137736778Y-87220519D01*
X137736778Y-87220519D02*
X137736778Y-87363376D01*
X137736778Y-87363376D02*
X137689159Y-87458614D01*
X137689159Y-87458614D02*
X137641540Y-87506233D01*
X137641540Y-87506233D02*
X137546302Y-87553852D01*
X137546302Y-87553852D02*
X137165350Y-87553852D01*
X138165350Y-87649090D02*
X138927255Y-87649090D01*
X139736778Y-87506233D02*
X139879635Y-87553852D01*
X139879635Y-87553852D02*
X139927254Y-87601471D01*
X139927254Y-87601471D02*
X139974873Y-87696709D01*
X139974873Y-87696709D02*
X139974873Y-87839566D01*
X139974873Y-87839566D02*
X139927254Y-87934804D01*
X139927254Y-87934804D02*
X139879635Y-87982424D01*
X139879635Y-87982424D02*
X139784397Y-88030043D01*
X139784397Y-88030043D02*
X139403445Y-88030043D01*
X139403445Y-88030043D02*
X139403445Y-87030043D01*
X139403445Y-87030043D02*
X139736778Y-87030043D01*
X139736778Y-87030043D02*
X139832016Y-87077662D01*
X139832016Y-87077662D02*
X139879635Y-87125281D01*
X139879635Y-87125281D02*
X139927254Y-87220519D01*
X139927254Y-87220519D02*
X139927254Y-87315757D01*
X139927254Y-87315757D02*
X139879635Y-87410995D01*
X139879635Y-87410995D02*
X139832016Y-87458614D01*
X139832016Y-87458614D02*
X139736778Y-87506233D01*
X139736778Y-87506233D02*
X139403445Y-87506233D01*
X140974873Y-88030043D02*
X140641540Y-87553852D01*
X140403445Y-88030043D02*
X140403445Y-87030043D01*
X140403445Y-87030043D02*
X140784397Y-87030043D01*
X140784397Y-87030043D02*
X140879635Y-87077662D01*
X140879635Y-87077662D02*
X140927254Y-87125281D01*
X140927254Y-87125281D02*
X140974873Y-87220519D01*
X140974873Y-87220519D02*
X140974873Y-87363376D01*
X140974873Y-87363376D02*
X140927254Y-87458614D01*
X140927254Y-87458614D02*
X140879635Y-87506233D01*
X140879635Y-87506233D02*
X140784397Y-87553852D01*
X140784397Y-87553852D02*
X140403445Y-87553852D01*
X141403445Y-87506233D02*
X141736778Y-87506233D01*
X141879635Y-88030043D02*
X141403445Y-88030043D01*
X141403445Y-88030043D02*
X141403445Y-87030043D01*
X141403445Y-87030043D02*
X141879635Y-87030043D01*
X142260588Y-87744328D02*
X142736778Y-87744328D01*
X142165350Y-88030043D02*
X142498683Y-87030043D01*
X142498683Y-87030043D02*
X142832016Y-88030043D01*
X143165350Y-88030043D02*
X143165350Y-87030043D01*
X143736778Y-88030043D02*
X143308207Y-87458614D01*
X143736778Y-87030043D02*
X143165350Y-87601471D01*
X144355826Y-87030043D02*
X144546302Y-87030043D01*
X144546302Y-87030043D02*
X144641540Y-87077662D01*
X144641540Y-87077662D02*
X144736778Y-87172900D01*
X144736778Y-87172900D02*
X144784397Y-87363376D01*
X144784397Y-87363376D02*
X144784397Y-87696709D01*
X144784397Y-87696709D02*
X144736778Y-87887185D01*
X144736778Y-87887185D02*
X144641540Y-87982424D01*
X144641540Y-87982424D02*
X144546302Y-88030043D01*
X144546302Y-88030043D02*
X144355826Y-88030043D01*
X144355826Y-88030043D02*
X144260588Y-87982424D01*
X144260588Y-87982424D02*
X144165350Y-87887185D01*
X144165350Y-87887185D02*
X144117731Y-87696709D01*
X144117731Y-87696709D02*
X144117731Y-87363376D01*
X144117731Y-87363376D02*
X144165350Y-87172900D01*
X144165350Y-87172900D02*
X144260588Y-87077662D01*
X144260588Y-87077662D02*
X144355826Y-87030043D01*
X145212969Y-87030043D02*
X145212969Y-87839566D01*
X145212969Y-87839566D02*
X145260588Y-87934804D01*
X145260588Y-87934804D02*
X145308207Y-87982424D01*
X145308207Y-87982424D02*
X145403445Y-88030043D01*
X145403445Y-88030043D02*
X145593921Y-88030043D01*
X145593921Y-88030043D02*
X145689159Y-87982424D01*
X145689159Y-87982424D02*
X145736778Y-87934804D01*
X145736778Y-87934804D02*
X145784397Y-87839566D01*
X145784397Y-87839566D02*
X145784397Y-87030043D01*
X146117731Y-87030043D02*
X146689159Y-87030043D01*
X146403445Y-88030043D02*
X146403445Y-87030043D01*
X147022493Y-87649090D02*
X147784398Y-87649090D01*
X148451064Y-87030043D02*
X148546302Y-87030043D01*
X148546302Y-87030043D02*
X148641540Y-87077662D01*
X148641540Y-87077662D02*
X148689159Y-87125281D01*
X148689159Y-87125281D02*
X148736778Y-87220519D01*
X148736778Y-87220519D02*
X148784397Y-87410995D01*
X148784397Y-87410995D02*
X148784397Y-87649090D01*
X148784397Y-87649090D02*
X148736778Y-87839566D01*
X148736778Y-87839566D02*
X148689159Y-87934804D01*
X148689159Y-87934804D02*
X148641540Y-87982424D01*
X148641540Y-87982424D02*
X148546302Y-88030043D01*
X148546302Y-88030043D02*
X148451064Y-88030043D01*
X148451064Y-88030043D02*
X148355826Y-87982424D01*
X148355826Y-87982424D02*
X148308207Y-87934804D01*
X148308207Y-87934804D02*
X148260588Y-87839566D01*
X148260588Y-87839566D02*
X148212969Y-87649090D01*
X148212969Y-87649090D02*
X148212969Y-87410995D01*
X148212969Y-87410995D02*
X148260588Y-87220519D01*
X148260588Y-87220519D02*
X148308207Y-87125281D01*
X148308207Y-87125281D02*
X148355826Y-87077662D01*
X148355826Y-87077662D02*
X148451064Y-87030043D01*
X149736778Y-88030043D02*
X149165350Y-88030043D01*
X149451064Y-88030043D02*
X149451064Y-87030043D01*
X149451064Y-87030043D02*
X149355826Y-87172900D01*
X149355826Y-87172900D02*
X149260588Y-87268138D01*
X149260588Y-87268138D02*
X149165350Y-87315757D01*
X150165350Y-87649090D02*
X150927255Y-87649090D01*
X151260588Y-87030043D02*
X151832016Y-87030043D01*
X151546302Y-88030043D02*
X151546302Y-87030043D01*
X152355826Y-87030043D02*
X152546302Y-87030043D01*
X152546302Y-87030043D02*
X152641540Y-87077662D01*
X152641540Y-87077662D02*
X152736778Y-87172900D01*
X152736778Y-87172900D02*
X152784397Y-87363376D01*
X152784397Y-87363376D02*
X152784397Y-87696709D01*
X152784397Y-87696709D02*
X152736778Y-87887185D01*
X152736778Y-87887185D02*
X152641540Y-87982424D01*
X152641540Y-87982424D02*
X152546302Y-88030043D01*
X152546302Y-88030043D02*
X152355826Y-88030043D01*
X152355826Y-88030043D02*
X152260588Y-87982424D01*
X152260588Y-87982424D02*
X152165350Y-87887185D01*
X152165350Y-87887185D02*
X152117731Y-87696709D01*
X152117731Y-87696709D02*
X152117731Y-87363376D01*
X152117731Y-87363376D02*
X152165350Y-87172900D01*
X152165350Y-87172900D02*
X152260588Y-87077662D01*
X152260588Y-87077662D02*
X152355826Y-87030043D01*
X153212969Y-88030043D02*
X153212969Y-87030043D01*
X153212969Y-87030043D02*
X153593921Y-87030043D01*
X153593921Y-87030043D02*
X153689159Y-87077662D01*
X153689159Y-87077662D02*
X153736778Y-87125281D01*
X153736778Y-87125281D02*
X153784397Y-87220519D01*
X153784397Y-87220519D02*
X153784397Y-87363376D01*
X153784397Y-87363376D02*
X153736778Y-87458614D01*
X153736778Y-87458614D02*
X153689159Y-87506233D01*
X153689159Y-87506233D02*
X153593921Y-87553852D01*
X153593921Y-87553852D02*
X153212969Y-87553852D01*
X154212969Y-87506233D02*
X154546302Y-87506233D01*
X154689159Y-88030043D02*
X154212969Y-88030043D01*
X154212969Y-88030043D02*
X154212969Y-87030043D01*
X154212969Y-87030043D02*
X154689159Y-87030043D01*
X155593921Y-88030043D02*
X155117731Y-88030043D01*
X155117731Y-88030043D02*
X155117731Y-87030043D01*
X155927255Y-87506233D02*
X156260588Y-87506233D01*
X156403445Y-88030043D02*
X155927255Y-88030043D01*
X155927255Y-88030043D02*
X155927255Y-87030043D01*
X155927255Y-87030043D02*
X156403445Y-87030043D01*
X157403445Y-87934804D02*
X157355826Y-87982424D01*
X157355826Y-87982424D02*
X157212969Y-88030043D01*
X157212969Y-88030043D02*
X157117731Y-88030043D01*
X157117731Y-88030043D02*
X156974874Y-87982424D01*
X156974874Y-87982424D02*
X156879636Y-87887185D01*
X156879636Y-87887185D02*
X156832017Y-87791947D01*
X156832017Y-87791947D02*
X156784398Y-87601471D01*
X156784398Y-87601471D02*
X156784398Y-87458614D01*
X156784398Y-87458614D02*
X156832017Y-87268138D01*
X156832017Y-87268138D02*
X156879636Y-87172900D01*
X156879636Y-87172900D02*
X156974874Y-87077662D01*
X156974874Y-87077662D02*
X157117731Y-87030043D01*
X157117731Y-87030043D02*
X157212969Y-87030043D01*
X157212969Y-87030043D02*
X157355826Y-87077662D01*
X157355826Y-87077662D02*
X157403445Y-87125281D01*
X157832017Y-87934804D02*
X157879636Y-87982424D01*
X157879636Y-87982424D02*
X157832017Y-88030043D01*
X157832017Y-88030043D02*
X157784398Y-87982424D01*
X157784398Y-87982424D02*
X157832017Y-87934804D01*
X157832017Y-87934804D02*
X157832017Y-88030043D01*
X158832016Y-87077662D02*
X158736778Y-87030043D01*
X158736778Y-87030043D02*
X158593921Y-87030043D01*
X158593921Y-87030043D02*
X158451064Y-87077662D01*
X158451064Y-87077662D02*
X158355826Y-87172900D01*
X158355826Y-87172900D02*
X158308207Y-87268138D01*
X158308207Y-87268138D02*
X158260588Y-87458614D01*
X158260588Y-87458614D02*
X158260588Y-87601471D01*
X158260588Y-87601471D02*
X158308207Y-87791947D01*
X158308207Y-87791947D02*
X158355826Y-87887185D01*
X158355826Y-87887185D02*
X158451064Y-87982424D01*
X158451064Y-87982424D02*
X158593921Y-88030043D01*
X158593921Y-88030043D02*
X158689159Y-88030043D01*
X158689159Y-88030043D02*
X158832016Y-87982424D01*
X158832016Y-87982424D02*
X158879635Y-87934804D01*
X158879635Y-87934804D02*
X158879635Y-87601471D01*
X158879635Y-87601471D02*
X158689159Y-87601471D01*
X159641540Y-87506233D02*
X159784397Y-87553852D01*
X159784397Y-87553852D02*
X159832016Y-87601471D01*
X159832016Y-87601471D02*
X159879635Y-87696709D01*
X159879635Y-87696709D02*
X159879635Y-87839566D01*
X159879635Y-87839566D02*
X159832016Y-87934804D01*
X159832016Y-87934804D02*
X159784397Y-87982424D01*
X159784397Y-87982424D02*
X159689159Y-88030043D01*
X159689159Y-88030043D02*
X159308207Y-88030043D01*
X159308207Y-88030043D02*
X159308207Y-87030043D01*
X159308207Y-87030043D02*
X159641540Y-87030043D01*
X159641540Y-87030043D02*
X159736778Y-87077662D01*
X159736778Y-87077662D02*
X159784397Y-87125281D01*
X159784397Y-87125281D02*
X159832016Y-87220519D01*
X159832016Y-87220519D02*
X159832016Y-87315757D01*
X159832016Y-87315757D02*
X159784397Y-87410995D01*
X159784397Y-87410995D02*
X159736778Y-87458614D01*
X159736778Y-87458614D02*
X159641540Y-87506233D01*
X159641540Y-87506233D02*
X159308207Y-87506233D01*
X160879635Y-88030043D02*
X160546302Y-87553852D01*
X160308207Y-88030043D02*
X160308207Y-87030043D01*
X160308207Y-87030043D02*
X160689159Y-87030043D01*
X160689159Y-87030043D02*
X160784397Y-87077662D01*
X160784397Y-87077662D02*
X160832016Y-87125281D01*
X160832016Y-87125281D02*
X160879635Y-87220519D01*
X160879635Y-87220519D02*
X160879635Y-87363376D01*
X160879635Y-87363376D02*
X160832016Y-87458614D01*
X160832016Y-87458614D02*
X160784397Y-87506233D01*
X160784397Y-87506233D02*
X160689159Y-87553852D01*
X160689159Y-87553852D02*
X160308207Y-87553852D01*
X97070112Y-89116177D02*
X97212969Y-89163796D01*
X97212969Y-89163796D02*
X97260588Y-89211415D01*
X97260588Y-89211415D02*
X97308207Y-89306653D01*
X97308207Y-89306653D02*
X97308207Y-89449510D01*
X97308207Y-89449510D02*
X97260588Y-89544748D01*
X97260588Y-89544748D02*
X97212969Y-89592368D01*
X97212969Y-89592368D02*
X97117731Y-89639987D01*
X97117731Y-89639987D02*
X96736779Y-89639987D01*
X96736779Y-89639987D02*
X96736779Y-88639987D01*
X96736779Y-88639987D02*
X97070112Y-88639987D01*
X97070112Y-88639987D02*
X97165350Y-88687606D01*
X97165350Y-88687606D02*
X97212969Y-88735225D01*
X97212969Y-88735225D02*
X97260588Y-88830463D01*
X97260588Y-88830463D02*
X97260588Y-88925701D01*
X97260588Y-88925701D02*
X97212969Y-89020939D01*
X97212969Y-89020939D02*
X97165350Y-89068558D01*
X97165350Y-89068558D02*
X97070112Y-89116177D01*
X97070112Y-89116177D02*
X96736779Y-89116177D01*
X97927255Y-88639987D02*
X98117731Y-88639987D01*
X98117731Y-88639987D02*
X98212969Y-88687606D01*
X98212969Y-88687606D02*
X98308207Y-88782844D01*
X98308207Y-88782844D02*
X98355826Y-88973320D01*
X98355826Y-88973320D02*
X98355826Y-89306653D01*
X98355826Y-89306653D02*
X98308207Y-89497129D01*
X98308207Y-89497129D02*
X98212969Y-89592368D01*
X98212969Y-89592368D02*
X98117731Y-89639987D01*
X98117731Y-89639987D02*
X97927255Y-89639987D01*
X97927255Y-89639987D02*
X97832017Y-89592368D01*
X97832017Y-89592368D02*
X97736779Y-89497129D01*
X97736779Y-89497129D02*
X97689160Y-89306653D01*
X97689160Y-89306653D02*
X97689160Y-88973320D01*
X97689160Y-88973320D02*
X97736779Y-88782844D01*
X97736779Y-88782844D02*
X97832017Y-88687606D01*
X97832017Y-88687606D02*
X97927255Y-88639987D01*
X98641541Y-88639987D02*
X99212969Y-88639987D01*
X98927255Y-89639987D02*
X98927255Y-88639987D01*
X99403446Y-88639987D02*
X99974874Y-88639987D01*
X99689160Y-89639987D02*
X99689160Y-88639987D01*
X100498684Y-88639987D02*
X100689160Y-88639987D01*
X100689160Y-88639987D02*
X100784398Y-88687606D01*
X100784398Y-88687606D02*
X100879636Y-88782844D01*
X100879636Y-88782844D02*
X100927255Y-88973320D01*
X100927255Y-88973320D02*
X100927255Y-89306653D01*
X100927255Y-89306653D02*
X100879636Y-89497129D01*
X100879636Y-89497129D02*
X100784398Y-89592368D01*
X100784398Y-89592368D02*
X100689160Y-89639987D01*
X100689160Y-89639987D02*
X100498684Y-89639987D01*
X100498684Y-89639987D02*
X100403446Y-89592368D01*
X100403446Y-89592368D02*
X100308208Y-89497129D01*
X100308208Y-89497129D02*
X100260589Y-89306653D01*
X100260589Y-89306653D02*
X100260589Y-88973320D01*
X100260589Y-88973320D02*
X100308208Y-88782844D01*
X100308208Y-88782844D02*
X100403446Y-88687606D01*
X100403446Y-88687606D02*
X100498684Y-88639987D01*
X101355827Y-89639987D02*
X101355827Y-88639987D01*
X101355827Y-88639987D02*
X101689160Y-89354272D01*
X101689160Y-89354272D02*
X102022493Y-88639987D01*
X102022493Y-88639987D02*
X102022493Y-89639987D01*
X103260589Y-89116177D02*
X103593922Y-89116177D01*
X103736779Y-89639987D02*
X103260589Y-89639987D01*
X103260589Y-89639987D02*
X103260589Y-88639987D01*
X103260589Y-88639987D02*
X103736779Y-88639987D01*
X104641541Y-89639987D02*
X104165351Y-89639987D01*
X104165351Y-89639987D02*
X104165351Y-88639987D01*
X104974875Y-89116177D02*
X105308208Y-89116177D01*
X105451065Y-89639987D02*
X104974875Y-89639987D01*
X104974875Y-89639987D02*
X104974875Y-88639987D01*
X104974875Y-88639987D02*
X105451065Y-88639987D01*
X106451065Y-89544748D02*
X106403446Y-89592368D01*
X106403446Y-89592368D02*
X106260589Y-89639987D01*
X106260589Y-89639987D02*
X106165351Y-89639987D01*
X106165351Y-89639987D02*
X106022494Y-89592368D01*
X106022494Y-89592368D02*
X105927256Y-89497129D01*
X105927256Y-89497129D02*
X105879637Y-89401891D01*
X105879637Y-89401891D02*
X105832018Y-89211415D01*
X105832018Y-89211415D02*
X105832018Y-89068558D01*
X105832018Y-89068558D02*
X105879637Y-88878082D01*
X105879637Y-88878082D02*
X105927256Y-88782844D01*
X105927256Y-88782844D02*
X106022494Y-88687606D01*
X106022494Y-88687606D02*
X106165351Y-88639987D01*
X106165351Y-88639987D02*
X106260589Y-88639987D01*
X106260589Y-88639987D02*
X106403446Y-88687606D01*
X106403446Y-88687606D02*
X106451065Y-88735225D01*
X106736780Y-88639987D02*
X107308208Y-88639987D01*
X107022494Y-89639987D02*
X107022494Y-88639987D01*
X108212970Y-89639987D02*
X107879637Y-89163796D01*
X107641542Y-89639987D02*
X107641542Y-88639987D01*
X107641542Y-88639987D02*
X108022494Y-88639987D01*
X108022494Y-88639987D02*
X108117732Y-88687606D01*
X108117732Y-88687606D02*
X108165351Y-88735225D01*
X108165351Y-88735225D02*
X108212970Y-88830463D01*
X108212970Y-88830463D02*
X108212970Y-88973320D01*
X108212970Y-88973320D02*
X108165351Y-89068558D01*
X108165351Y-89068558D02*
X108117732Y-89116177D01*
X108117732Y-89116177D02*
X108022494Y-89163796D01*
X108022494Y-89163796D02*
X107641542Y-89163796D01*
X108641542Y-89639987D02*
X108641542Y-88639987D01*
X109689160Y-89544748D02*
X109641541Y-89592368D01*
X109641541Y-89592368D02*
X109498684Y-89639987D01*
X109498684Y-89639987D02*
X109403446Y-89639987D01*
X109403446Y-89639987D02*
X109260589Y-89592368D01*
X109260589Y-89592368D02*
X109165351Y-89497129D01*
X109165351Y-89497129D02*
X109117732Y-89401891D01*
X109117732Y-89401891D02*
X109070113Y-89211415D01*
X109070113Y-89211415D02*
X109070113Y-89068558D01*
X109070113Y-89068558D02*
X109117732Y-88878082D01*
X109117732Y-88878082D02*
X109165351Y-88782844D01*
X109165351Y-88782844D02*
X109260589Y-88687606D01*
X109260589Y-88687606D02*
X109403446Y-88639987D01*
X109403446Y-88639987D02*
X109498684Y-88639987D01*
X109498684Y-88639987D02*
X109641541Y-88687606D01*
X109641541Y-88687606D02*
X109689160Y-88735225D01*
X110070113Y-89354272D02*
X110546303Y-89354272D01*
X109974875Y-89639987D02*
X110308208Y-88639987D01*
X110308208Y-88639987D02*
X110641541Y-89639987D01*
X111451065Y-89639987D02*
X110974875Y-89639987D01*
X110974875Y-89639987D02*
X110974875Y-88639987D01*
X124451064Y-88735225D02*
X124498683Y-88687606D01*
X124498683Y-88687606D02*
X124593921Y-88639987D01*
X124593921Y-88639987D02*
X124832016Y-88639987D01*
X124832016Y-88639987D02*
X124927254Y-88687606D01*
X124927254Y-88687606D02*
X124974873Y-88735225D01*
X124974873Y-88735225D02*
X125022492Y-88830463D01*
X125022492Y-88830463D02*
X125022492Y-88925701D01*
X125022492Y-88925701D02*
X124974873Y-89068558D01*
X124974873Y-89068558D02*
X124403445Y-89639987D01*
X124403445Y-89639987D02*
X125022492Y-89639987D01*
X132498683Y-89639987D02*
X132498683Y-88639987D01*
X132498683Y-88639987D02*
X132879635Y-88639987D01*
X132879635Y-88639987D02*
X132974873Y-88687606D01*
X132974873Y-88687606D02*
X133022492Y-88735225D01*
X133022492Y-88735225D02*
X133070111Y-88830463D01*
X133070111Y-88830463D02*
X133070111Y-88973320D01*
X133070111Y-88973320D02*
X133022492Y-89068558D01*
X133022492Y-89068558D02*
X132974873Y-89116177D01*
X132974873Y-89116177D02*
X132879635Y-89163796D01*
X132879635Y-89163796D02*
X132498683Y-89163796D01*
X133498683Y-88639987D02*
X133498683Y-89449510D01*
X133498683Y-89449510D02*
X133546302Y-89544748D01*
X133546302Y-89544748D02*
X133593921Y-89592368D01*
X133593921Y-89592368D02*
X133689159Y-89639987D01*
X133689159Y-89639987D02*
X133879635Y-89639987D01*
X133879635Y-89639987D02*
X133974873Y-89592368D01*
X133974873Y-89592368D02*
X134022492Y-89544748D01*
X134022492Y-89544748D02*
X134070111Y-89449510D01*
X134070111Y-89449510D02*
X134070111Y-88639987D01*
X135022492Y-89639987D02*
X134546302Y-89639987D01*
X134546302Y-89639987D02*
X134546302Y-88639987D01*
X135308207Y-89592368D02*
X135451064Y-89639987D01*
X135451064Y-89639987D02*
X135689159Y-89639987D01*
X135689159Y-89639987D02*
X135784397Y-89592368D01*
X135784397Y-89592368D02*
X135832016Y-89544748D01*
X135832016Y-89544748D02*
X135879635Y-89449510D01*
X135879635Y-89449510D02*
X135879635Y-89354272D01*
X135879635Y-89354272D02*
X135832016Y-89259034D01*
X135832016Y-89259034D02*
X135784397Y-89211415D01*
X135784397Y-89211415D02*
X135689159Y-89163796D01*
X135689159Y-89163796D02*
X135498683Y-89116177D01*
X135498683Y-89116177D02*
X135403445Y-89068558D01*
X135403445Y-89068558D02*
X135355826Y-89020939D01*
X135355826Y-89020939D02*
X135308207Y-88925701D01*
X135308207Y-88925701D02*
X135308207Y-88830463D01*
X135308207Y-88830463D02*
X135355826Y-88735225D01*
X135355826Y-88735225D02*
X135403445Y-88687606D01*
X135403445Y-88687606D02*
X135498683Y-88639987D01*
X135498683Y-88639987D02*
X135736778Y-88639987D01*
X135736778Y-88639987D02*
X135879635Y-88687606D01*
X136260588Y-89354272D02*
X136736778Y-89354272D01*
X136165350Y-89639987D02*
X136498683Y-88639987D01*
X136498683Y-88639987D02*
X136832016Y-89639987D01*
X137736778Y-89639987D02*
X137403445Y-89163796D01*
X137165350Y-89639987D02*
X137165350Y-88639987D01*
X137165350Y-88639987D02*
X137546302Y-88639987D01*
X137546302Y-88639987D02*
X137641540Y-88687606D01*
X137641540Y-88687606D02*
X137689159Y-88735225D01*
X137689159Y-88735225D02*
X137736778Y-88830463D01*
X137736778Y-88830463D02*
X137736778Y-88973320D01*
X137736778Y-88973320D02*
X137689159Y-89068558D01*
X137689159Y-89068558D02*
X137641540Y-89116177D01*
X137641540Y-89116177D02*
X137546302Y-89163796D01*
X137546302Y-89163796D02*
X137165350Y-89163796D01*
X138165350Y-89259034D02*
X138927255Y-89259034D01*
X139736778Y-89116177D02*
X139879635Y-89163796D01*
X139879635Y-89163796D02*
X139927254Y-89211415D01*
X139927254Y-89211415D02*
X139974873Y-89306653D01*
X139974873Y-89306653D02*
X139974873Y-89449510D01*
X139974873Y-89449510D02*
X139927254Y-89544748D01*
X139927254Y-89544748D02*
X139879635Y-89592368D01*
X139879635Y-89592368D02*
X139784397Y-89639987D01*
X139784397Y-89639987D02*
X139403445Y-89639987D01*
X139403445Y-89639987D02*
X139403445Y-88639987D01*
X139403445Y-88639987D02*
X139736778Y-88639987D01*
X139736778Y-88639987D02*
X139832016Y-88687606D01*
X139832016Y-88687606D02*
X139879635Y-88735225D01*
X139879635Y-88735225D02*
X139927254Y-88830463D01*
X139927254Y-88830463D02*
X139927254Y-88925701D01*
X139927254Y-88925701D02*
X139879635Y-89020939D01*
X139879635Y-89020939D02*
X139832016Y-89068558D01*
X139832016Y-89068558D02*
X139736778Y-89116177D01*
X139736778Y-89116177D02*
X139403445Y-89116177D01*
X140974873Y-89639987D02*
X140641540Y-89163796D01*
X140403445Y-89639987D02*
X140403445Y-88639987D01*
X140403445Y-88639987D02*
X140784397Y-88639987D01*
X140784397Y-88639987D02*
X140879635Y-88687606D01*
X140879635Y-88687606D02*
X140927254Y-88735225D01*
X140927254Y-88735225D02*
X140974873Y-88830463D01*
X140974873Y-88830463D02*
X140974873Y-88973320D01*
X140974873Y-88973320D02*
X140927254Y-89068558D01*
X140927254Y-89068558D02*
X140879635Y-89116177D01*
X140879635Y-89116177D02*
X140784397Y-89163796D01*
X140784397Y-89163796D02*
X140403445Y-89163796D01*
X141403445Y-89116177D02*
X141736778Y-89116177D01*
X141879635Y-89639987D02*
X141403445Y-89639987D01*
X141403445Y-89639987D02*
X141403445Y-88639987D01*
X141403445Y-88639987D02*
X141879635Y-88639987D01*
X142260588Y-89354272D02*
X142736778Y-89354272D01*
X142165350Y-89639987D02*
X142498683Y-88639987D01*
X142498683Y-88639987D02*
X142832016Y-89639987D01*
X143165350Y-89639987D02*
X143165350Y-88639987D01*
X143736778Y-89639987D02*
X143308207Y-89068558D01*
X143736778Y-88639987D02*
X143165350Y-89211415D01*
X144355826Y-88639987D02*
X144546302Y-88639987D01*
X144546302Y-88639987D02*
X144641540Y-88687606D01*
X144641540Y-88687606D02*
X144736778Y-88782844D01*
X144736778Y-88782844D02*
X144784397Y-88973320D01*
X144784397Y-88973320D02*
X144784397Y-89306653D01*
X144784397Y-89306653D02*
X144736778Y-89497129D01*
X144736778Y-89497129D02*
X144641540Y-89592368D01*
X144641540Y-89592368D02*
X144546302Y-89639987D01*
X144546302Y-89639987D02*
X144355826Y-89639987D01*
X144355826Y-89639987D02*
X144260588Y-89592368D01*
X144260588Y-89592368D02*
X144165350Y-89497129D01*
X144165350Y-89497129D02*
X144117731Y-89306653D01*
X144117731Y-89306653D02*
X144117731Y-88973320D01*
X144117731Y-88973320D02*
X144165350Y-88782844D01*
X144165350Y-88782844D02*
X144260588Y-88687606D01*
X144260588Y-88687606D02*
X144355826Y-88639987D01*
X145212969Y-88639987D02*
X145212969Y-89449510D01*
X145212969Y-89449510D02*
X145260588Y-89544748D01*
X145260588Y-89544748D02*
X145308207Y-89592368D01*
X145308207Y-89592368D02*
X145403445Y-89639987D01*
X145403445Y-89639987D02*
X145593921Y-89639987D01*
X145593921Y-89639987D02*
X145689159Y-89592368D01*
X145689159Y-89592368D02*
X145736778Y-89544748D01*
X145736778Y-89544748D02*
X145784397Y-89449510D01*
X145784397Y-89449510D02*
X145784397Y-88639987D01*
X146117731Y-88639987D02*
X146689159Y-88639987D01*
X146403445Y-89639987D02*
X146403445Y-88639987D01*
X147022493Y-89259034D02*
X147784398Y-89259034D01*
X148451064Y-88639987D02*
X148546302Y-88639987D01*
X148546302Y-88639987D02*
X148641540Y-88687606D01*
X148641540Y-88687606D02*
X148689159Y-88735225D01*
X148689159Y-88735225D02*
X148736778Y-88830463D01*
X148736778Y-88830463D02*
X148784397Y-89020939D01*
X148784397Y-89020939D02*
X148784397Y-89259034D01*
X148784397Y-89259034D02*
X148736778Y-89449510D01*
X148736778Y-89449510D02*
X148689159Y-89544748D01*
X148689159Y-89544748D02*
X148641540Y-89592368D01*
X148641540Y-89592368D02*
X148546302Y-89639987D01*
X148546302Y-89639987D02*
X148451064Y-89639987D01*
X148451064Y-89639987D02*
X148355826Y-89592368D01*
X148355826Y-89592368D02*
X148308207Y-89544748D01*
X148308207Y-89544748D02*
X148260588Y-89449510D01*
X148260588Y-89449510D02*
X148212969Y-89259034D01*
X148212969Y-89259034D02*
X148212969Y-89020939D01*
X148212969Y-89020939D02*
X148260588Y-88830463D01*
X148260588Y-88830463D02*
X148308207Y-88735225D01*
X148308207Y-88735225D02*
X148355826Y-88687606D01*
X148355826Y-88687606D02*
X148451064Y-88639987D01*
X149736778Y-89639987D02*
X149165350Y-89639987D01*
X149451064Y-89639987D02*
X149451064Y-88639987D01*
X149451064Y-88639987D02*
X149355826Y-88782844D01*
X149355826Y-88782844D02*
X149260588Y-88878082D01*
X149260588Y-88878082D02*
X149165350Y-88925701D01*
X150165350Y-89259034D02*
X150927255Y-89259034D01*
X151736778Y-89116177D02*
X151879635Y-89163796D01*
X151879635Y-89163796D02*
X151927254Y-89211415D01*
X151927254Y-89211415D02*
X151974873Y-89306653D01*
X151974873Y-89306653D02*
X151974873Y-89449510D01*
X151974873Y-89449510D02*
X151927254Y-89544748D01*
X151927254Y-89544748D02*
X151879635Y-89592368D01*
X151879635Y-89592368D02*
X151784397Y-89639987D01*
X151784397Y-89639987D02*
X151403445Y-89639987D01*
X151403445Y-89639987D02*
X151403445Y-88639987D01*
X151403445Y-88639987D02*
X151736778Y-88639987D01*
X151736778Y-88639987D02*
X151832016Y-88687606D01*
X151832016Y-88687606D02*
X151879635Y-88735225D01*
X151879635Y-88735225D02*
X151927254Y-88830463D01*
X151927254Y-88830463D02*
X151927254Y-88925701D01*
X151927254Y-88925701D02*
X151879635Y-89020939D01*
X151879635Y-89020939D02*
X151832016Y-89068558D01*
X151832016Y-89068558D02*
X151736778Y-89116177D01*
X151736778Y-89116177D02*
X151403445Y-89116177D01*
X152593921Y-88639987D02*
X152784397Y-88639987D01*
X152784397Y-88639987D02*
X152879635Y-88687606D01*
X152879635Y-88687606D02*
X152974873Y-88782844D01*
X152974873Y-88782844D02*
X153022492Y-88973320D01*
X153022492Y-88973320D02*
X153022492Y-89306653D01*
X153022492Y-89306653D02*
X152974873Y-89497129D01*
X152974873Y-89497129D02*
X152879635Y-89592368D01*
X152879635Y-89592368D02*
X152784397Y-89639987D01*
X152784397Y-89639987D02*
X152593921Y-89639987D01*
X152593921Y-89639987D02*
X152498683Y-89592368D01*
X152498683Y-89592368D02*
X152403445Y-89497129D01*
X152403445Y-89497129D02*
X152355826Y-89306653D01*
X152355826Y-89306653D02*
X152355826Y-88973320D01*
X152355826Y-88973320D02*
X152403445Y-88782844D01*
X152403445Y-88782844D02*
X152498683Y-88687606D01*
X152498683Y-88687606D02*
X152593921Y-88639987D01*
X153308207Y-88639987D02*
X153879635Y-88639987D01*
X153593921Y-89639987D02*
X153593921Y-88639987D01*
X154212969Y-89116177D02*
X154546302Y-89116177D01*
X154689159Y-89639987D02*
X154212969Y-89639987D01*
X154212969Y-89639987D02*
X154212969Y-88639987D01*
X154212969Y-88639987D02*
X154689159Y-88639987D01*
X155593921Y-89639987D02*
X155117731Y-89639987D01*
X155117731Y-89639987D02*
X155117731Y-88639987D01*
X155927255Y-89116177D02*
X156260588Y-89116177D01*
X156403445Y-89639987D02*
X155927255Y-89639987D01*
X155927255Y-89639987D02*
X155927255Y-88639987D01*
X155927255Y-88639987D02*
X156403445Y-88639987D01*
X157403445Y-89544748D02*
X157355826Y-89592368D01*
X157355826Y-89592368D02*
X157212969Y-89639987D01*
X157212969Y-89639987D02*
X157117731Y-89639987D01*
X157117731Y-89639987D02*
X156974874Y-89592368D01*
X156974874Y-89592368D02*
X156879636Y-89497129D01*
X156879636Y-89497129D02*
X156832017Y-89401891D01*
X156832017Y-89401891D02*
X156784398Y-89211415D01*
X156784398Y-89211415D02*
X156784398Y-89068558D01*
X156784398Y-89068558D02*
X156832017Y-88878082D01*
X156832017Y-88878082D02*
X156879636Y-88782844D01*
X156879636Y-88782844D02*
X156974874Y-88687606D01*
X156974874Y-88687606D02*
X157117731Y-88639987D01*
X157117731Y-88639987D02*
X157212969Y-88639987D01*
X157212969Y-88639987D02*
X157355826Y-88687606D01*
X157355826Y-88687606D02*
X157403445Y-88735225D01*
X157832017Y-89544748D02*
X157879636Y-89592368D01*
X157879636Y-89592368D02*
X157832017Y-89639987D01*
X157832017Y-89639987D02*
X157784398Y-89592368D01*
X157784398Y-89592368D02*
X157832017Y-89544748D01*
X157832017Y-89544748D02*
X157832017Y-89639987D01*
X158832016Y-88687606D02*
X158736778Y-88639987D01*
X158736778Y-88639987D02*
X158593921Y-88639987D01*
X158593921Y-88639987D02*
X158451064Y-88687606D01*
X158451064Y-88687606D02*
X158355826Y-88782844D01*
X158355826Y-88782844D02*
X158308207Y-88878082D01*
X158308207Y-88878082D02*
X158260588Y-89068558D01*
X158260588Y-89068558D02*
X158260588Y-89211415D01*
X158260588Y-89211415D02*
X158308207Y-89401891D01*
X158308207Y-89401891D02*
X158355826Y-89497129D01*
X158355826Y-89497129D02*
X158451064Y-89592368D01*
X158451064Y-89592368D02*
X158593921Y-89639987D01*
X158593921Y-89639987D02*
X158689159Y-89639987D01*
X158689159Y-89639987D02*
X158832016Y-89592368D01*
X158832016Y-89592368D02*
X158879635Y-89544748D01*
X158879635Y-89544748D02*
X158879635Y-89211415D01*
X158879635Y-89211415D02*
X158689159Y-89211415D01*
X159641540Y-89116177D02*
X159784397Y-89163796D01*
X159784397Y-89163796D02*
X159832016Y-89211415D01*
X159832016Y-89211415D02*
X159879635Y-89306653D01*
X159879635Y-89306653D02*
X159879635Y-89449510D01*
X159879635Y-89449510D02*
X159832016Y-89544748D01*
X159832016Y-89544748D02*
X159784397Y-89592368D01*
X159784397Y-89592368D02*
X159689159Y-89639987D01*
X159689159Y-89639987D02*
X159308207Y-89639987D01*
X159308207Y-89639987D02*
X159308207Y-88639987D01*
X159308207Y-88639987D02*
X159641540Y-88639987D01*
X159641540Y-88639987D02*
X159736778Y-88687606D01*
X159736778Y-88687606D02*
X159784397Y-88735225D01*
X159784397Y-88735225D02*
X159832016Y-88830463D01*
X159832016Y-88830463D02*
X159832016Y-88925701D01*
X159832016Y-88925701D02*
X159784397Y-89020939D01*
X159784397Y-89020939D02*
X159736778Y-89068558D01*
X159736778Y-89068558D02*
X159641540Y-89116177D01*
X159641540Y-89116177D02*
X159308207Y-89116177D01*
X160879635Y-89639987D02*
X160546302Y-89163796D01*
X160308207Y-89639987D02*
X160308207Y-88639987D01*
X160308207Y-88639987D02*
X160689159Y-88639987D01*
X160689159Y-88639987D02*
X160784397Y-88687606D01*
X160784397Y-88687606D02*
X160832016Y-88735225D01*
X160832016Y-88735225D02*
X160879635Y-88830463D01*
X160879635Y-88830463D02*
X160879635Y-88973320D01*
X160879635Y-88973320D02*
X160832016Y-89068558D01*
X160832016Y-89068558D02*
X160784397Y-89116177D01*
X160784397Y-89116177D02*
X160689159Y-89163796D01*
X160689159Y-89163796D02*
X160308207Y-89163796D01*
X97070112Y-90726121D02*
X97212969Y-90773740D01*
X97212969Y-90773740D02*
X97260588Y-90821359D01*
X97260588Y-90821359D02*
X97308207Y-90916597D01*
X97308207Y-90916597D02*
X97308207Y-91059454D01*
X97308207Y-91059454D02*
X97260588Y-91154692D01*
X97260588Y-91154692D02*
X97212969Y-91202312D01*
X97212969Y-91202312D02*
X97117731Y-91249931D01*
X97117731Y-91249931D02*
X96736779Y-91249931D01*
X96736779Y-91249931D02*
X96736779Y-90249931D01*
X96736779Y-90249931D02*
X97070112Y-90249931D01*
X97070112Y-90249931D02*
X97165350Y-90297550D01*
X97165350Y-90297550D02*
X97212969Y-90345169D01*
X97212969Y-90345169D02*
X97260588Y-90440407D01*
X97260588Y-90440407D02*
X97260588Y-90535645D01*
X97260588Y-90535645D02*
X97212969Y-90630883D01*
X97212969Y-90630883D02*
X97165350Y-90678502D01*
X97165350Y-90678502D02*
X97070112Y-90726121D01*
X97070112Y-90726121D02*
X96736779Y-90726121D01*
X97927255Y-90249931D02*
X98117731Y-90249931D01*
X98117731Y-90249931D02*
X98212969Y-90297550D01*
X98212969Y-90297550D02*
X98308207Y-90392788D01*
X98308207Y-90392788D02*
X98355826Y-90583264D01*
X98355826Y-90583264D02*
X98355826Y-90916597D01*
X98355826Y-90916597D02*
X98308207Y-91107073D01*
X98308207Y-91107073D02*
X98212969Y-91202312D01*
X98212969Y-91202312D02*
X98117731Y-91249931D01*
X98117731Y-91249931D02*
X97927255Y-91249931D01*
X97927255Y-91249931D02*
X97832017Y-91202312D01*
X97832017Y-91202312D02*
X97736779Y-91107073D01*
X97736779Y-91107073D02*
X97689160Y-90916597D01*
X97689160Y-90916597D02*
X97689160Y-90583264D01*
X97689160Y-90583264D02*
X97736779Y-90392788D01*
X97736779Y-90392788D02*
X97832017Y-90297550D01*
X97832017Y-90297550D02*
X97927255Y-90249931D01*
X98641541Y-90249931D02*
X99212969Y-90249931D01*
X98927255Y-91249931D02*
X98927255Y-90249931D01*
X99403446Y-90249931D02*
X99974874Y-90249931D01*
X99689160Y-91249931D02*
X99689160Y-90249931D01*
X100498684Y-90249931D02*
X100689160Y-90249931D01*
X100689160Y-90249931D02*
X100784398Y-90297550D01*
X100784398Y-90297550D02*
X100879636Y-90392788D01*
X100879636Y-90392788D02*
X100927255Y-90583264D01*
X100927255Y-90583264D02*
X100927255Y-90916597D01*
X100927255Y-90916597D02*
X100879636Y-91107073D01*
X100879636Y-91107073D02*
X100784398Y-91202312D01*
X100784398Y-91202312D02*
X100689160Y-91249931D01*
X100689160Y-91249931D02*
X100498684Y-91249931D01*
X100498684Y-91249931D02*
X100403446Y-91202312D01*
X100403446Y-91202312D02*
X100308208Y-91107073D01*
X100308208Y-91107073D02*
X100260589Y-90916597D01*
X100260589Y-90916597D02*
X100260589Y-90583264D01*
X100260589Y-90583264D02*
X100308208Y-90392788D01*
X100308208Y-90392788D02*
X100403446Y-90297550D01*
X100403446Y-90297550D02*
X100498684Y-90249931D01*
X101355827Y-91249931D02*
X101355827Y-90249931D01*
X101355827Y-90249931D02*
X101689160Y-90964216D01*
X101689160Y-90964216D02*
X102022493Y-90249931D01*
X102022493Y-90249931D02*
X102022493Y-91249931D01*
X103212970Y-91202312D02*
X103355827Y-91249931D01*
X103355827Y-91249931D02*
X103593922Y-91249931D01*
X103593922Y-91249931D02*
X103689160Y-91202312D01*
X103689160Y-91202312D02*
X103736779Y-91154692D01*
X103736779Y-91154692D02*
X103784398Y-91059454D01*
X103784398Y-91059454D02*
X103784398Y-90964216D01*
X103784398Y-90964216D02*
X103736779Y-90868978D01*
X103736779Y-90868978D02*
X103689160Y-90821359D01*
X103689160Y-90821359D02*
X103593922Y-90773740D01*
X103593922Y-90773740D02*
X103403446Y-90726121D01*
X103403446Y-90726121D02*
X103308208Y-90678502D01*
X103308208Y-90678502D02*
X103260589Y-90630883D01*
X103260589Y-90630883D02*
X103212970Y-90535645D01*
X103212970Y-90535645D02*
X103212970Y-90440407D01*
X103212970Y-90440407D02*
X103260589Y-90345169D01*
X103260589Y-90345169D02*
X103308208Y-90297550D01*
X103308208Y-90297550D02*
X103403446Y-90249931D01*
X103403446Y-90249931D02*
X103641541Y-90249931D01*
X103641541Y-90249931D02*
X103784398Y-90297550D01*
X104403446Y-90249931D02*
X104593922Y-90249931D01*
X104593922Y-90249931D02*
X104689160Y-90297550D01*
X104689160Y-90297550D02*
X104784398Y-90392788D01*
X104784398Y-90392788D02*
X104832017Y-90583264D01*
X104832017Y-90583264D02*
X104832017Y-90916597D01*
X104832017Y-90916597D02*
X104784398Y-91107073D01*
X104784398Y-91107073D02*
X104689160Y-91202312D01*
X104689160Y-91202312D02*
X104593922Y-91249931D01*
X104593922Y-91249931D02*
X104403446Y-91249931D01*
X104403446Y-91249931D02*
X104308208Y-91202312D01*
X104308208Y-91202312D02*
X104212970Y-91107073D01*
X104212970Y-91107073D02*
X104165351Y-90916597D01*
X104165351Y-90916597D02*
X104165351Y-90583264D01*
X104165351Y-90583264D02*
X104212970Y-90392788D01*
X104212970Y-90392788D02*
X104308208Y-90297550D01*
X104308208Y-90297550D02*
X104403446Y-90249931D01*
X105736779Y-91249931D02*
X105260589Y-91249931D01*
X105260589Y-91249931D02*
X105260589Y-90249931D01*
X106070113Y-91249931D02*
X106070113Y-90249931D01*
X106070113Y-90249931D02*
X106308208Y-90249931D01*
X106308208Y-90249931D02*
X106451065Y-90297550D01*
X106451065Y-90297550D02*
X106546303Y-90392788D01*
X106546303Y-90392788D02*
X106593922Y-90488026D01*
X106593922Y-90488026D02*
X106641541Y-90678502D01*
X106641541Y-90678502D02*
X106641541Y-90821359D01*
X106641541Y-90821359D02*
X106593922Y-91011835D01*
X106593922Y-91011835D02*
X106546303Y-91107073D01*
X106546303Y-91107073D02*
X106451065Y-91202312D01*
X106451065Y-91202312D02*
X106308208Y-91249931D01*
X106308208Y-91249931D02*
X106070113Y-91249931D01*
X107070113Y-90726121D02*
X107403446Y-90726121D01*
X107546303Y-91249931D02*
X107070113Y-91249931D01*
X107070113Y-91249931D02*
X107070113Y-90249931D01*
X107070113Y-90249931D02*
X107546303Y-90249931D01*
X108546303Y-91249931D02*
X108212970Y-90773740D01*
X107974875Y-91249931D02*
X107974875Y-90249931D01*
X107974875Y-90249931D02*
X108355827Y-90249931D01*
X108355827Y-90249931D02*
X108451065Y-90297550D01*
X108451065Y-90297550D02*
X108498684Y-90345169D01*
X108498684Y-90345169D02*
X108546303Y-90440407D01*
X108546303Y-90440407D02*
X108546303Y-90583264D01*
X108546303Y-90583264D02*
X108498684Y-90678502D01*
X108498684Y-90678502D02*
X108451065Y-90726121D01*
X108451065Y-90726121D02*
X108355827Y-90773740D01*
X108355827Y-90773740D02*
X107974875Y-90773740D01*
X110308208Y-91249931D02*
X109974875Y-90773740D01*
X109736780Y-91249931D02*
X109736780Y-90249931D01*
X109736780Y-90249931D02*
X110117732Y-90249931D01*
X110117732Y-90249931D02*
X110212970Y-90297550D01*
X110212970Y-90297550D02*
X110260589Y-90345169D01*
X110260589Y-90345169D02*
X110308208Y-90440407D01*
X110308208Y-90440407D02*
X110308208Y-90583264D01*
X110308208Y-90583264D02*
X110260589Y-90678502D01*
X110260589Y-90678502D02*
X110212970Y-90726121D01*
X110212970Y-90726121D02*
X110117732Y-90773740D01*
X110117732Y-90773740D02*
X109736780Y-90773740D01*
X110736780Y-90726121D02*
X111070113Y-90726121D01*
X111212970Y-91249931D02*
X110736780Y-91249931D01*
X110736780Y-91249931D02*
X110736780Y-90249931D01*
X110736780Y-90249931D02*
X111212970Y-90249931D01*
X111593923Y-91202312D02*
X111736780Y-91249931D01*
X111736780Y-91249931D02*
X111974875Y-91249931D01*
X111974875Y-91249931D02*
X112070113Y-91202312D01*
X112070113Y-91202312D02*
X112117732Y-91154692D01*
X112117732Y-91154692D02*
X112165351Y-91059454D01*
X112165351Y-91059454D02*
X112165351Y-90964216D01*
X112165351Y-90964216D02*
X112117732Y-90868978D01*
X112117732Y-90868978D02*
X112070113Y-90821359D01*
X112070113Y-90821359D02*
X111974875Y-90773740D01*
X111974875Y-90773740D02*
X111784399Y-90726121D01*
X111784399Y-90726121D02*
X111689161Y-90678502D01*
X111689161Y-90678502D02*
X111641542Y-90630883D01*
X111641542Y-90630883D02*
X111593923Y-90535645D01*
X111593923Y-90535645D02*
X111593923Y-90440407D01*
X111593923Y-90440407D02*
X111641542Y-90345169D01*
X111641542Y-90345169D02*
X111689161Y-90297550D01*
X111689161Y-90297550D02*
X111784399Y-90249931D01*
X111784399Y-90249931D02*
X112022494Y-90249931D01*
X112022494Y-90249931D02*
X112165351Y-90297550D01*
X112593923Y-91249931D02*
X112593923Y-90249931D01*
X113022494Y-91202312D02*
X113165351Y-91249931D01*
X113165351Y-91249931D02*
X113403446Y-91249931D01*
X113403446Y-91249931D02*
X113498684Y-91202312D01*
X113498684Y-91202312D02*
X113546303Y-91154692D01*
X113546303Y-91154692D02*
X113593922Y-91059454D01*
X113593922Y-91059454D02*
X113593922Y-90964216D01*
X113593922Y-90964216D02*
X113546303Y-90868978D01*
X113546303Y-90868978D02*
X113498684Y-90821359D01*
X113498684Y-90821359D02*
X113403446Y-90773740D01*
X113403446Y-90773740D02*
X113212970Y-90726121D01*
X113212970Y-90726121D02*
X113117732Y-90678502D01*
X113117732Y-90678502D02*
X113070113Y-90630883D01*
X113070113Y-90630883D02*
X113022494Y-90535645D01*
X113022494Y-90535645D02*
X113022494Y-90440407D01*
X113022494Y-90440407D02*
X113070113Y-90345169D01*
X113070113Y-90345169D02*
X113117732Y-90297550D01*
X113117732Y-90297550D02*
X113212970Y-90249931D01*
X113212970Y-90249931D02*
X113451065Y-90249931D01*
X113451065Y-90249931D02*
X113593922Y-90297550D01*
X113879637Y-90249931D02*
X114451065Y-90249931D01*
X114165351Y-91249931D02*
X114165351Y-90249931D01*
X132498683Y-91249931D02*
X132498683Y-90249931D01*
X132498683Y-90249931D02*
X132879635Y-90249931D01*
X132879635Y-90249931D02*
X132974873Y-90297550D01*
X132974873Y-90297550D02*
X133022492Y-90345169D01*
X133022492Y-90345169D02*
X133070111Y-90440407D01*
X133070111Y-90440407D02*
X133070111Y-90583264D01*
X133070111Y-90583264D02*
X133022492Y-90678502D01*
X133022492Y-90678502D02*
X132974873Y-90726121D01*
X132974873Y-90726121D02*
X132879635Y-90773740D01*
X132879635Y-90773740D02*
X132498683Y-90773740D01*
X133498683Y-90249931D02*
X133498683Y-91059454D01*
X133498683Y-91059454D02*
X133546302Y-91154692D01*
X133546302Y-91154692D02*
X133593921Y-91202312D01*
X133593921Y-91202312D02*
X133689159Y-91249931D01*
X133689159Y-91249931D02*
X133879635Y-91249931D01*
X133879635Y-91249931D02*
X133974873Y-91202312D01*
X133974873Y-91202312D02*
X134022492Y-91154692D01*
X134022492Y-91154692D02*
X134070111Y-91059454D01*
X134070111Y-91059454D02*
X134070111Y-90249931D01*
X135022492Y-91249931D02*
X134546302Y-91249931D01*
X134546302Y-91249931D02*
X134546302Y-90249931D01*
X135308207Y-91202312D02*
X135451064Y-91249931D01*
X135451064Y-91249931D02*
X135689159Y-91249931D01*
X135689159Y-91249931D02*
X135784397Y-91202312D01*
X135784397Y-91202312D02*
X135832016Y-91154692D01*
X135832016Y-91154692D02*
X135879635Y-91059454D01*
X135879635Y-91059454D02*
X135879635Y-90964216D01*
X135879635Y-90964216D02*
X135832016Y-90868978D01*
X135832016Y-90868978D02*
X135784397Y-90821359D01*
X135784397Y-90821359D02*
X135689159Y-90773740D01*
X135689159Y-90773740D02*
X135498683Y-90726121D01*
X135498683Y-90726121D02*
X135403445Y-90678502D01*
X135403445Y-90678502D02*
X135355826Y-90630883D01*
X135355826Y-90630883D02*
X135308207Y-90535645D01*
X135308207Y-90535645D02*
X135308207Y-90440407D01*
X135308207Y-90440407D02*
X135355826Y-90345169D01*
X135355826Y-90345169D02*
X135403445Y-90297550D01*
X135403445Y-90297550D02*
X135498683Y-90249931D01*
X135498683Y-90249931D02*
X135736778Y-90249931D01*
X135736778Y-90249931D02*
X135879635Y-90297550D01*
X136260588Y-90964216D02*
X136736778Y-90964216D01*
X136165350Y-91249931D02*
X136498683Y-90249931D01*
X136498683Y-90249931D02*
X136832016Y-91249931D01*
X137736778Y-91249931D02*
X137403445Y-90773740D01*
X137165350Y-91249931D02*
X137165350Y-90249931D01*
X137165350Y-90249931D02*
X137546302Y-90249931D01*
X137546302Y-90249931D02*
X137641540Y-90297550D01*
X137641540Y-90297550D02*
X137689159Y-90345169D01*
X137689159Y-90345169D02*
X137736778Y-90440407D01*
X137736778Y-90440407D02*
X137736778Y-90583264D01*
X137736778Y-90583264D02*
X137689159Y-90678502D01*
X137689159Y-90678502D02*
X137641540Y-90726121D01*
X137641540Y-90726121D02*
X137546302Y-90773740D01*
X137546302Y-90773740D02*
X137165350Y-90773740D01*
X138165350Y-90868978D02*
X138927255Y-90868978D01*
X139736778Y-90726121D02*
X139879635Y-90773740D01*
X139879635Y-90773740D02*
X139927254Y-90821359D01*
X139927254Y-90821359D02*
X139974873Y-90916597D01*
X139974873Y-90916597D02*
X139974873Y-91059454D01*
X139974873Y-91059454D02*
X139927254Y-91154692D01*
X139927254Y-91154692D02*
X139879635Y-91202312D01*
X139879635Y-91202312D02*
X139784397Y-91249931D01*
X139784397Y-91249931D02*
X139403445Y-91249931D01*
X139403445Y-91249931D02*
X139403445Y-90249931D01*
X139403445Y-90249931D02*
X139736778Y-90249931D01*
X139736778Y-90249931D02*
X139832016Y-90297550D01*
X139832016Y-90297550D02*
X139879635Y-90345169D01*
X139879635Y-90345169D02*
X139927254Y-90440407D01*
X139927254Y-90440407D02*
X139927254Y-90535645D01*
X139927254Y-90535645D02*
X139879635Y-90630883D01*
X139879635Y-90630883D02*
X139832016Y-90678502D01*
X139832016Y-90678502D02*
X139736778Y-90726121D01*
X139736778Y-90726121D02*
X139403445Y-90726121D01*
X140974873Y-91249931D02*
X140641540Y-90773740D01*
X140403445Y-91249931D02*
X140403445Y-90249931D01*
X140403445Y-90249931D02*
X140784397Y-90249931D01*
X140784397Y-90249931D02*
X140879635Y-90297550D01*
X140879635Y-90297550D02*
X140927254Y-90345169D01*
X140927254Y-90345169D02*
X140974873Y-90440407D01*
X140974873Y-90440407D02*
X140974873Y-90583264D01*
X140974873Y-90583264D02*
X140927254Y-90678502D01*
X140927254Y-90678502D02*
X140879635Y-90726121D01*
X140879635Y-90726121D02*
X140784397Y-90773740D01*
X140784397Y-90773740D02*
X140403445Y-90773740D01*
X141403445Y-90726121D02*
X141736778Y-90726121D01*
X141879635Y-91249931D02*
X141403445Y-91249931D01*
X141403445Y-91249931D02*
X141403445Y-90249931D01*
X141403445Y-90249931D02*
X141879635Y-90249931D01*
X142260588Y-90964216D02*
X142736778Y-90964216D01*
X142165350Y-91249931D02*
X142498683Y-90249931D01*
X142498683Y-90249931D02*
X142832016Y-91249931D01*
X143165350Y-91249931D02*
X143165350Y-90249931D01*
X143736778Y-91249931D02*
X143308207Y-90678502D01*
X143736778Y-90249931D02*
X143165350Y-90821359D01*
X144355826Y-90249931D02*
X144546302Y-90249931D01*
X144546302Y-90249931D02*
X144641540Y-90297550D01*
X144641540Y-90297550D02*
X144736778Y-90392788D01*
X144736778Y-90392788D02*
X144784397Y-90583264D01*
X144784397Y-90583264D02*
X144784397Y-90916597D01*
X144784397Y-90916597D02*
X144736778Y-91107073D01*
X144736778Y-91107073D02*
X144641540Y-91202312D01*
X144641540Y-91202312D02*
X144546302Y-91249931D01*
X144546302Y-91249931D02*
X144355826Y-91249931D01*
X144355826Y-91249931D02*
X144260588Y-91202312D01*
X144260588Y-91202312D02*
X144165350Y-91107073D01*
X144165350Y-91107073D02*
X144117731Y-90916597D01*
X144117731Y-90916597D02*
X144117731Y-90583264D01*
X144117731Y-90583264D02*
X144165350Y-90392788D01*
X144165350Y-90392788D02*
X144260588Y-90297550D01*
X144260588Y-90297550D02*
X144355826Y-90249931D01*
X145212969Y-90249931D02*
X145212969Y-91059454D01*
X145212969Y-91059454D02*
X145260588Y-91154692D01*
X145260588Y-91154692D02*
X145308207Y-91202312D01*
X145308207Y-91202312D02*
X145403445Y-91249931D01*
X145403445Y-91249931D02*
X145593921Y-91249931D01*
X145593921Y-91249931D02*
X145689159Y-91202312D01*
X145689159Y-91202312D02*
X145736778Y-91154692D01*
X145736778Y-91154692D02*
X145784397Y-91059454D01*
X145784397Y-91059454D02*
X145784397Y-90249931D01*
X146117731Y-90249931D02*
X146689159Y-90249931D01*
X146403445Y-91249931D02*
X146403445Y-90249931D01*
X147022493Y-90868978D02*
X147784398Y-90868978D01*
X148451064Y-90249931D02*
X148546302Y-90249931D01*
X148546302Y-90249931D02*
X148641540Y-90297550D01*
X148641540Y-90297550D02*
X148689159Y-90345169D01*
X148689159Y-90345169D02*
X148736778Y-90440407D01*
X148736778Y-90440407D02*
X148784397Y-90630883D01*
X148784397Y-90630883D02*
X148784397Y-90868978D01*
X148784397Y-90868978D02*
X148736778Y-91059454D01*
X148736778Y-91059454D02*
X148689159Y-91154692D01*
X148689159Y-91154692D02*
X148641540Y-91202312D01*
X148641540Y-91202312D02*
X148546302Y-91249931D01*
X148546302Y-91249931D02*
X148451064Y-91249931D01*
X148451064Y-91249931D02*
X148355826Y-91202312D01*
X148355826Y-91202312D02*
X148308207Y-91154692D01*
X148308207Y-91154692D02*
X148260588Y-91059454D01*
X148260588Y-91059454D02*
X148212969Y-90868978D01*
X148212969Y-90868978D02*
X148212969Y-90630883D01*
X148212969Y-90630883D02*
X148260588Y-90440407D01*
X148260588Y-90440407D02*
X148308207Y-90345169D01*
X148308207Y-90345169D02*
X148355826Y-90297550D01*
X148355826Y-90297550D02*
X148451064Y-90249931D01*
X149736778Y-91249931D02*
X149165350Y-91249931D01*
X149451064Y-91249931D02*
X149451064Y-90249931D01*
X149451064Y-90249931D02*
X149355826Y-90392788D01*
X149355826Y-90392788D02*
X149260588Y-90488026D01*
X149260588Y-90488026D02*
X149165350Y-90535645D01*
X150165350Y-90868978D02*
X150927255Y-90868978D01*
X151736778Y-90726121D02*
X151879635Y-90773740D01*
X151879635Y-90773740D02*
X151927254Y-90821359D01*
X151927254Y-90821359D02*
X151974873Y-90916597D01*
X151974873Y-90916597D02*
X151974873Y-91059454D01*
X151974873Y-91059454D02*
X151927254Y-91154692D01*
X151927254Y-91154692D02*
X151879635Y-91202312D01*
X151879635Y-91202312D02*
X151784397Y-91249931D01*
X151784397Y-91249931D02*
X151403445Y-91249931D01*
X151403445Y-91249931D02*
X151403445Y-90249931D01*
X151403445Y-90249931D02*
X151736778Y-90249931D01*
X151736778Y-90249931D02*
X151832016Y-90297550D01*
X151832016Y-90297550D02*
X151879635Y-90345169D01*
X151879635Y-90345169D02*
X151927254Y-90440407D01*
X151927254Y-90440407D02*
X151927254Y-90535645D01*
X151927254Y-90535645D02*
X151879635Y-90630883D01*
X151879635Y-90630883D02*
X151832016Y-90678502D01*
X151832016Y-90678502D02*
X151736778Y-90726121D01*
X151736778Y-90726121D02*
X151403445Y-90726121D01*
X152593921Y-90249931D02*
X152784397Y-90249931D01*
X152784397Y-90249931D02*
X152879635Y-90297550D01*
X152879635Y-90297550D02*
X152974873Y-90392788D01*
X152974873Y-90392788D02*
X153022492Y-90583264D01*
X153022492Y-90583264D02*
X153022492Y-90916597D01*
X153022492Y-90916597D02*
X152974873Y-91107073D01*
X152974873Y-91107073D02*
X152879635Y-91202312D01*
X152879635Y-91202312D02*
X152784397Y-91249931D01*
X152784397Y-91249931D02*
X152593921Y-91249931D01*
X152593921Y-91249931D02*
X152498683Y-91202312D01*
X152498683Y-91202312D02*
X152403445Y-91107073D01*
X152403445Y-91107073D02*
X152355826Y-90916597D01*
X152355826Y-90916597D02*
X152355826Y-90583264D01*
X152355826Y-90583264D02*
X152403445Y-90392788D01*
X152403445Y-90392788D02*
X152498683Y-90297550D01*
X152498683Y-90297550D02*
X152593921Y-90249931D01*
X153308207Y-90249931D02*
X153879635Y-90249931D01*
X153593921Y-91249931D02*
X153593921Y-90249931D01*
X154784397Y-91249931D02*
X154451064Y-90773740D01*
X154212969Y-91249931D02*
X154212969Y-90249931D01*
X154212969Y-90249931D02*
X154593921Y-90249931D01*
X154593921Y-90249931D02*
X154689159Y-90297550D01*
X154689159Y-90297550D02*
X154736778Y-90345169D01*
X154736778Y-90345169D02*
X154784397Y-90440407D01*
X154784397Y-90440407D02*
X154784397Y-90583264D01*
X154784397Y-90583264D02*
X154736778Y-90678502D01*
X154736778Y-90678502D02*
X154689159Y-90726121D01*
X154689159Y-90726121D02*
X154593921Y-90773740D01*
X154593921Y-90773740D02*
X154212969Y-90773740D01*
X155212969Y-90726121D02*
X155546302Y-90726121D01*
X155689159Y-91249931D02*
X155212969Y-91249931D01*
X155212969Y-91249931D02*
X155212969Y-90249931D01*
X155212969Y-90249931D02*
X155689159Y-90249931D01*
X156070112Y-91202312D02*
X156212969Y-91249931D01*
X156212969Y-91249931D02*
X156451064Y-91249931D01*
X156451064Y-91249931D02*
X156546302Y-91202312D01*
X156546302Y-91202312D02*
X156593921Y-91154692D01*
X156593921Y-91154692D02*
X156641540Y-91059454D01*
X156641540Y-91059454D02*
X156641540Y-90964216D01*
X156641540Y-90964216D02*
X156593921Y-90868978D01*
X156593921Y-90868978D02*
X156546302Y-90821359D01*
X156546302Y-90821359D02*
X156451064Y-90773740D01*
X156451064Y-90773740D02*
X156260588Y-90726121D01*
X156260588Y-90726121D02*
X156165350Y-90678502D01*
X156165350Y-90678502D02*
X156117731Y-90630883D01*
X156117731Y-90630883D02*
X156070112Y-90535645D01*
X156070112Y-90535645D02*
X156070112Y-90440407D01*
X156070112Y-90440407D02*
X156117731Y-90345169D01*
X156117731Y-90345169D02*
X156165350Y-90297550D01*
X156165350Y-90297550D02*
X156260588Y-90249931D01*
X156260588Y-90249931D02*
X156498683Y-90249931D01*
X156498683Y-90249931D02*
X156641540Y-90297550D01*
X157070112Y-91249931D02*
X157070112Y-90249931D01*
X157498683Y-91202312D02*
X157641540Y-91249931D01*
X157641540Y-91249931D02*
X157879635Y-91249931D01*
X157879635Y-91249931D02*
X157974873Y-91202312D01*
X157974873Y-91202312D02*
X158022492Y-91154692D01*
X158022492Y-91154692D02*
X158070111Y-91059454D01*
X158070111Y-91059454D02*
X158070111Y-90964216D01*
X158070111Y-90964216D02*
X158022492Y-90868978D01*
X158022492Y-90868978D02*
X157974873Y-90821359D01*
X157974873Y-90821359D02*
X157879635Y-90773740D01*
X157879635Y-90773740D02*
X157689159Y-90726121D01*
X157689159Y-90726121D02*
X157593921Y-90678502D01*
X157593921Y-90678502D02*
X157546302Y-90630883D01*
X157546302Y-90630883D02*
X157498683Y-90535645D01*
X157498683Y-90535645D02*
X157498683Y-90440407D01*
X157498683Y-90440407D02*
X157546302Y-90345169D01*
X157546302Y-90345169D02*
X157593921Y-90297550D01*
X157593921Y-90297550D02*
X157689159Y-90249931D01*
X157689159Y-90249931D02*
X157927254Y-90249931D01*
X157927254Y-90249931D02*
X158070111Y-90297550D01*
X158355826Y-90249931D02*
X158927254Y-90249931D01*
X158641540Y-91249931D02*
X158641540Y-90249931D01*
X159260588Y-91154692D02*
X159308207Y-91202312D01*
X159308207Y-91202312D02*
X159260588Y-91249931D01*
X159260588Y-91249931D02*
X159212969Y-91202312D01*
X159212969Y-91202312D02*
X159260588Y-91154692D01*
X159260588Y-91154692D02*
X159260588Y-91249931D01*
X160260587Y-90297550D02*
X160165349Y-90249931D01*
X160165349Y-90249931D02*
X160022492Y-90249931D01*
X160022492Y-90249931D02*
X159879635Y-90297550D01*
X159879635Y-90297550D02*
X159784397Y-90392788D01*
X159784397Y-90392788D02*
X159736778Y-90488026D01*
X159736778Y-90488026D02*
X159689159Y-90678502D01*
X159689159Y-90678502D02*
X159689159Y-90821359D01*
X159689159Y-90821359D02*
X159736778Y-91011835D01*
X159736778Y-91011835D02*
X159784397Y-91107073D01*
X159784397Y-91107073D02*
X159879635Y-91202312D01*
X159879635Y-91202312D02*
X160022492Y-91249931D01*
X160022492Y-91249931D02*
X160117730Y-91249931D01*
X160117730Y-91249931D02*
X160260587Y-91202312D01*
X160260587Y-91202312D02*
X160308206Y-91154692D01*
X160308206Y-91154692D02*
X160308206Y-90821359D01*
X160308206Y-90821359D02*
X160117730Y-90821359D01*
X161070111Y-90726121D02*
X161212968Y-90773740D01*
X161212968Y-90773740D02*
X161260587Y-90821359D01*
X161260587Y-90821359D02*
X161308206Y-90916597D01*
X161308206Y-90916597D02*
X161308206Y-91059454D01*
X161308206Y-91059454D02*
X161260587Y-91154692D01*
X161260587Y-91154692D02*
X161212968Y-91202312D01*
X161212968Y-91202312D02*
X161117730Y-91249931D01*
X161117730Y-91249931D02*
X160736778Y-91249931D01*
X160736778Y-91249931D02*
X160736778Y-90249931D01*
X160736778Y-90249931D02*
X161070111Y-90249931D01*
X161070111Y-90249931D02*
X161165349Y-90297550D01*
X161165349Y-90297550D02*
X161212968Y-90345169D01*
X161212968Y-90345169D02*
X161260587Y-90440407D01*
X161260587Y-90440407D02*
X161260587Y-90535645D01*
X161260587Y-90535645D02*
X161212968Y-90630883D01*
X161212968Y-90630883D02*
X161165349Y-90678502D01*
X161165349Y-90678502D02*
X161070111Y-90726121D01*
X161070111Y-90726121D02*
X160736778Y-90726121D01*
X162308206Y-91249931D02*
X161974873Y-90773740D01*
X161736778Y-91249931D02*
X161736778Y-90249931D01*
X161736778Y-90249931D02*
X162117730Y-90249931D01*
X162117730Y-90249931D02*
X162212968Y-90297550D01*
X162212968Y-90297550D02*
X162260587Y-90345169D01*
X162260587Y-90345169D02*
X162308206Y-90440407D01*
X162308206Y-90440407D02*
X162308206Y-90583264D01*
X162308206Y-90583264D02*
X162260587Y-90678502D01*
X162260587Y-90678502D02*
X162212968Y-90726121D01*
X162212968Y-90726121D02*
X162117730Y-90773740D01*
X162117730Y-90773740D02*
X161736778Y-90773740D01*
X96736779Y-92859875D02*
X96736779Y-91859875D01*
X96736779Y-91859875D02*
X97117731Y-91859875D01*
X97117731Y-91859875D02*
X97212969Y-91907494D01*
X97212969Y-91907494D02*
X97260588Y-91955113D01*
X97260588Y-91955113D02*
X97308207Y-92050351D01*
X97308207Y-92050351D02*
X97308207Y-92193208D01*
X97308207Y-92193208D02*
X97260588Y-92288446D01*
X97260588Y-92288446D02*
X97212969Y-92336065D01*
X97212969Y-92336065D02*
X97117731Y-92383684D01*
X97117731Y-92383684D02*
X96736779Y-92383684D01*
X97593922Y-91859875D02*
X98165350Y-91859875D01*
X97879636Y-92859875D02*
X97879636Y-91859875D01*
X98498684Y-92859875D02*
X98498684Y-91859875D01*
X98498684Y-92336065D02*
X99070112Y-92336065D01*
X99070112Y-92859875D02*
X99070112Y-91859875D01*
X100308208Y-92859875D02*
X100308208Y-91859875D01*
X100308208Y-91859875D02*
X100546303Y-91859875D01*
X100546303Y-91859875D02*
X100689160Y-91907494D01*
X100689160Y-91907494D02*
X100784398Y-92002732D01*
X100784398Y-92002732D02*
X100832017Y-92097970D01*
X100832017Y-92097970D02*
X100879636Y-92288446D01*
X100879636Y-92288446D02*
X100879636Y-92431303D01*
X100879636Y-92431303D02*
X100832017Y-92621779D01*
X100832017Y-92621779D02*
X100784398Y-92717017D01*
X100784398Y-92717017D02*
X100689160Y-92812256D01*
X100689160Y-92812256D02*
X100546303Y-92859875D01*
X100546303Y-92859875D02*
X100308208Y-92859875D01*
X101879636Y-92859875D02*
X101546303Y-92383684D01*
X101308208Y-92859875D02*
X101308208Y-91859875D01*
X101308208Y-91859875D02*
X101689160Y-91859875D01*
X101689160Y-91859875D02*
X101784398Y-91907494D01*
X101784398Y-91907494D02*
X101832017Y-91955113D01*
X101832017Y-91955113D02*
X101879636Y-92050351D01*
X101879636Y-92050351D02*
X101879636Y-92193208D01*
X101879636Y-92193208D02*
X101832017Y-92288446D01*
X101832017Y-92288446D02*
X101784398Y-92336065D01*
X101784398Y-92336065D02*
X101689160Y-92383684D01*
X101689160Y-92383684D02*
X101308208Y-92383684D01*
X102308208Y-92859875D02*
X102308208Y-91859875D01*
X103260588Y-92859875D02*
X102784398Y-92859875D01*
X102784398Y-92859875D02*
X102784398Y-91859875D01*
X104070112Y-92859875D02*
X103593922Y-92859875D01*
X103593922Y-92859875D02*
X103593922Y-91859875D01*
X105498684Y-92336065D02*
X105165351Y-92336065D01*
X105165351Y-92859875D02*
X105165351Y-91859875D01*
X105165351Y-91859875D02*
X105641541Y-91859875D01*
X106022494Y-92859875D02*
X106022494Y-91859875D01*
X106974874Y-92859875D02*
X106498684Y-92859875D01*
X106498684Y-92859875D02*
X106498684Y-91859875D01*
X107308208Y-92336065D02*
X107641541Y-92336065D01*
X107784398Y-92859875D02*
X107308208Y-92859875D01*
X107308208Y-92859875D02*
X107308208Y-91859875D01*
X107308208Y-91859875D02*
X107784398Y-91859875D01*
X132498683Y-92859875D02*
X132498683Y-91859875D01*
X132498683Y-91859875D02*
X132879635Y-91859875D01*
X132879635Y-91859875D02*
X132974873Y-91907494D01*
X132974873Y-91907494D02*
X133022492Y-91955113D01*
X133022492Y-91955113D02*
X133070111Y-92050351D01*
X133070111Y-92050351D02*
X133070111Y-92193208D01*
X133070111Y-92193208D02*
X133022492Y-92288446D01*
X133022492Y-92288446D02*
X132974873Y-92336065D01*
X132974873Y-92336065D02*
X132879635Y-92383684D01*
X132879635Y-92383684D02*
X132498683Y-92383684D01*
X133498683Y-91859875D02*
X133498683Y-92669398D01*
X133498683Y-92669398D02*
X133546302Y-92764636D01*
X133546302Y-92764636D02*
X133593921Y-92812256D01*
X133593921Y-92812256D02*
X133689159Y-92859875D01*
X133689159Y-92859875D02*
X133879635Y-92859875D01*
X133879635Y-92859875D02*
X133974873Y-92812256D01*
X133974873Y-92812256D02*
X134022492Y-92764636D01*
X134022492Y-92764636D02*
X134070111Y-92669398D01*
X134070111Y-92669398D02*
X134070111Y-91859875D01*
X135022492Y-92859875D02*
X134546302Y-92859875D01*
X134546302Y-92859875D02*
X134546302Y-91859875D01*
X135308207Y-92812256D02*
X135451064Y-92859875D01*
X135451064Y-92859875D02*
X135689159Y-92859875D01*
X135689159Y-92859875D02*
X135784397Y-92812256D01*
X135784397Y-92812256D02*
X135832016Y-92764636D01*
X135832016Y-92764636D02*
X135879635Y-92669398D01*
X135879635Y-92669398D02*
X135879635Y-92574160D01*
X135879635Y-92574160D02*
X135832016Y-92478922D01*
X135832016Y-92478922D02*
X135784397Y-92431303D01*
X135784397Y-92431303D02*
X135689159Y-92383684D01*
X135689159Y-92383684D02*
X135498683Y-92336065D01*
X135498683Y-92336065D02*
X135403445Y-92288446D01*
X135403445Y-92288446D02*
X135355826Y-92240827D01*
X135355826Y-92240827D02*
X135308207Y-92145589D01*
X135308207Y-92145589D02*
X135308207Y-92050351D01*
X135308207Y-92050351D02*
X135355826Y-91955113D01*
X135355826Y-91955113D02*
X135403445Y-91907494D01*
X135403445Y-91907494D02*
X135498683Y-91859875D01*
X135498683Y-91859875D02*
X135736778Y-91859875D01*
X135736778Y-91859875D02*
X135879635Y-91907494D01*
X136260588Y-92574160D02*
X136736778Y-92574160D01*
X136165350Y-92859875D02*
X136498683Y-91859875D01*
X136498683Y-91859875D02*
X136832016Y-92859875D01*
X137736778Y-92859875D02*
X137403445Y-92383684D01*
X137165350Y-92859875D02*
X137165350Y-91859875D01*
X137165350Y-91859875D02*
X137546302Y-91859875D01*
X137546302Y-91859875D02*
X137641540Y-91907494D01*
X137641540Y-91907494D02*
X137689159Y-91955113D01*
X137689159Y-91955113D02*
X137736778Y-92050351D01*
X137736778Y-92050351D02*
X137736778Y-92193208D01*
X137736778Y-92193208D02*
X137689159Y-92288446D01*
X137689159Y-92288446D02*
X137641540Y-92336065D01*
X137641540Y-92336065D02*
X137546302Y-92383684D01*
X137546302Y-92383684D02*
X137165350Y-92383684D01*
X138165350Y-92478922D02*
X138927255Y-92478922D01*
X139736778Y-92336065D02*
X139879635Y-92383684D01*
X139879635Y-92383684D02*
X139927254Y-92431303D01*
X139927254Y-92431303D02*
X139974873Y-92526541D01*
X139974873Y-92526541D02*
X139974873Y-92669398D01*
X139974873Y-92669398D02*
X139927254Y-92764636D01*
X139927254Y-92764636D02*
X139879635Y-92812256D01*
X139879635Y-92812256D02*
X139784397Y-92859875D01*
X139784397Y-92859875D02*
X139403445Y-92859875D01*
X139403445Y-92859875D02*
X139403445Y-91859875D01*
X139403445Y-91859875D02*
X139736778Y-91859875D01*
X139736778Y-91859875D02*
X139832016Y-91907494D01*
X139832016Y-91907494D02*
X139879635Y-91955113D01*
X139879635Y-91955113D02*
X139927254Y-92050351D01*
X139927254Y-92050351D02*
X139927254Y-92145589D01*
X139927254Y-92145589D02*
X139879635Y-92240827D01*
X139879635Y-92240827D02*
X139832016Y-92288446D01*
X139832016Y-92288446D02*
X139736778Y-92336065D01*
X139736778Y-92336065D02*
X139403445Y-92336065D01*
X140974873Y-92859875D02*
X140641540Y-92383684D01*
X140403445Y-92859875D02*
X140403445Y-91859875D01*
X140403445Y-91859875D02*
X140784397Y-91859875D01*
X140784397Y-91859875D02*
X140879635Y-91907494D01*
X140879635Y-91907494D02*
X140927254Y-91955113D01*
X140927254Y-91955113D02*
X140974873Y-92050351D01*
X140974873Y-92050351D02*
X140974873Y-92193208D01*
X140974873Y-92193208D02*
X140927254Y-92288446D01*
X140927254Y-92288446D02*
X140879635Y-92336065D01*
X140879635Y-92336065D02*
X140784397Y-92383684D01*
X140784397Y-92383684D02*
X140403445Y-92383684D01*
X141403445Y-92336065D02*
X141736778Y-92336065D01*
X141879635Y-92859875D02*
X141403445Y-92859875D01*
X141403445Y-92859875D02*
X141403445Y-91859875D01*
X141403445Y-91859875D02*
X141879635Y-91859875D01*
X142260588Y-92574160D02*
X142736778Y-92574160D01*
X142165350Y-92859875D02*
X142498683Y-91859875D01*
X142498683Y-91859875D02*
X142832016Y-92859875D01*
X143165350Y-92859875D02*
X143165350Y-91859875D01*
X143736778Y-92859875D02*
X143308207Y-92288446D01*
X143736778Y-91859875D02*
X143165350Y-92431303D01*
X144355826Y-91859875D02*
X144546302Y-91859875D01*
X144546302Y-91859875D02*
X144641540Y-91907494D01*
X144641540Y-91907494D02*
X144736778Y-92002732D01*
X144736778Y-92002732D02*
X144784397Y-92193208D01*
X144784397Y-92193208D02*
X144784397Y-92526541D01*
X144784397Y-92526541D02*
X144736778Y-92717017D01*
X144736778Y-92717017D02*
X144641540Y-92812256D01*
X144641540Y-92812256D02*
X144546302Y-92859875D01*
X144546302Y-92859875D02*
X144355826Y-92859875D01*
X144355826Y-92859875D02*
X144260588Y-92812256D01*
X144260588Y-92812256D02*
X144165350Y-92717017D01*
X144165350Y-92717017D02*
X144117731Y-92526541D01*
X144117731Y-92526541D02*
X144117731Y-92193208D01*
X144117731Y-92193208D02*
X144165350Y-92002732D01*
X144165350Y-92002732D02*
X144260588Y-91907494D01*
X144260588Y-91907494D02*
X144355826Y-91859875D01*
X145212969Y-91859875D02*
X145212969Y-92669398D01*
X145212969Y-92669398D02*
X145260588Y-92764636D01*
X145260588Y-92764636D02*
X145308207Y-92812256D01*
X145308207Y-92812256D02*
X145403445Y-92859875D01*
X145403445Y-92859875D02*
X145593921Y-92859875D01*
X145593921Y-92859875D02*
X145689159Y-92812256D01*
X145689159Y-92812256D02*
X145736778Y-92764636D01*
X145736778Y-92764636D02*
X145784397Y-92669398D01*
X145784397Y-92669398D02*
X145784397Y-91859875D01*
X146117731Y-91859875D02*
X146689159Y-91859875D01*
X146403445Y-92859875D02*
X146403445Y-91859875D01*
X147022493Y-92478922D02*
X147784398Y-92478922D01*
X148451064Y-91859875D02*
X148546302Y-91859875D01*
X148546302Y-91859875D02*
X148641540Y-91907494D01*
X148641540Y-91907494D02*
X148689159Y-91955113D01*
X148689159Y-91955113D02*
X148736778Y-92050351D01*
X148736778Y-92050351D02*
X148784397Y-92240827D01*
X148784397Y-92240827D02*
X148784397Y-92478922D01*
X148784397Y-92478922D02*
X148736778Y-92669398D01*
X148736778Y-92669398D02*
X148689159Y-92764636D01*
X148689159Y-92764636D02*
X148641540Y-92812256D01*
X148641540Y-92812256D02*
X148546302Y-92859875D01*
X148546302Y-92859875D02*
X148451064Y-92859875D01*
X148451064Y-92859875D02*
X148355826Y-92812256D01*
X148355826Y-92812256D02*
X148308207Y-92764636D01*
X148308207Y-92764636D02*
X148260588Y-92669398D01*
X148260588Y-92669398D02*
X148212969Y-92478922D01*
X148212969Y-92478922D02*
X148212969Y-92240827D01*
X148212969Y-92240827D02*
X148260588Y-92050351D01*
X148260588Y-92050351D02*
X148308207Y-91955113D01*
X148308207Y-91955113D02*
X148355826Y-91907494D01*
X148355826Y-91907494D02*
X148451064Y-91859875D01*
X149736778Y-92859875D02*
X149165350Y-92859875D01*
X149451064Y-92859875D02*
X149451064Y-91859875D01*
X149451064Y-91859875D02*
X149355826Y-92002732D01*
X149355826Y-92002732D02*
X149260588Y-92097970D01*
X149260588Y-92097970D02*
X149165350Y-92145589D01*
X150165350Y-92478922D02*
X150927255Y-92478922D01*
X151403445Y-92859875D02*
X151403445Y-91859875D01*
X151403445Y-91859875D02*
X151784397Y-91859875D01*
X151784397Y-91859875D02*
X151879635Y-91907494D01*
X151879635Y-91907494D02*
X151927254Y-91955113D01*
X151927254Y-91955113D02*
X151974873Y-92050351D01*
X151974873Y-92050351D02*
X151974873Y-92193208D01*
X151974873Y-92193208D02*
X151927254Y-92288446D01*
X151927254Y-92288446D02*
X151879635Y-92336065D01*
X151879635Y-92336065D02*
X151784397Y-92383684D01*
X151784397Y-92383684D02*
X151403445Y-92383684D01*
X152260588Y-91859875D02*
X152832016Y-91859875D01*
X152546302Y-92859875D02*
X152546302Y-91859875D01*
X153165350Y-92859875D02*
X153165350Y-91859875D01*
X153165350Y-92336065D02*
X153736778Y-92336065D01*
X153736778Y-92859875D02*
X153736778Y-91859875D01*
X154212969Y-92764636D02*
X154260588Y-92812256D01*
X154260588Y-92812256D02*
X154212969Y-92859875D01*
X154212969Y-92859875D02*
X154165350Y-92812256D01*
X154165350Y-92812256D02*
X154212969Y-92764636D01*
X154212969Y-92764636D02*
X154212969Y-92859875D01*
X154689159Y-92859875D02*
X154689159Y-91859875D01*
X154689159Y-91859875D02*
X154927254Y-91859875D01*
X154927254Y-91859875D02*
X155070111Y-91907494D01*
X155070111Y-91907494D02*
X155165349Y-92002732D01*
X155165349Y-92002732D02*
X155212968Y-92097970D01*
X155212968Y-92097970D02*
X155260587Y-92288446D01*
X155260587Y-92288446D02*
X155260587Y-92431303D01*
X155260587Y-92431303D02*
X155212968Y-92621779D01*
X155212968Y-92621779D02*
X155165349Y-92717017D01*
X155165349Y-92717017D02*
X155070111Y-92812256D01*
X155070111Y-92812256D02*
X154927254Y-92859875D01*
X154927254Y-92859875D02*
X154689159Y-92859875D01*
X156260587Y-92859875D02*
X155927254Y-92383684D01*
X155689159Y-92859875D02*
X155689159Y-91859875D01*
X155689159Y-91859875D02*
X156070111Y-91859875D01*
X156070111Y-91859875D02*
X156165349Y-91907494D01*
X156165349Y-91907494D02*
X156212968Y-91955113D01*
X156212968Y-91955113D02*
X156260587Y-92050351D01*
X156260587Y-92050351D02*
X156260587Y-92193208D01*
X156260587Y-92193208D02*
X156212968Y-92288446D01*
X156212968Y-92288446D02*
X156165349Y-92336065D01*
X156165349Y-92336065D02*
X156070111Y-92383684D01*
X156070111Y-92383684D02*
X155689159Y-92383684D01*
X157165349Y-92859875D02*
X156689159Y-92859875D01*
X156689159Y-92859875D02*
X156689159Y-91859875D01*
X97070112Y-93946009D02*
X97212969Y-93993628D01*
X97212969Y-93993628D02*
X97260588Y-94041247D01*
X97260588Y-94041247D02*
X97308207Y-94136485D01*
X97308207Y-94136485D02*
X97308207Y-94279342D01*
X97308207Y-94279342D02*
X97260588Y-94374580D01*
X97260588Y-94374580D02*
X97212969Y-94422200D01*
X97212969Y-94422200D02*
X97117731Y-94469819D01*
X97117731Y-94469819D02*
X96736779Y-94469819D01*
X96736779Y-94469819D02*
X96736779Y-93469819D01*
X96736779Y-93469819D02*
X97070112Y-93469819D01*
X97070112Y-93469819D02*
X97165350Y-93517438D01*
X97165350Y-93517438D02*
X97212969Y-93565057D01*
X97212969Y-93565057D02*
X97260588Y-93660295D01*
X97260588Y-93660295D02*
X97260588Y-93755533D01*
X97260588Y-93755533D02*
X97212969Y-93850771D01*
X97212969Y-93850771D02*
X97165350Y-93898390D01*
X97165350Y-93898390D02*
X97070112Y-93946009D01*
X97070112Y-93946009D02*
X96736779Y-93946009D01*
X97927255Y-93469819D02*
X98117731Y-93469819D01*
X98117731Y-93469819D02*
X98212969Y-93517438D01*
X98212969Y-93517438D02*
X98308207Y-93612676D01*
X98308207Y-93612676D02*
X98355826Y-93803152D01*
X98355826Y-93803152D02*
X98355826Y-94136485D01*
X98355826Y-94136485D02*
X98308207Y-94326961D01*
X98308207Y-94326961D02*
X98212969Y-94422200D01*
X98212969Y-94422200D02*
X98117731Y-94469819D01*
X98117731Y-94469819D02*
X97927255Y-94469819D01*
X97927255Y-94469819D02*
X97832017Y-94422200D01*
X97832017Y-94422200D02*
X97736779Y-94326961D01*
X97736779Y-94326961D02*
X97689160Y-94136485D01*
X97689160Y-94136485D02*
X97689160Y-93803152D01*
X97689160Y-93803152D02*
X97736779Y-93612676D01*
X97736779Y-93612676D02*
X97832017Y-93517438D01*
X97832017Y-93517438D02*
X97927255Y-93469819D01*
X98736779Y-94184104D02*
X99212969Y-94184104D01*
X98641541Y-94469819D02*
X98974874Y-93469819D01*
X98974874Y-93469819D02*
X99308207Y-94469819D01*
X100212969Y-94469819D02*
X99879636Y-93993628D01*
X99641541Y-94469819D02*
X99641541Y-93469819D01*
X99641541Y-93469819D02*
X100022493Y-93469819D01*
X100022493Y-93469819D02*
X100117731Y-93517438D01*
X100117731Y-93517438D02*
X100165350Y-93565057D01*
X100165350Y-93565057D02*
X100212969Y-93660295D01*
X100212969Y-93660295D02*
X100212969Y-93803152D01*
X100212969Y-93803152D02*
X100165350Y-93898390D01*
X100165350Y-93898390D02*
X100117731Y-93946009D01*
X100117731Y-93946009D02*
X100022493Y-93993628D01*
X100022493Y-93993628D02*
X99641541Y-93993628D01*
X100641541Y-94469819D02*
X100641541Y-93469819D01*
X100641541Y-93469819D02*
X100879636Y-93469819D01*
X100879636Y-93469819D02*
X101022493Y-93517438D01*
X101022493Y-93517438D02*
X101117731Y-93612676D01*
X101117731Y-93612676D02*
X101165350Y-93707914D01*
X101165350Y-93707914D02*
X101212969Y-93898390D01*
X101212969Y-93898390D02*
X101212969Y-94041247D01*
X101212969Y-94041247D02*
X101165350Y-94231723D01*
X101165350Y-94231723D02*
X101117731Y-94326961D01*
X101117731Y-94326961D02*
X101022493Y-94422200D01*
X101022493Y-94422200D02*
X100879636Y-94469819D01*
X100879636Y-94469819D02*
X100641541Y-94469819D01*
X102593922Y-93469819D02*
X102784398Y-93469819D01*
X102784398Y-93469819D02*
X102879636Y-93517438D01*
X102879636Y-93517438D02*
X102974874Y-93612676D01*
X102974874Y-93612676D02*
X103022493Y-93803152D01*
X103022493Y-93803152D02*
X103022493Y-94136485D01*
X103022493Y-94136485D02*
X102974874Y-94326961D01*
X102974874Y-94326961D02*
X102879636Y-94422200D01*
X102879636Y-94422200D02*
X102784398Y-94469819D01*
X102784398Y-94469819D02*
X102593922Y-94469819D01*
X102593922Y-94469819D02*
X102498684Y-94422200D01*
X102498684Y-94422200D02*
X102403446Y-94326961D01*
X102403446Y-94326961D02*
X102355827Y-94136485D01*
X102355827Y-94136485D02*
X102355827Y-93803152D01*
X102355827Y-93803152D02*
X102403446Y-93612676D01*
X102403446Y-93612676D02*
X102498684Y-93517438D01*
X102498684Y-93517438D02*
X102593922Y-93469819D01*
X103451065Y-93469819D02*
X103451065Y-94279342D01*
X103451065Y-94279342D02*
X103498684Y-94374580D01*
X103498684Y-94374580D02*
X103546303Y-94422200D01*
X103546303Y-94422200D02*
X103641541Y-94469819D01*
X103641541Y-94469819D02*
X103832017Y-94469819D01*
X103832017Y-94469819D02*
X103927255Y-94422200D01*
X103927255Y-94422200D02*
X103974874Y-94374580D01*
X103974874Y-94374580D02*
X104022493Y-94279342D01*
X104022493Y-94279342D02*
X104022493Y-93469819D01*
X104355827Y-93469819D02*
X104927255Y-93469819D01*
X104641541Y-94469819D02*
X104641541Y-93469819D01*
X105736779Y-94469819D02*
X105260589Y-94469819D01*
X105260589Y-94469819D02*
X105260589Y-93469819D01*
X106070113Y-94469819D02*
X106070113Y-93469819D01*
X106546303Y-94469819D02*
X106546303Y-93469819D01*
X106546303Y-93469819D02*
X107117731Y-94469819D01*
X107117731Y-94469819D02*
X107117731Y-93469819D01*
X107593922Y-93946009D02*
X107927255Y-93946009D01*
X108070112Y-94469819D02*
X107593922Y-94469819D01*
X107593922Y-94469819D02*
X107593922Y-93469819D01*
X107593922Y-93469819D02*
X108070112Y-93469819D01*
X110070113Y-94469819D02*
X110022494Y-94469819D01*
X110022494Y-94469819D02*
X109927255Y-94422200D01*
X109927255Y-94422200D02*
X109784398Y-94279342D01*
X109784398Y-94279342D02*
X109546303Y-93993628D01*
X109546303Y-93993628D02*
X109451065Y-93850771D01*
X109451065Y-93850771D02*
X109403446Y-93707914D01*
X109403446Y-93707914D02*
X109403446Y-93612676D01*
X109403446Y-93612676D02*
X109451065Y-93517438D01*
X109451065Y-93517438D02*
X109546303Y-93469819D01*
X109546303Y-93469819D02*
X109593922Y-93469819D01*
X109593922Y-93469819D02*
X109689160Y-93517438D01*
X109689160Y-93517438D02*
X109736779Y-93612676D01*
X109736779Y-93612676D02*
X109736779Y-93660295D01*
X109736779Y-93660295D02*
X109689160Y-93755533D01*
X109689160Y-93755533D02*
X109641541Y-93803152D01*
X109641541Y-93803152D02*
X109355827Y-93993628D01*
X109355827Y-93993628D02*
X109308208Y-94041247D01*
X109308208Y-94041247D02*
X109260589Y-94136485D01*
X109260589Y-94136485D02*
X109260589Y-94279342D01*
X109260589Y-94279342D02*
X109308208Y-94374580D01*
X109308208Y-94374580D02*
X109355827Y-94422200D01*
X109355827Y-94422200D02*
X109451065Y-94469819D01*
X109451065Y-94469819D02*
X109593922Y-94469819D01*
X109593922Y-94469819D02*
X109689160Y-94422200D01*
X109689160Y-94422200D02*
X109736779Y-94374580D01*
X109736779Y-94374580D02*
X109879636Y-94184104D01*
X109879636Y-94184104D02*
X109927255Y-94041247D01*
X109927255Y-94041247D02*
X109927255Y-93946009D01*
X111260589Y-94469819D02*
X111260589Y-93469819D01*
X111260589Y-93469819D02*
X111498684Y-93469819D01*
X111498684Y-93469819D02*
X111641541Y-93517438D01*
X111641541Y-93517438D02*
X111736779Y-93612676D01*
X111736779Y-93612676D02*
X111784398Y-93707914D01*
X111784398Y-93707914D02*
X111832017Y-93898390D01*
X111832017Y-93898390D02*
X111832017Y-94041247D01*
X111832017Y-94041247D02*
X111784398Y-94231723D01*
X111784398Y-94231723D02*
X111736779Y-94326961D01*
X111736779Y-94326961D02*
X111641541Y-94422200D01*
X111641541Y-94422200D02*
X111498684Y-94469819D01*
X111498684Y-94469819D02*
X111260589Y-94469819D01*
X112260589Y-94469819D02*
X112260589Y-93469819D01*
X112736779Y-94469819D02*
X112736779Y-93469819D01*
X112736779Y-93469819D02*
X113070112Y-94184104D01*
X113070112Y-94184104D02*
X113403445Y-93469819D01*
X113403445Y-93469819D02*
X113403445Y-94469819D01*
X113879636Y-93946009D02*
X114212969Y-93946009D01*
X114355826Y-94469819D02*
X113879636Y-94469819D01*
X113879636Y-94469819D02*
X113879636Y-93469819D01*
X113879636Y-93469819D02*
X114355826Y-93469819D01*
X114784398Y-94469819D02*
X114784398Y-93469819D01*
X114784398Y-93469819D02*
X115355826Y-94469819D01*
X115355826Y-94469819D02*
X115355826Y-93469819D01*
X115784398Y-94422200D02*
X115927255Y-94469819D01*
X115927255Y-94469819D02*
X116165350Y-94469819D01*
X116165350Y-94469819D02*
X116260588Y-94422200D01*
X116260588Y-94422200D02*
X116308207Y-94374580D01*
X116308207Y-94374580D02*
X116355826Y-94279342D01*
X116355826Y-94279342D02*
X116355826Y-94184104D01*
X116355826Y-94184104D02*
X116308207Y-94088866D01*
X116308207Y-94088866D02*
X116260588Y-94041247D01*
X116260588Y-94041247D02*
X116165350Y-93993628D01*
X116165350Y-93993628D02*
X115974874Y-93946009D01*
X115974874Y-93946009D02*
X115879636Y-93898390D01*
X115879636Y-93898390D02*
X115832017Y-93850771D01*
X115832017Y-93850771D02*
X115784398Y-93755533D01*
X115784398Y-93755533D02*
X115784398Y-93660295D01*
X115784398Y-93660295D02*
X115832017Y-93565057D01*
X115832017Y-93565057D02*
X115879636Y-93517438D01*
X115879636Y-93517438D02*
X115974874Y-93469819D01*
X115974874Y-93469819D02*
X116212969Y-93469819D01*
X116212969Y-93469819D02*
X116355826Y-93517438D01*
X116784398Y-94469819D02*
X116784398Y-93469819D01*
X117451064Y-93469819D02*
X117641540Y-93469819D01*
X117641540Y-93469819D02*
X117736778Y-93517438D01*
X117736778Y-93517438D02*
X117832016Y-93612676D01*
X117832016Y-93612676D02*
X117879635Y-93803152D01*
X117879635Y-93803152D02*
X117879635Y-94136485D01*
X117879635Y-94136485D02*
X117832016Y-94326961D01*
X117832016Y-94326961D02*
X117736778Y-94422200D01*
X117736778Y-94422200D02*
X117641540Y-94469819D01*
X117641540Y-94469819D02*
X117451064Y-94469819D01*
X117451064Y-94469819D02*
X117355826Y-94422200D01*
X117355826Y-94422200D02*
X117260588Y-94326961D01*
X117260588Y-94326961D02*
X117212969Y-94136485D01*
X117212969Y-94136485D02*
X117212969Y-93803152D01*
X117212969Y-93803152D02*
X117260588Y-93612676D01*
X117260588Y-93612676D02*
X117355826Y-93517438D01*
X117355826Y-93517438D02*
X117451064Y-93469819D01*
X118308207Y-94469819D02*
X118308207Y-93469819D01*
X118308207Y-93469819D02*
X118879635Y-94469819D01*
X118879635Y-94469819D02*
X118879635Y-93469819D01*
X119308207Y-94422200D02*
X119451064Y-94469819D01*
X119451064Y-94469819D02*
X119689159Y-94469819D01*
X119689159Y-94469819D02*
X119784397Y-94422200D01*
X119784397Y-94422200D02*
X119832016Y-94374580D01*
X119832016Y-94374580D02*
X119879635Y-94279342D01*
X119879635Y-94279342D02*
X119879635Y-94184104D01*
X119879635Y-94184104D02*
X119832016Y-94088866D01*
X119832016Y-94088866D02*
X119784397Y-94041247D01*
X119784397Y-94041247D02*
X119689159Y-93993628D01*
X119689159Y-93993628D02*
X119498683Y-93946009D01*
X119498683Y-93946009D02*
X119403445Y-93898390D01*
X119403445Y-93898390D02*
X119355826Y-93850771D01*
X119355826Y-93850771D02*
X119308207Y-93755533D01*
X119308207Y-93755533D02*
X119308207Y-93660295D01*
X119308207Y-93660295D02*
X119355826Y-93565057D01*
X119355826Y-93565057D02*
X119403445Y-93517438D01*
X119403445Y-93517438D02*
X119498683Y-93469819D01*
X119498683Y-93469819D02*
X119736778Y-93469819D01*
X119736778Y-93469819D02*
X119879635Y-93517438D01*
X132498683Y-94469819D02*
X132498683Y-93469819D01*
X132498683Y-93469819D02*
X132879635Y-93469819D01*
X132879635Y-93469819D02*
X132974873Y-93517438D01*
X132974873Y-93517438D02*
X133022492Y-93565057D01*
X133022492Y-93565057D02*
X133070111Y-93660295D01*
X133070111Y-93660295D02*
X133070111Y-93803152D01*
X133070111Y-93803152D02*
X133022492Y-93898390D01*
X133022492Y-93898390D02*
X132974873Y-93946009D01*
X132974873Y-93946009D02*
X132879635Y-93993628D01*
X132879635Y-93993628D02*
X132498683Y-93993628D01*
X133498683Y-93469819D02*
X133498683Y-94279342D01*
X133498683Y-94279342D02*
X133546302Y-94374580D01*
X133546302Y-94374580D02*
X133593921Y-94422200D01*
X133593921Y-94422200D02*
X133689159Y-94469819D01*
X133689159Y-94469819D02*
X133879635Y-94469819D01*
X133879635Y-94469819D02*
X133974873Y-94422200D01*
X133974873Y-94422200D02*
X134022492Y-94374580D01*
X134022492Y-94374580D02*
X134070111Y-94279342D01*
X134070111Y-94279342D02*
X134070111Y-93469819D01*
X135022492Y-94469819D02*
X134546302Y-94469819D01*
X134546302Y-94469819D02*
X134546302Y-93469819D01*
X135308207Y-94422200D02*
X135451064Y-94469819D01*
X135451064Y-94469819D02*
X135689159Y-94469819D01*
X135689159Y-94469819D02*
X135784397Y-94422200D01*
X135784397Y-94422200D02*
X135832016Y-94374580D01*
X135832016Y-94374580D02*
X135879635Y-94279342D01*
X135879635Y-94279342D02*
X135879635Y-94184104D01*
X135879635Y-94184104D02*
X135832016Y-94088866D01*
X135832016Y-94088866D02*
X135784397Y-94041247D01*
X135784397Y-94041247D02*
X135689159Y-93993628D01*
X135689159Y-93993628D02*
X135498683Y-93946009D01*
X135498683Y-93946009D02*
X135403445Y-93898390D01*
X135403445Y-93898390D02*
X135355826Y-93850771D01*
X135355826Y-93850771D02*
X135308207Y-93755533D01*
X135308207Y-93755533D02*
X135308207Y-93660295D01*
X135308207Y-93660295D02*
X135355826Y-93565057D01*
X135355826Y-93565057D02*
X135403445Y-93517438D01*
X135403445Y-93517438D02*
X135498683Y-93469819D01*
X135498683Y-93469819D02*
X135736778Y-93469819D01*
X135736778Y-93469819D02*
X135879635Y-93517438D01*
X136260588Y-94184104D02*
X136736778Y-94184104D01*
X136165350Y-94469819D02*
X136498683Y-93469819D01*
X136498683Y-93469819D02*
X136832016Y-94469819D01*
X137736778Y-94469819D02*
X137403445Y-93993628D01*
X137165350Y-94469819D02*
X137165350Y-93469819D01*
X137165350Y-93469819D02*
X137546302Y-93469819D01*
X137546302Y-93469819D02*
X137641540Y-93517438D01*
X137641540Y-93517438D02*
X137689159Y-93565057D01*
X137689159Y-93565057D02*
X137736778Y-93660295D01*
X137736778Y-93660295D02*
X137736778Y-93803152D01*
X137736778Y-93803152D02*
X137689159Y-93898390D01*
X137689159Y-93898390D02*
X137641540Y-93946009D01*
X137641540Y-93946009D02*
X137546302Y-93993628D01*
X137546302Y-93993628D02*
X137165350Y-93993628D01*
X138165350Y-94088866D02*
X138927255Y-94088866D01*
X139736778Y-93946009D02*
X139879635Y-93993628D01*
X139879635Y-93993628D02*
X139927254Y-94041247D01*
X139927254Y-94041247D02*
X139974873Y-94136485D01*
X139974873Y-94136485D02*
X139974873Y-94279342D01*
X139974873Y-94279342D02*
X139927254Y-94374580D01*
X139927254Y-94374580D02*
X139879635Y-94422200D01*
X139879635Y-94422200D02*
X139784397Y-94469819D01*
X139784397Y-94469819D02*
X139403445Y-94469819D01*
X139403445Y-94469819D02*
X139403445Y-93469819D01*
X139403445Y-93469819D02*
X139736778Y-93469819D01*
X139736778Y-93469819D02*
X139832016Y-93517438D01*
X139832016Y-93517438D02*
X139879635Y-93565057D01*
X139879635Y-93565057D02*
X139927254Y-93660295D01*
X139927254Y-93660295D02*
X139927254Y-93755533D01*
X139927254Y-93755533D02*
X139879635Y-93850771D01*
X139879635Y-93850771D02*
X139832016Y-93898390D01*
X139832016Y-93898390D02*
X139736778Y-93946009D01*
X139736778Y-93946009D02*
X139403445Y-93946009D01*
X140974873Y-94469819D02*
X140641540Y-93993628D01*
X140403445Y-94469819D02*
X140403445Y-93469819D01*
X140403445Y-93469819D02*
X140784397Y-93469819D01*
X140784397Y-93469819D02*
X140879635Y-93517438D01*
X140879635Y-93517438D02*
X140927254Y-93565057D01*
X140927254Y-93565057D02*
X140974873Y-93660295D01*
X140974873Y-93660295D02*
X140974873Y-93803152D01*
X140974873Y-93803152D02*
X140927254Y-93898390D01*
X140927254Y-93898390D02*
X140879635Y-93946009D01*
X140879635Y-93946009D02*
X140784397Y-93993628D01*
X140784397Y-93993628D02*
X140403445Y-93993628D01*
X141403445Y-93946009D02*
X141736778Y-93946009D01*
X141879635Y-94469819D02*
X141403445Y-94469819D01*
X141403445Y-94469819D02*
X141403445Y-93469819D01*
X141403445Y-93469819D02*
X141879635Y-93469819D01*
X142260588Y-94184104D02*
X142736778Y-94184104D01*
X142165350Y-94469819D02*
X142498683Y-93469819D01*
X142498683Y-93469819D02*
X142832016Y-94469819D01*
X143165350Y-94469819D02*
X143165350Y-93469819D01*
X143736778Y-94469819D02*
X143308207Y-93898390D01*
X143736778Y-93469819D02*
X143165350Y-94041247D01*
X144355826Y-93469819D02*
X144546302Y-93469819D01*
X144546302Y-93469819D02*
X144641540Y-93517438D01*
X144641540Y-93517438D02*
X144736778Y-93612676D01*
X144736778Y-93612676D02*
X144784397Y-93803152D01*
X144784397Y-93803152D02*
X144784397Y-94136485D01*
X144784397Y-94136485D02*
X144736778Y-94326961D01*
X144736778Y-94326961D02*
X144641540Y-94422200D01*
X144641540Y-94422200D02*
X144546302Y-94469819D01*
X144546302Y-94469819D02*
X144355826Y-94469819D01*
X144355826Y-94469819D02*
X144260588Y-94422200D01*
X144260588Y-94422200D02*
X144165350Y-94326961D01*
X144165350Y-94326961D02*
X144117731Y-94136485D01*
X144117731Y-94136485D02*
X144117731Y-93803152D01*
X144117731Y-93803152D02*
X144165350Y-93612676D01*
X144165350Y-93612676D02*
X144260588Y-93517438D01*
X144260588Y-93517438D02*
X144355826Y-93469819D01*
X145212969Y-93469819D02*
X145212969Y-94279342D01*
X145212969Y-94279342D02*
X145260588Y-94374580D01*
X145260588Y-94374580D02*
X145308207Y-94422200D01*
X145308207Y-94422200D02*
X145403445Y-94469819D01*
X145403445Y-94469819D02*
X145593921Y-94469819D01*
X145593921Y-94469819D02*
X145689159Y-94422200D01*
X145689159Y-94422200D02*
X145736778Y-94374580D01*
X145736778Y-94374580D02*
X145784397Y-94279342D01*
X145784397Y-94279342D02*
X145784397Y-93469819D01*
X146117731Y-93469819D02*
X146689159Y-93469819D01*
X146403445Y-94469819D02*
X146403445Y-93469819D01*
X147022493Y-94088866D02*
X147784398Y-94088866D01*
X148451064Y-93469819D02*
X148546302Y-93469819D01*
X148546302Y-93469819D02*
X148641540Y-93517438D01*
X148641540Y-93517438D02*
X148689159Y-93565057D01*
X148689159Y-93565057D02*
X148736778Y-93660295D01*
X148736778Y-93660295D02*
X148784397Y-93850771D01*
X148784397Y-93850771D02*
X148784397Y-94088866D01*
X148784397Y-94088866D02*
X148736778Y-94279342D01*
X148736778Y-94279342D02*
X148689159Y-94374580D01*
X148689159Y-94374580D02*
X148641540Y-94422200D01*
X148641540Y-94422200D02*
X148546302Y-94469819D01*
X148546302Y-94469819D02*
X148451064Y-94469819D01*
X148451064Y-94469819D02*
X148355826Y-94422200D01*
X148355826Y-94422200D02*
X148308207Y-94374580D01*
X148308207Y-94374580D02*
X148260588Y-94279342D01*
X148260588Y-94279342D02*
X148212969Y-94088866D01*
X148212969Y-94088866D02*
X148212969Y-93850771D01*
X148212969Y-93850771D02*
X148260588Y-93660295D01*
X148260588Y-93660295D02*
X148308207Y-93565057D01*
X148308207Y-93565057D02*
X148355826Y-93517438D01*
X148355826Y-93517438D02*
X148451064Y-93469819D01*
X149736778Y-94469819D02*
X149165350Y-94469819D01*
X149451064Y-94469819D02*
X149451064Y-93469819D01*
X149451064Y-93469819D02*
X149355826Y-93612676D01*
X149355826Y-93612676D02*
X149260588Y-93707914D01*
X149260588Y-93707914D02*
X149165350Y-93755533D01*
X150165350Y-94088866D02*
X150927255Y-94088866D01*
X151403445Y-94469819D02*
X151403445Y-93469819D01*
X151403445Y-93469819D02*
X151784397Y-93469819D01*
X151784397Y-93469819D02*
X151879635Y-93517438D01*
X151879635Y-93517438D02*
X151927254Y-93565057D01*
X151927254Y-93565057D02*
X151974873Y-93660295D01*
X151974873Y-93660295D02*
X151974873Y-93803152D01*
X151974873Y-93803152D02*
X151927254Y-93898390D01*
X151927254Y-93898390D02*
X151879635Y-93946009D01*
X151879635Y-93946009D02*
X151784397Y-93993628D01*
X151784397Y-93993628D02*
X151403445Y-93993628D01*
X152355826Y-94184104D02*
X152832016Y-94184104D01*
X152260588Y-94469819D02*
X152593921Y-93469819D01*
X152593921Y-93469819D02*
X152927254Y-94469819D01*
X153260588Y-94469819D02*
X153260588Y-93469819D01*
X153260588Y-93469819D02*
X153832016Y-94469819D01*
X153832016Y-94469819D02*
X153832016Y-93469819D01*
X154308207Y-93946009D02*
X154641540Y-93946009D01*
X154784397Y-94469819D02*
X154308207Y-94469819D01*
X154308207Y-94469819D02*
X154308207Y-93469819D01*
X154308207Y-93469819D02*
X154784397Y-93469819D01*
X155689159Y-94469819D02*
X155212969Y-94469819D01*
X155212969Y-94469819D02*
X155212969Y-93469819D01*
X156022493Y-94469819D02*
X156022493Y-93469819D01*
X156022493Y-93469819D02*
X156403445Y-93469819D01*
X156403445Y-93469819D02*
X156498683Y-93517438D01*
X156498683Y-93517438D02*
X156546302Y-93565057D01*
X156546302Y-93565057D02*
X156593921Y-93660295D01*
X156593921Y-93660295D02*
X156593921Y-93803152D01*
X156593921Y-93803152D02*
X156546302Y-93898390D01*
X156546302Y-93898390D02*
X156498683Y-93946009D01*
X156498683Y-93946009D02*
X156403445Y-93993628D01*
X156403445Y-93993628D02*
X156022493Y-93993628D01*
X157593921Y-94469819D02*
X157260588Y-93993628D01*
X157022493Y-94469819D02*
X157022493Y-93469819D01*
X157022493Y-93469819D02*
X157403445Y-93469819D01*
X157403445Y-93469819D02*
X157498683Y-93517438D01*
X157498683Y-93517438D02*
X157546302Y-93565057D01*
X157546302Y-93565057D02*
X157593921Y-93660295D01*
X157593921Y-93660295D02*
X157593921Y-93803152D01*
X157593921Y-93803152D02*
X157546302Y-93898390D01*
X157546302Y-93898390D02*
X157498683Y-93946009D01*
X157498683Y-93946009D02*
X157403445Y-93993628D01*
X157403445Y-93993628D02*
X157022493Y-93993628D01*
X158212969Y-93469819D02*
X158403445Y-93469819D01*
X158403445Y-93469819D02*
X158498683Y-93517438D01*
X158498683Y-93517438D02*
X158593921Y-93612676D01*
X158593921Y-93612676D02*
X158641540Y-93803152D01*
X158641540Y-93803152D02*
X158641540Y-94136485D01*
X158641540Y-94136485D02*
X158593921Y-94326961D01*
X158593921Y-94326961D02*
X158498683Y-94422200D01*
X158498683Y-94422200D02*
X158403445Y-94469819D01*
X158403445Y-94469819D02*
X158212969Y-94469819D01*
X158212969Y-94469819D02*
X158117731Y-94422200D01*
X158117731Y-94422200D02*
X158022493Y-94326961D01*
X158022493Y-94326961D02*
X157974874Y-94136485D01*
X157974874Y-94136485D02*
X157974874Y-93803152D01*
X157974874Y-93803152D02*
X158022493Y-93612676D01*
X158022493Y-93612676D02*
X158117731Y-93517438D01*
X158117731Y-93517438D02*
X158212969Y-93469819D01*
X159403445Y-93946009D02*
X159070112Y-93946009D01*
X159070112Y-94469819D02*
X159070112Y-93469819D01*
X159070112Y-93469819D02*
X159546302Y-93469819D01*
X159927255Y-94469819D02*
X159927255Y-93469819D01*
X160879635Y-94469819D02*
X160403445Y-94469819D01*
X160403445Y-94469819D02*
X160403445Y-93469819D01*
X161212969Y-93946009D02*
X161546302Y-93946009D01*
X161689159Y-94469819D02*
X161212969Y-94469819D01*
X161212969Y-94469819D02*
X161212969Y-93469819D01*
X161212969Y-93469819D02*
X161689159Y-93469819D01*
X162117731Y-94374580D02*
X162165350Y-94422200D01*
X162165350Y-94422200D02*
X162117731Y-94469819D01*
X162117731Y-94469819D02*
X162070112Y-94422200D01*
X162070112Y-94422200D02*
X162117731Y-94374580D01*
X162117731Y-94374580D02*
X162117731Y-94469819D01*
X163117730Y-93517438D02*
X163022492Y-93469819D01*
X163022492Y-93469819D02*
X162879635Y-93469819D01*
X162879635Y-93469819D02*
X162736778Y-93517438D01*
X162736778Y-93517438D02*
X162641540Y-93612676D01*
X162641540Y-93612676D02*
X162593921Y-93707914D01*
X162593921Y-93707914D02*
X162546302Y-93898390D01*
X162546302Y-93898390D02*
X162546302Y-94041247D01*
X162546302Y-94041247D02*
X162593921Y-94231723D01*
X162593921Y-94231723D02*
X162641540Y-94326961D01*
X162641540Y-94326961D02*
X162736778Y-94422200D01*
X162736778Y-94422200D02*
X162879635Y-94469819D01*
X162879635Y-94469819D02*
X162974873Y-94469819D01*
X162974873Y-94469819D02*
X163117730Y-94422200D01*
X163117730Y-94422200D02*
X163165349Y-94374580D01*
X163165349Y-94374580D02*
X163165349Y-94041247D01*
X163165349Y-94041247D02*
X162974873Y-94041247D01*
X163927254Y-93946009D02*
X164070111Y-93993628D01*
X164070111Y-93993628D02*
X164117730Y-94041247D01*
X164117730Y-94041247D02*
X164165349Y-94136485D01*
X164165349Y-94136485D02*
X164165349Y-94279342D01*
X164165349Y-94279342D02*
X164117730Y-94374580D01*
X164117730Y-94374580D02*
X164070111Y-94422200D01*
X164070111Y-94422200D02*
X163974873Y-94469819D01*
X163974873Y-94469819D02*
X163593921Y-94469819D01*
X163593921Y-94469819D02*
X163593921Y-93469819D01*
X163593921Y-93469819D02*
X163927254Y-93469819D01*
X163927254Y-93469819D02*
X164022492Y-93517438D01*
X164022492Y-93517438D02*
X164070111Y-93565057D01*
X164070111Y-93565057D02*
X164117730Y-93660295D01*
X164117730Y-93660295D02*
X164117730Y-93755533D01*
X164117730Y-93755533D02*
X164070111Y-93850771D01*
X164070111Y-93850771D02*
X164022492Y-93898390D01*
X164022492Y-93898390D02*
X163927254Y-93946009D01*
X163927254Y-93946009D02*
X163593921Y-93946009D01*
X165165349Y-94469819D02*
X164832016Y-93993628D01*
X164593921Y-94469819D02*
X164593921Y-93469819D01*
X164593921Y-93469819D02*
X164974873Y-93469819D01*
X164974873Y-93469819D02*
X165070111Y-93517438D01*
X165070111Y-93517438D02*
X165117730Y-93565057D01*
X165117730Y-93565057D02*
X165165349Y-93660295D01*
X165165349Y-93660295D02*
X165165349Y-93803152D01*
X165165349Y-93803152D02*
X165117730Y-93898390D01*
X165117730Y-93898390D02*
X165070111Y-93946009D01*
X165070111Y-93946009D02*
X164974873Y-93993628D01*
X164974873Y-93993628D02*
X164593921Y-93993628D01*
X163076190Y-67104819D02*
X162504762Y-67104819D01*
X162790476Y-67104819D02*
X162790476Y-66104819D01*
X162790476Y-66104819D02*
X162695238Y-66247676D01*
X162695238Y-66247676D02*
X162600000Y-66342914D01*
X162600000Y-66342914D02*
X162504762Y-66390533D01*
X163409524Y-66104819D02*
X164076190Y-66104819D01*
X164076190Y-66104819D02*
X163647619Y-67104819D01*
X164647619Y-66104819D02*
X164742857Y-66104819D01*
X164742857Y-66104819D02*
X164838095Y-66152438D01*
X164838095Y-66152438D02*
X164885714Y-66200057D01*
X164885714Y-66200057D02*
X164933333Y-66295295D01*
X164933333Y-66295295D02*
X164980952Y-66485771D01*
X164980952Y-66485771D02*
X164980952Y-66723866D01*
X164980952Y-66723866D02*
X164933333Y-66914342D01*
X164933333Y-66914342D02*
X164885714Y-67009580D01*
X164885714Y-67009580D02*
X164838095Y-67057200D01*
X164838095Y-67057200D02*
X164742857Y-67104819D01*
X164742857Y-67104819D02*
X164647619Y-67104819D01*
X164647619Y-67104819D02*
X164552381Y-67057200D01*
X164552381Y-67057200D02*
X164504762Y-67009580D01*
X164504762Y-67009580D02*
X164457143Y-66914342D01*
X164457143Y-66914342D02*
X164409524Y-66723866D01*
X164409524Y-66723866D02*
X164409524Y-66485771D01*
X164409524Y-66485771D02*
X164457143Y-66295295D01*
X164457143Y-66295295D02*
X164504762Y-66200057D01*
X164504762Y-66200057D02*
X164552381Y-66152438D01*
X164552381Y-66152438D02*
X164647619Y-66104819D01*
X165409524Y-67009580D02*
X165457143Y-67057200D01*
X165457143Y-67057200D02*
X165409524Y-67104819D01*
X165409524Y-67104819D02*
X165361905Y-67057200D01*
X165361905Y-67057200D02*
X165409524Y-67009580D01*
X165409524Y-67009580D02*
X165409524Y-67104819D01*
X166076190Y-66104819D02*
X166171428Y-66104819D01*
X166171428Y-66104819D02*
X166266666Y-66152438D01*
X166266666Y-66152438D02*
X166314285Y-66200057D01*
X166314285Y-66200057D02*
X166361904Y-66295295D01*
X166361904Y-66295295D02*
X166409523Y-66485771D01*
X166409523Y-66485771D02*
X166409523Y-66723866D01*
X166409523Y-66723866D02*
X166361904Y-66914342D01*
X166361904Y-66914342D02*
X166314285Y-67009580D01*
X166314285Y-67009580D02*
X166266666Y-67057200D01*
X166266666Y-67057200D02*
X166171428Y-67104819D01*
X166171428Y-67104819D02*
X166076190Y-67104819D01*
X166076190Y-67104819D02*
X165980952Y-67057200D01*
X165980952Y-67057200D02*
X165933333Y-67009580D01*
X165933333Y-67009580D02*
X165885714Y-66914342D01*
X165885714Y-66914342D02*
X165838095Y-66723866D01*
X165838095Y-66723866D02*
X165838095Y-66485771D01*
X165838095Y-66485771D02*
X165885714Y-66295295D01*
X165885714Y-66295295D02*
X165933333Y-66200057D01*
X165933333Y-66200057D02*
X165980952Y-66152438D01*
X165980952Y-66152438D02*
X166076190Y-66104819D01*
X167028571Y-66104819D02*
X167123809Y-66104819D01*
X167123809Y-66104819D02*
X167219047Y-66152438D01*
X167219047Y-66152438D02*
X167266666Y-66200057D01*
X167266666Y-66200057D02*
X167314285Y-66295295D01*
X167314285Y-66295295D02*
X167361904Y-66485771D01*
X167361904Y-66485771D02*
X167361904Y-66723866D01*
X167361904Y-66723866D02*
X167314285Y-66914342D01*
X167314285Y-66914342D02*
X167266666Y-67009580D01*
X167266666Y-67009580D02*
X167219047Y-67057200D01*
X167219047Y-67057200D02*
X167123809Y-67104819D01*
X167123809Y-67104819D02*
X167028571Y-67104819D01*
X167028571Y-67104819D02*
X166933333Y-67057200D01*
X166933333Y-67057200D02*
X166885714Y-67009580D01*
X166885714Y-67009580D02*
X166838095Y-66914342D01*
X166838095Y-66914342D02*
X166790476Y-66723866D01*
X166790476Y-66723866D02*
X166790476Y-66485771D01*
X166790476Y-66485771D02*
X166838095Y-66295295D01*
X166838095Y-66295295D02*
X166885714Y-66200057D01*
X166885714Y-66200057D02*
X166933333Y-66152438D01*
X166933333Y-66152438D02*
X167028571Y-66104819D01*
X167980952Y-66104819D02*
X168076190Y-66104819D01*
X168076190Y-66104819D02*
X168171428Y-66152438D01*
X168171428Y-66152438D02*
X168219047Y-66200057D01*
X168219047Y-66200057D02*
X168266666Y-66295295D01*
X168266666Y-66295295D02*
X168314285Y-66485771D01*
X168314285Y-66485771D02*
X168314285Y-66723866D01*
X168314285Y-66723866D02*
X168266666Y-66914342D01*
X168266666Y-66914342D02*
X168219047Y-67009580D01*
X168219047Y-67009580D02*
X168171428Y-67057200D01*
X168171428Y-67057200D02*
X168076190Y-67104819D01*
X168076190Y-67104819D02*
X167980952Y-67104819D01*
X167980952Y-67104819D02*
X167885714Y-67057200D01*
X167885714Y-67057200D02*
X167838095Y-67009580D01*
X167838095Y-67009580D02*
X167790476Y-66914342D01*
X167790476Y-66914342D02*
X167742857Y-66723866D01*
X167742857Y-66723866D02*
X167742857Y-66485771D01*
X167742857Y-66485771D02*
X167790476Y-66295295D01*
X167790476Y-66295295D02*
X167838095Y-66200057D01*
X167838095Y-66200057D02*
X167885714Y-66152438D01*
X167885714Y-66152438D02*
X167980952Y-66104819D01*
X168933333Y-66104819D02*
X169028571Y-66104819D01*
X169028571Y-66104819D02*
X169123809Y-66152438D01*
X169123809Y-66152438D02*
X169171428Y-66200057D01*
X169171428Y-66200057D02*
X169219047Y-66295295D01*
X169219047Y-66295295D02*
X169266666Y-66485771D01*
X169266666Y-66485771D02*
X169266666Y-66723866D01*
X169266666Y-66723866D02*
X169219047Y-66914342D01*
X169219047Y-66914342D02*
X169171428Y-67009580D01*
X169171428Y-67009580D02*
X169123809Y-67057200D01*
X169123809Y-67057200D02*
X169028571Y-67104819D01*
X169028571Y-67104819D02*
X168933333Y-67104819D01*
X168933333Y-67104819D02*
X168838095Y-67057200D01*
X168838095Y-67057200D02*
X168790476Y-67009580D01*
X168790476Y-67009580D02*
X168742857Y-66914342D01*
X168742857Y-66914342D02*
X168695238Y-66723866D01*
X168695238Y-66723866D02*
X168695238Y-66485771D01*
X168695238Y-66485771D02*
X168742857Y-66295295D01*
X168742857Y-66295295D02*
X168790476Y-66200057D01*
X168790476Y-66200057D02*
X168838095Y-66152438D01*
X168838095Y-66152438D02*
X168933333Y-66104819D01*
X170457143Y-67104819D02*
X170457143Y-66438152D01*
X170457143Y-66533390D02*
X170504762Y-66485771D01*
X170504762Y-66485771D02*
X170600000Y-66438152D01*
X170600000Y-66438152D02*
X170742857Y-66438152D01*
X170742857Y-66438152D02*
X170838095Y-66485771D01*
X170838095Y-66485771D02*
X170885714Y-66581009D01*
X170885714Y-66581009D02*
X170885714Y-67104819D01*
X170885714Y-66581009D02*
X170933333Y-66485771D01*
X170933333Y-66485771D02*
X171028571Y-66438152D01*
X171028571Y-66438152D02*
X171171428Y-66438152D01*
X171171428Y-66438152D02*
X171266667Y-66485771D01*
X171266667Y-66485771D02*
X171314286Y-66581009D01*
X171314286Y-66581009D02*
X171314286Y-67104819D01*
X171790476Y-67104819D02*
X171790476Y-66438152D01*
X171790476Y-66533390D02*
X171838095Y-66485771D01*
X171838095Y-66485771D02*
X171933333Y-66438152D01*
X171933333Y-66438152D02*
X172076190Y-66438152D01*
X172076190Y-66438152D02*
X172171428Y-66485771D01*
X172171428Y-66485771D02*
X172219047Y-66581009D01*
X172219047Y-66581009D02*
X172219047Y-67104819D01*
X172219047Y-66581009D02*
X172266666Y-66485771D01*
X172266666Y-66485771D02*
X172361904Y-66438152D01*
X172361904Y-66438152D02*
X172504761Y-66438152D01*
X172504761Y-66438152D02*
X172600000Y-66485771D01*
X172600000Y-66485771D02*
X172647619Y-66581009D01*
X172647619Y-66581009D02*
X172647619Y-67104819D01*
D10*
X82600000Y-63500000D02*
X82600000Y-68386420D01*
X252600000Y-68386420D02*
X252600000Y-63500000D01*
X82600000Y-67800000D02*
X252600000Y-67800000D01*
X82600000Y-67800000D02*
X252600000Y-67800000D01*
X82600000Y-67800000D02*
X83726504Y-67213579D01*
X82600000Y-67800000D02*
X83726504Y-68386421D01*
X252600000Y-67800000D02*
X251473496Y-68386421D01*
X252600000Y-67800000D02*
X251473496Y-67213579D01*
D11*
X76104819Y-50166665D02*
X76104819Y-49547618D01*
X76104819Y-49547618D02*
X76485771Y-49880951D01*
X76485771Y-49880951D02*
X76485771Y-49738094D01*
X76485771Y-49738094D02*
X76533390Y-49642856D01*
X76533390Y-49642856D02*
X76581009Y-49595237D01*
X76581009Y-49595237D02*
X76676247Y-49547618D01*
X76676247Y-49547618D02*
X76914342Y-49547618D01*
X76914342Y-49547618D02*
X77009580Y-49595237D01*
X77009580Y-49595237D02*
X77057200Y-49642856D01*
X77057200Y-49642856D02*
X77104819Y-49738094D01*
X77104819Y-49738094D02*
X77104819Y-50023808D01*
X77104819Y-50023808D02*
X77057200Y-50119046D01*
X77057200Y-50119046D02*
X77009580Y-50166665D01*
X76104819Y-48642856D02*
X76104819Y-49119046D01*
X76104819Y-49119046D02*
X76581009Y-49166665D01*
X76581009Y-49166665D02*
X76533390Y-49119046D01*
X76533390Y-49119046D02*
X76485771Y-49023808D01*
X76485771Y-49023808D02*
X76485771Y-48785713D01*
X76485771Y-48785713D02*
X76533390Y-48690475D01*
X76533390Y-48690475D02*
X76581009Y-48642856D01*
X76581009Y-48642856D02*
X76676247Y-48595237D01*
X76676247Y-48595237D02*
X76914342Y-48595237D01*
X76914342Y-48595237D02*
X77009580Y-48642856D01*
X77009580Y-48642856D02*
X77057200Y-48690475D01*
X77057200Y-48690475D02*
X77104819Y-48785713D01*
X77104819Y-48785713D02*
X77104819Y-49023808D01*
X77104819Y-49023808D02*
X77057200Y-49119046D01*
X77057200Y-49119046D02*
X77009580Y-49166665D01*
X77009580Y-48166665D02*
X77057200Y-48119046D01*
X77057200Y-48119046D02*
X77104819Y-48166665D01*
X77104819Y-48166665D02*
X77057200Y-48214284D01*
X77057200Y-48214284D02*
X77009580Y-48166665D01*
X77009580Y-48166665D02*
X77104819Y-48166665D01*
X76104819Y-47499999D02*
X76104819Y-47404761D01*
X76104819Y-47404761D02*
X76152438Y-47309523D01*
X76152438Y-47309523D02*
X76200057Y-47261904D01*
X76200057Y-47261904D02*
X76295295Y-47214285D01*
X76295295Y-47214285D02*
X76485771Y-47166666D01*
X76485771Y-47166666D02*
X76723866Y-47166666D01*
X76723866Y-47166666D02*
X76914342Y-47214285D01*
X76914342Y-47214285D02*
X77009580Y-47261904D01*
X77009580Y-47261904D02*
X77057200Y-47309523D01*
X77057200Y-47309523D02*
X77104819Y-47404761D01*
X77104819Y-47404761D02*
X77104819Y-47499999D01*
X77104819Y-47499999D02*
X77057200Y-47595237D01*
X77057200Y-47595237D02*
X77009580Y-47642856D01*
X77009580Y-47642856D02*
X76914342Y-47690475D01*
X76914342Y-47690475D02*
X76723866Y-47738094D01*
X76723866Y-47738094D02*
X76485771Y-47738094D01*
X76485771Y-47738094D02*
X76295295Y-47690475D01*
X76295295Y-47690475D02*
X76200057Y-47642856D01*
X76200057Y-47642856D02*
X76152438Y-47595237D01*
X76152438Y-47595237D02*
X76104819Y-47499999D01*
X76104819Y-46547618D02*
X76104819Y-46452380D01*
X76104819Y-46452380D02*
X76152438Y-46357142D01*
X76152438Y-46357142D02*
X76200057Y-46309523D01*
X76200057Y-46309523D02*
X76295295Y-46261904D01*
X76295295Y-46261904D02*
X76485771Y-46214285D01*
X76485771Y-46214285D02*
X76723866Y-46214285D01*
X76723866Y-46214285D02*
X76914342Y-46261904D01*
X76914342Y-46261904D02*
X77009580Y-46309523D01*
X77009580Y-46309523D02*
X77057200Y-46357142D01*
X77057200Y-46357142D02*
X77104819Y-46452380D01*
X77104819Y-46452380D02*
X77104819Y-46547618D01*
X77104819Y-46547618D02*
X77057200Y-46642856D01*
X77057200Y-46642856D02*
X77009580Y-46690475D01*
X77009580Y-46690475D02*
X76914342Y-46738094D01*
X76914342Y-46738094D02*
X76723866Y-46785713D01*
X76723866Y-46785713D02*
X76485771Y-46785713D01*
X76485771Y-46785713D02*
X76295295Y-46738094D01*
X76295295Y-46738094D02*
X76200057Y-46690475D01*
X76200057Y-46690475D02*
X76152438Y-46642856D01*
X76152438Y-46642856D02*
X76104819Y-46547618D01*
X76104819Y-45595237D02*
X76104819Y-45499999D01*
X76104819Y-45499999D02*
X76152438Y-45404761D01*
X76152438Y-45404761D02*
X76200057Y-45357142D01*
X76200057Y-45357142D02*
X76295295Y-45309523D01*
X76295295Y-45309523D02*
X76485771Y-45261904D01*
X76485771Y-45261904D02*
X76723866Y-45261904D01*
X76723866Y-45261904D02*
X76914342Y-45309523D01*
X76914342Y-45309523D02*
X77009580Y-45357142D01*
X77009580Y-45357142D02*
X77057200Y-45404761D01*
X77057200Y-45404761D02*
X77104819Y-45499999D01*
X77104819Y-45499999D02*
X77104819Y-45595237D01*
X77104819Y-45595237D02*
X77057200Y-45690475D01*
X77057200Y-45690475D02*
X77009580Y-45738094D01*
X77009580Y-45738094D02*
X76914342Y-45785713D01*
X76914342Y-45785713D02*
X76723866Y-45833332D01*
X76723866Y-45833332D02*
X76485771Y-45833332D01*
X76485771Y-45833332D02*
X76295295Y-45785713D01*
X76295295Y-45785713D02*
X76200057Y-45738094D01*
X76200057Y-45738094D02*
X76152438Y-45690475D01*
X76152438Y-45690475D02*
X76104819Y-45595237D01*
X76104819Y-44642856D02*
X76104819Y-44547618D01*
X76104819Y-44547618D02*
X76152438Y-44452380D01*
X76152438Y-44452380D02*
X76200057Y-44404761D01*
X76200057Y-44404761D02*
X76295295Y-44357142D01*
X76295295Y-44357142D02*
X76485771Y-44309523D01*
X76485771Y-44309523D02*
X76723866Y-44309523D01*
X76723866Y-44309523D02*
X76914342Y-44357142D01*
X76914342Y-44357142D02*
X77009580Y-44404761D01*
X77009580Y-44404761D02*
X77057200Y-44452380D01*
X77057200Y-44452380D02*
X77104819Y-44547618D01*
X77104819Y-44547618D02*
X77104819Y-44642856D01*
X77104819Y-44642856D02*
X77057200Y-44738094D01*
X77057200Y-44738094D02*
X77009580Y-44785713D01*
X77009580Y-44785713D02*
X76914342Y-44833332D01*
X76914342Y-44833332D02*
X76723866Y-44880951D01*
X76723866Y-44880951D02*
X76485771Y-44880951D01*
X76485771Y-44880951D02*
X76295295Y-44833332D01*
X76295295Y-44833332D02*
X76200057Y-44785713D01*
X76200057Y-44785713D02*
X76152438Y-44738094D01*
X76152438Y-44738094D02*
X76104819Y-44642856D01*
X77104819Y-43119046D02*
X76438152Y-43119046D01*
X76533390Y-43119046D02*
X76485771Y-43071427D01*
X76485771Y-43071427D02*
X76438152Y-42976189D01*
X76438152Y-42976189D02*
X76438152Y-42833332D01*
X76438152Y-42833332D02*
X76485771Y-42738094D01*
X76485771Y-42738094D02*
X76581009Y-42690475D01*
X76581009Y-42690475D02*
X77104819Y-42690475D01*
X76581009Y-42690475D02*
X76485771Y-42642856D01*
X76485771Y-42642856D02*
X76438152Y-42547618D01*
X76438152Y-42547618D02*
X76438152Y-42404761D01*
X76438152Y-42404761D02*
X76485771Y-42309522D01*
X76485771Y-42309522D02*
X76581009Y-42261903D01*
X76581009Y-42261903D02*
X77104819Y-42261903D01*
X77104819Y-41785713D02*
X76438152Y-41785713D01*
X76533390Y-41785713D02*
X76485771Y-41738094D01*
X76485771Y-41738094D02*
X76438152Y-41642856D01*
X76438152Y-41642856D02*
X76438152Y-41499999D01*
X76438152Y-41499999D02*
X76485771Y-41404761D01*
X76485771Y-41404761D02*
X76581009Y-41357142D01*
X76581009Y-41357142D02*
X77104819Y-41357142D01*
X76581009Y-41357142D02*
X76485771Y-41309523D01*
X76485771Y-41309523D02*
X76438152Y-41214285D01*
X76438152Y-41214285D02*
X76438152Y-41071428D01*
X76438152Y-41071428D02*
X76485771Y-40976189D01*
X76485771Y-40976189D02*
X76581009Y-40928570D01*
X76581009Y-40928570D02*
X77104819Y-40928570D01*
D10*
X82100000Y-63000000D02*
X77213580Y-63000000D01*
X77213580Y-28000000D02*
X82100000Y-28000000D01*
X77800000Y-63000000D02*
X77800000Y-28000000D01*
X77800000Y-63000000D02*
X77800000Y-28000000D01*
X77800000Y-63000000D02*
X77213579Y-61873496D01*
X77800000Y-63000000D02*
X78386421Y-61873496D01*
X77800000Y-28000000D02*
X78386421Y-29126504D01*
X77800000Y-28000000D02*
X77213579Y-29126504D01*
M02*
