%TF.GenerationSoftware,KiCad,Pcbnew,8.0.4*%
%TF.CreationDate,2024-08-09T21:07:46+01:00*%
%TF.ProjectId,PULSAR-BREAKOUT-01,50554c53-4152-42d4-9252-45414b4f5554,rev?*%
%TF.SameCoordinates,Original*%
%TF.FileFunction,Copper,L1,Top*%
%TF.FilePolarity,Positive*%
%FSLAX46Y46*%
G04 Gerber Fmt 4.6, Leading zero omitted, Abs format (unit mm)*
G04 Created by KiCad (PCBNEW 8.0.4) date 2024-08-09 21:07:46*
%MOMM*%
%LPD*%
G01*
G04 APERTURE LIST*
%TA.AperFunction,ComponentPad*%
%ADD10C,1.360000*%
%TD*%
%TA.AperFunction,ComponentPad*%
%ADD11C,4.220000*%
%TD*%
%TA.AperFunction,ComponentPad*%
%ADD12C,1.800000*%
%TD*%
%TA.AperFunction,ComponentPad*%
%ADD13R,1.800000X1.800000*%
%TD*%
%TA.AperFunction,ViaPad*%
%ADD14C,8.000000*%
%TD*%
%TA.AperFunction,Conductor*%
%ADD15C,0.200000*%
%TD*%
G04 APERTURE END LIST*
D10*
%TO.P,J4,1,1*%
%TO.N,CHASSIS*%
X146960000Y-35000000D03*
%TO.P,J4,2,2*%
%TO.N,GPIO1_2*%
X148230000Y-36900000D03*
%TO.P,J4,3,3*%
%TO.N,GPIO1_4*%
X149500000Y-35000000D03*
%TO.P,J4,4,4*%
%TO.N,GPIO1_6*%
X150770000Y-36900000D03*
%TO.P,J4,5,5*%
%TO.N,GPIO1_8*%
X152040000Y-35000000D03*
%TO.P,J4,6,6*%
%TO.N,GPIO1_10*%
X153310000Y-36900000D03*
%TO.P,J4,7,7*%
%TO.N,GPIO2_1*%
X154580000Y-35000000D03*
%TO.P,J4,8,8*%
%TO.N,GPIO2_3*%
X155850000Y-36900000D03*
%TO.P,J4,9,9*%
%TO.N,GPIO2_5*%
X157120000Y-35000000D03*
%TO.P,J4,10,10*%
%TO.N,GPIO2_7*%
X158390000Y-36900000D03*
%TO.P,J4,11,11*%
%TO.N,GPIO2_9*%
X159660000Y-35000000D03*
%TO.P,J4,12,12*%
%TO.N,GPIO2_GND*%
X160930000Y-36900000D03*
%TO.P,J4,13,13*%
%TO.N,GPIO3_2*%
X162200000Y-35000000D03*
%TO.P,J4,14,14*%
%TO.N,GPIO3_4*%
X163470000Y-36900000D03*
%TO.P,J4,15,15*%
%TO.N,GPIO3_6*%
X164740000Y-35000000D03*
%TO.P,J4,16,16*%
%TO.N,GPIO3_8*%
X166010000Y-36900000D03*
%TO.P,J4,17,17*%
%TO.N,GPIO3_10*%
X167280000Y-35000000D03*
%TO.P,J4,18,18*%
%TO.N,GPIO4_1*%
X168550000Y-36900000D03*
%TO.P,J4,19,19*%
%TO.N,GPIO4_3*%
X169820000Y-35000000D03*
%TO.P,J4,20,20*%
%TO.N,GPIO4_5*%
X171090000Y-36900000D03*
%TO.P,J4,21,21*%
%TO.N,GPIO4_7*%
X172360000Y-35000000D03*
%TO.P,J4,22,22*%
%TO.N,GPIO4_9*%
X173630000Y-36900000D03*
%TO.P,J4,23,23*%
%TO.N,GPIO4_GND*%
X174900000Y-35000000D03*
%TO.P,J4,24,24*%
%TO.N,GPIO5_2*%
X176170000Y-36900000D03*
%TO.P,J4,25,25*%
%TO.N,GPIO5_4*%
X177440000Y-35000000D03*
%TO.P,J4,26,26*%
%TO.N,GPIO5_6*%
X178710000Y-36900000D03*
%TO.P,J4,27,27*%
%TO.N,GPIO5_8*%
X179980000Y-35000000D03*
%TO.P,J4,28,28*%
%TO.N,GPIO5_10*%
X181250000Y-36900000D03*
%TO.P,J4,29,29*%
%TO.N,RS485_1_1_A*%
X182520000Y-35000000D03*
%TO.P,J4,30,30*%
%TO.N,RS485_1_1_GND*%
X183790000Y-36900000D03*
%TO.P,J4,31,31*%
%TO.N,RS485_1_2_B*%
X185060000Y-35000000D03*
%TO.P,J4,32,32*%
%TO.N,RS485_2_1_A*%
X186330000Y-36900000D03*
%TO.P,J4,33,33*%
%TO.N,RS485_2_1_GND*%
X187600000Y-35000000D03*
%TO.P,J4,34,34*%
%TO.N,RS485_2_2_B*%
X188870000Y-36900000D03*
%TO.P,J4,35,35*%
%TO.N,GPIO1_1*%
X146960000Y-31200000D03*
%TO.P,J4,36,36*%
%TO.N,GPIO1_3*%
X148230000Y-33100000D03*
%TO.P,J4,37,37*%
%TO.N,GPIO1_5*%
X149500000Y-31200000D03*
%TO.P,J4,38,38*%
%TO.N,GPIO1_7*%
X150770000Y-33100000D03*
%TO.P,J4,39,39*%
%TO.N,GPIO1_9*%
X152040000Y-31200000D03*
%TO.P,J4,40,40*%
%TO.N,GPIO1_GND*%
X153310000Y-33100000D03*
%TO.P,J4,41,41*%
%TO.N,GPIO2_2*%
X154580000Y-31200000D03*
%TO.P,J4,42,42*%
%TO.N,GPIO2_4*%
X155850000Y-33100000D03*
%TO.P,J4,43,43*%
%TO.N,GPIO2_6*%
X157120000Y-31200000D03*
%TO.P,J4,44,44*%
%TO.N,GPIO2_8*%
X158390000Y-33100000D03*
%TO.P,J4,45,45*%
%TO.N,GPIO2_10*%
X159660000Y-31200000D03*
%TO.P,J4,46,46*%
%TO.N,GPIO3_1*%
X160930000Y-33100000D03*
%TO.P,J4,47,47*%
%TO.N,GPIO3_3*%
X162200000Y-31200000D03*
%TO.P,J4,48,48*%
%TO.N,GPIO3_5*%
X163470000Y-33100000D03*
%TO.P,J4,49,49*%
%TO.N,GPIO3_7*%
X164740000Y-31200000D03*
%TO.P,J4,50,50*%
%TO.N,GPIO3_9*%
X166010000Y-33100000D03*
%TO.P,J4,51,51*%
%TO.N,GPIO3_GND*%
X167280000Y-31200000D03*
%TO.P,J4,52,52*%
%TO.N,GPIO4_2*%
X168550000Y-33100000D03*
%TO.P,J4,53,53*%
%TO.N,GPIO4_4*%
X169820000Y-31200000D03*
%TO.P,J4,54,54*%
%TO.N,GPIO4_6*%
X171090000Y-33100000D03*
%TO.P,J4,55,55*%
%TO.N,GPIO4_8*%
X172360000Y-31200000D03*
%TO.P,J4,56,56*%
%TO.N,GPIO4_10*%
X173630000Y-33100000D03*
%TO.P,J4,57,57*%
%TO.N,GPIO5_1*%
X174900000Y-31200000D03*
%TO.P,J4,58,58*%
%TO.N,GPIO5_3*%
X176170000Y-33100000D03*
%TO.P,J4,59,59*%
%TO.N,GPIO5_5*%
X177440000Y-31200000D03*
%TO.P,J4,60,60*%
%TO.N,GPIO5_7*%
X178710000Y-33100000D03*
%TO.P,J4,61,61*%
%TO.N,GPIO5_9*%
X179980000Y-31200000D03*
%TO.P,J4,62,62*%
%TO.N,GPIO5_GND*%
X181250000Y-33100000D03*
%TO.P,J4,63,63*%
%TO.N,RS485_1_1_B*%
X182520000Y-31200000D03*
%TO.P,J4,64,64*%
%TO.N,RS485_1_2_A*%
X183790000Y-33100000D03*
%TO.P,J4,65,65*%
%TO.N,RS485_1_2_GND*%
X185060000Y-31200000D03*
%TO.P,J4,66,66*%
%TO.N,RS485_2_1_B*%
X186330000Y-33100000D03*
%TO.P,J4,67,67*%
%TO.N,RS485_2_2_A*%
X187600000Y-31200000D03*
%TO.P,J4,68,68*%
%TO.N,RS485_2_2_GND*%
X188870000Y-33100000D03*
D11*
%TO.P,J4,69*%
%TO.N,CHASSIS*%
X197505000Y-33100000D03*
%TO.P,J4,70*%
X139595000Y-33100000D03*
%TD*%
D12*
%TO.P,J2,24,24*%
%TO.N,GPIO4_GND*%
X188800000Y-59300000D03*
%TO.P,J2,23,23*%
%TO.N,GPIO4_10*%
X184990000Y-59300000D03*
%TO.P,J2,22,22*%
%TO.N,GPIO4_9*%
X181180000Y-59300000D03*
%TO.P,J2,21,21*%
%TO.N,GPIO4_8*%
X177370000Y-59300000D03*
%TO.P,J2,20,20*%
%TO.N,GPIO4_7*%
X173560000Y-59300000D03*
%TO.P,J2,19,19*%
%TO.N,GPIO4_6*%
X169750000Y-59300000D03*
%TO.P,J2,18,18*%
%TO.N,GPIO4_5*%
X165940000Y-59300000D03*
%TO.P,J2,17,17*%
%TO.N,GPIO4_4*%
X162130000Y-59300000D03*
%TO.P,J2,16,16*%
%TO.N,GPIO4_3*%
X158320000Y-59300000D03*
%TO.P,J2,15,15*%
%TO.N,GPIO4_2*%
X154510000Y-59300000D03*
%TO.P,J2,14,14*%
%TO.N,GPIO4_1*%
X150700000Y-59300000D03*
%TO.P,J2,13,13*%
%TO.N,GPIO4_GND*%
X146890000Y-59300000D03*
%TO.P,J2,12,12*%
%TO.N,GPIO3_GND*%
X188800000Y-46600000D03*
%TO.P,J2,11,11*%
%TO.N,GPIO3_10*%
X184990000Y-46600000D03*
%TO.P,J2,10,10*%
%TO.N,GPIO3_9*%
X181180000Y-46600000D03*
%TO.P,J2,09,09*%
%TO.N,GPIO3_8*%
X177370000Y-46600000D03*
%TO.P,J2,08,08*%
%TO.N,GPIO3_7*%
X173560000Y-46600000D03*
%TO.P,J2,07,07*%
%TO.N,GPIO3_6*%
X169750000Y-46600000D03*
%TO.P,J2,06,06*%
%TO.N,GPIO3_5*%
X165940000Y-46600000D03*
%TO.P,J2,05,05*%
%TO.N,GPIO3_4*%
X162130000Y-46600000D03*
%TO.P,J2,04,04*%
%TO.N,GPIO3_3*%
X158320000Y-46600000D03*
%TO.P,J2,03,03*%
%TO.N,GPIO3_2*%
X154510000Y-46600000D03*
%TO.P,J2,02,02*%
%TO.N,GPIO3_1*%
X150700000Y-46600000D03*
D13*
%TO.P,J2,01,01*%
%TO.N,GPIO3_GND*%
X146890000Y-46600000D03*
%TD*%
%TO.P,J3,01,01*%
%TO.N,GPIO5_GND*%
X197290000Y-46600000D03*
D12*
%TO.P,J3,02,02*%
%TO.N,GPIO5_1*%
X201100000Y-46600000D03*
%TO.P,J3,03,03*%
%TO.N,GPIO5_2*%
X204910000Y-46600000D03*
%TO.P,J3,04,04*%
%TO.N,GPIO5_3*%
X208720000Y-46600000D03*
%TO.P,J3,05,05*%
%TO.N,GPIO5_4*%
X212530000Y-46600000D03*
%TO.P,J3,06,06*%
%TO.N,GPIO5_5*%
X216340000Y-46600000D03*
%TO.P,J3,07,07*%
%TO.N,GPIO5_6*%
X220150000Y-46600000D03*
%TO.P,J3,08,08*%
%TO.N,GPIO5_7*%
X223960000Y-46600000D03*
%TO.P,J3,09,09*%
%TO.N,GPIO5_8*%
X227770000Y-46600000D03*
%TO.P,J3,10,10*%
%TO.N,GPIO5_9*%
X231580000Y-46600000D03*
%TO.P,J3,11,11*%
%TO.N,GPIO5_10*%
X235390000Y-46600000D03*
%TO.P,J3,12,12*%
%TO.N,GPIO5_GND*%
X239200000Y-46600000D03*
%TO.P,J3,13,13*%
%TO.N,RS485_1_1_A*%
X197290000Y-59300000D03*
%TO.P,J3,14,14*%
%TO.N,RS485_1_1_B*%
X201100000Y-59300000D03*
%TO.P,J3,15,15*%
%TO.N,RS485_1_1_GND*%
X204910000Y-59300000D03*
%TO.P,J3,16,16*%
%TO.N,RS485_1_2_A*%
X208720000Y-59300000D03*
%TO.P,J3,17,17*%
%TO.N,RS485_1_2_B*%
X212530000Y-59300000D03*
%TO.P,J3,18,18*%
%TO.N,RS485_1_2_GND*%
X216340000Y-59300000D03*
%TO.P,J3,19,19*%
%TO.N,RS485_2_1_A*%
X220150000Y-59300000D03*
%TO.P,J3,20,20*%
%TO.N,RS485_2_1_B*%
X223960000Y-59300000D03*
%TO.P,J3,21,21*%
%TO.N,RS485_2_1_GND*%
X227770000Y-59300000D03*
%TO.P,J3,22,22*%
%TO.N,RS485_2_2_A*%
X231580000Y-59300000D03*
%TO.P,J3,23,23*%
%TO.N,RS485_2_2_B*%
X235390000Y-59300000D03*
%TO.P,J3,24,24*%
%TO.N,RS485_2_2_GND*%
X239200000Y-59300000D03*
%TD*%
D13*
%TO.P,J1,01,01*%
%TO.N,GPIO1_GND*%
X96370000Y-46600000D03*
D12*
%TO.P,J1,02,02*%
%TO.N,GPIO1_1*%
X100180000Y-46600000D03*
%TO.P,J1,03,03*%
%TO.N,GPIO1_2*%
X103990000Y-46600000D03*
%TO.P,J1,04,04*%
%TO.N,GPIO1_3*%
X107800000Y-46600000D03*
%TO.P,J1,05,05*%
%TO.N,GPIO1_4*%
X111610000Y-46600000D03*
%TO.P,J1,06,06*%
%TO.N,GPIO1_5*%
X115420000Y-46600000D03*
%TO.P,J1,07,07*%
%TO.N,GPIO1_6*%
X119230000Y-46600000D03*
%TO.P,J1,08,08*%
%TO.N,GPIO1_7*%
X123040000Y-46600000D03*
%TO.P,J1,09,09*%
%TO.N,GPIO1_8*%
X126850000Y-46600000D03*
%TO.P,J1,10,10*%
%TO.N,GPIO1_9*%
X130660000Y-46600000D03*
%TO.P,J1,11,11*%
%TO.N,GPIO1_10*%
X134470000Y-46600000D03*
%TO.P,J1,12,12*%
%TO.N,GPIO1_GND*%
X138280000Y-46600000D03*
%TO.P,J1,13,13*%
%TO.N,GPIO2_GND*%
X96370000Y-59300000D03*
%TO.P,J1,14,14*%
%TO.N,GPIO2_1*%
X100180000Y-59300000D03*
%TO.P,J1,15,15*%
%TO.N,GPIO2_2*%
X103990000Y-59300000D03*
%TO.P,J1,16,16*%
%TO.N,GPIO2_3*%
X107800000Y-59300000D03*
%TO.P,J1,17,17*%
%TO.N,GPIO2_4*%
X111610000Y-59300000D03*
%TO.P,J1,18,18*%
%TO.N,GPIO2_5*%
X115420000Y-59300000D03*
%TO.P,J1,19,19*%
%TO.N,GPIO2_6*%
X119230000Y-59300000D03*
%TO.P,J1,20,20*%
%TO.N,GPIO2_7*%
X123040000Y-59300000D03*
%TO.P,J1,21,21*%
%TO.N,GPIO2_8*%
X126850000Y-59300000D03*
%TO.P,J1,22,22*%
%TO.N,GPIO2_9*%
X130660000Y-59300000D03*
%TO.P,J1,23,23*%
%TO.N,GPIO2_10*%
X134470000Y-59300000D03*
%TO.P,J1,24,24*%
%TO.N,GPIO2_GND*%
X138280000Y-59300000D03*
%TD*%
D14*
%TO.N,CHASSIS*%
X87600000Y-33000000D03*
X87600000Y-58000000D03*
X247600000Y-33000000D03*
X247600000Y-58000000D03*
%TD*%
D15*
%TO.N,CHASSIS*%
X143500000Y-33100000D02*
X145400000Y-35000000D01*
X145400000Y-35000000D02*
X146960000Y-35000000D01*
X139595000Y-33100000D02*
X143500000Y-33100000D01*
X87600000Y-33000000D02*
X87600000Y-58000000D01*
X87700000Y-33100000D02*
X87600000Y-33000000D01*
X139595000Y-33100000D02*
X87700000Y-33100000D01*
X143695000Y-29000000D02*
X193405000Y-29000000D01*
X193405000Y-29000000D02*
X197505000Y-33100000D01*
X139595000Y-33100000D02*
X143695000Y-29000000D01*
X247500000Y-33100000D02*
X197505000Y-33100000D01*
X247600000Y-33000000D02*
X247500000Y-33100000D01*
X247600000Y-58000000D02*
X247600000Y-33000000D01*
%TO.N,GPIO2_GND*%
X142000000Y-55580000D02*
X138280000Y-59300000D01*
X145565686Y-41600000D02*
X142000000Y-45165686D01*
X156230000Y-41600000D02*
X145565686Y-41600000D01*
X142000000Y-45165686D02*
X142000000Y-55580000D01*
X160930000Y-36900000D02*
X156230000Y-41600000D01*
%TO.N,GPIO2_9*%
X133860000Y-56100000D02*
X130660000Y-59300000D01*
X138435685Y-56100000D02*
X133860000Y-56100000D01*
X140667843Y-53867843D02*
X138435685Y-56100000D01*
X141600000Y-45000000D02*
X141600000Y-52935684D01*
X140667843Y-53867841D02*
X140667843Y-53867843D01*
X155600000Y-41200000D02*
X145400000Y-41200000D01*
X159660000Y-37140000D02*
X155600000Y-41200000D01*
X145400000Y-41200000D02*
X141600000Y-45000000D01*
X141600000Y-52935684D02*
X140667843Y-53867841D01*
X159660000Y-35000000D02*
X159660000Y-37140000D01*
%TO.N,GPIO2_7*%
X141200000Y-52667058D02*
X138270000Y-55597058D01*
X145234314Y-40800000D02*
X141200000Y-44834314D01*
X126640000Y-55700000D02*
X123040000Y-59300000D01*
X154490000Y-40800000D02*
X145234314Y-40800000D01*
X141200000Y-44834314D02*
X141200000Y-52667058D01*
X138270000Y-55597058D02*
X138270000Y-55700000D01*
X158390000Y-36900000D02*
X154490000Y-40800000D01*
X138270000Y-55700000D02*
X126640000Y-55700000D01*
%TO.N,GPIO2_5*%
X119420000Y-55300000D02*
X115420000Y-59300000D01*
X140800000Y-44668628D02*
X140800000Y-52501372D01*
X153735930Y-40400000D02*
X145068628Y-40400000D01*
X145068628Y-40400000D02*
X140800000Y-44668628D01*
X138001372Y-55300000D02*
X119420000Y-55300000D01*
X157120000Y-37015930D02*
X153735930Y-40400000D01*
X157120000Y-35000000D02*
X157120000Y-37015930D01*
X140800000Y-52501372D02*
X138001372Y-55300000D01*
%TO.N,GPIO2_3*%
X137835686Y-54900000D02*
X112200000Y-54900000D01*
X112200000Y-54900000D02*
X107800000Y-59300000D01*
X140400000Y-52335686D02*
X137835686Y-54900000D01*
X152750000Y-40000000D02*
X144902942Y-40000000D01*
X140400000Y-44502942D02*
X140400000Y-52335686D01*
X155850000Y-36900000D02*
X152750000Y-40000000D01*
X144902942Y-40000000D02*
X140400000Y-44502942D01*
%TO.N,GPIO2_1*%
X140000000Y-52170000D02*
X137670000Y-54500000D01*
X151995930Y-39600000D02*
X144737256Y-39600000D01*
X144737256Y-39600000D02*
X140000000Y-44337256D01*
X154580000Y-37015930D02*
X151995930Y-39600000D01*
X140000000Y-44337256D02*
X140000000Y-52170000D01*
X154580000Y-35000000D02*
X154580000Y-37015930D01*
X137670000Y-54500000D02*
X104980000Y-54500000D01*
X104980000Y-54500000D02*
X100180000Y-59300000D01*
%TO.N,GPIO1_10*%
X141870000Y-39200000D02*
X134470000Y-46600000D01*
X151010000Y-39200000D02*
X141870000Y-39200000D01*
X153310000Y-36900000D02*
X151010000Y-39200000D01*
%TO.N,GPIO1_8*%
X150255930Y-38800000D02*
X134650000Y-38800000D01*
X134650000Y-38800000D02*
X126850000Y-46600000D01*
X152040000Y-35000000D02*
X152040000Y-37015930D01*
X152040000Y-37015930D02*
X150255930Y-38800000D01*
%TO.N,GPIO1_6*%
X127430000Y-38400000D02*
X119230000Y-46600000D01*
X149270000Y-38400000D02*
X127430000Y-38400000D01*
X150770000Y-36900000D02*
X149270000Y-38400000D01*
%TO.N,GPIO1_4*%
X149500000Y-37100000D02*
X149500000Y-35000000D01*
X148600000Y-38000000D02*
X149500000Y-37100000D01*
X120210000Y-38000000D02*
X148600000Y-38000000D01*
X111610000Y-46600000D02*
X120210000Y-38000000D01*
%TO.N,GPIO1_2*%
X113690000Y-36900000D02*
X103990000Y-46600000D01*
X148230000Y-36900000D02*
X113690000Y-36900000D01*
%TO.N,RS485_2_2_GND*%
X189600000Y-33830000D02*
X188870000Y-33100000D01*
X189600000Y-36200000D02*
X189600000Y-33830000D01*
X190600000Y-37200000D02*
X189600000Y-36200000D01*
X242600000Y-44571570D02*
X235228430Y-37200000D01*
X235228430Y-37200000D02*
X190600000Y-37200000D01*
X242600000Y-55900000D02*
X242600000Y-44571570D01*
X239200000Y-59300000D02*
X242600000Y-55900000D01*
%TO.N,RS485_2_2_B*%
X189570000Y-37600000D02*
X188870000Y-36900000D01*
X242200000Y-55734314D02*
X242200000Y-44737256D01*
X235062744Y-37600000D02*
X189570000Y-37600000D01*
X235390000Y-59300000D02*
X236690000Y-58000000D01*
X236690000Y-58000000D02*
X239934314Y-58000000D01*
X239934314Y-58000000D02*
X242200000Y-55734314D01*
X242200000Y-44737256D02*
X235062744Y-37600000D01*
%TO.N,RS485_2_2_A*%
X187600000Y-33400000D02*
X187600000Y-31200000D01*
X188600000Y-35600000D02*
X188600000Y-34400000D01*
X187800000Y-36400000D02*
X188600000Y-35600000D01*
X241800000Y-55568628D02*
X241800000Y-44902942D01*
X234897058Y-38000000D02*
X188584070Y-38000000D01*
X187800000Y-37215930D02*
X187800000Y-36400000D01*
X188600000Y-34400000D02*
X187600000Y-33400000D01*
X239768628Y-57600000D02*
X241800000Y-55568628D01*
X241800000Y-44902942D02*
X234897058Y-38000000D01*
X233280000Y-57600000D02*
X239768628Y-57600000D01*
X231580000Y-59300000D02*
X233280000Y-57600000D01*
X188584070Y-38000000D02*
X187800000Y-37215930D01*
%TO.N,RS485_1_2_GND*%
X185060000Y-33215930D02*
X185060000Y-31200000D01*
X186400000Y-34555930D02*
X185060000Y-33215930D01*
X186400000Y-35200000D02*
X186400000Y-34555930D01*
X187400000Y-36200000D02*
X186400000Y-35200000D01*
X187400000Y-37400000D02*
X187400000Y-36200000D01*
X234731372Y-38400000D02*
X188400000Y-38400000D01*
X241400000Y-55402942D02*
X241400000Y-45068628D01*
X241400000Y-45068628D02*
X234731372Y-38400000D01*
X188400000Y-38400000D02*
X187400000Y-37400000D01*
X239602942Y-57200000D02*
X241400000Y-55402942D01*
X218440000Y-57200000D02*
X239602942Y-57200000D01*
X216340000Y-59300000D02*
X218440000Y-57200000D01*
%TO.N,RS485_1_2_B*%
X185060000Y-36060000D02*
X185060000Y-35000000D01*
X185200000Y-36200000D02*
X185060000Y-36060000D01*
X185200000Y-37200000D02*
X185200000Y-36200000D01*
X241000000Y-55237256D02*
X241000000Y-45234314D01*
X239437256Y-56800000D02*
X241000000Y-55237256D01*
X234565686Y-38800000D02*
X186800000Y-38800000D01*
X215030000Y-56800000D02*
X239437256Y-56800000D01*
X186800000Y-38800000D02*
X185200000Y-37200000D01*
X212530000Y-59300000D02*
X215030000Y-56800000D01*
X241000000Y-45234314D02*
X234565686Y-38800000D01*
%TO.N,RS485_1_2_A*%
X183790000Y-35390000D02*
X183790000Y-33100000D01*
X184800000Y-36400000D02*
X183790000Y-35390000D01*
X184800000Y-37400000D02*
X184800000Y-36400000D01*
X186600000Y-39200000D02*
X184800000Y-37400000D01*
X234400000Y-39200000D02*
X186600000Y-39200000D01*
X240600000Y-45400000D02*
X234400000Y-39200000D01*
X240600000Y-55071570D02*
X240600000Y-45400000D01*
X211620000Y-56400000D02*
X239271570Y-56400000D01*
X208720000Y-59300000D02*
X211620000Y-56400000D01*
X239271570Y-56400000D02*
X240600000Y-55071570D01*
%TO.N,GPIO5_GND*%
X239200000Y-46600000D02*
X232600000Y-40000000D01*
X231400000Y-40000000D02*
X184800000Y-40000000D01*
X232600000Y-40000000D02*
X231400000Y-40000000D01*
%TO.N,GPIO5_10*%
X229190000Y-40400000D02*
X228200000Y-40400000D01*
X228200000Y-40400000D02*
X183800000Y-40400000D01*
X235390000Y-46600000D02*
X229190000Y-40400000D01*
%TO.N,GPIO5_8*%
X221970000Y-40800000D02*
X220600000Y-40800000D01*
X227770000Y-46600000D02*
X221970000Y-40800000D01*
X183600000Y-40800000D02*
X220600000Y-40800000D01*
%TO.N,GPIO5_6*%
X220150000Y-46600000D02*
X214750000Y-41200000D01*
X212200000Y-41200000D02*
X183010000Y-41200000D01*
X214750000Y-41200000D02*
X212200000Y-41200000D01*
%TO.N,GPIO5_4*%
X207530000Y-41600000D02*
X204200000Y-41600000D01*
X212530000Y-46600000D02*
X207530000Y-41600000D01*
X182000000Y-41600000D02*
X204200000Y-41600000D01*
%TO.N,GPIO5_2*%
X200310000Y-42000000D02*
X199800000Y-42000000D01*
X181270000Y-42000000D02*
X199800000Y-42000000D01*
X204910000Y-46600000D02*
X200310000Y-42000000D01*
%TO.N,GPIO4_GND*%
X192400000Y-44971570D02*
X192400000Y-55700000D01*
X180200000Y-42400000D02*
X189828430Y-42400000D01*
X189828430Y-42400000D02*
X192400000Y-44971570D01*
X174900000Y-37100000D02*
X180200000Y-42400000D01*
X192400000Y-55700000D02*
X188800000Y-59300000D01*
X174900000Y-35000000D02*
X174900000Y-37100000D01*
%TO.N,GPIO4_9*%
X192000000Y-55534314D02*
X189634314Y-57900000D01*
X192000000Y-45137256D02*
X192000000Y-55534314D01*
X182580000Y-57900000D02*
X181180000Y-59300000D01*
X189662744Y-42800000D02*
X192000000Y-45137256D01*
X189634314Y-57900000D02*
X182580000Y-57900000D01*
X179530000Y-42800000D02*
X189662744Y-42800000D01*
X173630000Y-36900000D02*
X179530000Y-42800000D01*
%TO.N,GPIO4_7*%
X189497058Y-43200000D02*
X191600000Y-45302942D01*
X178544070Y-43200000D02*
X189497058Y-43200000D01*
X172360000Y-37015930D02*
X178544070Y-43200000D01*
X172360000Y-35000000D02*
X172360000Y-37015930D01*
X191600000Y-45302942D02*
X191600000Y-55368628D01*
%TO.N,GPIO4_5*%
X189302942Y-57100000D02*
X168140000Y-57100000D01*
X191200000Y-55202942D02*
X189302942Y-57100000D01*
X191200000Y-45468628D02*
X191200000Y-55202942D01*
X189331372Y-43600000D02*
X191200000Y-45468628D01*
X168140000Y-57100000D02*
X165940000Y-59300000D01*
X171090000Y-36900000D02*
X177790000Y-43600000D01*
X177790000Y-43600000D02*
X189331372Y-43600000D01*
%TO.N,GPIO4_3*%
X190800000Y-55037255D02*
X190618628Y-55218628D01*
X189165686Y-44000000D02*
X190800000Y-45634314D01*
X190800000Y-45634314D02*
X190800000Y-55037255D01*
X176800000Y-44000000D02*
X189165686Y-44000000D01*
X169820000Y-37020000D02*
X176800000Y-44000000D01*
X169820000Y-35000000D02*
X169820000Y-37020000D01*
%TO.N,GPIO4_1*%
X190400000Y-45800000D02*
X190400000Y-54871570D01*
X189000000Y-44400000D02*
X190400000Y-45800000D01*
X188971570Y-56300000D02*
X153700000Y-56300000D01*
X153700000Y-56300000D02*
X150700000Y-59300000D01*
X176050000Y-44400000D02*
X189000000Y-44400000D01*
X190400000Y-54871570D02*
X188971570Y-56300000D01*
X168550000Y-36900000D02*
X176050000Y-44400000D01*
%TO.N,GPIO4_7*%
X189468628Y-57500000D02*
X175360000Y-57500000D01*
X175360000Y-57500000D02*
X173560000Y-59300000D01*
X191600000Y-55368628D02*
X189468628Y-57500000D01*
%TO.N,GPIO4_3*%
X190618628Y-55218628D02*
X189137256Y-56700000D01*
X190800000Y-55037256D02*
X190618628Y-55218628D01*
%TO.N,GPIO3_6*%
X169750000Y-42150000D02*
X169750000Y-46600000D01*
X164740000Y-37140000D02*
X169750000Y-42150000D01*
X164740000Y-35000000D02*
X164740000Y-37140000D01*
%TO.N,GPIO3_2*%
X154510000Y-43885686D02*
X154510000Y-46600000D01*
X160515686Y-37880000D02*
X154510000Y-43885686D01*
X161335930Y-37880000D02*
X160515686Y-37880000D01*
X162200000Y-37015930D02*
X161335930Y-37880000D01*
X162200000Y-35000000D02*
X162200000Y-37015930D01*
%TO.N,GPIO3_4*%
X162130000Y-38240000D02*
X162130000Y-46600000D01*
X163470000Y-36900000D02*
X162130000Y-38240000D01*
%TO.N,GPIO5_8*%
X179980000Y-37180000D02*
X183600000Y-40800000D01*
X179980000Y-35000000D02*
X179980000Y-37180000D01*
%TO.N,GPIO3_8*%
X175970000Y-45200000D02*
X177370000Y-46600000D01*
X174310000Y-45200000D02*
X175970000Y-45200000D01*
X166010000Y-36900000D02*
X174310000Y-45200000D01*
%TO.N,GPIO3_10*%
X167280000Y-37015930D02*
X167280000Y-35000000D01*
X175064070Y-44800000D02*
X167280000Y-37015930D01*
X184990000Y-46600000D02*
X183190000Y-44800000D01*
X183190000Y-44800000D02*
X175064070Y-44800000D01*
%TO.N,GPIO4_3*%
X160920000Y-56700000D02*
X158320000Y-59300000D01*
X189137256Y-56700000D02*
X160920000Y-56700000D01*
%TO.N,GPIO4_7*%
X191600000Y-55368628D02*
X191600000Y-48300000D01*
X191600000Y-48300000D02*
X191600000Y-47300000D01*
%TO.N,GPIO5_4*%
X177440000Y-37040000D02*
X182000000Y-41600000D01*
X177440000Y-35000000D02*
X177440000Y-37040000D01*
%TO.N,GPIO5_2*%
X176170000Y-36900000D02*
X181270000Y-42000000D01*
%TO.N,GPIO5_6*%
X183010000Y-41200000D02*
X178710000Y-36900000D01*
%TO.N,GPIO5_10*%
X181250000Y-37850000D02*
X181250000Y-36900000D01*
X183800000Y-40400000D02*
X181250000Y-37850000D01*
%TO.N,GPIO5_GND*%
X184800000Y-40000000D02*
X182400000Y-37600000D01*
X182400000Y-37600000D02*
X182400000Y-36265930D01*
X181250000Y-35115930D02*
X181250000Y-33100000D01*
X182400000Y-36265930D02*
X181250000Y-35115930D01*
%TD*%
%TA.AperFunction,Conductor*%
%TO.N,CHASSIS*%
G36*
X252042539Y-28520185D02*
G01*
X252088294Y-28572989D01*
X252099500Y-28624500D01*
X252099500Y-62375500D01*
X252079815Y-62442539D01*
X252027011Y-62488294D01*
X251975500Y-62499500D01*
X83224500Y-62499500D01*
X83157461Y-62479815D01*
X83111706Y-62427011D01*
X83100500Y-62375500D01*
X83100500Y-59299993D01*
X94964700Y-59299993D01*
X94964700Y-59300006D01*
X94983864Y-59531297D01*
X94983866Y-59531308D01*
X95040842Y-59756300D01*
X95134075Y-59968848D01*
X95261016Y-60163147D01*
X95261019Y-60163151D01*
X95261021Y-60163153D01*
X95418216Y-60333913D01*
X95418219Y-60333915D01*
X95418222Y-60333918D01*
X95601365Y-60476464D01*
X95601371Y-60476468D01*
X95601374Y-60476470D01*
X95805497Y-60586936D01*
X95919487Y-60626068D01*
X96025015Y-60662297D01*
X96025017Y-60662297D01*
X96025019Y-60662298D01*
X96253951Y-60700500D01*
X96253952Y-60700500D01*
X96486048Y-60700500D01*
X96486049Y-60700500D01*
X96714981Y-60662298D01*
X96934503Y-60586936D01*
X97138626Y-60476470D01*
X97321784Y-60333913D01*
X97478979Y-60163153D01*
X97605924Y-59968849D01*
X97699157Y-59756300D01*
X97756134Y-59531305D01*
X97775300Y-59300000D01*
X97775300Y-59299993D01*
X98774700Y-59299993D01*
X98774700Y-59300006D01*
X98793864Y-59531297D01*
X98793866Y-59531308D01*
X98850842Y-59756300D01*
X98944075Y-59968848D01*
X99071016Y-60163147D01*
X99071019Y-60163151D01*
X99071021Y-60163153D01*
X99228216Y-60333913D01*
X99228219Y-60333915D01*
X99228222Y-60333918D01*
X99411365Y-60476464D01*
X99411371Y-60476468D01*
X99411374Y-60476470D01*
X99615497Y-60586936D01*
X99729487Y-60626068D01*
X99835015Y-60662297D01*
X99835017Y-60662297D01*
X99835019Y-60662298D01*
X100063951Y-60700500D01*
X100063952Y-60700500D01*
X100296048Y-60700500D01*
X100296049Y-60700500D01*
X100524981Y-60662298D01*
X100744503Y-60586936D01*
X100948626Y-60476470D01*
X101131784Y-60333913D01*
X101288979Y-60163153D01*
X101415924Y-59968849D01*
X101509157Y-59756300D01*
X101566134Y-59531305D01*
X101585300Y-59300000D01*
X101585300Y-59299993D01*
X102584700Y-59299993D01*
X102584700Y-59300006D01*
X102603864Y-59531297D01*
X102603866Y-59531308D01*
X102660842Y-59756300D01*
X102754075Y-59968848D01*
X102881016Y-60163147D01*
X102881019Y-60163151D01*
X102881021Y-60163153D01*
X103038216Y-60333913D01*
X103038219Y-60333915D01*
X103038222Y-60333918D01*
X103221365Y-60476464D01*
X103221371Y-60476468D01*
X103221374Y-60476470D01*
X103425497Y-60586936D01*
X103539487Y-60626068D01*
X103645015Y-60662297D01*
X103645017Y-60662297D01*
X103645019Y-60662298D01*
X103873951Y-60700500D01*
X103873952Y-60700500D01*
X104106048Y-60700500D01*
X104106049Y-60700500D01*
X104334981Y-60662298D01*
X104554503Y-60586936D01*
X104758626Y-60476470D01*
X104941784Y-60333913D01*
X105098979Y-60163153D01*
X105225924Y-59968849D01*
X105319157Y-59756300D01*
X105376134Y-59531305D01*
X105395300Y-59300000D01*
X105395300Y-59299993D01*
X105376135Y-59068702D01*
X105376133Y-59068691D01*
X105319157Y-58843699D01*
X105225924Y-58631151D01*
X105098983Y-58436852D01*
X105098980Y-58436849D01*
X105098979Y-58436847D01*
X104941784Y-58266087D01*
X104941779Y-58266083D01*
X104941777Y-58266081D01*
X104758634Y-58123535D01*
X104758628Y-58123531D01*
X104554504Y-58013064D01*
X104554495Y-58013061D01*
X104334984Y-57937702D01*
X104163282Y-57909050D01*
X104106049Y-57899500D01*
X103873951Y-57899500D01*
X103828164Y-57907140D01*
X103645015Y-57937702D01*
X103425504Y-58013061D01*
X103425495Y-58013064D01*
X103221371Y-58123531D01*
X103221365Y-58123535D01*
X103038222Y-58266081D01*
X103038219Y-58266084D01*
X103038216Y-58266086D01*
X103038216Y-58266087D01*
X103001747Y-58305703D01*
X102881016Y-58436852D01*
X102754075Y-58631151D01*
X102660842Y-58843699D01*
X102603866Y-59068691D01*
X102603864Y-59068702D01*
X102584700Y-59299993D01*
X101585300Y-59299993D01*
X101566135Y-59068702D01*
X101566131Y-59068682D01*
X101521680Y-58893151D01*
X101524304Y-58823331D01*
X101554202Y-58775031D01*
X105192416Y-55136819D01*
X105253739Y-55103334D01*
X105280097Y-55100500D01*
X110850902Y-55100500D01*
X110917941Y-55120185D01*
X110963696Y-55172989D01*
X110973640Y-55242147D01*
X110944615Y-55305703D01*
X110938583Y-55312181D01*
X108324839Y-57925923D01*
X108263516Y-57959408D01*
X108196896Y-57955524D01*
X108144981Y-57937701D01*
X107948786Y-57904963D01*
X107916049Y-57899500D01*
X107683951Y-57899500D01*
X107638164Y-57907140D01*
X107455015Y-57937702D01*
X107235504Y-58013061D01*
X107235495Y-58013064D01*
X107031371Y-58123531D01*
X107031365Y-58123535D01*
X106848222Y-58266081D01*
X106848219Y-58266084D01*
X106848216Y-58266086D01*
X106848216Y-58266087D01*
X106811747Y-58305703D01*
X106691016Y-58436852D01*
X106564075Y-58631151D01*
X106470842Y-58843699D01*
X106413866Y-59068691D01*
X106413864Y-59068702D01*
X106394700Y-59299993D01*
X106394700Y-59300006D01*
X106413864Y-59531297D01*
X106413866Y-59531308D01*
X106470842Y-59756300D01*
X106564075Y-59968848D01*
X106691016Y-60163147D01*
X106691019Y-60163151D01*
X106691021Y-60163153D01*
X106848216Y-60333913D01*
X106848219Y-60333915D01*
X106848222Y-60333918D01*
X107031365Y-60476464D01*
X107031371Y-60476468D01*
X107031374Y-60476470D01*
X107235497Y-60586936D01*
X107349487Y-60626068D01*
X107455015Y-60662297D01*
X107455017Y-60662297D01*
X107455019Y-60662298D01*
X107683951Y-60700500D01*
X107683952Y-60700500D01*
X107916048Y-60700500D01*
X107916049Y-60700500D01*
X108144981Y-60662298D01*
X108364503Y-60586936D01*
X108568626Y-60476470D01*
X108751784Y-60333913D01*
X108908979Y-60163153D01*
X109035924Y-59968849D01*
X109129157Y-59756300D01*
X109186134Y-59531305D01*
X109205300Y-59300000D01*
X109205300Y-59299993D01*
X110204700Y-59299993D01*
X110204700Y-59300006D01*
X110223864Y-59531297D01*
X110223866Y-59531308D01*
X110280842Y-59756300D01*
X110374075Y-59968848D01*
X110501016Y-60163147D01*
X110501019Y-60163151D01*
X110501021Y-60163153D01*
X110658216Y-60333913D01*
X110658219Y-60333915D01*
X110658222Y-60333918D01*
X110841365Y-60476464D01*
X110841371Y-60476468D01*
X110841374Y-60476470D01*
X111045497Y-60586936D01*
X111159487Y-60626068D01*
X111265015Y-60662297D01*
X111265017Y-60662297D01*
X111265019Y-60662298D01*
X111493951Y-60700500D01*
X111493952Y-60700500D01*
X111726048Y-60700500D01*
X111726049Y-60700500D01*
X111954981Y-60662298D01*
X112174503Y-60586936D01*
X112378626Y-60476470D01*
X112561784Y-60333913D01*
X112718979Y-60163153D01*
X112845924Y-59968849D01*
X112939157Y-59756300D01*
X112996134Y-59531305D01*
X113015300Y-59300000D01*
X113015300Y-59299993D01*
X112996135Y-59068702D01*
X112996133Y-59068691D01*
X112939157Y-58843699D01*
X112845924Y-58631151D01*
X112718983Y-58436852D01*
X112718980Y-58436849D01*
X112718979Y-58436847D01*
X112561784Y-58266087D01*
X112561779Y-58266083D01*
X112561777Y-58266081D01*
X112378634Y-58123535D01*
X112378628Y-58123531D01*
X112174504Y-58013064D01*
X112174495Y-58013061D01*
X111954984Y-57937702D01*
X111783282Y-57909050D01*
X111726049Y-57899500D01*
X111493951Y-57899500D01*
X111448164Y-57907140D01*
X111265015Y-57937702D01*
X111045504Y-58013061D01*
X111045495Y-58013064D01*
X110841371Y-58123531D01*
X110841365Y-58123535D01*
X110658222Y-58266081D01*
X110658219Y-58266084D01*
X110658216Y-58266086D01*
X110658216Y-58266087D01*
X110621747Y-58305703D01*
X110501016Y-58436852D01*
X110374075Y-58631151D01*
X110280842Y-58843699D01*
X110223866Y-59068691D01*
X110223864Y-59068702D01*
X110204700Y-59299993D01*
X109205300Y-59299993D01*
X109186135Y-59068702D01*
X109186131Y-59068682D01*
X109141680Y-58893151D01*
X109144304Y-58823331D01*
X109174202Y-58775031D01*
X112412417Y-55536819D01*
X112473740Y-55503334D01*
X112500098Y-55500500D01*
X118070903Y-55500500D01*
X118137942Y-55520185D01*
X118183697Y-55572989D01*
X118193641Y-55642147D01*
X118164616Y-55705703D01*
X118158584Y-55712181D01*
X115944840Y-57925923D01*
X115883517Y-57959408D01*
X115816898Y-57955524D01*
X115764981Y-57937702D01*
X115635641Y-57916119D01*
X115536049Y-57899500D01*
X115303951Y-57899500D01*
X115258164Y-57907140D01*
X115075015Y-57937702D01*
X114855504Y-58013061D01*
X114855495Y-58013064D01*
X114651371Y-58123531D01*
X114651365Y-58123535D01*
X114468222Y-58266081D01*
X114468219Y-58266084D01*
X114468216Y-58266086D01*
X114468216Y-58266087D01*
X114431747Y-58305703D01*
X114311016Y-58436852D01*
X114184075Y-58631151D01*
X114090842Y-58843699D01*
X114033866Y-59068691D01*
X114033864Y-59068702D01*
X114014700Y-59299993D01*
X114014700Y-59300006D01*
X114033864Y-59531297D01*
X114033866Y-59531308D01*
X114090842Y-59756300D01*
X114184075Y-59968848D01*
X114311016Y-60163147D01*
X114311019Y-60163151D01*
X114311021Y-60163153D01*
X114468216Y-60333913D01*
X114468219Y-60333915D01*
X114468222Y-60333918D01*
X114651365Y-60476464D01*
X114651371Y-60476468D01*
X114651374Y-60476470D01*
X114855497Y-60586936D01*
X114969487Y-60626068D01*
X115075015Y-60662297D01*
X115075017Y-60662297D01*
X115075019Y-60662298D01*
X115303951Y-60700500D01*
X115303952Y-60700500D01*
X115536048Y-60700500D01*
X115536049Y-60700500D01*
X115764981Y-60662298D01*
X115984503Y-60586936D01*
X116188626Y-60476470D01*
X116371784Y-60333913D01*
X116528979Y-60163153D01*
X116655924Y-59968849D01*
X116749157Y-59756300D01*
X116806134Y-59531305D01*
X116825300Y-59300000D01*
X116825300Y-59299993D01*
X117824700Y-59299993D01*
X117824700Y-59300006D01*
X117843864Y-59531297D01*
X117843866Y-59531308D01*
X117900842Y-59756300D01*
X117994075Y-59968848D01*
X118121016Y-60163147D01*
X118121019Y-60163151D01*
X118121021Y-60163153D01*
X118278216Y-60333913D01*
X118278219Y-60333915D01*
X118278222Y-60333918D01*
X118461365Y-60476464D01*
X118461371Y-60476468D01*
X118461374Y-60476470D01*
X118665497Y-60586936D01*
X118779487Y-60626068D01*
X118885015Y-60662297D01*
X118885017Y-60662297D01*
X118885019Y-60662298D01*
X119113951Y-60700500D01*
X119113952Y-60700500D01*
X119346048Y-60700500D01*
X119346049Y-60700500D01*
X119574981Y-60662298D01*
X119794503Y-60586936D01*
X119998626Y-60476470D01*
X120181784Y-60333913D01*
X120338979Y-60163153D01*
X120465924Y-59968849D01*
X120559157Y-59756300D01*
X120616134Y-59531305D01*
X120635300Y-59300000D01*
X120635300Y-59299993D01*
X120616135Y-59068702D01*
X120616133Y-59068691D01*
X120559157Y-58843699D01*
X120465924Y-58631151D01*
X120338983Y-58436852D01*
X120338980Y-58436849D01*
X120338979Y-58436847D01*
X120181784Y-58266087D01*
X120181779Y-58266083D01*
X120181777Y-58266081D01*
X119998634Y-58123535D01*
X119998628Y-58123531D01*
X119794504Y-58013064D01*
X119794495Y-58013061D01*
X119574984Y-57937702D01*
X119403282Y-57909050D01*
X119346049Y-57899500D01*
X119113951Y-57899500D01*
X119068164Y-57907140D01*
X118885015Y-57937702D01*
X118665504Y-58013061D01*
X118665495Y-58013064D01*
X118461371Y-58123531D01*
X118461365Y-58123535D01*
X118278222Y-58266081D01*
X118278219Y-58266084D01*
X118278216Y-58266086D01*
X118278216Y-58266087D01*
X118241747Y-58305703D01*
X118121016Y-58436852D01*
X117994075Y-58631151D01*
X117900842Y-58843699D01*
X117843866Y-59068691D01*
X117843864Y-59068702D01*
X117824700Y-59299993D01*
X116825300Y-59299993D01*
X116806135Y-59068702D01*
X116806131Y-59068682D01*
X116761680Y-58893151D01*
X116764304Y-58823331D01*
X116794202Y-58775031D01*
X119632416Y-55936819D01*
X119693739Y-55903334D01*
X119720097Y-55900500D01*
X125290903Y-55900500D01*
X125357942Y-55920185D01*
X125403697Y-55972989D01*
X125413641Y-56042147D01*
X125384616Y-56105703D01*
X125378584Y-56112181D01*
X123564840Y-57925923D01*
X123503517Y-57959408D01*
X123436898Y-57955524D01*
X123384981Y-57937702D01*
X123255641Y-57916119D01*
X123156049Y-57899500D01*
X122923951Y-57899500D01*
X122878164Y-57907140D01*
X122695015Y-57937702D01*
X122475504Y-58013061D01*
X122475495Y-58013064D01*
X122271371Y-58123531D01*
X122271365Y-58123535D01*
X122088222Y-58266081D01*
X122088219Y-58266084D01*
X122088216Y-58266086D01*
X122088216Y-58266087D01*
X122051747Y-58305703D01*
X121931016Y-58436852D01*
X121804075Y-58631151D01*
X121710842Y-58843699D01*
X121653866Y-59068691D01*
X121653864Y-59068702D01*
X121634700Y-59299993D01*
X121634700Y-59300006D01*
X121653864Y-59531297D01*
X121653866Y-59531308D01*
X121710842Y-59756300D01*
X121804075Y-59968848D01*
X121931016Y-60163147D01*
X121931019Y-60163151D01*
X121931021Y-60163153D01*
X122088216Y-60333913D01*
X122088219Y-60333915D01*
X122088222Y-60333918D01*
X122271365Y-60476464D01*
X122271371Y-60476468D01*
X122271374Y-60476470D01*
X122475497Y-60586936D01*
X122589487Y-60626068D01*
X122695015Y-60662297D01*
X122695017Y-60662297D01*
X122695019Y-60662298D01*
X122923951Y-60700500D01*
X122923952Y-60700500D01*
X123156048Y-60700500D01*
X123156049Y-60700500D01*
X123384981Y-60662298D01*
X123604503Y-60586936D01*
X123808626Y-60476470D01*
X123991784Y-60333913D01*
X124148979Y-60163153D01*
X124275924Y-59968849D01*
X124369157Y-59756300D01*
X124426134Y-59531305D01*
X124445300Y-59300000D01*
X124445300Y-59299993D01*
X125444700Y-59299993D01*
X125444700Y-59300006D01*
X125463864Y-59531297D01*
X125463866Y-59531308D01*
X125520842Y-59756300D01*
X125614075Y-59968848D01*
X125741016Y-60163147D01*
X125741019Y-60163151D01*
X125741021Y-60163153D01*
X125898216Y-60333913D01*
X125898219Y-60333915D01*
X125898222Y-60333918D01*
X126081365Y-60476464D01*
X126081371Y-60476468D01*
X126081374Y-60476470D01*
X126285497Y-60586936D01*
X126399487Y-60626068D01*
X126505015Y-60662297D01*
X126505017Y-60662297D01*
X126505019Y-60662298D01*
X126733951Y-60700500D01*
X126733952Y-60700500D01*
X126966048Y-60700500D01*
X126966049Y-60700500D01*
X127194981Y-60662298D01*
X127414503Y-60586936D01*
X127618626Y-60476470D01*
X127801784Y-60333913D01*
X127958979Y-60163153D01*
X128085924Y-59968849D01*
X128179157Y-59756300D01*
X128236134Y-59531305D01*
X128255300Y-59300000D01*
X128255300Y-59299993D01*
X128236135Y-59068702D01*
X128236133Y-59068691D01*
X128179157Y-58843699D01*
X128085924Y-58631151D01*
X127958983Y-58436852D01*
X127958980Y-58436849D01*
X127958979Y-58436847D01*
X127801784Y-58266087D01*
X127801779Y-58266083D01*
X127801777Y-58266081D01*
X127618634Y-58123535D01*
X127618628Y-58123531D01*
X127414504Y-58013064D01*
X127414495Y-58013061D01*
X127194984Y-57937702D01*
X127023282Y-57909050D01*
X126966049Y-57899500D01*
X126733951Y-57899500D01*
X126688164Y-57907140D01*
X126505015Y-57937702D01*
X126285504Y-58013061D01*
X126285495Y-58013064D01*
X126081371Y-58123531D01*
X126081365Y-58123535D01*
X125898222Y-58266081D01*
X125898219Y-58266084D01*
X125898216Y-58266086D01*
X125898216Y-58266087D01*
X125861747Y-58305703D01*
X125741016Y-58436852D01*
X125614075Y-58631151D01*
X125520842Y-58843699D01*
X125463866Y-59068691D01*
X125463864Y-59068702D01*
X125444700Y-59299993D01*
X124445300Y-59299993D01*
X124426135Y-59068702D01*
X124426131Y-59068682D01*
X124381680Y-58893151D01*
X124384304Y-58823331D01*
X124414202Y-58775031D01*
X126852416Y-56336819D01*
X126913739Y-56303334D01*
X126940097Y-56300500D01*
X132510903Y-56300500D01*
X132577942Y-56320185D01*
X132623697Y-56372989D01*
X132633641Y-56442147D01*
X132604616Y-56505703D01*
X132598584Y-56512181D01*
X131184840Y-57925923D01*
X131123517Y-57959408D01*
X131056898Y-57955524D01*
X131004981Y-57937702D01*
X130875641Y-57916119D01*
X130776049Y-57899500D01*
X130543951Y-57899500D01*
X130498164Y-57907140D01*
X130315015Y-57937702D01*
X130095504Y-58013061D01*
X130095495Y-58013064D01*
X129891371Y-58123531D01*
X129891365Y-58123535D01*
X129708222Y-58266081D01*
X129708219Y-58266084D01*
X129708216Y-58266086D01*
X129708216Y-58266087D01*
X129671747Y-58305703D01*
X129551016Y-58436852D01*
X129424075Y-58631151D01*
X129330842Y-58843699D01*
X129273866Y-59068691D01*
X129273864Y-59068702D01*
X129254700Y-59299993D01*
X129254700Y-59300006D01*
X129273864Y-59531297D01*
X129273866Y-59531308D01*
X129330842Y-59756300D01*
X129424075Y-59968848D01*
X129551016Y-60163147D01*
X129551019Y-60163151D01*
X129551021Y-60163153D01*
X129708216Y-60333913D01*
X129708219Y-60333915D01*
X129708222Y-60333918D01*
X129891365Y-60476464D01*
X129891371Y-60476468D01*
X129891374Y-60476470D01*
X130095497Y-60586936D01*
X130209487Y-60626068D01*
X130315015Y-60662297D01*
X130315017Y-60662297D01*
X130315019Y-60662298D01*
X130543951Y-60700500D01*
X130543952Y-60700500D01*
X130776048Y-60700500D01*
X130776049Y-60700500D01*
X131004981Y-60662298D01*
X131224503Y-60586936D01*
X131428626Y-60476470D01*
X131611784Y-60333913D01*
X131768979Y-60163153D01*
X131895924Y-59968849D01*
X131989157Y-59756300D01*
X132046134Y-59531305D01*
X132065300Y-59300000D01*
X132065300Y-59299993D01*
X133064700Y-59299993D01*
X133064700Y-59300006D01*
X133083864Y-59531297D01*
X133083866Y-59531308D01*
X133140842Y-59756300D01*
X133234075Y-59968848D01*
X133361016Y-60163147D01*
X133361019Y-60163151D01*
X133361021Y-60163153D01*
X133518216Y-60333913D01*
X133518219Y-60333915D01*
X133518222Y-60333918D01*
X133701365Y-60476464D01*
X133701371Y-60476468D01*
X133701374Y-60476470D01*
X133905497Y-60586936D01*
X134019487Y-60626068D01*
X134125015Y-60662297D01*
X134125017Y-60662297D01*
X134125019Y-60662298D01*
X134353951Y-60700500D01*
X134353952Y-60700500D01*
X134586048Y-60700500D01*
X134586049Y-60700500D01*
X134814981Y-60662298D01*
X135034503Y-60586936D01*
X135238626Y-60476470D01*
X135421784Y-60333913D01*
X135578979Y-60163153D01*
X135705924Y-59968849D01*
X135799157Y-59756300D01*
X135856134Y-59531305D01*
X135875300Y-59300000D01*
X135875300Y-59299993D01*
X135856135Y-59068702D01*
X135856133Y-59068691D01*
X135799157Y-58843699D01*
X135705924Y-58631151D01*
X135578983Y-58436852D01*
X135578980Y-58436849D01*
X135578979Y-58436847D01*
X135421784Y-58266087D01*
X135421779Y-58266083D01*
X135421777Y-58266081D01*
X135238634Y-58123535D01*
X135238628Y-58123531D01*
X135034504Y-58013064D01*
X135034495Y-58013061D01*
X134814984Y-57937702D01*
X134643282Y-57909050D01*
X134586049Y-57899500D01*
X134353951Y-57899500D01*
X134308164Y-57907140D01*
X134125015Y-57937702D01*
X133905504Y-58013061D01*
X133905495Y-58013064D01*
X133701371Y-58123531D01*
X133701365Y-58123535D01*
X133518222Y-58266081D01*
X133518219Y-58266084D01*
X133518216Y-58266086D01*
X133518216Y-58266087D01*
X133481747Y-58305703D01*
X133361016Y-58436852D01*
X133234075Y-58631151D01*
X133140842Y-58843699D01*
X133083866Y-59068691D01*
X133083864Y-59068702D01*
X133064700Y-59299993D01*
X132065300Y-59299993D01*
X132046135Y-59068702D01*
X132046131Y-59068682D01*
X132001680Y-58893151D01*
X132004304Y-58823331D01*
X132034202Y-58775031D01*
X134072416Y-56736819D01*
X134133739Y-56703334D01*
X134160097Y-56700500D01*
X138349015Y-56700500D01*
X138349031Y-56700501D01*
X138356627Y-56700501D01*
X138514739Y-56700501D01*
X138514742Y-56700501D01*
X138667470Y-56659577D01*
X138717589Y-56630639D01*
X138804401Y-56580520D01*
X138916205Y-56468716D01*
X138916205Y-56468714D01*
X138926413Y-56458507D01*
X138926414Y-56458504D01*
X141026348Y-54358571D01*
X141026354Y-54358567D01*
X141036557Y-54348363D01*
X141036559Y-54348363D01*
X141148363Y-54236559D01*
X141148364Y-54236557D01*
X141155414Y-54229507D01*
X141155430Y-54229487D01*
X141187822Y-54197095D01*
X141249144Y-54163613D01*
X141318835Y-54168599D01*
X141374768Y-54210471D01*
X141399184Y-54275936D01*
X141399500Y-54284780D01*
X141399500Y-55279902D01*
X141379815Y-55346941D01*
X141363181Y-55367583D01*
X138804840Y-57925923D01*
X138743517Y-57959408D01*
X138676898Y-57955524D01*
X138624981Y-57937702D01*
X138495641Y-57916119D01*
X138396049Y-57899500D01*
X138163951Y-57899500D01*
X138118164Y-57907140D01*
X137935015Y-57937702D01*
X137715504Y-58013061D01*
X137715495Y-58013064D01*
X137511371Y-58123531D01*
X137511365Y-58123535D01*
X137328222Y-58266081D01*
X137328219Y-58266084D01*
X137328216Y-58266086D01*
X137328216Y-58266087D01*
X137291747Y-58305703D01*
X137171016Y-58436852D01*
X137044075Y-58631151D01*
X136950842Y-58843699D01*
X136893866Y-59068691D01*
X136893864Y-59068702D01*
X136874700Y-59299993D01*
X136874700Y-59300006D01*
X136893864Y-59531297D01*
X136893866Y-59531308D01*
X136950842Y-59756300D01*
X137044075Y-59968848D01*
X137171016Y-60163147D01*
X137171019Y-60163151D01*
X137171021Y-60163153D01*
X137328216Y-60333913D01*
X137328219Y-60333915D01*
X137328222Y-60333918D01*
X137511365Y-60476464D01*
X137511371Y-60476468D01*
X137511374Y-60476470D01*
X137715497Y-60586936D01*
X137829487Y-60626068D01*
X137935015Y-60662297D01*
X137935017Y-60662297D01*
X137935019Y-60662298D01*
X138163951Y-60700500D01*
X138163952Y-60700500D01*
X138396048Y-60700500D01*
X138396049Y-60700500D01*
X138624981Y-60662298D01*
X138844503Y-60586936D01*
X139048626Y-60476470D01*
X139231784Y-60333913D01*
X139388979Y-60163153D01*
X139515924Y-59968849D01*
X139609157Y-59756300D01*
X139666134Y-59531305D01*
X139685300Y-59300000D01*
X139685300Y-59299993D01*
X145484700Y-59299993D01*
X145484700Y-59300006D01*
X145503864Y-59531297D01*
X145503866Y-59531308D01*
X145560842Y-59756300D01*
X145654075Y-59968848D01*
X145781016Y-60163147D01*
X145781019Y-60163151D01*
X145781021Y-60163153D01*
X145938216Y-60333913D01*
X145938219Y-60333915D01*
X145938222Y-60333918D01*
X146121365Y-60476464D01*
X146121371Y-60476468D01*
X146121374Y-60476470D01*
X146325497Y-60586936D01*
X146439487Y-60626068D01*
X146545015Y-60662297D01*
X146545017Y-60662297D01*
X146545019Y-60662298D01*
X146773951Y-60700500D01*
X146773952Y-60700500D01*
X147006048Y-60700500D01*
X147006049Y-60700500D01*
X147234981Y-60662298D01*
X147454503Y-60586936D01*
X147658626Y-60476470D01*
X147841784Y-60333913D01*
X147998979Y-60163153D01*
X148125924Y-59968849D01*
X148219157Y-59756300D01*
X148276134Y-59531305D01*
X148295300Y-59300000D01*
X148295300Y-59299993D01*
X148276135Y-59068702D01*
X148276133Y-59068691D01*
X148219157Y-58843699D01*
X148125924Y-58631151D01*
X147998983Y-58436852D01*
X147998980Y-58436849D01*
X147998979Y-58436847D01*
X147841784Y-58266087D01*
X147841779Y-58266083D01*
X147841777Y-58266081D01*
X147658634Y-58123535D01*
X147658628Y-58123531D01*
X147454504Y-58013064D01*
X147454495Y-58013061D01*
X147234984Y-57937702D01*
X147063282Y-57909050D01*
X147006049Y-57899500D01*
X146773951Y-57899500D01*
X146728164Y-57907140D01*
X146545015Y-57937702D01*
X146325504Y-58013061D01*
X146325495Y-58013064D01*
X146121371Y-58123531D01*
X146121365Y-58123535D01*
X145938222Y-58266081D01*
X145938219Y-58266084D01*
X145938216Y-58266086D01*
X145938216Y-58266087D01*
X145901747Y-58305703D01*
X145781016Y-58436852D01*
X145654075Y-58631151D01*
X145560842Y-58843699D01*
X145503866Y-59068691D01*
X145503864Y-59068702D01*
X145484700Y-59299993D01*
X139685300Y-59299993D01*
X139666135Y-59068702D01*
X139666131Y-59068682D01*
X139621680Y-58893151D01*
X139624304Y-58823331D01*
X139654202Y-58775031D01*
X142358506Y-56070728D01*
X142358511Y-56070724D01*
X142368714Y-56060520D01*
X142368716Y-56060520D01*
X142480520Y-55948716D01*
X142559577Y-55811784D01*
X142600500Y-55659057D01*
X142600500Y-45652135D01*
X145489500Y-45652135D01*
X145489500Y-47547870D01*
X145489501Y-47547876D01*
X145495908Y-47607483D01*
X145546202Y-47742328D01*
X145546206Y-47742335D01*
X145632452Y-47857544D01*
X145632455Y-47857547D01*
X145747664Y-47943793D01*
X145747671Y-47943797D01*
X145882517Y-47994091D01*
X145882516Y-47994091D01*
X145889444Y-47994835D01*
X145942127Y-48000500D01*
X147837872Y-48000499D01*
X147897483Y-47994091D01*
X148032331Y-47943796D01*
X148147546Y-47857546D01*
X148233796Y-47742331D01*
X148284091Y-47607483D01*
X148290500Y-47547873D01*
X148290499Y-46599993D01*
X149294700Y-46599993D01*
X149294700Y-46600006D01*
X149313864Y-46831297D01*
X149313866Y-46831308D01*
X149370842Y-47056300D01*
X149464075Y-47268848D01*
X149591016Y-47463147D01*
X149591019Y-47463151D01*
X149591021Y-47463153D01*
X149748216Y-47633913D01*
X149748219Y-47633915D01*
X149748222Y-47633918D01*
X149931365Y-47776464D01*
X149931371Y-47776468D01*
X149931374Y-47776470D01*
X150135497Y-47886936D01*
X150246263Y-47924962D01*
X150355015Y-47962297D01*
X150355017Y-47962297D01*
X150355019Y-47962298D01*
X150583951Y-48000500D01*
X150583952Y-48000500D01*
X150816048Y-48000500D01*
X150816049Y-48000500D01*
X151044981Y-47962298D01*
X151264503Y-47886936D01*
X151468626Y-47776470D01*
X151493616Y-47757020D01*
X151572581Y-47695559D01*
X151651784Y-47633913D01*
X151808979Y-47463153D01*
X151935924Y-47268849D01*
X152029157Y-47056300D01*
X152086134Y-46831305D01*
X152105300Y-46600000D01*
X152105300Y-46599993D01*
X152086135Y-46368702D01*
X152086133Y-46368691D01*
X152029157Y-46143699D01*
X151935924Y-45931151D01*
X151808983Y-45736852D01*
X151808980Y-45736849D01*
X151808979Y-45736847D01*
X151651784Y-45566087D01*
X151651779Y-45566083D01*
X151651777Y-45566081D01*
X151468634Y-45423535D01*
X151468628Y-45423531D01*
X151264504Y-45313064D01*
X151264495Y-45313061D01*
X151044984Y-45237702D01*
X150873282Y-45209050D01*
X150816049Y-45199500D01*
X150583951Y-45199500D01*
X150545550Y-45205908D01*
X150355015Y-45237702D01*
X150135504Y-45313061D01*
X150135495Y-45313064D01*
X149931371Y-45423531D01*
X149931365Y-45423535D01*
X149748222Y-45566081D01*
X149748219Y-45566084D01*
X149748216Y-45566086D01*
X149748216Y-45566087D01*
X149723886Y-45592517D01*
X149591016Y-45736852D01*
X149464075Y-45931151D01*
X149370842Y-46143699D01*
X149313866Y-46368691D01*
X149313864Y-46368702D01*
X149294700Y-46599993D01*
X148290499Y-46599993D01*
X148290499Y-45652128D01*
X148284091Y-45592517D01*
X148274233Y-45566087D01*
X148233797Y-45457671D01*
X148233793Y-45457664D01*
X148147547Y-45342455D01*
X148147544Y-45342452D01*
X148032335Y-45256206D01*
X148032328Y-45256202D01*
X147897482Y-45205908D01*
X147897483Y-45205908D01*
X147837883Y-45199501D01*
X147837881Y-45199500D01*
X147837873Y-45199500D01*
X147837864Y-45199500D01*
X145942129Y-45199500D01*
X145942123Y-45199501D01*
X145882516Y-45205908D01*
X145747671Y-45256202D01*
X145747664Y-45256206D01*
X145632455Y-45342452D01*
X145632452Y-45342455D01*
X145546206Y-45457664D01*
X145546202Y-45457671D01*
X145495908Y-45592517D01*
X145494192Y-45608483D01*
X145489501Y-45652123D01*
X145489500Y-45652135D01*
X142600500Y-45652135D01*
X142600500Y-45465783D01*
X142620185Y-45398744D01*
X142636819Y-45378102D01*
X145778103Y-42236819D01*
X145839426Y-42203334D01*
X145865784Y-42200500D01*
X155046589Y-42200500D01*
X155113628Y-42220185D01*
X155159383Y-42272989D01*
X155169327Y-42342147D01*
X155140302Y-42405703D01*
X155134272Y-42412178D01*
X154141286Y-43405164D01*
X154029481Y-43516968D01*
X154029479Y-43516970D01*
X154008481Y-43553341D01*
X153999605Y-43568716D01*
X153950423Y-43653901D01*
X153909499Y-43806629D01*
X153909499Y-43806631D01*
X153909499Y-43974732D01*
X153909500Y-43974745D01*
X153909500Y-45258655D01*
X153889815Y-45325694D01*
X153844519Y-45367709D01*
X153741376Y-45423528D01*
X153741365Y-45423535D01*
X153558222Y-45566081D01*
X153558219Y-45566084D01*
X153558216Y-45566086D01*
X153558216Y-45566087D01*
X153533886Y-45592517D01*
X153401016Y-45736852D01*
X153274075Y-45931151D01*
X153180842Y-46143699D01*
X153123866Y-46368691D01*
X153123864Y-46368702D01*
X153104700Y-46599993D01*
X153104700Y-46600006D01*
X153123864Y-46831297D01*
X153123866Y-46831308D01*
X153180842Y-47056300D01*
X153274075Y-47268848D01*
X153401016Y-47463147D01*
X153401019Y-47463151D01*
X153401021Y-47463153D01*
X153558216Y-47633913D01*
X153558219Y-47633915D01*
X153558222Y-47633918D01*
X153741365Y-47776464D01*
X153741371Y-47776468D01*
X153741374Y-47776470D01*
X153945497Y-47886936D01*
X154056263Y-47924962D01*
X154165015Y-47962297D01*
X154165017Y-47962297D01*
X154165019Y-47962298D01*
X154393951Y-48000500D01*
X154393952Y-48000500D01*
X154626048Y-48000500D01*
X154626049Y-48000500D01*
X154854981Y-47962298D01*
X155074503Y-47886936D01*
X155278626Y-47776470D01*
X155303616Y-47757020D01*
X155382581Y-47695559D01*
X155461784Y-47633913D01*
X155618979Y-47463153D01*
X155745924Y-47268849D01*
X155839157Y-47056300D01*
X155896134Y-46831305D01*
X155915300Y-46600000D01*
X155915300Y-46599993D01*
X156914700Y-46599993D01*
X156914700Y-46600006D01*
X156933864Y-46831297D01*
X156933866Y-46831308D01*
X156990842Y-47056300D01*
X157084075Y-47268848D01*
X157211016Y-47463147D01*
X157211019Y-47463151D01*
X157211021Y-47463153D01*
X157368216Y-47633913D01*
X157368219Y-47633915D01*
X157368222Y-47633918D01*
X157551365Y-47776464D01*
X157551371Y-47776468D01*
X157551374Y-47776470D01*
X157755497Y-47886936D01*
X157866263Y-47924962D01*
X157975015Y-47962297D01*
X157975017Y-47962297D01*
X157975019Y-47962298D01*
X158203951Y-48000500D01*
X158203952Y-48000500D01*
X158436048Y-48000500D01*
X158436049Y-48000500D01*
X158664981Y-47962298D01*
X158884503Y-47886936D01*
X159088626Y-47776470D01*
X159113616Y-47757020D01*
X159192581Y-47695559D01*
X159271784Y-47633913D01*
X159428979Y-47463153D01*
X159555924Y-47268849D01*
X159649157Y-47056300D01*
X159706134Y-46831305D01*
X159725300Y-46600000D01*
X159725300Y-46599993D01*
X159706135Y-46368702D01*
X159706133Y-46368691D01*
X159649157Y-46143699D01*
X159555924Y-45931151D01*
X159428983Y-45736852D01*
X159428980Y-45736849D01*
X159428979Y-45736847D01*
X159271784Y-45566087D01*
X159271779Y-45566083D01*
X159271777Y-45566081D01*
X159088634Y-45423535D01*
X159088628Y-45423531D01*
X158884504Y-45313064D01*
X158884495Y-45313061D01*
X158664984Y-45237702D01*
X158493282Y-45209050D01*
X158436049Y-45199500D01*
X158203951Y-45199500D01*
X158165550Y-45205908D01*
X157975015Y-45237702D01*
X157755504Y-45313061D01*
X157755495Y-45313064D01*
X157551371Y-45423531D01*
X157551365Y-45423535D01*
X157368222Y-45566081D01*
X157368219Y-45566084D01*
X157368216Y-45566086D01*
X157368216Y-45566087D01*
X157343886Y-45592517D01*
X157211016Y-45736852D01*
X157084075Y-45931151D01*
X156990842Y-46143699D01*
X156933866Y-46368691D01*
X156933864Y-46368702D01*
X156914700Y-46599993D01*
X155915300Y-46599993D01*
X155896135Y-46368702D01*
X155896133Y-46368691D01*
X155839157Y-46143699D01*
X155745924Y-45931151D01*
X155618983Y-45736852D01*
X155618980Y-45736849D01*
X155618979Y-45736847D01*
X155461784Y-45566087D01*
X155461779Y-45566083D01*
X155461777Y-45566081D01*
X155278634Y-45423535D01*
X155278623Y-45423528D01*
X155175481Y-45367709D01*
X155125891Y-45318489D01*
X155110500Y-45258655D01*
X155110500Y-44185783D01*
X155130185Y-44118744D01*
X155146819Y-44098102D01*
X160728103Y-38516819D01*
X160789426Y-38483334D01*
X160815784Y-38480500D01*
X161249261Y-38480500D01*
X161249277Y-38480501D01*
X161405500Y-38480501D01*
X161472539Y-38500186D01*
X161518294Y-38552990D01*
X161529500Y-38604501D01*
X161529500Y-45258655D01*
X161509815Y-45325694D01*
X161464519Y-45367709D01*
X161361376Y-45423528D01*
X161361365Y-45423535D01*
X161178222Y-45566081D01*
X161178219Y-45566084D01*
X161178216Y-45566086D01*
X161178216Y-45566087D01*
X161153886Y-45592517D01*
X161021016Y-45736852D01*
X160894075Y-45931151D01*
X160800842Y-46143699D01*
X160743866Y-46368691D01*
X160743864Y-46368702D01*
X160724700Y-46599993D01*
X160724700Y-46600006D01*
X160743864Y-46831297D01*
X160743866Y-46831308D01*
X160800842Y-47056300D01*
X160894075Y-47268848D01*
X161021016Y-47463147D01*
X161021019Y-47463151D01*
X161021021Y-47463153D01*
X161178216Y-47633913D01*
X161178219Y-47633915D01*
X161178222Y-47633918D01*
X161361365Y-47776464D01*
X161361371Y-47776468D01*
X161361374Y-47776470D01*
X161565497Y-47886936D01*
X161676263Y-47924962D01*
X161785015Y-47962297D01*
X161785017Y-47962297D01*
X161785019Y-47962298D01*
X162013951Y-48000500D01*
X162013952Y-48000500D01*
X162246048Y-48000500D01*
X162246049Y-48000500D01*
X162474981Y-47962298D01*
X162694503Y-47886936D01*
X162898626Y-47776470D01*
X162923616Y-47757020D01*
X163002581Y-47695559D01*
X163081784Y-47633913D01*
X163238979Y-47463153D01*
X163365924Y-47268849D01*
X163459157Y-47056300D01*
X163516134Y-46831305D01*
X163535300Y-46600000D01*
X163535300Y-46599993D01*
X164534700Y-46599993D01*
X164534700Y-46600006D01*
X164553864Y-46831297D01*
X164553866Y-46831308D01*
X164610842Y-47056300D01*
X164704075Y-47268848D01*
X164831016Y-47463147D01*
X164831019Y-47463151D01*
X164831021Y-47463153D01*
X164988216Y-47633913D01*
X164988219Y-47633915D01*
X164988222Y-47633918D01*
X165171365Y-47776464D01*
X165171371Y-47776468D01*
X165171374Y-47776470D01*
X165375497Y-47886936D01*
X165486263Y-47924962D01*
X165595015Y-47962297D01*
X165595017Y-47962297D01*
X165595019Y-47962298D01*
X165823951Y-48000500D01*
X165823952Y-48000500D01*
X166056048Y-48000500D01*
X166056049Y-48000500D01*
X166284981Y-47962298D01*
X166504503Y-47886936D01*
X166708626Y-47776470D01*
X166733616Y-47757020D01*
X166812581Y-47695559D01*
X166891784Y-47633913D01*
X167048979Y-47463153D01*
X167175924Y-47268849D01*
X167269157Y-47056300D01*
X167326134Y-46831305D01*
X167345300Y-46600000D01*
X167345300Y-46599993D01*
X167326135Y-46368702D01*
X167326133Y-46368691D01*
X167269157Y-46143699D01*
X167175924Y-45931151D01*
X167048983Y-45736852D01*
X167048980Y-45736849D01*
X167048979Y-45736847D01*
X166891784Y-45566087D01*
X166891779Y-45566083D01*
X166891777Y-45566081D01*
X166708634Y-45423535D01*
X166708628Y-45423531D01*
X166504504Y-45313064D01*
X166504495Y-45313061D01*
X166284984Y-45237702D01*
X166113282Y-45209050D01*
X166056049Y-45199500D01*
X165823951Y-45199500D01*
X165785550Y-45205908D01*
X165595015Y-45237702D01*
X165375504Y-45313061D01*
X165375495Y-45313064D01*
X165171371Y-45423531D01*
X165171365Y-45423535D01*
X164988222Y-45566081D01*
X164988219Y-45566084D01*
X164988216Y-45566086D01*
X164988216Y-45566087D01*
X164963886Y-45592517D01*
X164831016Y-45736852D01*
X164704075Y-45931151D01*
X164610842Y-46143699D01*
X164553866Y-46368691D01*
X164553864Y-46368702D01*
X164534700Y-46599993D01*
X163535300Y-46599993D01*
X163516135Y-46368702D01*
X163516133Y-46368691D01*
X163459157Y-46143699D01*
X163365924Y-45931151D01*
X163238983Y-45736852D01*
X163238980Y-45736849D01*
X163238979Y-45736847D01*
X163081784Y-45566087D01*
X163081779Y-45566083D01*
X163081777Y-45566081D01*
X162898634Y-45423535D01*
X162898623Y-45423528D01*
X162795481Y-45367709D01*
X162745891Y-45318489D01*
X162730500Y-45258655D01*
X162730500Y-38540096D01*
X162750185Y-38473057D01*
X162766815Y-38452419D01*
X163127462Y-38091771D01*
X163188783Y-38058288D01*
X163237924Y-38057565D01*
X163360611Y-38080500D01*
X163360614Y-38080500D01*
X163579387Y-38080500D01*
X163579389Y-38080500D01*
X163794443Y-38040299D01*
X163998448Y-37961267D01*
X164184458Y-37846095D01*
X164312695Y-37729190D01*
X164375497Y-37698575D01*
X164444885Y-37706772D01*
X164483913Y-37733148D01*
X169113181Y-42362416D01*
X169146666Y-42423739D01*
X169149500Y-42450097D01*
X169149500Y-45258655D01*
X169129815Y-45325694D01*
X169084519Y-45367709D01*
X168981376Y-45423528D01*
X168981365Y-45423535D01*
X168798222Y-45566081D01*
X168798219Y-45566084D01*
X168798216Y-45566086D01*
X168798216Y-45566087D01*
X168773886Y-45592517D01*
X168641016Y-45736852D01*
X168514075Y-45931151D01*
X168420842Y-46143699D01*
X168363866Y-46368691D01*
X168363864Y-46368702D01*
X168344700Y-46599993D01*
X168344700Y-46600006D01*
X168363864Y-46831297D01*
X168363866Y-46831308D01*
X168420842Y-47056300D01*
X168514075Y-47268848D01*
X168641016Y-47463147D01*
X168641019Y-47463151D01*
X168641021Y-47463153D01*
X168798216Y-47633913D01*
X168798219Y-47633915D01*
X168798222Y-47633918D01*
X168981365Y-47776464D01*
X168981371Y-47776468D01*
X168981374Y-47776470D01*
X169185497Y-47886936D01*
X169296263Y-47924962D01*
X169405015Y-47962297D01*
X169405017Y-47962297D01*
X169405019Y-47962298D01*
X169633951Y-48000500D01*
X169633952Y-48000500D01*
X169866048Y-48000500D01*
X169866049Y-48000500D01*
X170094981Y-47962298D01*
X170314503Y-47886936D01*
X170518626Y-47776470D01*
X170543616Y-47757020D01*
X170622581Y-47695559D01*
X170701784Y-47633913D01*
X170858979Y-47463153D01*
X170985924Y-47268849D01*
X171079157Y-47056300D01*
X171136134Y-46831305D01*
X171155300Y-46600000D01*
X171155300Y-46599993D01*
X171136135Y-46368702D01*
X171136133Y-46368691D01*
X171079157Y-46143699D01*
X170985924Y-45931151D01*
X170858983Y-45736852D01*
X170858980Y-45736849D01*
X170858979Y-45736847D01*
X170701784Y-45566087D01*
X170701779Y-45566083D01*
X170701777Y-45566081D01*
X170518634Y-45423535D01*
X170518623Y-45423528D01*
X170415481Y-45367709D01*
X170365891Y-45318489D01*
X170350500Y-45258655D01*
X170350500Y-42389097D01*
X170370185Y-42322058D01*
X170422989Y-42276303D01*
X170492147Y-42266359D01*
X170555703Y-42295384D01*
X170562180Y-42301415D01*
X172063183Y-43802418D01*
X173287591Y-45026827D01*
X173321076Y-45088150D01*
X173316092Y-45157842D01*
X173274220Y-45213775D01*
X173220324Y-45236816D01*
X173215019Y-45237701D01*
X173215017Y-45237701D01*
X172995504Y-45313061D01*
X172995495Y-45313064D01*
X172791371Y-45423531D01*
X172791365Y-45423535D01*
X172608222Y-45566081D01*
X172608219Y-45566084D01*
X172608216Y-45566086D01*
X172608216Y-45566087D01*
X172583886Y-45592517D01*
X172451016Y-45736852D01*
X172324075Y-45931151D01*
X172230842Y-46143699D01*
X172173866Y-46368691D01*
X172173864Y-46368702D01*
X172154700Y-46599993D01*
X172154700Y-46600006D01*
X172173864Y-46831297D01*
X172173866Y-46831308D01*
X172230842Y-47056300D01*
X172324075Y-47268848D01*
X172451016Y-47463147D01*
X172451019Y-47463151D01*
X172451021Y-47463153D01*
X172608216Y-47633913D01*
X172608219Y-47633915D01*
X172608222Y-47633918D01*
X172791365Y-47776464D01*
X172791371Y-47776468D01*
X172791374Y-47776470D01*
X172995497Y-47886936D01*
X173106263Y-47924962D01*
X173215015Y-47962297D01*
X173215017Y-47962297D01*
X173215019Y-47962298D01*
X173443951Y-48000500D01*
X173443952Y-48000500D01*
X173676048Y-48000500D01*
X173676049Y-48000500D01*
X173904981Y-47962298D01*
X174124503Y-47886936D01*
X174328626Y-47776470D01*
X174353616Y-47757020D01*
X174432581Y-47695559D01*
X174511784Y-47633913D01*
X174668979Y-47463153D01*
X174795924Y-47268849D01*
X174889157Y-47056300D01*
X174946134Y-46831305D01*
X174965300Y-46600000D01*
X174965300Y-46599993D01*
X174946135Y-46368702D01*
X174946133Y-46368691D01*
X174889157Y-46143699D01*
X174814856Y-45974310D01*
X174805953Y-45905010D01*
X174835930Y-45841898D01*
X174895270Y-45805011D01*
X174928412Y-45800500D01*
X175669903Y-45800500D01*
X175736942Y-45820185D01*
X175757584Y-45836819D01*
X175995795Y-46075030D01*
X176029280Y-46136353D01*
X176028320Y-46193151D01*
X175983866Y-46368691D01*
X175983864Y-46368702D01*
X175964700Y-46599993D01*
X175964700Y-46600006D01*
X175983864Y-46831297D01*
X175983866Y-46831308D01*
X176040842Y-47056300D01*
X176134075Y-47268848D01*
X176261016Y-47463147D01*
X176261019Y-47463151D01*
X176261021Y-47463153D01*
X176418216Y-47633913D01*
X176418219Y-47633915D01*
X176418222Y-47633918D01*
X176601365Y-47776464D01*
X176601371Y-47776468D01*
X176601374Y-47776470D01*
X176805497Y-47886936D01*
X176916263Y-47924962D01*
X177025015Y-47962297D01*
X177025017Y-47962297D01*
X177025019Y-47962298D01*
X177253951Y-48000500D01*
X177253952Y-48000500D01*
X177486048Y-48000500D01*
X177486049Y-48000500D01*
X177714981Y-47962298D01*
X177934503Y-47886936D01*
X178138626Y-47776470D01*
X178163616Y-47757020D01*
X178242581Y-47695559D01*
X178321784Y-47633913D01*
X178478979Y-47463153D01*
X178605924Y-47268849D01*
X178699157Y-47056300D01*
X178756134Y-46831305D01*
X178775300Y-46600000D01*
X178775300Y-46599993D01*
X178756135Y-46368702D01*
X178756133Y-46368691D01*
X178699157Y-46143699D01*
X178605924Y-45931151D01*
X178478983Y-45736852D01*
X178478980Y-45736849D01*
X178478979Y-45736847D01*
X178360809Y-45608480D01*
X178329889Y-45545828D01*
X178337749Y-45476402D01*
X178381897Y-45422247D01*
X178448314Y-45400556D01*
X178452041Y-45400500D01*
X180097959Y-45400500D01*
X180164998Y-45420185D01*
X180210753Y-45472989D01*
X180220697Y-45542147D01*
X180191672Y-45605703D01*
X180189225Y-45608442D01*
X180149004Y-45652135D01*
X180071016Y-45736852D01*
X179944075Y-45931151D01*
X179850842Y-46143699D01*
X179793866Y-46368691D01*
X179793864Y-46368702D01*
X179774700Y-46599993D01*
X179774700Y-46600006D01*
X179793864Y-46831297D01*
X179793866Y-46831308D01*
X179850842Y-47056300D01*
X179944075Y-47268848D01*
X180071016Y-47463147D01*
X180071019Y-47463151D01*
X180071021Y-47463153D01*
X180228216Y-47633913D01*
X180228219Y-47633915D01*
X180228222Y-47633918D01*
X180411365Y-47776464D01*
X180411371Y-47776468D01*
X180411374Y-47776470D01*
X180615497Y-47886936D01*
X180726263Y-47924962D01*
X180835015Y-47962297D01*
X180835017Y-47962297D01*
X180835019Y-47962298D01*
X181063951Y-48000500D01*
X181063952Y-48000500D01*
X181296048Y-48000500D01*
X181296049Y-48000500D01*
X181524981Y-47962298D01*
X181744503Y-47886936D01*
X181948626Y-47776470D01*
X181973616Y-47757020D01*
X182052581Y-47695559D01*
X182131784Y-47633913D01*
X182288979Y-47463153D01*
X182415924Y-47268849D01*
X182509157Y-47056300D01*
X182566134Y-46831305D01*
X182585300Y-46600000D01*
X182585300Y-46599993D01*
X182566135Y-46368702D01*
X182566133Y-46368691D01*
X182509157Y-46143699D01*
X182415924Y-45931151D01*
X182288983Y-45736852D01*
X182288980Y-45736849D01*
X182288979Y-45736847D01*
X182170809Y-45608480D01*
X182139889Y-45545828D01*
X182147749Y-45476402D01*
X182191897Y-45422247D01*
X182258314Y-45400556D01*
X182262041Y-45400500D01*
X182889903Y-45400500D01*
X182956942Y-45420185D01*
X182977584Y-45436819D01*
X183615795Y-46075030D01*
X183649280Y-46136353D01*
X183648320Y-46193151D01*
X183603866Y-46368691D01*
X183603864Y-46368702D01*
X183584700Y-46599993D01*
X183584700Y-46600006D01*
X183603864Y-46831297D01*
X183603866Y-46831308D01*
X183660842Y-47056300D01*
X183754075Y-47268848D01*
X183881016Y-47463147D01*
X183881019Y-47463151D01*
X183881021Y-47463153D01*
X184038216Y-47633913D01*
X184038219Y-47633915D01*
X184038222Y-47633918D01*
X184221365Y-47776464D01*
X184221371Y-47776468D01*
X184221374Y-47776470D01*
X184425497Y-47886936D01*
X184536263Y-47924962D01*
X184645015Y-47962297D01*
X184645017Y-47962297D01*
X184645019Y-47962298D01*
X184873951Y-48000500D01*
X184873952Y-48000500D01*
X185106048Y-48000500D01*
X185106049Y-48000500D01*
X185334981Y-47962298D01*
X185554503Y-47886936D01*
X185758626Y-47776470D01*
X185783616Y-47757020D01*
X185862581Y-47695559D01*
X185941784Y-47633913D01*
X186098979Y-47463153D01*
X186225924Y-47268849D01*
X186319157Y-47056300D01*
X186376134Y-46831305D01*
X186395300Y-46600000D01*
X186395300Y-46599993D01*
X186376135Y-46368702D01*
X186376133Y-46368691D01*
X186319157Y-46143699D01*
X186225924Y-45931151D01*
X186098983Y-45736852D01*
X186098980Y-45736849D01*
X186098979Y-45736847D01*
X185941784Y-45566087D01*
X185941779Y-45566083D01*
X185941777Y-45566081D01*
X185758634Y-45423535D01*
X185758628Y-45423531D01*
X185554504Y-45313064D01*
X185554495Y-45313061D01*
X185346865Y-45241781D01*
X185289850Y-45201395D01*
X185263719Y-45136596D01*
X185276771Y-45067956D01*
X185324859Y-45017268D01*
X185387128Y-45000500D01*
X188402872Y-45000500D01*
X188469911Y-45020185D01*
X188515666Y-45072989D01*
X188525610Y-45142147D01*
X188496585Y-45205703D01*
X188443135Y-45241781D01*
X188235504Y-45313061D01*
X188235495Y-45313064D01*
X188031371Y-45423531D01*
X188031365Y-45423535D01*
X187848222Y-45566081D01*
X187848219Y-45566084D01*
X187848216Y-45566086D01*
X187848216Y-45566087D01*
X187823886Y-45592517D01*
X187691016Y-45736852D01*
X187564075Y-45931151D01*
X187470842Y-46143699D01*
X187413866Y-46368691D01*
X187413864Y-46368702D01*
X187394700Y-46599993D01*
X187394700Y-46600006D01*
X187413864Y-46831297D01*
X187413866Y-46831308D01*
X187470842Y-47056300D01*
X187564075Y-47268848D01*
X187691016Y-47463147D01*
X187691019Y-47463151D01*
X187691021Y-47463153D01*
X187848216Y-47633913D01*
X187848219Y-47633915D01*
X187848222Y-47633918D01*
X188031365Y-47776464D01*
X188031371Y-47776468D01*
X188031374Y-47776470D01*
X188235497Y-47886936D01*
X188346263Y-47924962D01*
X188455015Y-47962297D01*
X188455017Y-47962297D01*
X188455019Y-47962298D01*
X188683951Y-48000500D01*
X188683952Y-48000500D01*
X188916048Y-48000500D01*
X188916049Y-48000500D01*
X189144981Y-47962298D01*
X189364503Y-47886936D01*
X189568626Y-47776470D01*
X189568634Y-47776464D01*
X189599338Y-47752567D01*
X189664332Y-47726924D01*
X189732872Y-47740491D01*
X189783196Y-47788959D01*
X189799500Y-47850420D01*
X189799500Y-54571473D01*
X189779815Y-54638512D01*
X189763181Y-54659154D01*
X188759154Y-55663181D01*
X188697831Y-55696666D01*
X188671473Y-55699500D01*
X153786670Y-55699500D01*
X153786654Y-55699499D01*
X153779058Y-55699499D01*
X153620943Y-55699499D01*
X153544579Y-55719961D01*
X153468214Y-55740423D01*
X153468209Y-55740426D01*
X153331290Y-55819475D01*
X153331282Y-55819481D01*
X151224839Y-57925923D01*
X151163516Y-57959408D01*
X151096896Y-57955524D01*
X151044981Y-57937701D01*
X150848786Y-57904963D01*
X150816049Y-57899500D01*
X150583951Y-57899500D01*
X150538164Y-57907140D01*
X150355015Y-57937702D01*
X150135504Y-58013061D01*
X150135495Y-58013064D01*
X149931371Y-58123531D01*
X149931365Y-58123535D01*
X149748222Y-58266081D01*
X149748219Y-58266084D01*
X149748216Y-58266086D01*
X149748216Y-58266087D01*
X149711747Y-58305703D01*
X149591016Y-58436852D01*
X149464075Y-58631151D01*
X149370842Y-58843699D01*
X149313866Y-59068691D01*
X149313864Y-59068702D01*
X149294700Y-59299993D01*
X149294700Y-59300006D01*
X149313864Y-59531297D01*
X149313866Y-59531308D01*
X149370842Y-59756300D01*
X149464075Y-59968848D01*
X149591016Y-60163147D01*
X149591019Y-60163151D01*
X149591021Y-60163153D01*
X149748216Y-60333913D01*
X149748219Y-60333915D01*
X149748222Y-60333918D01*
X149931365Y-60476464D01*
X149931371Y-60476468D01*
X149931374Y-60476470D01*
X150135497Y-60586936D01*
X150249487Y-60626068D01*
X150355015Y-60662297D01*
X150355017Y-60662297D01*
X150355019Y-60662298D01*
X150583951Y-60700500D01*
X150583952Y-60700500D01*
X150816048Y-60700500D01*
X150816049Y-60700500D01*
X151044981Y-60662298D01*
X151264503Y-60586936D01*
X151468626Y-60476470D01*
X151651784Y-60333913D01*
X151808979Y-60163153D01*
X151935924Y-59968849D01*
X152029157Y-59756300D01*
X152086134Y-59531305D01*
X152105300Y-59300000D01*
X152105300Y-59299993D01*
X153104700Y-59299993D01*
X153104700Y-59300006D01*
X153123864Y-59531297D01*
X153123866Y-59531308D01*
X153180842Y-59756300D01*
X153274075Y-59968848D01*
X153401016Y-60163147D01*
X153401019Y-60163151D01*
X153401021Y-60163153D01*
X153558216Y-60333913D01*
X153558219Y-60333915D01*
X153558222Y-60333918D01*
X153741365Y-60476464D01*
X153741371Y-60476468D01*
X153741374Y-60476470D01*
X153945497Y-60586936D01*
X154059487Y-60626068D01*
X154165015Y-60662297D01*
X154165017Y-60662297D01*
X154165019Y-60662298D01*
X154393951Y-60700500D01*
X154393952Y-60700500D01*
X154626048Y-60700500D01*
X154626049Y-60700500D01*
X154854981Y-60662298D01*
X155074503Y-60586936D01*
X155278626Y-60476470D01*
X155461784Y-60333913D01*
X155618979Y-60163153D01*
X155745924Y-59968849D01*
X155839157Y-59756300D01*
X155896134Y-59531305D01*
X155915300Y-59300000D01*
X155915300Y-59299993D01*
X155896135Y-59068702D01*
X155896133Y-59068691D01*
X155839157Y-58843699D01*
X155745924Y-58631151D01*
X155618983Y-58436852D01*
X155618980Y-58436849D01*
X155618979Y-58436847D01*
X155461784Y-58266087D01*
X155461779Y-58266083D01*
X155461777Y-58266081D01*
X155278634Y-58123535D01*
X155278628Y-58123531D01*
X155074504Y-58013064D01*
X155074495Y-58013061D01*
X154854984Y-57937702D01*
X154683282Y-57909050D01*
X154626049Y-57899500D01*
X154393951Y-57899500D01*
X154348164Y-57907140D01*
X154165015Y-57937702D01*
X153945504Y-58013061D01*
X153945495Y-58013064D01*
X153741371Y-58123531D01*
X153741365Y-58123535D01*
X153558222Y-58266081D01*
X153558219Y-58266084D01*
X153558216Y-58266086D01*
X153558216Y-58266087D01*
X153521747Y-58305703D01*
X153401016Y-58436852D01*
X153274075Y-58631151D01*
X153180842Y-58843699D01*
X153123866Y-59068691D01*
X153123864Y-59068702D01*
X153104700Y-59299993D01*
X152105300Y-59299993D01*
X152086135Y-59068702D01*
X152086131Y-59068682D01*
X152041680Y-58893151D01*
X152044304Y-58823331D01*
X152074202Y-58775031D01*
X153912417Y-56936819D01*
X153973740Y-56903334D01*
X154000098Y-56900500D01*
X159570903Y-56900500D01*
X159637942Y-56920185D01*
X159683697Y-56972989D01*
X159693641Y-57042147D01*
X159664616Y-57105703D01*
X159658584Y-57112181D01*
X158844840Y-57925923D01*
X158783517Y-57959408D01*
X158716898Y-57955524D01*
X158664981Y-57937702D01*
X158535641Y-57916119D01*
X158436049Y-57899500D01*
X158203951Y-57899500D01*
X158158164Y-57907140D01*
X157975015Y-57937702D01*
X157755504Y-58013061D01*
X157755495Y-58013064D01*
X157551371Y-58123531D01*
X157551365Y-58123535D01*
X157368222Y-58266081D01*
X157368219Y-58266084D01*
X157368216Y-58266086D01*
X157368216Y-58266087D01*
X157331747Y-58305703D01*
X157211016Y-58436852D01*
X157084075Y-58631151D01*
X156990842Y-58843699D01*
X156933866Y-59068691D01*
X156933864Y-59068702D01*
X156914700Y-59299993D01*
X156914700Y-59300006D01*
X156933864Y-59531297D01*
X156933866Y-59531308D01*
X156990842Y-59756300D01*
X157084075Y-59968848D01*
X157211016Y-60163147D01*
X157211019Y-60163151D01*
X157211021Y-60163153D01*
X157368216Y-60333913D01*
X157368219Y-60333915D01*
X157368222Y-60333918D01*
X157551365Y-60476464D01*
X157551371Y-60476468D01*
X157551374Y-60476470D01*
X157755497Y-60586936D01*
X157869487Y-60626068D01*
X157975015Y-60662297D01*
X157975017Y-60662297D01*
X157975019Y-60662298D01*
X158203951Y-60700500D01*
X158203952Y-60700500D01*
X158436048Y-60700500D01*
X158436049Y-60700500D01*
X158664981Y-60662298D01*
X158884503Y-60586936D01*
X159088626Y-60476470D01*
X159271784Y-60333913D01*
X159428979Y-60163153D01*
X159555924Y-59968849D01*
X159649157Y-59756300D01*
X159706134Y-59531305D01*
X159725300Y-59300000D01*
X159725300Y-59299993D01*
X160724700Y-59299993D01*
X160724700Y-59300006D01*
X160743864Y-59531297D01*
X160743866Y-59531308D01*
X160800842Y-59756300D01*
X160894075Y-59968848D01*
X161021016Y-60163147D01*
X161021019Y-60163151D01*
X161021021Y-60163153D01*
X161178216Y-60333913D01*
X161178219Y-60333915D01*
X161178222Y-60333918D01*
X161361365Y-60476464D01*
X161361371Y-60476468D01*
X161361374Y-60476470D01*
X161565497Y-60586936D01*
X161679487Y-60626068D01*
X161785015Y-60662297D01*
X161785017Y-60662297D01*
X161785019Y-60662298D01*
X162013951Y-60700500D01*
X162013952Y-60700500D01*
X162246048Y-60700500D01*
X162246049Y-60700500D01*
X162474981Y-60662298D01*
X162694503Y-60586936D01*
X162898626Y-60476470D01*
X163081784Y-60333913D01*
X163238979Y-60163153D01*
X163365924Y-59968849D01*
X163459157Y-59756300D01*
X163516134Y-59531305D01*
X163535300Y-59300000D01*
X163535300Y-59299993D01*
X163516135Y-59068702D01*
X163516133Y-59068691D01*
X163459157Y-58843699D01*
X163365924Y-58631151D01*
X163238983Y-58436852D01*
X163238980Y-58436849D01*
X163238979Y-58436847D01*
X163081784Y-58266087D01*
X163081779Y-58266083D01*
X163081777Y-58266081D01*
X162898634Y-58123535D01*
X162898628Y-58123531D01*
X162694504Y-58013064D01*
X162694495Y-58013061D01*
X162474984Y-57937702D01*
X162303282Y-57909050D01*
X162246049Y-57899500D01*
X162013951Y-57899500D01*
X161968164Y-57907140D01*
X161785015Y-57937702D01*
X161565504Y-58013061D01*
X161565495Y-58013064D01*
X161361371Y-58123531D01*
X161361365Y-58123535D01*
X161178222Y-58266081D01*
X161178219Y-58266084D01*
X161178216Y-58266086D01*
X161178216Y-58266087D01*
X161141747Y-58305703D01*
X161021016Y-58436852D01*
X160894075Y-58631151D01*
X160800842Y-58843699D01*
X160743866Y-59068691D01*
X160743864Y-59068702D01*
X160724700Y-59299993D01*
X159725300Y-59299993D01*
X159706135Y-59068702D01*
X159706131Y-59068682D01*
X159661680Y-58893151D01*
X159664304Y-58823331D01*
X159694202Y-58775031D01*
X161132416Y-57336819D01*
X161193739Y-57303334D01*
X161220097Y-57300500D01*
X166790903Y-57300500D01*
X166857942Y-57320185D01*
X166903697Y-57372989D01*
X166913641Y-57442147D01*
X166884616Y-57505703D01*
X166878584Y-57512181D01*
X166464840Y-57925923D01*
X166403517Y-57959408D01*
X166336898Y-57955524D01*
X166284981Y-57937702D01*
X166155641Y-57916119D01*
X166056049Y-57899500D01*
X165823951Y-57899500D01*
X165778164Y-57907140D01*
X165595015Y-57937702D01*
X165375504Y-58013061D01*
X165375495Y-58013064D01*
X165171371Y-58123531D01*
X165171365Y-58123535D01*
X164988222Y-58266081D01*
X164988219Y-58266084D01*
X164988216Y-58266086D01*
X164988216Y-58266087D01*
X164951747Y-58305703D01*
X164831016Y-58436852D01*
X164704075Y-58631151D01*
X164610842Y-58843699D01*
X164553866Y-59068691D01*
X164553864Y-59068702D01*
X164534700Y-59299993D01*
X164534700Y-59300006D01*
X164553864Y-59531297D01*
X164553866Y-59531308D01*
X164610842Y-59756300D01*
X164704075Y-59968848D01*
X164831016Y-60163147D01*
X164831019Y-60163151D01*
X164831021Y-60163153D01*
X164988216Y-60333913D01*
X164988219Y-60333915D01*
X164988222Y-60333918D01*
X165171365Y-60476464D01*
X165171371Y-60476468D01*
X165171374Y-60476470D01*
X165375497Y-60586936D01*
X165489487Y-60626068D01*
X165595015Y-60662297D01*
X165595017Y-60662297D01*
X165595019Y-60662298D01*
X165823951Y-60700500D01*
X165823952Y-60700500D01*
X166056048Y-60700500D01*
X166056049Y-60700500D01*
X166284981Y-60662298D01*
X166504503Y-60586936D01*
X166708626Y-60476470D01*
X166891784Y-60333913D01*
X167048979Y-60163153D01*
X167175924Y-59968849D01*
X167269157Y-59756300D01*
X167326134Y-59531305D01*
X167345300Y-59300000D01*
X167345300Y-59299993D01*
X167326135Y-59068702D01*
X167326131Y-59068682D01*
X167281680Y-58893151D01*
X167284304Y-58823331D01*
X167314202Y-58775031D01*
X168352416Y-57736819D01*
X168413739Y-57703334D01*
X168440097Y-57700500D01*
X169352872Y-57700500D01*
X169419911Y-57720185D01*
X169465666Y-57772989D01*
X169475610Y-57842147D01*
X169446585Y-57905703D01*
X169393135Y-57941781D01*
X169185504Y-58013061D01*
X169185495Y-58013064D01*
X168981371Y-58123531D01*
X168981365Y-58123535D01*
X168798222Y-58266081D01*
X168798219Y-58266084D01*
X168798216Y-58266086D01*
X168798216Y-58266087D01*
X168761747Y-58305703D01*
X168641016Y-58436852D01*
X168514075Y-58631151D01*
X168420842Y-58843699D01*
X168363866Y-59068691D01*
X168363864Y-59068702D01*
X168344700Y-59299993D01*
X168344700Y-59300006D01*
X168363864Y-59531297D01*
X168363866Y-59531308D01*
X168420842Y-59756300D01*
X168514075Y-59968848D01*
X168641016Y-60163147D01*
X168641019Y-60163151D01*
X168641021Y-60163153D01*
X168798216Y-60333913D01*
X168798219Y-60333915D01*
X168798222Y-60333918D01*
X168981365Y-60476464D01*
X168981371Y-60476468D01*
X168981374Y-60476470D01*
X169185497Y-60586936D01*
X169299487Y-60626068D01*
X169405015Y-60662297D01*
X169405017Y-60662297D01*
X169405019Y-60662298D01*
X169633951Y-60700500D01*
X169633952Y-60700500D01*
X169866048Y-60700500D01*
X169866049Y-60700500D01*
X170094981Y-60662298D01*
X170314503Y-60586936D01*
X170518626Y-60476470D01*
X170701784Y-60333913D01*
X170858979Y-60163153D01*
X170985924Y-59968849D01*
X171079157Y-59756300D01*
X171136134Y-59531305D01*
X171155300Y-59300000D01*
X171155300Y-59299993D01*
X171136135Y-59068702D01*
X171136133Y-59068691D01*
X171079157Y-58843699D01*
X170985924Y-58631151D01*
X170858983Y-58436852D01*
X170858980Y-58436849D01*
X170858979Y-58436847D01*
X170701784Y-58266087D01*
X170701779Y-58266083D01*
X170701777Y-58266081D01*
X170518634Y-58123535D01*
X170518628Y-58123531D01*
X170314504Y-58013064D01*
X170314495Y-58013061D01*
X170106865Y-57941781D01*
X170049850Y-57901395D01*
X170023719Y-57836596D01*
X170036771Y-57767956D01*
X170084859Y-57717268D01*
X170147128Y-57700500D01*
X173162872Y-57700500D01*
X173229911Y-57720185D01*
X173275666Y-57772989D01*
X173285610Y-57842147D01*
X173256585Y-57905703D01*
X173203135Y-57941781D01*
X172995504Y-58013061D01*
X172995495Y-58013064D01*
X172791371Y-58123531D01*
X172791365Y-58123535D01*
X172608222Y-58266081D01*
X172608219Y-58266084D01*
X172608216Y-58266086D01*
X172608216Y-58266087D01*
X172571747Y-58305703D01*
X172451016Y-58436852D01*
X172324075Y-58631151D01*
X172230842Y-58843699D01*
X172173866Y-59068691D01*
X172173864Y-59068702D01*
X172154700Y-59299993D01*
X172154700Y-59300006D01*
X172173864Y-59531297D01*
X172173866Y-59531308D01*
X172230842Y-59756300D01*
X172324075Y-59968848D01*
X172451016Y-60163147D01*
X172451019Y-60163151D01*
X172451021Y-60163153D01*
X172608216Y-60333913D01*
X172608219Y-60333915D01*
X172608222Y-60333918D01*
X172791365Y-60476464D01*
X172791371Y-60476468D01*
X172791374Y-60476470D01*
X172995497Y-60586936D01*
X173109487Y-60626068D01*
X173215015Y-60662297D01*
X173215017Y-60662297D01*
X173215019Y-60662298D01*
X173443951Y-60700500D01*
X173443952Y-60700500D01*
X173676048Y-60700500D01*
X173676049Y-60700500D01*
X173904981Y-60662298D01*
X174124503Y-60586936D01*
X174328626Y-60476470D01*
X174511784Y-60333913D01*
X174668979Y-60163153D01*
X174795924Y-59968849D01*
X174889157Y-59756300D01*
X174946134Y-59531305D01*
X174965300Y-59300000D01*
X174965300Y-59299993D01*
X174946135Y-59068702D01*
X174946131Y-59068682D01*
X174901680Y-58893151D01*
X174904304Y-58823331D01*
X174934202Y-58775031D01*
X175572416Y-58136819D01*
X175633739Y-58103334D01*
X175660097Y-58100500D01*
X176287959Y-58100500D01*
X176354998Y-58120185D01*
X176400753Y-58172989D01*
X176410697Y-58242147D01*
X176381672Y-58305703D01*
X176379225Y-58308442D01*
X176292260Y-58402911D01*
X176261016Y-58436852D01*
X176134075Y-58631151D01*
X176040842Y-58843699D01*
X175983866Y-59068691D01*
X175983864Y-59068702D01*
X175964700Y-59299993D01*
X175964700Y-59300006D01*
X175983864Y-59531297D01*
X175983866Y-59531308D01*
X176040842Y-59756300D01*
X176134075Y-59968848D01*
X176261016Y-60163147D01*
X176261019Y-60163151D01*
X176261021Y-60163153D01*
X176418216Y-60333913D01*
X176418219Y-60333915D01*
X176418222Y-60333918D01*
X176601365Y-60476464D01*
X176601371Y-60476468D01*
X176601374Y-60476470D01*
X176805497Y-60586936D01*
X176919487Y-60626068D01*
X177025015Y-60662297D01*
X177025017Y-60662297D01*
X177025019Y-60662298D01*
X177253951Y-60700500D01*
X177253952Y-60700500D01*
X177486048Y-60700500D01*
X177486049Y-60700500D01*
X177714981Y-60662298D01*
X177934503Y-60586936D01*
X178138626Y-60476470D01*
X178321784Y-60333913D01*
X178478979Y-60163153D01*
X178605924Y-59968849D01*
X178699157Y-59756300D01*
X178756134Y-59531305D01*
X178775300Y-59300000D01*
X178775300Y-59299993D01*
X178756135Y-59068702D01*
X178756133Y-59068691D01*
X178699157Y-58843699D01*
X178605924Y-58631151D01*
X178478983Y-58436852D01*
X178478980Y-58436849D01*
X178478979Y-58436847D01*
X178360809Y-58308480D01*
X178329889Y-58245828D01*
X178337749Y-58176402D01*
X178381897Y-58122247D01*
X178448314Y-58100556D01*
X178452041Y-58100500D01*
X180097959Y-58100500D01*
X180164998Y-58120185D01*
X180210753Y-58172989D01*
X180220697Y-58242147D01*
X180191672Y-58305703D01*
X180189225Y-58308442D01*
X180102260Y-58402911D01*
X180071016Y-58436852D01*
X179944075Y-58631151D01*
X179850842Y-58843699D01*
X179793866Y-59068691D01*
X179793864Y-59068702D01*
X179774700Y-59299993D01*
X179774700Y-59300006D01*
X179793864Y-59531297D01*
X179793866Y-59531308D01*
X179850842Y-59756300D01*
X179944075Y-59968848D01*
X180071016Y-60163147D01*
X180071019Y-60163151D01*
X180071021Y-60163153D01*
X180228216Y-60333913D01*
X180228219Y-60333915D01*
X180228222Y-60333918D01*
X180411365Y-60476464D01*
X180411371Y-60476468D01*
X180411374Y-60476470D01*
X180615497Y-60586936D01*
X180729487Y-60626068D01*
X180835015Y-60662297D01*
X180835017Y-60662297D01*
X180835019Y-60662298D01*
X181063951Y-60700500D01*
X181063952Y-60700500D01*
X181296048Y-60700500D01*
X181296049Y-60700500D01*
X181524981Y-60662298D01*
X181744503Y-60586936D01*
X181948626Y-60476470D01*
X182131784Y-60333913D01*
X182288979Y-60163153D01*
X182415924Y-59968849D01*
X182509157Y-59756300D01*
X182566134Y-59531305D01*
X182585300Y-59300000D01*
X182585300Y-59299993D01*
X182566135Y-59068702D01*
X182566131Y-59068682D01*
X182521680Y-58893151D01*
X182524304Y-58823331D01*
X182554200Y-58775033D01*
X182792417Y-58536816D01*
X182853739Y-58503334D01*
X182880097Y-58500500D01*
X183621588Y-58500500D01*
X183688627Y-58520185D01*
X183734382Y-58572989D01*
X183744326Y-58642147D01*
X183735144Y-58674310D01*
X183660842Y-58843699D01*
X183603866Y-59068691D01*
X183603864Y-59068702D01*
X183584700Y-59299993D01*
X183584700Y-59300006D01*
X183603864Y-59531297D01*
X183603866Y-59531308D01*
X183660842Y-59756300D01*
X183754075Y-59968848D01*
X183881016Y-60163147D01*
X183881019Y-60163151D01*
X183881021Y-60163153D01*
X184038216Y-60333913D01*
X184038219Y-60333915D01*
X184038222Y-60333918D01*
X184221365Y-60476464D01*
X184221371Y-60476468D01*
X184221374Y-60476470D01*
X184425497Y-60586936D01*
X184539487Y-60626068D01*
X184645015Y-60662297D01*
X184645017Y-60662297D01*
X184645019Y-60662298D01*
X184873951Y-60700500D01*
X184873952Y-60700500D01*
X185106048Y-60700500D01*
X185106049Y-60700500D01*
X185334981Y-60662298D01*
X185554503Y-60586936D01*
X185758626Y-60476470D01*
X185941784Y-60333913D01*
X186098979Y-60163153D01*
X186225924Y-59968849D01*
X186319157Y-59756300D01*
X186376134Y-59531305D01*
X186395300Y-59300000D01*
X186395300Y-59299993D01*
X186376135Y-59068702D01*
X186376133Y-59068691D01*
X186319157Y-58843699D01*
X186244856Y-58674310D01*
X186235953Y-58605010D01*
X186265930Y-58541898D01*
X186325270Y-58505011D01*
X186358412Y-58500500D01*
X187431588Y-58500500D01*
X187498627Y-58520185D01*
X187544382Y-58572989D01*
X187554326Y-58642147D01*
X187545144Y-58674310D01*
X187470842Y-58843699D01*
X187413866Y-59068691D01*
X187413864Y-59068702D01*
X187394700Y-59299993D01*
X187394700Y-59300006D01*
X187413864Y-59531297D01*
X187413866Y-59531308D01*
X187470842Y-59756300D01*
X187564075Y-59968848D01*
X187691016Y-60163147D01*
X187691019Y-60163151D01*
X187691021Y-60163153D01*
X187848216Y-60333913D01*
X187848219Y-60333915D01*
X187848222Y-60333918D01*
X188031365Y-60476464D01*
X188031371Y-60476468D01*
X188031374Y-60476470D01*
X188235497Y-60586936D01*
X188349487Y-60626068D01*
X188455015Y-60662297D01*
X188455017Y-60662297D01*
X188455019Y-60662298D01*
X188683951Y-60700500D01*
X188683952Y-60700500D01*
X188916048Y-60700500D01*
X188916049Y-60700500D01*
X189144981Y-60662298D01*
X189364503Y-60586936D01*
X189568626Y-60476470D01*
X189751784Y-60333913D01*
X189908979Y-60163153D01*
X190035924Y-59968849D01*
X190129157Y-59756300D01*
X190186134Y-59531305D01*
X190205300Y-59300000D01*
X190205300Y-59299993D01*
X195884700Y-59299993D01*
X195884700Y-59300006D01*
X195903864Y-59531297D01*
X195903866Y-59531308D01*
X195960842Y-59756300D01*
X196054075Y-59968848D01*
X196181016Y-60163147D01*
X196181019Y-60163151D01*
X196181021Y-60163153D01*
X196338216Y-60333913D01*
X196338219Y-60333915D01*
X196338222Y-60333918D01*
X196521365Y-60476464D01*
X196521371Y-60476468D01*
X196521374Y-60476470D01*
X196725497Y-60586936D01*
X196839487Y-60626068D01*
X196945015Y-60662297D01*
X196945017Y-60662297D01*
X196945019Y-60662298D01*
X197173951Y-60700500D01*
X197173952Y-60700500D01*
X197406048Y-60700500D01*
X197406049Y-60700500D01*
X197634981Y-60662298D01*
X197854503Y-60586936D01*
X198058626Y-60476470D01*
X198241784Y-60333913D01*
X198398979Y-60163153D01*
X198525924Y-59968849D01*
X198619157Y-59756300D01*
X198676134Y-59531305D01*
X198695300Y-59300000D01*
X198695300Y-59299993D01*
X199694700Y-59299993D01*
X199694700Y-59300006D01*
X199713864Y-59531297D01*
X199713866Y-59531308D01*
X199770842Y-59756300D01*
X199864075Y-59968848D01*
X199991016Y-60163147D01*
X199991019Y-60163151D01*
X199991021Y-60163153D01*
X200148216Y-60333913D01*
X200148219Y-60333915D01*
X200148222Y-60333918D01*
X200331365Y-60476464D01*
X200331371Y-60476468D01*
X200331374Y-60476470D01*
X200535497Y-60586936D01*
X200649487Y-60626068D01*
X200755015Y-60662297D01*
X200755017Y-60662297D01*
X200755019Y-60662298D01*
X200983951Y-60700500D01*
X200983952Y-60700500D01*
X201216048Y-60700500D01*
X201216049Y-60700500D01*
X201444981Y-60662298D01*
X201664503Y-60586936D01*
X201868626Y-60476470D01*
X202051784Y-60333913D01*
X202208979Y-60163153D01*
X202335924Y-59968849D01*
X202429157Y-59756300D01*
X202486134Y-59531305D01*
X202505300Y-59300000D01*
X202505300Y-59299993D01*
X203504700Y-59299993D01*
X203504700Y-59300006D01*
X203523864Y-59531297D01*
X203523866Y-59531308D01*
X203580842Y-59756300D01*
X203674075Y-59968848D01*
X203801016Y-60163147D01*
X203801019Y-60163151D01*
X203801021Y-60163153D01*
X203958216Y-60333913D01*
X203958219Y-60333915D01*
X203958222Y-60333918D01*
X204141365Y-60476464D01*
X204141371Y-60476468D01*
X204141374Y-60476470D01*
X204345497Y-60586936D01*
X204459487Y-60626068D01*
X204565015Y-60662297D01*
X204565017Y-60662297D01*
X204565019Y-60662298D01*
X204793951Y-60700500D01*
X204793952Y-60700500D01*
X205026048Y-60700500D01*
X205026049Y-60700500D01*
X205254981Y-60662298D01*
X205474503Y-60586936D01*
X205678626Y-60476470D01*
X205861784Y-60333913D01*
X206018979Y-60163153D01*
X206145924Y-59968849D01*
X206239157Y-59756300D01*
X206296134Y-59531305D01*
X206315300Y-59300000D01*
X206315300Y-59299993D01*
X206296135Y-59068702D01*
X206296133Y-59068691D01*
X206239157Y-58843699D01*
X206145924Y-58631151D01*
X206018983Y-58436852D01*
X206018980Y-58436849D01*
X206018979Y-58436847D01*
X205861784Y-58266087D01*
X205861779Y-58266083D01*
X205861777Y-58266081D01*
X205678634Y-58123535D01*
X205678628Y-58123531D01*
X205474504Y-58013064D01*
X205474495Y-58013061D01*
X205254984Y-57937702D01*
X205083282Y-57909050D01*
X205026049Y-57899500D01*
X204793951Y-57899500D01*
X204748164Y-57907140D01*
X204565015Y-57937702D01*
X204345504Y-58013061D01*
X204345495Y-58013064D01*
X204141371Y-58123531D01*
X204141365Y-58123535D01*
X203958222Y-58266081D01*
X203958219Y-58266084D01*
X203958216Y-58266086D01*
X203958216Y-58266087D01*
X203921747Y-58305703D01*
X203801016Y-58436852D01*
X203674075Y-58631151D01*
X203580842Y-58843699D01*
X203523866Y-59068691D01*
X203523864Y-59068702D01*
X203504700Y-59299993D01*
X202505300Y-59299993D01*
X202486135Y-59068702D01*
X202486133Y-59068691D01*
X202429157Y-58843699D01*
X202335924Y-58631151D01*
X202208983Y-58436852D01*
X202208980Y-58436849D01*
X202208979Y-58436847D01*
X202051784Y-58266087D01*
X202051779Y-58266083D01*
X202051777Y-58266081D01*
X201868634Y-58123535D01*
X201868628Y-58123531D01*
X201664504Y-58013064D01*
X201664495Y-58013061D01*
X201444984Y-57937702D01*
X201273282Y-57909050D01*
X201216049Y-57899500D01*
X200983951Y-57899500D01*
X200938164Y-57907140D01*
X200755015Y-57937702D01*
X200535504Y-58013061D01*
X200535495Y-58013064D01*
X200331371Y-58123531D01*
X200331365Y-58123535D01*
X200148222Y-58266081D01*
X200148219Y-58266084D01*
X200148216Y-58266086D01*
X200148216Y-58266087D01*
X200111747Y-58305703D01*
X199991016Y-58436852D01*
X199864075Y-58631151D01*
X199770842Y-58843699D01*
X199713866Y-59068691D01*
X199713864Y-59068702D01*
X199694700Y-59299993D01*
X198695300Y-59299993D01*
X198676135Y-59068702D01*
X198676133Y-59068691D01*
X198619157Y-58843699D01*
X198525924Y-58631151D01*
X198398983Y-58436852D01*
X198398980Y-58436849D01*
X198398979Y-58436847D01*
X198241784Y-58266087D01*
X198241779Y-58266083D01*
X198241777Y-58266081D01*
X198058634Y-58123535D01*
X198058628Y-58123531D01*
X197854504Y-58013064D01*
X197854495Y-58013061D01*
X197634984Y-57937702D01*
X197463282Y-57909050D01*
X197406049Y-57899500D01*
X197173951Y-57899500D01*
X197128164Y-57907140D01*
X196945015Y-57937702D01*
X196725504Y-58013061D01*
X196725495Y-58013064D01*
X196521371Y-58123531D01*
X196521365Y-58123535D01*
X196338222Y-58266081D01*
X196338219Y-58266084D01*
X196338216Y-58266086D01*
X196338216Y-58266087D01*
X196301747Y-58305703D01*
X196181016Y-58436852D01*
X196054075Y-58631151D01*
X195960842Y-58843699D01*
X195903866Y-59068691D01*
X195903864Y-59068702D01*
X195884700Y-59299993D01*
X190205300Y-59299993D01*
X190186135Y-59068702D01*
X190186131Y-59068682D01*
X190141680Y-58893151D01*
X190144304Y-58823331D01*
X190174202Y-58775031D01*
X192758506Y-56190728D01*
X192758511Y-56190724D01*
X192768714Y-56180520D01*
X192768716Y-56180520D01*
X192880520Y-56068716D01*
X192938017Y-55969128D01*
X192959577Y-55931785D01*
X193000501Y-55779057D01*
X193000501Y-55620943D01*
X193000501Y-55613348D01*
X193000500Y-55613330D01*
X193000500Y-45652135D01*
X195889500Y-45652135D01*
X195889500Y-47547870D01*
X195889501Y-47547876D01*
X195895908Y-47607483D01*
X195946202Y-47742328D01*
X195946206Y-47742335D01*
X196032452Y-47857544D01*
X196032455Y-47857547D01*
X196147664Y-47943793D01*
X196147671Y-47943797D01*
X196282517Y-47994091D01*
X196282516Y-47994091D01*
X196289444Y-47994835D01*
X196342127Y-48000500D01*
X198237872Y-48000499D01*
X198297483Y-47994091D01*
X198432331Y-47943796D01*
X198547546Y-47857546D01*
X198633796Y-47742331D01*
X198684091Y-47607483D01*
X198690500Y-47547873D01*
X198690499Y-46599993D01*
X199694700Y-46599993D01*
X199694700Y-46600006D01*
X199713864Y-46831297D01*
X199713866Y-46831308D01*
X199770842Y-47056300D01*
X199864075Y-47268848D01*
X199991016Y-47463147D01*
X199991019Y-47463151D01*
X199991021Y-47463153D01*
X200148216Y-47633913D01*
X200148219Y-47633915D01*
X200148222Y-47633918D01*
X200331365Y-47776464D01*
X200331371Y-47776468D01*
X200331374Y-47776470D01*
X200535497Y-47886936D01*
X200646263Y-47924962D01*
X200755015Y-47962297D01*
X200755017Y-47962297D01*
X200755019Y-47962298D01*
X200983951Y-48000500D01*
X200983952Y-48000500D01*
X201216048Y-48000500D01*
X201216049Y-48000500D01*
X201444981Y-47962298D01*
X201664503Y-47886936D01*
X201868626Y-47776470D01*
X201893616Y-47757020D01*
X201972581Y-47695559D01*
X202051784Y-47633913D01*
X202208979Y-47463153D01*
X202335924Y-47268849D01*
X202429157Y-47056300D01*
X202486134Y-46831305D01*
X202505300Y-46600000D01*
X202505300Y-46599993D01*
X202486135Y-46368702D01*
X202486133Y-46368691D01*
X202429157Y-46143699D01*
X202335924Y-45931151D01*
X202208983Y-45736852D01*
X202208980Y-45736849D01*
X202208979Y-45736847D01*
X202051784Y-45566087D01*
X202051779Y-45566083D01*
X202051777Y-45566081D01*
X201868634Y-45423535D01*
X201868628Y-45423531D01*
X201664504Y-45313064D01*
X201664495Y-45313061D01*
X201444984Y-45237702D01*
X201273282Y-45209050D01*
X201216049Y-45199500D01*
X200983951Y-45199500D01*
X200945550Y-45205908D01*
X200755015Y-45237702D01*
X200535504Y-45313061D01*
X200535495Y-45313064D01*
X200331371Y-45423531D01*
X200331365Y-45423535D01*
X200148222Y-45566081D01*
X200148219Y-45566084D01*
X200148216Y-45566086D01*
X200148216Y-45566087D01*
X200123886Y-45592517D01*
X199991016Y-45736852D01*
X199864075Y-45931151D01*
X199770842Y-46143699D01*
X199713866Y-46368691D01*
X199713864Y-46368702D01*
X199694700Y-46599993D01*
X198690499Y-46599993D01*
X198690499Y-45652128D01*
X198684091Y-45592517D01*
X198674233Y-45566087D01*
X198633797Y-45457671D01*
X198633793Y-45457664D01*
X198547547Y-45342455D01*
X198547544Y-45342452D01*
X198432335Y-45256206D01*
X198432328Y-45256202D01*
X198297482Y-45205908D01*
X198297483Y-45205908D01*
X198237883Y-45199501D01*
X198237881Y-45199500D01*
X198237873Y-45199500D01*
X198237864Y-45199500D01*
X196342129Y-45199500D01*
X196342123Y-45199501D01*
X196282516Y-45205908D01*
X196147671Y-45256202D01*
X196147664Y-45256206D01*
X196032455Y-45342452D01*
X196032452Y-45342455D01*
X195946206Y-45457664D01*
X195946202Y-45457671D01*
X195895908Y-45592517D01*
X195894192Y-45608483D01*
X195889501Y-45652123D01*
X195889500Y-45652135D01*
X193000500Y-45652135D01*
X193000500Y-44892515D01*
X193000500Y-44892513D01*
X192959577Y-44739785D01*
X192912473Y-44658199D01*
X192880520Y-44602854D01*
X192768716Y-44491050D01*
X192764385Y-44486719D01*
X192764374Y-44486709D01*
X191089846Y-42812181D01*
X191056361Y-42750858D01*
X191061345Y-42681166D01*
X191103217Y-42625233D01*
X191168681Y-42600816D01*
X191177527Y-42600500D01*
X199720943Y-42600500D01*
X200009903Y-42600500D01*
X200076942Y-42620185D01*
X200097584Y-42636819D01*
X203535795Y-46075030D01*
X203569280Y-46136353D01*
X203568320Y-46193151D01*
X203523866Y-46368691D01*
X203523864Y-46368702D01*
X203504700Y-46599993D01*
X203504700Y-46600006D01*
X203523864Y-46831297D01*
X203523866Y-46831308D01*
X203580842Y-47056300D01*
X203674075Y-47268848D01*
X203801016Y-47463147D01*
X203801019Y-47463151D01*
X203801021Y-47463153D01*
X203958216Y-47633913D01*
X203958219Y-47633915D01*
X203958222Y-47633918D01*
X204141365Y-47776464D01*
X204141371Y-47776468D01*
X204141374Y-47776470D01*
X204345497Y-47886936D01*
X204456263Y-47924962D01*
X204565015Y-47962297D01*
X204565017Y-47962297D01*
X204565019Y-47962298D01*
X204793951Y-48000500D01*
X204793952Y-48000500D01*
X205026048Y-48000500D01*
X205026049Y-48000500D01*
X205254981Y-47962298D01*
X205474503Y-47886936D01*
X205678626Y-47776470D01*
X205703616Y-47757020D01*
X205782581Y-47695559D01*
X205861784Y-47633913D01*
X206018979Y-47463153D01*
X206145924Y-47268849D01*
X206239157Y-47056300D01*
X206296134Y-46831305D01*
X206315300Y-46600000D01*
X206315300Y-46599993D01*
X207314700Y-46599993D01*
X207314700Y-46600006D01*
X207333864Y-46831297D01*
X207333866Y-46831308D01*
X207390842Y-47056300D01*
X207484075Y-47268848D01*
X207611016Y-47463147D01*
X207611019Y-47463151D01*
X207611021Y-47463153D01*
X207768216Y-47633913D01*
X207768219Y-47633915D01*
X207768222Y-47633918D01*
X207951365Y-47776464D01*
X207951371Y-47776468D01*
X207951374Y-47776470D01*
X208155497Y-47886936D01*
X208266263Y-47924962D01*
X208375015Y-47962297D01*
X208375017Y-47962297D01*
X208375019Y-47962298D01*
X208603951Y-48000500D01*
X208603952Y-48000500D01*
X208836048Y-48000500D01*
X208836049Y-48000500D01*
X209064981Y-47962298D01*
X209284503Y-47886936D01*
X209488626Y-47776470D01*
X209513616Y-47757020D01*
X209592581Y-47695559D01*
X209671784Y-47633913D01*
X209828979Y-47463153D01*
X209955924Y-47268849D01*
X210049157Y-47056300D01*
X210106134Y-46831305D01*
X210125300Y-46600000D01*
X210125300Y-46599993D01*
X210106135Y-46368702D01*
X210106133Y-46368691D01*
X210049157Y-46143699D01*
X209955924Y-45931151D01*
X209828983Y-45736852D01*
X209828980Y-45736849D01*
X209828979Y-45736847D01*
X209671784Y-45566087D01*
X209671779Y-45566083D01*
X209671777Y-45566081D01*
X209488634Y-45423535D01*
X209488628Y-45423531D01*
X209284504Y-45313064D01*
X209284495Y-45313061D01*
X209064984Y-45237702D01*
X208893282Y-45209050D01*
X208836049Y-45199500D01*
X208603951Y-45199500D01*
X208565550Y-45205908D01*
X208375015Y-45237702D01*
X208155504Y-45313061D01*
X208155495Y-45313064D01*
X207951371Y-45423531D01*
X207951365Y-45423535D01*
X207768222Y-45566081D01*
X207768219Y-45566084D01*
X207768216Y-45566086D01*
X207768216Y-45566087D01*
X207743886Y-45592517D01*
X207611016Y-45736852D01*
X207484075Y-45931151D01*
X207390842Y-46143699D01*
X207333866Y-46368691D01*
X207333864Y-46368702D01*
X207314700Y-46599993D01*
X206315300Y-46599993D01*
X206296135Y-46368702D01*
X206296133Y-46368691D01*
X206239157Y-46143699D01*
X206145924Y-45931151D01*
X206018983Y-45736852D01*
X206018980Y-45736849D01*
X206018979Y-45736847D01*
X205861784Y-45566087D01*
X205861779Y-45566083D01*
X205861777Y-45566081D01*
X205678634Y-45423535D01*
X205678628Y-45423531D01*
X205474504Y-45313064D01*
X205474495Y-45313061D01*
X205254984Y-45237702D01*
X205083282Y-45209050D01*
X205026049Y-45199500D01*
X204793951Y-45199500D01*
X204756778Y-45205703D01*
X204565014Y-45237702D01*
X204513098Y-45255524D01*
X204443300Y-45258672D01*
X204385158Y-45225923D01*
X201571416Y-42412181D01*
X201537931Y-42350858D01*
X201542915Y-42281166D01*
X201584787Y-42225233D01*
X201650251Y-42200816D01*
X201659097Y-42200500D01*
X204120943Y-42200500D01*
X207229903Y-42200500D01*
X207296942Y-42220185D01*
X207317584Y-42236819D01*
X211155795Y-46075030D01*
X211189280Y-46136353D01*
X211188320Y-46193151D01*
X211143866Y-46368691D01*
X211143864Y-46368702D01*
X211124700Y-46599993D01*
X211124700Y-46600006D01*
X211143864Y-46831297D01*
X211143866Y-46831308D01*
X211200842Y-47056300D01*
X211294075Y-47268848D01*
X211421016Y-47463147D01*
X211421019Y-47463151D01*
X211421021Y-47463153D01*
X211578216Y-47633913D01*
X211578219Y-47633915D01*
X211578222Y-47633918D01*
X211761365Y-47776464D01*
X211761371Y-47776468D01*
X211761374Y-47776470D01*
X211965497Y-47886936D01*
X212076263Y-47924962D01*
X212185015Y-47962297D01*
X212185017Y-47962297D01*
X212185019Y-47962298D01*
X212413951Y-48000500D01*
X212413952Y-48000500D01*
X212646048Y-48000500D01*
X212646049Y-48000500D01*
X212874981Y-47962298D01*
X213094503Y-47886936D01*
X213298626Y-47776470D01*
X213323616Y-47757020D01*
X213402581Y-47695559D01*
X213481784Y-47633913D01*
X213638979Y-47463153D01*
X213765924Y-47268849D01*
X213859157Y-47056300D01*
X213916134Y-46831305D01*
X213935300Y-46600000D01*
X213935300Y-46599993D01*
X214934700Y-46599993D01*
X214934700Y-46600006D01*
X214953864Y-46831297D01*
X214953866Y-46831308D01*
X215010842Y-47056300D01*
X215104075Y-47268848D01*
X215231016Y-47463147D01*
X215231019Y-47463151D01*
X215231021Y-47463153D01*
X215388216Y-47633913D01*
X215388219Y-47633915D01*
X215388222Y-47633918D01*
X215571365Y-47776464D01*
X215571371Y-47776468D01*
X215571374Y-47776470D01*
X215775497Y-47886936D01*
X215886263Y-47924962D01*
X215995015Y-47962297D01*
X215995017Y-47962297D01*
X215995019Y-47962298D01*
X216223951Y-48000500D01*
X216223952Y-48000500D01*
X216456048Y-48000500D01*
X216456049Y-48000500D01*
X216684981Y-47962298D01*
X216904503Y-47886936D01*
X217108626Y-47776470D01*
X217133616Y-47757020D01*
X217212581Y-47695559D01*
X217291784Y-47633913D01*
X217448979Y-47463153D01*
X217575924Y-47268849D01*
X217669157Y-47056300D01*
X217726134Y-46831305D01*
X217745300Y-46600000D01*
X217745300Y-46599993D01*
X217726135Y-46368702D01*
X217726133Y-46368691D01*
X217669157Y-46143699D01*
X217575924Y-45931151D01*
X217448983Y-45736852D01*
X217448980Y-45736849D01*
X217448979Y-45736847D01*
X217291784Y-45566087D01*
X217291779Y-45566083D01*
X217291777Y-45566081D01*
X217108634Y-45423535D01*
X217108628Y-45423531D01*
X216904504Y-45313064D01*
X216904495Y-45313061D01*
X216684984Y-45237702D01*
X216513282Y-45209050D01*
X216456049Y-45199500D01*
X216223951Y-45199500D01*
X216185550Y-45205908D01*
X215995015Y-45237702D01*
X215775504Y-45313061D01*
X215775495Y-45313064D01*
X215571371Y-45423531D01*
X215571365Y-45423535D01*
X215388222Y-45566081D01*
X215388219Y-45566084D01*
X215388216Y-45566086D01*
X215388216Y-45566087D01*
X215363886Y-45592517D01*
X215231016Y-45736852D01*
X215104075Y-45931151D01*
X215010842Y-46143699D01*
X214953866Y-46368691D01*
X214953864Y-46368702D01*
X214934700Y-46599993D01*
X213935300Y-46599993D01*
X213916135Y-46368702D01*
X213916133Y-46368691D01*
X213859157Y-46143699D01*
X213765924Y-45931151D01*
X213638983Y-45736852D01*
X213638980Y-45736849D01*
X213638979Y-45736847D01*
X213481784Y-45566087D01*
X213481779Y-45566083D01*
X213481777Y-45566081D01*
X213298634Y-45423535D01*
X213298628Y-45423531D01*
X213094504Y-45313064D01*
X213094495Y-45313061D01*
X212874984Y-45237702D01*
X212703282Y-45209050D01*
X212646049Y-45199500D01*
X212413951Y-45199500D01*
X212376778Y-45205703D01*
X212185014Y-45237702D01*
X212133098Y-45255524D01*
X212063300Y-45258672D01*
X212005158Y-45225923D01*
X208791416Y-42012181D01*
X208757931Y-41950858D01*
X208762915Y-41881166D01*
X208804787Y-41825233D01*
X208870251Y-41800816D01*
X208879097Y-41800500D01*
X212120943Y-41800500D01*
X214449903Y-41800500D01*
X214516942Y-41820185D01*
X214537584Y-41836819D01*
X218775795Y-46075030D01*
X218809280Y-46136353D01*
X218808320Y-46193151D01*
X218763866Y-46368691D01*
X218763864Y-46368702D01*
X218744700Y-46599993D01*
X218744700Y-46600006D01*
X218763864Y-46831297D01*
X218763866Y-46831308D01*
X218820842Y-47056300D01*
X218914075Y-47268848D01*
X219041016Y-47463147D01*
X219041019Y-47463151D01*
X219041021Y-47463153D01*
X219198216Y-47633913D01*
X219198219Y-47633915D01*
X219198222Y-47633918D01*
X219381365Y-47776464D01*
X219381371Y-47776468D01*
X219381374Y-47776470D01*
X219585497Y-47886936D01*
X219696263Y-47924962D01*
X219805015Y-47962297D01*
X219805017Y-47962297D01*
X219805019Y-47962298D01*
X220033951Y-48000500D01*
X220033952Y-48000500D01*
X220266048Y-48000500D01*
X220266049Y-48000500D01*
X220494981Y-47962298D01*
X220714503Y-47886936D01*
X220918626Y-47776470D01*
X220943616Y-47757020D01*
X221022581Y-47695559D01*
X221101784Y-47633913D01*
X221258979Y-47463153D01*
X221385924Y-47268849D01*
X221479157Y-47056300D01*
X221536134Y-46831305D01*
X221555300Y-46600000D01*
X221555300Y-46599993D01*
X222554700Y-46599993D01*
X222554700Y-46600006D01*
X222573864Y-46831297D01*
X222573866Y-46831308D01*
X222630842Y-47056300D01*
X222724075Y-47268848D01*
X222851016Y-47463147D01*
X222851019Y-47463151D01*
X222851021Y-47463153D01*
X223008216Y-47633913D01*
X223008219Y-47633915D01*
X223008222Y-47633918D01*
X223191365Y-47776464D01*
X223191371Y-47776468D01*
X223191374Y-47776470D01*
X223395497Y-47886936D01*
X223506263Y-47924962D01*
X223615015Y-47962297D01*
X223615017Y-47962297D01*
X223615019Y-47962298D01*
X223843951Y-48000500D01*
X223843952Y-48000500D01*
X224076048Y-48000500D01*
X224076049Y-48000500D01*
X224304981Y-47962298D01*
X224524503Y-47886936D01*
X224728626Y-47776470D01*
X224753616Y-47757020D01*
X224832581Y-47695559D01*
X224911784Y-47633913D01*
X225068979Y-47463153D01*
X225195924Y-47268849D01*
X225289157Y-47056300D01*
X225346134Y-46831305D01*
X225365300Y-46600000D01*
X225365300Y-46599993D01*
X225346135Y-46368702D01*
X225346133Y-46368691D01*
X225289157Y-46143699D01*
X225195924Y-45931151D01*
X225068983Y-45736852D01*
X225068980Y-45736849D01*
X225068979Y-45736847D01*
X224911784Y-45566087D01*
X224911779Y-45566083D01*
X224911777Y-45566081D01*
X224728634Y-45423535D01*
X224728628Y-45423531D01*
X224524504Y-45313064D01*
X224524495Y-45313061D01*
X224304984Y-45237702D01*
X224133282Y-45209050D01*
X224076049Y-45199500D01*
X223843951Y-45199500D01*
X223805550Y-45205908D01*
X223615015Y-45237702D01*
X223395504Y-45313061D01*
X223395495Y-45313064D01*
X223191371Y-45423531D01*
X223191365Y-45423535D01*
X223008222Y-45566081D01*
X223008219Y-45566084D01*
X223008216Y-45566086D01*
X223008216Y-45566087D01*
X222983886Y-45592517D01*
X222851016Y-45736852D01*
X222724075Y-45931151D01*
X222630842Y-46143699D01*
X222573866Y-46368691D01*
X222573864Y-46368702D01*
X222554700Y-46599993D01*
X221555300Y-46599993D01*
X221536135Y-46368702D01*
X221536133Y-46368691D01*
X221479157Y-46143699D01*
X221385924Y-45931151D01*
X221258983Y-45736852D01*
X221258980Y-45736849D01*
X221258979Y-45736847D01*
X221101784Y-45566087D01*
X221101779Y-45566083D01*
X221101777Y-45566081D01*
X220918634Y-45423535D01*
X220918628Y-45423531D01*
X220714504Y-45313064D01*
X220714495Y-45313061D01*
X220494984Y-45237702D01*
X220323282Y-45209050D01*
X220266049Y-45199500D01*
X220033951Y-45199500D01*
X219996778Y-45205703D01*
X219805014Y-45237702D01*
X219753098Y-45255524D01*
X219683300Y-45258672D01*
X219625158Y-45225923D01*
X216011416Y-41612181D01*
X215977931Y-41550858D01*
X215982915Y-41481166D01*
X216024787Y-41425233D01*
X216090251Y-41400816D01*
X216099097Y-41400500D01*
X220520943Y-41400500D01*
X221669903Y-41400500D01*
X221736942Y-41420185D01*
X221757584Y-41436819D01*
X226395795Y-46075030D01*
X226429280Y-46136353D01*
X226428320Y-46193151D01*
X226383866Y-46368691D01*
X226383864Y-46368702D01*
X226364700Y-46599993D01*
X226364700Y-46600006D01*
X226383864Y-46831297D01*
X226383866Y-46831308D01*
X226440842Y-47056300D01*
X226534075Y-47268848D01*
X226661016Y-47463147D01*
X226661019Y-47463151D01*
X226661021Y-47463153D01*
X226818216Y-47633913D01*
X226818219Y-47633915D01*
X226818222Y-47633918D01*
X227001365Y-47776464D01*
X227001371Y-47776468D01*
X227001374Y-47776470D01*
X227205497Y-47886936D01*
X227316263Y-47924962D01*
X227425015Y-47962297D01*
X227425017Y-47962297D01*
X227425019Y-47962298D01*
X227653951Y-48000500D01*
X227653952Y-48000500D01*
X227886048Y-48000500D01*
X227886049Y-48000500D01*
X228114981Y-47962298D01*
X228334503Y-47886936D01*
X228538626Y-47776470D01*
X228563616Y-47757020D01*
X228642581Y-47695559D01*
X228721784Y-47633913D01*
X228878979Y-47463153D01*
X229005924Y-47268849D01*
X229099157Y-47056300D01*
X229156134Y-46831305D01*
X229175300Y-46600000D01*
X229175300Y-46599993D01*
X230174700Y-46599993D01*
X230174700Y-46600006D01*
X230193864Y-46831297D01*
X230193866Y-46831308D01*
X230250842Y-47056300D01*
X230344075Y-47268848D01*
X230471016Y-47463147D01*
X230471019Y-47463151D01*
X230471021Y-47463153D01*
X230628216Y-47633913D01*
X230628219Y-47633915D01*
X230628222Y-47633918D01*
X230811365Y-47776464D01*
X230811371Y-47776468D01*
X230811374Y-47776470D01*
X231015497Y-47886936D01*
X231126263Y-47924962D01*
X231235015Y-47962297D01*
X231235017Y-47962297D01*
X231235019Y-47962298D01*
X231463951Y-48000500D01*
X231463952Y-48000500D01*
X231696048Y-48000500D01*
X231696049Y-48000500D01*
X231924981Y-47962298D01*
X232144503Y-47886936D01*
X232348626Y-47776470D01*
X232373616Y-47757020D01*
X232452581Y-47695559D01*
X232531784Y-47633913D01*
X232688979Y-47463153D01*
X232815924Y-47268849D01*
X232909157Y-47056300D01*
X232966134Y-46831305D01*
X232985300Y-46600000D01*
X232985300Y-46599993D01*
X232966135Y-46368702D01*
X232966133Y-46368691D01*
X232909157Y-46143699D01*
X232815924Y-45931151D01*
X232688983Y-45736852D01*
X232688980Y-45736849D01*
X232688979Y-45736847D01*
X232531784Y-45566087D01*
X232531779Y-45566083D01*
X232531777Y-45566081D01*
X232348634Y-45423535D01*
X232348628Y-45423531D01*
X232144504Y-45313064D01*
X232144495Y-45313061D01*
X231924984Y-45237702D01*
X231753282Y-45209050D01*
X231696049Y-45199500D01*
X231463951Y-45199500D01*
X231425550Y-45205908D01*
X231235015Y-45237702D01*
X231015504Y-45313061D01*
X231015495Y-45313064D01*
X230811371Y-45423531D01*
X230811365Y-45423535D01*
X230628222Y-45566081D01*
X230628219Y-45566084D01*
X230628216Y-45566086D01*
X230628216Y-45566087D01*
X230603886Y-45592517D01*
X230471016Y-45736852D01*
X230344075Y-45931151D01*
X230250842Y-46143699D01*
X230193866Y-46368691D01*
X230193864Y-46368702D01*
X230174700Y-46599993D01*
X229175300Y-46599993D01*
X229156135Y-46368702D01*
X229156133Y-46368691D01*
X229099157Y-46143699D01*
X229005924Y-45931151D01*
X228878983Y-45736852D01*
X228878980Y-45736849D01*
X228878979Y-45736847D01*
X228721784Y-45566087D01*
X228721779Y-45566083D01*
X228721777Y-45566081D01*
X228538634Y-45423535D01*
X228538628Y-45423531D01*
X228334504Y-45313064D01*
X228334495Y-45313061D01*
X228114984Y-45237702D01*
X227943282Y-45209050D01*
X227886049Y-45199500D01*
X227653951Y-45199500D01*
X227596718Y-45209050D01*
X227425016Y-45237702D01*
X227373100Y-45255524D01*
X227303301Y-45258672D01*
X227245159Y-45225923D01*
X223231416Y-41212181D01*
X223197931Y-41150858D01*
X223202915Y-41081166D01*
X223244787Y-41025233D01*
X223310251Y-41000816D01*
X223319097Y-41000500D01*
X228120943Y-41000500D01*
X228889903Y-41000500D01*
X228956942Y-41020185D01*
X228977584Y-41036819D01*
X234015795Y-46075030D01*
X234049280Y-46136353D01*
X234048320Y-46193151D01*
X234003866Y-46368691D01*
X234003864Y-46368702D01*
X233984700Y-46599993D01*
X233984700Y-46600006D01*
X234003864Y-46831297D01*
X234003866Y-46831308D01*
X234060842Y-47056300D01*
X234154075Y-47268848D01*
X234281016Y-47463147D01*
X234281019Y-47463151D01*
X234281021Y-47463153D01*
X234438216Y-47633913D01*
X234438219Y-47633915D01*
X234438222Y-47633918D01*
X234621365Y-47776464D01*
X234621371Y-47776468D01*
X234621374Y-47776470D01*
X234825497Y-47886936D01*
X234936263Y-47924962D01*
X235045015Y-47962297D01*
X235045017Y-47962297D01*
X235045019Y-47962298D01*
X235273951Y-48000500D01*
X235273952Y-48000500D01*
X235506048Y-48000500D01*
X235506049Y-48000500D01*
X235734981Y-47962298D01*
X235954503Y-47886936D01*
X236158626Y-47776470D01*
X236183616Y-47757020D01*
X236262581Y-47695559D01*
X236341784Y-47633913D01*
X236498979Y-47463153D01*
X236625924Y-47268849D01*
X236719157Y-47056300D01*
X236776134Y-46831305D01*
X236795300Y-46600000D01*
X236795300Y-46599993D01*
X236776135Y-46368702D01*
X236776133Y-46368691D01*
X236719157Y-46143699D01*
X236625924Y-45931151D01*
X236498983Y-45736852D01*
X236498980Y-45736849D01*
X236498979Y-45736847D01*
X236341784Y-45566087D01*
X236341779Y-45566083D01*
X236341777Y-45566081D01*
X236158634Y-45423535D01*
X236158628Y-45423531D01*
X235954504Y-45313064D01*
X235954495Y-45313061D01*
X235734984Y-45237702D01*
X235563282Y-45209050D01*
X235506049Y-45199500D01*
X235273951Y-45199500D01*
X235236778Y-45205703D01*
X235045014Y-45237702D01*
X234993098Y-45255524D01*
X234923300Y-45258672D01*
X234865158Y-45225923D01*
X230451416Y-40812181D01*
X230417931Y-40750858D01*
X230422915Y-40681166D01*
X230464787Y-40625233D01*
X230530251Y-40600816D01*
X230539097Y-40600500D01*
X231320943Y-40600500D01*
X232299903Y-40600500D01*
X232366942Y-40620185D01*
X232387584Y-40636819D01*
X237825795Y-46075030D01*
X237859280Y-46136353D01*
X237858320Y-46193151D01*
X237813866Y-46368691D01*
X237813864Y-46368702D01*
X237794700Y-46599993D01*
X237794700Y-46600006D01*
X237813864Y-46831297D01*
X237813866Y-46831308D01*
X237870842Y-47056300D01*
X237964075Y-47268848D01*
X238091016Y-47463147D01*
X238091019Y-47463151D01*
X238091021Y-47463153D01*
X238248216Y-47633913D01*
X238248219Y-47633915D01*
X238248222Y-47633918D01*
X238431365Y-47776464D01*
X238431371Y-47776468D01*
X238431374Y-47776470D01*
X238635497Y-47886936D01*
X238746263Y-47924962D01*
X238855015Y-47962297D01*
X238855017Y-47962297D01*
X238855019Y-47962298D01*
X239083951Y-48000500D01*
X239083952Y-48000500D01*
X239316048Y-48000500D01*
X239316049Y-48000500D01*
X239544981Y-47962298D01*
X239764503Y-47886936D01*
X239816483Y-47858805D01*
X239884809Y-47844210D01*
X239950181Y-47868872D01*
X239991843Y-47924962D01*
X239999500Y-47967860D01*
X239999500Y-54771472D01*
X239979815Y-54838511D01*
X239963181Y-54859153D01*
X239059154Y-55763181D01*
X238997831Y-55796666D01*
X238971473Y-55799500D01*
X211540941Y-55799500D01*
X211526230Y-55803441D01*
X211526231Y-55803442D01*
X211388214Y-55840423D01*
X211388209Y-55840426D01*
X211251290Y-55919475D01*
X211251282Y-55919481D01*
X211139478Y-56031286D01*
X209244840Y-57925923D01*
X209183517Y-57959408D01*
X209116898Y-57955524D01*
X209064981Y-57937702D01*
X208935641Y-57916119D01*
X208836049Y-57899500D01*
X208603951Y-57899500D01*
X208558164Y-57907140D01*
X208375015Y-57937702D01*
X208155504Y-58013061D01*
X208155495Y-58013064D01*
X207951371Y-58123531D01*
X207951365Y-58123535D01*
X207768222Y-58266081D01*
X207768219Y-58266084D01*
X207768216Y-58266086D01*
X207768216Y-58266087D01*
X207731747Y-58305703D01*
X207611016Y-58436852D01*
X207484075Y-58631151D01*
X207390842Y-58843699D01*
X207333866Y-59068691D01*
X207333864Y-59068702D01*
X207314700Y-59299993D01*
X207314700Y-59300006D01*
X207333864Y-59531297D01*
X207333866Y-59531308D01*
X207390842Y-59756300D01*
X207484075Y-59968848D01*
X207611016Y-60163147D01*
X207611019Y-60163151D01*
X207611021Y-60163153D01*
X207768216Y-60333913D01*
X207768219Y-60333915D01*
X207768222Y-60333918D01*
X207951365Y-60476464D01*
X207951371Y-60476468D01*
X207951374Y-60476470D01*
X208155497Y-60586936D01*
X208269487Y-60626068D01*
X208375015Y-60662297D01*
X208375017Y-60662297D01*
X208375019Y-60662298D01*
X208603951Y-60700500D01*
X208603952Y-60700500D01*
X208836048Y-60700500D01*
X208836049Y-60700500D01*
X209064981Y-60662298D01*
X209284503Y-60586936D01*
X209488626Y-60476470D01*
X209671784Y-60333913D01*
X209828979Y-60163153D01*
X209955924Y-59968849D01*
X210049157Y-59756300D01*
X210106134Y-59531305D01*
X210125300Y-59300000D01*
X210125300Y-59299993D01*
X210106135Y-59068702D01*
X210106131Y-59068682D01*
X210061680Y-58893151D01*
X210064304Y-58823331D01*
X210094202Y-58775031D01*
X211832416Y-57036819D01*
X211893739Y-57003334D01*
X211920097Y-57000500D01*
X213680903Y-57000500D01*
X213747942Y-57020185D01*
X213793697Y-57072989D01*
X213803641Y-57142147D01*
X213774616Y-57205703D01*
X213768584Y-57212181D01*
X213054840Y-57925923D01*
X212993517Y-57959408D01*
X212926898Y-57955524D01*
X212874981Y-57937702D01*
X212745641Y-57916119D01*
X212646049Y-57899500D01*
X212413951Y-57899500D01*
X212368164Y-57907140D01*
X212185015Y-57937702D01*
X211965504Y-58013061D01*
X211965495Y-58013064D01*
X211761371Y-58123531D01*
X211761365Y-58123535D01*
X211578222Y-58266081D01*
X211578219Y-58266084D01*
X211578216Y-58266086D01*
X211578216Y-58266087D01*
X211541747Y-58305703D01*
X211421016Y-58436852D01*
X211294075Y-58631151D01*
X211200842Y-58843699D01*
X211143866Y-59068691D01*
X211143864Y-59068702D01*
X211124700Y-59299993D01*
X211124700Y-59300006D01*
X211143864Y-59531297D01*
X211143866Y-59531308D01*
X211200842Y-59756300D01*
X211294075Y-59968848D01*
X211421016Y-60163147D01*
X211421019Y-60163151D01*
X211421021Y-60163153D01*
X211578216Y-60333913D01*
X211578219Y-60333915D01*
X211578222Y-60333918D01*
X211761365Y-60476464D01*
X211761371Y-60476468D01*
X211761374Y-60476470D01*
X211965497Y-60586936D01*
X212079487Y-60626068D01*
X212185015Y-60662297D01*
X212185017Y-60662297D01*
X212185019Y-60662298D01*
X212413951Y-60700500D01*
X212413952Y-60700500D01*
X212646048Y-60700500D01*
X212646049Y-60700500D01*
X212874981Y-60662298D01*
X213094503Y-60586936D01*
X213298626Y-60476470D01*
X213481784Y-60333913D01*
X213638979Y-60163153D01*
X213765924Y-59968849D01*
X213859157Y-59756300D01*
X213916134Y-59531305D01*
X213935300Y-59300000D01*
X213935300Y-59299993D01*
X213916135Y-59068702D01*
X213916131Y-59068682D01*
X213871680Y-58893151D01*
X213874304Y-58823331D01*
X213904202Y-58775031D01*
X215242416Y-57436819D01*
X215303739Y-57403334D01*
X215330097Y-57400500D01*
X217090903Y-57400500D01*
X217157942Y-57420185D01*
X217203697Y-57472989D01*
X217213641Y-57542147D01*
X217184616Y-57605703D01*
X217178602Y-57612162D01*
X216940201Y-57850563D01*
X216864840Y-57925924D01*
X216803517Y-57959408D01*
X216736898Y-57955524D01*
X216684981Y-57937702D01*
X216555641Y-57916119D01*
X216456049Y-57899500D01*
X216223951Y-57899500D01*
X216178164Y-57907140D01*
X215995015Y-57937702D01*
X215775504Y-58013061D01*
X215775495Y-58013064D01*
X215571371Y-58123531D01*
X215571365Y-58123535D01*
X215388222Y-58266081D01*
X215388219Y-58266084D01*
X215388216Y-58266086D01*
X215388216Y-58266087D01*
X215351747Y-58305703D01*
X215231016Y-58436852D01*
X215104075Y-58631151D01*
X215010842Y-58843699D01*
X214953866Y-59068691D01*
X214953864Y-59068702D01*
X214934700Y-59299993D01*
X214934700Y-59300006D01*
X214953864Y-59531297D01*
X214953866Y-59531308D01*
X215010842Y-59756300D01*
X215104075Y-59968848D01*
X215231016Y-60163147D01*
X215231019Y-60163151D01*
X215231021Y-60163153D01*
X215388216Y-60333913D01*
X215388219Y-60333915D01*
X215388222Y-60333918D01*
X215571365Y-60476464D01*
X215571371Y-60476468D01*
X215571374Y-60476470D01*
X215775497Y-60586936D01*
X215889487Y-60626068D01*
X215995015Y-60662297D01*
X215995017Y-60662297D01*
X215995019Y-60662298D01*
X216223951Y-60700500D01*
X216223952Y-60700500D01*
X216456048Y-60700500D01*
X216456049Y-60700500D01*
X216684981Y-60662298D01*
X216904503Y-60586936D01*
X217108626Y-60476470D01*
X217291784Y-60333913D01*
X217448979Y-60163153D01*
X217575924Y-59968849D01*
X217669157Y-59756300D01*
X217726134Y-59531305D01*
X217745300Y-59300000D01*
X217745300Y-59299993D01*
X217726135Y-59068702D01*
X217726131Y-59068682D01*
X217681680Y-58893151D01*
X217684304Y-58823331D01*
X217714202Y-58775031D01*
X218652416Y-57836819D01*
X218713739Y-57803334D01*
X218740097Y-57800500D01*
X219488615Y-57800500D01*
X219555654Y-57820185D01*
X219601409Y-57872989D01*
X219611353Y-57942147D01*
X219582328Y-58005703D01*
X219547633Y-58033555D01*
X219381371Y-58123531D01*
X219381365Y-58123535D01*
X219198222Y-58266081D01*
X219198219Y-58266084D01*
X219198216Y-58266086D01*
X219198216Y-58266087D01*
X219161747Y-58305703D01*
X219041016Y-58436852D01*
X218914075Y-58631151D01*
X218820842Y-58843699D01*
X218763866Y-59068691D01*
X218763864Y-59068702D01*
X218744700Y-59299993D01*
X218744700Y-59300006D01*
X218763864Y-59531297D01*
X218763866Y-59531308D01*
X218820842Y-59756300D01*
X218914075Y-59968848D01*
X219041016Y-60163147D01*
X219041019Y-60163151D01*
X219041021Y-60163153D01*
X219198216Y-60333913D01*
X219198219Y-60333915D01*
X219198222Y-60333918D01*
X219381365Y-60476464D01*
X219381371Y-60476468D01*
X219381374Y-60476470D01*
X219585497Y-60586936D01*
X219699487Y-60626068D01*
X219805015Y-60662297D01*
X219805017Y-60662297D01*
X219805019Y-60662298D01*
X220033951Y-60700500D01*
X220033952Y-60700500D01*
X220266048Y-60700500D01*
X220266049Y-60700500D01*
X220494981Y-60662298D01*
X220714503Y-60586936D01*
X220918626Y-60476470D01*
X221101784Y-60333913D01*
X221258979Y-60163153D01*
X221385924Y-59968849D01*
X221479157Y-59756300D01*
X221536134Y-59531305D01*
X221555300Y-59300000D01*
X221555300Y-59299993D01*
X221536135Y-59068702D01*
X221536133Y-59068691D01*
X221479157Y-58843699D01*
X221385924Y-58631151D01*
X221258983Y-58436852D01*
X221258980Y-58436849D01*
X221258979Y-58436847D01*
X221101784Y-58266087D01*
X221101779Y-58266083D01*
X221101777Y-58266081D01*
X220918634Y-58123535D01*
X220918628Y-58123531D01*
X220752367Y-58033555D01*
X220702777Y-57984335D01*
X220687669Y-57916119D01*
X220711839Y-57850563D01*
X220767615Y-57808482D01*
X220811385Y-57800500D01*
X223298615Y-57800500D01*
X223365654Y-57820185D01*
X223411409Y-57872989D01*
X223421353Y-57942147D01*
X223392328Y-58005703D01*
X223357633Y-58033555D01*
X223191371Y-58123531D01*
X223191365Y-58123535D01*
X223008222Y-58266081D01*
X223008219Y-58266084D01*
X223008216Y-58266086D01*
X223008216Y-58266087D01*
X222971747Y-58305703D01*
X222851016Y-58436852D01*
X222724075Y-58631151D01*
X222630842Y-58843699D01*
X222573866Y-59068691D01*
X222573864Y-59068702D01*
X222554700Y-59299993D01*
X222554700Y-59300006D01*
X222573864Y-59531297D01*
X222573866Y-59531308D01*
X222630842Y-59756300D01*
X222724075Y-59968848D01*
X222851016Y-60163147D01*
X222851019Y-60163151D01*
X222851021Y-60163153D01*
X223008216Y-60333913D01*
X223008219Y-60333915D01*
X223008222Y-60333918D01*
X223191365Y-60476464D01*
X223191371Y-60476468D01*
X223191374Y-60476470D01*
X223395497Y-60586936D01*
X223509487Y-60626068D01*
X223615015Y-60662297D01*
X223615017Y-60662297D01*
X223615019Y-60662298D01*
X223843951Y-60700500D01*
X223843952Y-60700500D01*
X224076048Y-60700500D01*
X224076049Y-60700500D01*
X224304981Y-60662298D01*
X224524503Y-60586936D01*
X224728626Y-60476470D01*
X224911784Y-60333913D01*
X225068979Y-60163153D01*
X225195924Y-59968849D01*
X225289157Y-59756300D01*
X225346134Y-59531305D01*
X225365300Y-59300000D01*
X225365300Y-59299993D01*
X225346135Y-59068702D01*
X225346133Y-59068691D01*
X225289157Y-58843699D01*
X225195924Y-58631151D01*
X225068983Y-58436852D01*
X225068980Y-58436849D01*
X225068979Y-58436847D01*
X224911784Y-58266087D01*
X224911779Y-58266083D01*
X224911777Y-58266081D01*
X224728634Y-58123535D01*
X224728628Y-58123531D01*
X224562367Y-58033555D01*
X224512777Y-57984335D01*
X224497669Y-57916119D01*
X224521839Y-57850563D01*
X224577615Y-57808482D01*
X224621385Y-57800500D01*
X227108615Y-57800500D01*
X227175654Y-57820185D01*
X227221409Y-57872989D01*
X227231353Y-57942147D01*
X227202328Y-58005703D01*
X227167633Y-58033555D01*
X227001371Y-58123531D01*
X227001365Y-58123535D01*
X226818222Y-58266081D01*
X226818219Y-58266084D01*
X226818216Y-58266086D01*
X226818216Y-58266087D01*
X226781747Y-58305703D01*
X226661016Y-58436852D01*
X226534075Y-58631151D01*
X226440842Y-58843699D01*
X226383866Y-59068691D01*
X226383864Y-59068702D01*
X226364700Y-59299993D01*
X226364700Y-59300006D01*
X226383864Y-59531297D01*
X226383866Y-59531308D01*
X226440842Y-59756300D01*
X226534075Y-59968848D01*
X226661016Y-60163147D01*
X226661019Y-60163151D01*
X226661021Y-60163153D01*
X226818216Y-60333913D01*
X226818219Y-60333915D01*
X226818222Y-60333918D01*
X227001365Y-60476464D01*
X227001371Y-60476468D01*
X227001374Y-60476470D01*
X227205497Y-60586936D01*
X227319487Y-60626068D01*
X227425015Y-60662297D01*
X227425017Y-60662297D01*
X227425019Y-60662298D01*
X227653951Y-60700500D01*
X227653952Y-60700500D01*
X227886048Y-60700500D01*
X227886049Y-60700500D01*
X228114981Y-60662298D01*
X228334503Y-60586936D01*
X228538626Y-60476470D01*
X228721784Y-60333913D01*
X228878979Y-60163153D01*
X229005924Y-59968849D01*
X229099157Y-59756300D01*
X229156134Y-59531305D01*
X229175300Y-59300000D01*
X229175300Y-59299993D01*
X229156135Y-59068702D01*
X229156133Y-59068691D01*
X229099157Y-58843699D01*
X229005924Y-58631151D01*
X228878983Y-58436852D01*
X228878980Y-58436849D01*
X228878979Y-58436847D01*
X228721784Y-58266087D01*
X228721779Y-58266083D01*
X228721777Y-58266081D01*
X228538634Y-58123535D01*
X228538628Y-58123531D01*
X228372367Y-58033555D01*
X228322777Y-57984335D01*
X228307669Y-57916119D01*
X228331839Y-57850563D01*
X228387615Y-57808482D01*
X228431385Y-57800500D01*
X230918615Y-57800500D01*
X230985654Y-57820185D01*
X231031409Y-57872989D01*
X231041353Y-57942147D01*
X231012328Y-58005703D01*
X230977633Y-58033555D01*
X230811371Y-58123531D01*
X230811365Y-58123535D01*
X230628222Y-58266081D01*
X230628219Y-58266084D01*
X230628216Y-58266086D01*
X230628216Y-58266087D01*
X230591747Y-58305703D01*
X230471016Y-58436852D01*
X230344075Y-58631151D01*
X230250842Y-58843699D01*
X230193866Y-59068691D01*
X230193864Y-59068702D01*
X230174700Y-59299993D01*
X230174700Y-59300006D01*
X230193864Y-59531297D01*
X230193866Y-59531308D01*
X230250842Y-59756300D01*
X230344075Y-59968848D01*
X230471016Y-60163147D01*
X230471019Y-60163151D01*
X230471021Y-60163153D01*
X230628216Y-60333913D01*
X230628219Y-60333915D01*
X230628222Y-60333918D01*
X230811365Y-60476464D01*
X230811371Y-60476468D01*
X230811374Y-60476470D01*
X231015497Y-60586936D01*
X231129487Y-60626068D01*
X231235015Y-60662297D01*
X231235017Y-60662297D01*
X231235019Y-60662298D01*
X231463951Y-60700500D01*
X231463952Y-60700500D01*
X231696048Y-60700500D01*
X231696049Y-60700500D01*
X231924981Y-60662298D01*
X232144503Y-60586936D01*
X232348626Y-60476470D01*
X232531784Y-60333913D01*
X232688979Y-60163153D01*
X232815924Y-59968849D01*
X232909157Y-59756300D01*
X232966134Y-59531305D01*
X232985300Y-59300000D01*
X232985300Y-59299993D01*
X232966135Y-59068702D01*
X232966131Y-59068682D01*
X232921680Y-58893151D01*
X232924304Y-58823331D01*
X232954202Y-58775031D01*
X233492416Y-58236819D01*
X233553739Y-58203334D01*
X233580097Y-58200500D01*
X234215903Y-58200500D01*
X234282942Y-58220185D01*
X234328697Y-58272989D01*
X234338641Y-58342147D01*
X234309616Y-58405703D01*
X234307172Y-58408438D01*
X234287481Y-58429828D01*
X234281016Y-58436852D01*
X234154075Y-58631151D01*
X234060842Y-58843699D01*
X234003866Y-59068691D01*
X234003864Y-59068702D01*
X233984700Y-59299993D01*
X233984700Y-59300006D01*
X234003864Y-59531297D01*
X234003866Y-59531308D01*
X234060842Y-59756300D01*
X234154075Y-59968848D01*
X234281016Y-60163147D01*
X234281019Y-60163151D01*
X234281021Y-60163153D01*
X234438216Y-60333913D01*
X234438219Y-60333915D01*
X234438222Y-60333918D01*
X234621365Y-60476464D01*
X234621371Y-60476468D01*
X234621374Y-60476470D01*
X234825497Y-60586936D01*
X234939487Y-60626068D01*
X235045015Y-60662297D01*
X235045017Y-60662297D01*
X235045019Y-60662298D01*
X235273951Y-60700500D01*
X235273952Y-60700500D01*
X235506048Y-60700500D01*
X235506049Y-60700500D01*
X235734981Y-60662298D01*
X235954503Y-60586936D01*
X236158626Y-60476470D01*
X236341784Y-60333913D01*
X236498979Y-60163153D01*
X236625924Y-59968849D01*
X236719157Y-59756300D01*
X236776134Y-59531305D01*
X236795300Y-59300000D01*
X236795300Y-59299993D01*
X236776135Y-59068702D01*
X236776131Y-59068682D01*
X236731680Y-58893152D01*
X236734304Y-58823332D01*
X236764205Y-58775029D01*
X236902419Y-58636818D01*
X236963742Y-58603334D01*
X236990099Y-58600500D01*
X237787724Y-58600500D01*
X237854763Y-58620185D01*
X237900518Y-58672989D01*
X237910462Y-58742147D01*
X237901280Y-58774310D01*
X237870842Y-58843699D01*
X237813866Y-59068691D01*
X237813864Y-59068702D01*
X237794700Y-59299993D01*
X237794700Y-59300006D01*
X237813864Y-59531297D01*
X237813866Y-59531308D01*
X237870842Y-59756300D01*
X237964075Y-59968848D01*
X238091016Y-60163147D01*
X238091019Y-60163151D01*
X238091021Y-60163153D01*
X238248216Y-60333913D01*
X238248219Y-60333915D01*
X238248222Y-60333918D01*
X238431365Y-60476464D01*
X238431371Y-60476468D01*
X238431374Y-60476470D01*
X238635497Y-60586936D01*
X238749487Y-60626068D01*
X238855015Y-60662297D01*
X238855017Y-60662297D01*
X238855019Y-60662298D01*
X239083951Y-60700500D01*
X239083952Y-60700500D01*
X239316048Y-60700500D01*
X239316049Y-60700500D01*
X239544981Y-60662298D01*
X239764503Y-60586936D01*
X239968626Y-60476470D01*
X240151784Y-60333913D01*
X240308979Y-60163153D01*
X240435924Y-59968849D01*
X240529157Y-59756300D01*
X240586134Y-59531305D01*
X240605300Y-59300000D01*
X240605300Y-59299993D01*
X240586135Y-59068702D01*
X240586131Y-59068682D01*
X240541680Y-58893151D01*
X240544304Y-58823331D01*
X240574202Y-58775031D01*
X242958506Y-56390728D01*
X242958511Y-56390724D01*
X242968714Y-56380520D01*
X242968716Y-56380520D01*
X243080520Y-56268716D01*
X243125544Y-56190732D01*
X243138544Y-56168216D01*
X243138545Y-56168214D01*
X243159574Y-56131790D01*
X243159573Y-56131790D01*
X243159577Y-56131785D01*
X243200500Y-55979057D01*
X243200500Y-55820943D01*
X243200500Y-44492513D01*
X243197287Y-44480520D01*
X243159577Y-44339785D01*
X243112473Y-44258199D01*
X243080520Y-44202854D01*
X242968716Y-44091050D01*
X242964385Y-44086719D01*
X242964374Y-44086709D01*
X235716020Y-36838355D01*
X235716018Y-36838352D01*
X235597147Y-36719481D01*
X235597139Y-36719475D01*
X235487808Y-36656353D01*
X235487808Y-36656354D01*
X235460213Y-36640422D01*
X235404311Y-36625443D01*
X235307487Y-36599499D01*
X235149373Y-36599499D01*
X235141777Y-36599499D01*
X235141761Y-36599500D01*
X190900098Y-36599500D01*
X190833059Y-36579815D01*
X190812417Y-36563181D01*
X190236819Y-35987583D01*
X190203334Y-35926260D01*
X190200500Y-35899902D01*
X190200500Y-33919059D01*
X190200501Y-33919046D01*
X190200501Y-33750945D01*
X190200501Y-33750943D01*
X190159577Y-33598215D01*
X190119196Y-33528273D01*
X190119196Y-33528272D01*
X190080524Y-33461290D01*
X190080518Y-33461282D01*
X190065126Y-33445890D01*
X190031641Y-33384567D01*
X190033543Y-33324267D01*
X190035371Y-33317846D01*
X190055557Y-33100000D01*
X194890229Y-33100000D01*
X194909293Y-33415171D01*
X194966208Y-33725755D01*
X195060140Y-34027192D01*
X195060144Y-34027203D01*
X195189735Y-34315145D01*
X195353085Y-34585358D01*
X195490584Y-34760861D01*
X196346773Y-33904672D01*
X196429512Y-34018553D01*
X196586447Y-34175488D01*
X196700326Y-34258225D01*
X195844137Y-35114414D01*
X195844137Y-35114415D01*
X196019641Y-35251914D01*
X196289854Y-35415264D01*
X196577796Y-35544855D01*
X196577807Y-35544859D01*
X196879244Y-35638791D01*
X197189828Y-35695706D01*
X197505000Y-35714770D01*
X197820171Y-35695706D01*
X198130755Y-35638791D01*
X198432192Y-35544859D01*
X198432203Y-35544855D01*
X198720145Y-35415264D01*
X198990358Y-35251914D01*
X199165861Y-35114415D01*
X199165861Y-35114414D01*
X198309673Y-34258226D01*
X198423553Y-34175488D01*
X198580488Y-34018553D01*
X198663226Y-33904673D01*
X199519414Y-34760861D01*
X199519415Y-34760861D01*
X199656914Y-34585358D01*
X199820264Y-34315145D01*
X199949855Y-34027203D01*
X199949859Y-34027192D01*
X200043791Y-33725755D01*
X200100706Y-33415171D01*
X200119770Y-33100000D01*
X200100706Y-32784828D01*
X200043791Y-32474244D01*
X199949859Y-32172807D01*
X199949855Y-32172796D01*
X199820264Y-31884854D01*
X199656914Y-31614641D01*
X199519414Y-31439137D01*
X198663225Y-32295325D01*
X198580488Y-32181447D01*
X198423553Y-32024512D01*
X198309673Y-31941773D01*
X199165861Y-31085584D01*
X199165861Y-31085583D01*
X198990358Y-30948085D01*
X198720145Y-30784735D01*
X198432203Y-30655144D01*
X198432192Y-30655140D01*
X198130755Y-30561208D01*
X197820171Y-30504293D01*
X197505000Y-30485229D01*
X197189828Y-30504293D01*
X196879244Y-30561208D01*
X196577807Y-30655140D01*
X196577796Y-30655144D01*
X196289854Y-30784735D01*
X196019636Y-30948089D01*
X195844137Y-31085583D01*
X195844137Y-31085584D01*
X196700326Y-31941773D01*
X196586447Y-32024512D01*
X196429512Y-32181447D01*
X196346773Y-32295326D01*
X195490584Y-31439137D01*
X195490583Y-31439137D01*
X195353089Y-31614636D01*
X195189735Y-31884854D01*
X195060144Y-32172796D01*
X195060140Y-32172807D01*
X194966208Y-32474244D01*
X194909293Y-32784828D01*
X194890229Y-33100000D01*
X190055557Y-33100000D01*
X190035371Y-32882154D01*
X189975499Y-32671727D01*
X189877981Y-32475885D01*
X189791223Y-32360999D01*
X189746135Y-32301292D01*
X189584458Y-32153905D01*
X189584456Y-32153903D01*
X189398451Y-32038734D01*
X189398442Y-32038730D01*
X189245444Y-31979459D01*
X189194443Y-31959701D01*
X188979389Y-31919500D01*
X188760752Y-31919500D01*
X188693713Y-31899815D01*
X188647958Y-31847011D01*
X188638014Y-31777853D01*
X188649752Y-31740228D01*
X188705494Y-31628283D01*
X188705493Y-31628283D01*
X188705499Y-31628273D01*
X188765371Y-31417846D01*
X188785557Y-31200000D01*
X188765371Y-30982154D01*
X188705499Y-30771727D01*
X188607981Y-30575885D01*
X188476137Y-30401295D01*
X188476135Y-30401292D01*
X188314458Y-30253905D01*
X188314456Y-30253903D01*
X188128451Y-30138734D01*
X188128442Y-30138730D01*
X187975444Y-30079459D01*
X187924443Y-30059701D01*
X187709389Y-30019500D01*
X187490611Y-30019500D01*
X187275557Y-30059701D01*
X187275554Y-30059701D01*
X187275554Y-30059702D01*
X187071557Y-30138730D01*
X187071548Y-30138734D01*
X186885543Y-30253903D01*
X186885541Y-30253905D01*
X186723864Y-30401292D01*
X186592019Y-30575884D01*
X186494505Y-30771716D01*
X186494500Y-30771729D01*
X186449266Y-30930711D01*
X186411987Y-30989804D01*
X186348677Y-31019361D01*
X186279437Y-31009999D01*
X186226251Y-30964689D01*
X186210734Y-30930711D01*
X186169200Y-30784735D01*
X186165499Y-30771727D01*
X186067981Y-30575885D01*
X185936137Y-30401295D01*
X185936135Y-30401292D01*
X185774458Y-30253905D01*
X185774456Y-30253903D01*
X185588451Y-30138734D01*
X185588442Y-30138730D01*
X185435444Y-30079459D01*
X185384443Y-30059701D01*
X185169389Y-30019500D01*
X184950611Y-30019500D01*
X184735557Y-30059701D01*
X184735554Y-30059701D01*
X184735554Y-30059702D01*
X184531557Y-30138730D01*
X184531548Y-30138734D01*
X184345543Y-30253903D01*
X184345541Y-30253905D01*
X184183864Y-30401292D01*
X184052019Y-30575884D01*
X183954505Y-30771716D01*
X183954500Y-30771729D01*
X183909266Y-30930711D01*
X183871987Y-30989804D01*
X183808677Y-31019361D01*
X183739437Y-31009999D01*
X183686251Y-30964689D01*
X183670734Y-30930711D01*
X183629200Y-30784735D01*
X183625499Y-30771727D01*
X183527981Y-30575885D01*
X183396137Y-30401295D01*
X183396135Y-30401292D01*
X183234458Y-30253905D01*
X183234456Y-30253903D01*
X183048451Y-30138734D01*
X183048442Y-30138730D01*
X182895444Y-30079459D01*
X182844443Y-30059701D01*
X182629389Y-30019500D01*
X182410611Y-30019500D01*
X182195557Y-30059701D01*
X182195554Y-30059701D01*
X182195554Y-30059702D01*
X181991557Y-30138730D01*
X181991548Y-30138734D01*
X181805543Y-30253903D01*
X181805541Y-30253905D01*
X181643864Y-30401292D01*
X181512019Y-30575884D01*
X181414505Y-30771716D01*
X181414500Y-30771729D01*
X181369266Y-30930711D01*
X181331987Y-30989804D01*
X181268677Y-31019361D01*
X181199437Y-31009999D01*
X181146251Y-30964689D01*
X181130734Y-30930711D01*
X181089200Y-30784735D01*
X181085499Y-30771727D01*
X180987981Y-30575885D01*
X180856137Y-30401295D01*
X180856135Y-30401292D01*
X180694458Y-30253905D01*
X180694456Y-30253903D01*
X180508451Y-30138734D01*
X180508442Y-30138730D01*
X180355444Y-30079459D01*
X180304443Y-30059701D01*
X180089389Y-30019500D01*
X179870611Y-30019500D01*
X179655557Y-30059701D01*
X179655554Y-30059701D01*
X179655554Y-30059702D01*
X179451557Y-30138730D01*
X179451548Y-30138734D01*
X179265543Y-30253903D01*
X179265541Y-30253905D01*
X179103864Y-30401292D01*
X178972019Y-30575884D01*
X178874505Y-30771716D01*
X178874500Y-30771729D01*
X178829266Y-30930711D01*
X178791987Y-30989804D01*
X178728677Y-31019361D01*
X178659437Y-31009999D01*
X178606251Y-30964689D01*
X178590734Y-30930711D01*
X178549200Y-30784735D01*
X178545499Y-30771727D01*
X178447981Y-30575885D01*
X178316137Y-30401295D01*
X178316135Y-30401292D01*
X178154458Y-30253905D01*
X178154456Y-30253903D01*
X177968451Y-30138734D01*
X177968442Y-30138730D01*
X177815444Y-30079459D01*
X177764443Y-30059701D01*
X177549389Y-30019500D01*
X177330611Y-30019500D01*
X177115557Y-30059701D01*
X177115554Y-30059701D01*
X177115554Y-30059702D01*
X176911557Y-30138730D01*
X176911548Y-30138734D01*
X176725543Y-30253903D01*
X176725541Y-30253905D01*
X176563864Y-30401292D01*
X176432019Y-30575884D01*
X176334505Y-30771716D01*
X176334500Y-30771729D01*
X176289266Y-30930711D01*
X176251987Y-30989804D01*
X176188677Y-31019361D01*
X176119437Y-31009999D01*
X176066251Y-30964689D01*
X176050734Y-30930711D01*
X176009200Y-30784735D01*
X176005499Y-30771727D01*
X175907981Y-30575885D01*
X175776137Y-30401295D01*
X175776135Y-30401292D01*
X175614458Y-30253905D01*
X175614456Y-30253903D01*
X175428451Y-30138734D01*
X175428442Y-30138730D01*
X175275444Y-30079459D01*
X175224443Y-30059701D01*
X175009389Y-30019500D01*
X174790611Y-30019500D01*
X174575557Y-30059701D01*
X174575554Y-30059701D01*
X174575554Y-30059702D01*
X174371557Y-30138730D01*
X174371548Y-30138734D01*
X174185543Y-30253903D01*
X174185541Y-30253905D01*
X174023864Y-30401292D01*
X173892019Y-30575884D01*
X173794505Y-30771716D01*
X173794500Y-30771729D01*
X173749266Y-30930711D01*
X173711987Y-30989804D01*
X173648677Y-31019361D01*
X173579437Y-31009999D01*
X173526251Y-30964689D01*
X173510734Y-30930711D01*
X173469200Y-30784735D01*
X173465499Y-30771727D01*
X173367981Y-30575885D01*
X173236137Y-30401295D01*
X173236135Y-30401292D01*
X173074458Y-30253905D01*
X173074456Y-30253903D01*
X172888451Y-30138734D01*
X172888442Y-30138730D01*
X172735444Y-30079459D01*
X172684443Y-30059701D01*
X172469389Y-30019500D01*
X172250611Y-30019500D01*
X172035557Y-30059701D01*
X172035554Y-30059701D01*
X172035554Y-30059702D01*
X171831557Y-30138730D01*
X171831548Y-30138734D01*
X171645543Y-30253903D01*
X171645541Y-30253905D01*
X171483864Y-30401292D01*
X171352019Y-30575884D01*
X171254505Y-30771716D01*
X171254500Y-30771729D01*
X171209266Y-30930711D01*
X171171987Y-30989804D01*
X171108677Y-31019361D01*
X171039437Y-31009999D01*
X170986251Y-30964689D01*
X170970734Y-30930711D01*
X170929200Y-30784735D01*
X170925499Y-30771727D01*
X170827981Y-30575885D01*
X170696137Y-30401295D01*
X170696135Y-30401292D01*
X170534458Y-30253905D01*
X170534456Y-30253903D01*
X170348451Y-30138734D01*
X170348442Y-30138730D01*
X170195444Y-30079459D01*
X170144443Y-30059701D01*
X169929389Y-30019500D01*
X169710611Y-30019500D01*
X169495557Y-30059701D01*
X169495554Y-30059701D01*
X169495554Y-30059702D01*
X169291557Y-30138730D01*
X169291548Y-30138734D01*
X169105543Y-30253903D01*
X169105541Y-30253905D01*
X168943864Y-30401292D01*
X168812019Y-30575884D01*
X168714505Y-30771716D01*
X168714500Y-30771729D01*
X168669266Y-30930711D01*
X168631987Y-30989804D01*
X168568677Y-31019361D01*
X168499437Y-31009999D01*
X168446251Y-30964689D01*
X168430734Y-30930711D01*
X168389200Y-30784735D01*
X168385499Y-30771727D01*
X168287981Y-30575885D01*
X168156137Y-30401295D01*
X168156135Y-30401292D01*
X167994458Y-30253905D01*
X167994456Y-30253903D01*
X167808451Y-30138734D01*
X167808442Y-30138730D01*
X167655444Y-30079459D01*
X167604443Y-30059701D01*
X167389389Y-30019500D01*
X167170611Y-30019500D01*
X166955557Y-30059701D01*
X166955554Y-30059701D01*
X166955554Y-30059702D01*
X166751557Y-30138730D01*
X166751548Y-30138734D01*
X166565543Y-30253903D01*
X166565541Y-30253905D01*
X166403864Y-30401292D01*
X166272019Y-30575884D01*
X166174505Y-30771716D01*
X166174500Y-30771729D01*
X166129266Y-30930711D01*
X166091987Y-30989804D01*
X166028677Y-31019361D01*
X165959437Y-31009999D01*
X165906251Y-30964689D01*
X165890734Y-30930711D01*
X165849200Y-30784735D01*
X165845499Y-30771727D01*
X165747981Y-30575885D01*
X165616137Y-30401295D01*
X165616135Y-30401292D01*
X165454458Y-30253905D01*
X165454456Y-30253903D01*
X165268451Y-30138734D01*
X165268442Y-30138730D01*
X165115444Y-30079459D01*
X165064443Y-30059701D01*
X164849389Y-30019500D01*
X164630611Y-30019500D01*
X164415557Y-30059701D01*
X164415554Y-30059701D01*
X164415554Y-30059702D01*
X164211557Y-30138730D01*
X164211548Y-30138734D01*
X164025543Y-30253903D01*
X164025541Y-30253905D01*
X163863864Y-30401292D01*
X163732019Y-30575884D01*
X163634505Y-30771716D01*
X163634500Y-30771729D01*
X163589266Y-30930711D01*
X163551987Y-30989804D01*
X163488677Y-31019361D01*
X163419437Y-31009999D01*
X163366251Y-30964689D01*
X163350734Y-30930711D01*
X163309200Y-30784735D01*
X163305499Y-30771727D01*
X163207981Y-30575885D01*
X163076137Y-30401295D01*
X163076135Y-30401292D01*
X162914458Y-30253905D01*
X162914456Y-30253903D01*
X162728451Y-30138734D01*
X162728442Y-30138730D01*
X162575444Y-30079459D01*
X162524443Y-30059701D01*
X162309389Y-30019500D01*
X162090611Y-30019500D01*
X161875557Y-30059701D01*
X161875554Y-30059701D01*
X161875554Y-30059702D01*
X161671557Y-30138730D01*
X161671548Y-30138734D01*
X161485543Y-30253903D01*
X161485541Y-30253905D01*
X161323864Y-30401292D01*
X161192019Y-30575884D01*
X161094505Y-30771716D01*
X161094500Y-30771729D01*
X161049266Y-30930711D01*
X161011987Y-30989804D01*
X160948677Y-31019361D01*
X160879437Y-31009999D01*
X160826251Y-30964689D01*
X160810734Y-30930711D01*
X160769200Y-30784735D01*
X160765499Y-30771727D01*
X160667981Y-30575885D01*
X160536137Y-30401295D01*
X160536135Y-30401292D01*
X160374458Y-30253905D01*
X160374456Y-30253903D01*
X160188451Y-30138734D01*
X160188442Y-30138730D01*
X160035444Y-30079459D01*
X159984443Y-30059701D01*
X159769389Y-30019500D01*
X159550611Y-30019500D01*
X159335557Y-30059701D01*
X159335554Y-30059701D01*
X159335554Y-30059702D01*
X159131557Y-30138730D01*
X159131548Y-30138734D01*
X158945543Y-30253903D01*
X158945541Y-30253905D01*
X158783864Y-30401292D01*
X158652019Y-30575884D01*
X158554505Y-30771716D01*
X158554500Y-30771729D01*
X158509266Y-30930711D01*
X158471987Y-30989804D01*
X158408677Y-31019361D01*
X158339437Y-31009999D01*
X158286251Y-30964689D01*
X158270734Y-30930711D01*
X158229200Y-30784735D01*
X158225499Y-30771727D01*
X158127981Y-30575885D01*
X157996137Y-30401295D01*
X157996135Y-30401292D01*
X157834458Y-30253905D01*
X157834456Y-30253903D01*
X157648451Y-30138734D01*
X157648442Y-30138730D01*
X157495444Y-30079459D01*
X157444443Y-30059701D01*
X157229389Y-30019500D01*
X157010611Y-30019500D01*
X156795557Y-30059701D01*
X156795554Y-30059701D01*
X156795554Y-30059702D01*
X156591557Y-30138730D01*
X156591548Y-30138734D01*
X156405543Y-30253903D01*
X156405541Y-30253905D01*
X156243864Y-30401292D01*
X156112019Y-30575884D01*
X156014505Y-30771716D01*
X156014500Y-30771729D01*
X155969266Y-30930711D01*
X155931987Y-30989804D01*
X155868677Y-31019361D01*
X155799437Y-31009999D01*
X155746251Y-30964689D01*
X155730734Y-30930711D01*
X155689200Y-30784735D01*
X155685499Y-30771727D01*
X155587981Y-30575885D01*
X155456137Y-30401295D01*
X155456135Y-30401292D01*
X155294458Y-30253905D01*
X155294456Y-30253903D01*
X155108451Y-30138734D01*
X155108442Y-30138730D01*
X154955444Y-30079459D01*
X154904443Y-30059701D01*
X154689389Y-30019500D01*
X154470611Y-30019500D01*
X154255557Y-30059701D01*
X154255554Y-30059701D01*
X154255554Y-30059702D01*
X154051557Y-30138730D01*
X154051548Y-30138734D01*
X153865543Y-30253903D01*
X153865541Y-30253905D01*
X153703864Y-30401292D01*
X153572019Y-30575884D01*
X153474505Y-30771716D01*
X153474500Y-30771729D01*
X153429266Y-30930711D01*
X153391987Y-30989804D01*
X153328677Y-31019361D01*
X153259437Y-31009999D01*
X153206251Y-30964689D01*
X153190734Y-30930711D01*
X153149200Y-30784735D01*
X153145499Y-30771727D01*
X153047981Y-30575885D01*
X152916137Y-30401295D01*
X152916135Y-30401292D01*
X152754458Y-30253905D01*
X152754456Y-30253903D01*
X152568451Y-30138734D01*
X152568442Y-30138730D01*
X152415444Y-30079459D01*
X152364443Y-30059701D01*
X152149389Y-30019500D01*
X151930611Y-30019500D01*
X151715557Y-30059701D01*
X151715554Y-30059701D01*
X151715554Y-30059702D01*
X151511557Y-30138730D01*
X151511548Y-30138734D01*
X151325543Y-30253903D01*
X151325541Y-30253905D01*
X151163864Y-30401292D01*
X151032019Y-30575884D01*
X150934505Y-30771716D01*
X150934500Y-30771729D01*
X150889266Y-30930711D01*
X150851987Y-30989804D01*
X150788677Y-31019361D01*
X150719437Y-31009999D01*
X150666251Y-30964689D01*
X150650734Y-30930711D01*
X150609200Y-30784735D01*
X150605499Y-30771727D01*
X150507981Y-30575885D01*
X150376137Y-30401295D01*
X150376135Y-30401292D01*
X150214458Y-30253905D01*
X150214456Y-30253903D01*
X150028451Y-30138734D01*
X150028442Y-30138730D01*
X149875444Y-30079459D01*
X149824443Y-30059701D01*
X149609389Y-30019500D01*
X149390611Y-30019500D01*
X149175557Y-30059701D01*
X149175554Y-30059701D01*
X149175554Y-30059702D01*
X148971557Y-30138730D01*
X148971548Y-30138734D01*
X148785543Y-30253903D01*
X148785541Y-30253905D01*
X148623864Y-30401292D01*
X148492019Y-30575884D01*
X148394505Y-30771716D01*
X148394500Y-30771729D01*
X148349266Y-30930711D01*
X148311987Y-30989804D01*
X148248677Y-31019361D01*
X148179437Y-31009999D01*
X148126251Y-30964689D01*
X148110734Y-30930711D01*
X148069200Y-30784735D01*
X148065499Y-30771727D01*
X147967981Y-30575885D01*
X147836137Y-30401295D01*
X147836135Y-30401292D01*
X147674458Y-30253905D01*
X147674456Y-30253903D01*
X147488451Y-30138734D01*
X147488442Y-30138730D01*
X147335444Y-30079459D01*
X147284443Y-30059701D01*
X147069389Y-30019500D01*
X146850611Y-30019500D01*
X146635557Y-30059701D01*
X146635554Y-30059701D01*
X146635554Y-30059702D01*
X146431557Y-30138730D01*
X146431548Y-30138734D01*
X146245543Y-30253903D01*
X146245541Y-30253905D01*
X146083864Y-30401292D01*
X145952019Y-30575884D01*
X145854505Y-30771716D01*
X145854500Y-30771729D01*
X145794628Y-30982154D01*
X145774443Y-31199999D01*
X145774443Y-31200000D01*
X145794628Y-31417845D01*
X145854500Y-31628270D01*
X145854505Y-31628283D01*
X145952019Y-31824115D01*
X146083864Y-31998707D01*
X146245541Y-32146094D01*
X146245543Y-32146096D01*
X146431548Y-32261265D01*
X146431550Y-32261266D01*
X146431552Y-32261267D01*
X146635557Y-32340299D01*
X146850611Y-32380500D01*
X146850613Y-32380500D01*
X147069248Y-32380500D01*
X147136287Y-32400185D01*
X147182042Y-32452989D01*
X147191986Y-32522147D01*
X147180248Y-32559772D01*
X147124505Y-32671716D01*
X147124500Y-32671729D01*
X147064628Y-32882154D01*
X147044443Y-33099999D01*
X147044443Y-33100000D01*
X147064628Y-33317845D01*
X147124500Y-33528270D01*
X147124501Y-33528273D01*
X147124501Y-33528274D01*
X147124505Y-33528283D01*
X147180497Y-33640728D01*
X147192758Y-33709513D01*
X147165885Y-33774008D01*
X147108409Y-33813736D01*
X147069497Y-33820000D01*
X146850659Y-33820000D01*
X146635691Y-33860185D01*
X146431777Y-33939181D01*
X146431770Y-33939185D01*
X146321200Y-34007646D01*
X146321199Y-34007647D01*
X146887744Y-34574191D01*
X146794026Y-34599304D01*
X146695974Y-34655915D01*
X146615915Y-34735974D01*
X146559304Y-34834026D01*
X146534192Y-34927744D01*
X145965418Y-34358970D01*
X145952450Y-34376142D01*
X145952442Y-34376155D01*
X145854970Y-34571905D01*
X145795122Y-34782251D01*
X145774945Y-34999999D01*
X145774945Y-35000000D01*
X145795122Y-35217748D01*
X145854970Y-35428094D01*
X145952442Y-35623845D01*
X145952444Y-35623847D01*
X145965418Y-35641027D01*
X146534191Y-35072254D01*
X146559304Y-35165974D01*
X146615915Y-35264026D01*
X146695974Y-35344085D01*
X146794026Y-35400696D01*
X146887742Y-35425807D01*
X146321199Y-35992351D01*
X146431775Y-36060817D01*
X146436909Y-36063374D01*
X146436073Y-36065051D01*
X146484735Y-36102441D01*
X146508328Y-36168206D01*
X146492621Y-36236288D01*
X146442600Y-36285069D01*
X146384543Y-36299500D01*
X113776670Y-36299500D01*
X113776654Y-36299499D01*
X113769058Y-36299499D01*
X113610943Y-36299499D01*
X113534579Y-36319961D01*
X113458214Y-36340423D01*
X113458209Y-36340426D01*
X113321290Y-36419475D01*
X113321282Y-36419481D01*
X104514840Y-45225923D01*
X104453517Y-45259408D01*
X104386898Y-45255524D01*
X104334981Y-45237702D01*
X104191594Y-45213775D01*
X104106049Y-45199500D01*
X103873951Y-45199500D01*
X103835550Y-45205908D01*
X103645015Y-45237702D01*
X103425504Y-45313061D01*
X103425495Y-45313064D01*
X103221371Y-45423531D01*
X103221365Y-45423535D01*
X103038222Y-45566081D01*
X103038219Y-45566084D01*
X103038216Y-45566086D01*
X103038216Y-45566087D01*
X103013886Y-45592517D01*
X102881016Y-45736852D01*
X102754075Y-45931151D01*
X102660842Y-46143699D01*
X102603866Y-46368691D01*
X102603864Y-46368702D01*
X102584700Y-46599993D01*
X102584700Y-46600006D01*
X102603864Y-46831297D01*
X102603866Y-46831308D01*
X102660842Y-47056300D01*
X102754075Y-47268848D01*
X102881016Y-47463147D01*
X102881019Y-47463151D01*
X102881021Y-47463153D01*
X103038216Y-47633913D01*
X103038219Y-47633915D01*
X103038222Y-47633918D01*
X103221365Y-47776464D01*
X103221371Y-47776468D01*
X103221374Y-47776470D01*
X103425497Y-47886936D01*
X103536263Y-47924962D01*
X103645015Y-47962297D01*
X103645017Y-47962297D01*
X103645019Y-47962298D01*
X103873951Y-48000500D01*
X103873952Y-48000500D01*
X104106048Y-48000500D01*
X104106049Y-48000500D01*
X104334981Y-47962298D01*
X104554503Y-47886936D01*
X104758626Y-47776470D01*
X104783616Y-47757020D01*
X104862581Y-47695559D01*
X104941784Y-47633913D01*
X105098979Y-47463153D01*
X105225924Y-47268849D01*
X105319157Y-47056300D01*
X105376134Y-46831305D01*
X105395300Y-46600000D01*
X105395300Y-46599993D01*
X106394700Y-46599993D01*
X106394700Y-46600006D01*
X106413864Y-46831297D01*
X106413866Y-46831308D01*
X106470842Y-47056300D01*
X106564075Y-47268848D01*
X106691016Y-47463147D01*
X106691019Y-47463151D01*
X106691021Y-47463153D01*
X106848216Y-47633913D01*
X106848219Y-47633915D01*
X106848222Y-47633918D01*
X107031365Y-47776464D01*
X107031371Y-47776468D01*
X107031374Y-47776470D01*
X107235497Y-47886936D01*
X107346263Y-47924962D01*
X107455015Y-47962297D01*
X107455017Y-47962297D01*
X107455019Y-47962298D01*
X107683951Y-48000500D01*
X107683952Y-48000500D01*
X107916048Y-48000500D01*
X107916049Y-48000500D01*
X108144981Y-47962298D01*
X108364503Y-47886936D01*
X108568626Y-47776470D01*
X108593616Y-47757020D01*
X108672581Y-47695559D01*
X108751784Y-47633913D01*
X108908979Y-47463153D01*
X109035924Y-47268849D01*
X109129157Y-47056300D01*
X109186134Y-46831305D01*
X109205300Y-46600000D01*
X109205300Y-46599993D01*
X109186135Y-46368702D01*
X109186133Y-46368691D01*
X109129157Y-46143699D01*
X109035924Y-45931151D01*
X108908983Y-45736852D01*
X108908980Y-45736849D01*
X108908979Y-45736847D01*
X108751784Y-45566087D01*
X108751779Y-45566083D01*
X108751777Y-45566081D01*
X108568634Y-45423535D01*
X108568628Y-45423531D01*
X108364504Y-45313064D01*
X108364495Y-45313061D01*
X108144984Y-45237702D01*
X107973282Y-45209050D01*
X107916049Y-45199500D01*
X107683951Y-45199500D01*
X107645550Y-45205908D01*
X107455015Y-45237702D01*
X107235504Y-45313061D01*
X107235495Y-45313064D01*
X107031371Y-45423531D01*
X107031365Y-45423535D01*
X106848222Y-45566081D01*
X106848219Y-45566084D01*
X106848216Y-45566086D01*
X106848216Y-45566087D01*
X106823886Y-45592517D01*
X106691016Y-45736852D01*
X106564075Y-45931151D01*
X106470842Y-46143699D01*
X106413866Y-46368691D01*
X106413864Y-46368702D01*
X106394700Y-46599993D01*
X105395300Y-46599993D01*
X105376135Y-46368702D01*
X105376131Y-46368682D01*
X105331680Y-46193151D01*
X105334304Y-46123331D01*
X105364202Y-46075031D01*
X113902417Y-37536819D01*
X113963740Y-37503334D01*
X113990098Y-37500500D01*
X119560902Y-37500500D01*
X119627941Y-37520185D01*
X119673696Y-37572989D01*
X119683640Y-37642147D01*
X119654615Y-37705703D01*
X119648583Y-37712181D01*
X112134840Y-45225923D01*
X112073517Y-45259408D01*
X112006898Y-45255524D01*
X111954981Y-45237702D01*
X111811594Y-45213775D01*
X111726049Y-45199500D01*
X111493951Y-45199500D01*
X111455550Y-45205908D01*
X111265015Y-45237702D01*
X111045504Y-45313061D01*
X111045495Y-45313064D01*
X110841371Y-45423531D01*
X110841365Y-45423535D01*
X110658222Y-45566081D01*
X110658219Y-45566084D01*
X110658216Y-45566086D01*
X110658216Y-45566087D01*
X110633886Y-45592517D01*
X110501016Y-45736852D01*
X110374075Y-45931151D01*
X110280842Y-46143699D01*
X110223866Y-46368691D01*
X110223864Y-46368702D01*
X110204700Y-46599993D01*
X110204700Y-46600006D01*
X110223864Y-46831297D01*
X110223866Y-46831308D01*
X110280842Y-47056300D01*
X110374075Y-47268848D01*
X110501016Y-47463147D01*
X110501019Y-47463151D01*
X110501021Y-47463153D01*
X110658216Y-47633913D01*
X110658219Y-47633915D01*
X110658222Y-47633918D01*
X110841365Y-47776464D01*
X110841371Y-47776468D01*
X110841374Y-47776470D01*
X111045497Y-47886936D01*
X111156263Y-47924962D01*
X111265015Y-47962297D01*
X111265017Y-47962297D01*
X111265019Y-47962298D01*
X111493951Y-48000500D01*
X111493952Y-48000500D01*
X111726048Y-48000500D01*
X111726049Y-48000500D01*
X111954981Y-47962298D01*
X112174503Y-47886936D01*
X112378626Y-47776470D01*
X112403616Y-47757020D01*
X112482581Y-47695559D01*
X112561784Y-47633913D01*
X112718979Y-47463153D01*
X112845924Y-47268849D01*
X112939157Y-47056300D01*
X112996134Y-46831305D01*
X113015300Y-46600000D01*
X113015300Y-46599993D01*
X114014700Y-46599993D01*
X114014700Y-46600006D01*
X114033864Y-46831297D01*
X114033866Y-46831308D01*
X114090842Y-47056300D01*
X114184075Y-47268848D01*
X114311016Y-47463147D01*
X114311019Y-47463151D01*
X114311021Y-47463153D01*
X114468216Y-47633913D01*
X114468219Y-47633915D01*
X114468222Y-47633918D01*
X114651365Y-47776464D01*
X114651371Y-47776468D01*
X114651374Y-47776470D01*
X114855497Y-47886936D01*
X114966263Y-47924962D01*
X115075015Y-47962297D01*
X115075017Y-47962297D01*
X115075019Y-47962298D01*
X115303951Y-48000500D01*
X115303952Y-48000500D01*
X115536048Y-48000500D01*
X115536049Y-48000500D01*
X115764981Y-47962298D01*
X115984503Y-47886936D01*
X116188626Y-47776470D01*
X116213616Y-47757020D01*
X116292581Y-47695559D01*
X116371784Y-47633913D01*
X116528979Y-47463153D01*
X116655924Y-47268849D01*
X116749157Y-47056300D01*
X116806134Y-46831305D01*
X116825300Y-46600000D01*
X116825300Y-46599993D01*
X116806135Y-46368702D01*
X116806133Y-46368691D01*
X116749157Y-46143699D01*
X116655924Y-45931151D01*
X116528983Y-45736852D01*
X116528980Y-45736849D01*
X116528979Y-45736847D01*
X116371784Y-45566087D01*
X116371779Y-45566083D01*
X116371777Y-45566081D01*
X116188634Y-45423535D01*
X116188628Y-45423531D01*
X115984504Y-45313064D01*
X115984495Y-45313061D01*
X115764984Y-45237702D01*
X115593282Y-45209050D01*
X115536049Y-45199500D01*
X115303951Y-45199500D01*
X115265550Y-45205908D01*
X115075015Y-45237702D01*
X114855504Y-45313061D01*
X114855495Y-45313064D01*
X114651371Y-45423531D01*
X114651365Y-45423535D01*
X114468222Y-45566081D01*
X114468219Y-45566084D01*
X114468216Y-45566086D01*
X114468216Y-45566087D01*
X114443886Y-45592517D01*
X114311016Y-45736852D01*
X114184075Y-45931151D01*
X114090842Y-46143699D01*
X114033866Y-46368691D01*
X114033864Y-46368702D01*
X114014700Y-46599993D01*
X113015300Y-46599993D01*
X112996135Y-46368702D01*
X112996131Y-46368682D01*
X112951680Y-46193151D01*
X112954304Y-46123331D01*
X112984202Y-46075031D01*
X120422417Y-38636819D01*
X120483740Y-38603334D01*
X120510098Y-38600500D01*
X126080903Y-38600500D01*
X126147942Y-38620185D01*
X126193697Y-38672989D01*
X126203641Y-38742147D01*
X126174616Y-38805703D01*
X126168584Y-38812181D01*
X119754840Y-45225923D01*
X119693517Y-45259408D01*
X119626898Y-45255524D01*
X119574981Y-45237702D01*
X119431594Y-45213775D01*
X119346049Y-45199500D01*
X119113951Y-45199500D01*
X119075550Y-45205908D01*
X118885015Y-45237702D01*
X118665504Y-45313061D01*
X118665495Y-45313064D01*
X118461371Y-45423531D01*
X118461365Y-45423535D01*
X118278222Y-45566081D01*
X118278219Y-45566084D01*
X118278216Y-45566086D01*
X118278216Y-45566087D01*
X118253886Y-45592517D01*
X118121016Y-45736852D01*
X117994075Y-45931151D01*
X117900842Y-46143699D01*
X117843866Y-46368691D01*
X117843864Y-46368702D01*
X117824700Y-46599993D01*
X117824700Y-46600006D01*
X117843864Y-46831297D01*
X117843866Y-46831308D01*
X117900842Y-47056300D01*
X117994075Y-47268848D01*
X118121016Y-47463147D01*
X118121019Y-47463151D01*
X118121021Y-47463153D01*
X118278216Y-47633913D01*
X118278219Y-47633915D01*
X118278222Y-47633918D01*
X118461365Y-47776464D01*
X118461371Y-47776468D01*
X118461374Y-47776470D01*
X118665497Y-47886936D01*
X118776263Y-47924962D01*
X118885015Y-47962297D01*
X118885017Y-47962297D01*
X118885019Y-47962298D01*
X119113951Y-48000500D01*
X119113952Y-48000500D01*
X119346048Y-48000500D01*
X119346049Y-48000500D01*
X119574981Y-47962298D01*
X119794503Y-47886936D01*
X119998626Y-47776470D01*
X120023616Y-47757020D01*
X120102581Y-47695559D01*
X120181784Y-47633913D01*
X120338979Y-47463153D01*
X120465924Y-47268849D01*
X120559157Y-47056300D01*
X120616134Y-46831305D01*
X120635300Y-46600000D01*
X120635300Y-46599993D01*
X121634700Y-46599993D01*
X121634700Y-46600006D01*
X121653864Y-46831297D01*
X121653866Y-46831308D01*
X121710842Y-47056300D01*
X121804075Y-47268848D01*
X121931016Y-47463147D01*
X121931019Y-47463151D01*
X121931021Y-47463153D01*
X122088216Y-47633913D01*
X122088219Y-47633915D01*
X122088222Y-47633918D01*
X122271365Y-47776464D01*
X122271371Y-47776468D01*
X122271374Y-47776470D01*
X122475497Y-47886936D01*
X122586263Y-47924962D01*
X122695015Y-47962297D01*
X122695017Y-47962297D01*
X122695019Y-47962298D01*
X122923951Y-48000500D01*
X122923952Y-48000500D01*
X123156048Y-48000500D01*
X123156049Y-48000500D01*
X123384981Y-47962298D01*
X123604503Y-47886936D01*
X123808626Y-47776470D01*
X123833616Y-47757020D01*
X123912581Y-47695559D01*
X123991784Y-47633913D01*
X124148979Y-47463153D01*
X124275924Y-47268849D01*
X124369157Y-47056300D01*
X124426134Y-46831305D01*
X124445300Y-46600000D01*
X124445300Y-46599993D01*
X124426135Y-46368702D01*
X124426133Y-46368691D01*
X124369157Y-46143699D01*
X124275924Y-45931151D01*
X124148983Y-45736852D01*
X124148980Y-45736849D01*
X124148979Y-45736847D01*
X123991784Y-45566087D01*
X123991779Y-45566083D01*
X123991777Y-45566081D01*
X123808634Y-45423535D01*
X123808628Y-45423531D01*
X123604504Y-45313064D01*
X123604495Y-45313061D01*
X123384984Y-45237702D01*
X123213282Y-45209050D01*
X123156049Y-45199500D01*
X122923951Y-45199500D01*
X122885550Y-45205908D01*
X122695015Y-45237702D01*
X122475504Y-45313061D01*
X122475495Y-45313064D01*
X122271371Y-45423531D01*
X122271365Y-45423535D01*
X122088222Y-45566081D01*
X122088219Y-45566084D01*
X122088216Y-45566086D01*
X122088216Y-45566087D01*
X122063886Y-45592517D01*
X121931016Y-45736852D01*
X121804075Y-45931151D01*
X121710842Y-46143699D01*
X121653866Y-46368691D01*
X121653864Y-46368702D01*
X121634700Y-46599993D01*
X120635300Y-46599993D01*
X120616135Y-46368702D01*
X120616131Y-46368682D01*
X120571680Y-46193151D01*
X120574304Y-46123331D01*
X120604202Y-46075031D01*
X127642416Y-39036819D01*
X127703739Y-39003334D01*
X127730097Y-39000500D01*
X133300902Y-39000500D01*
X133367941Y-39020185D01*
X133413696Y-39072989D01*
X133423640Y-39142147D01*
X133394615Y-39205703D01*
X133388583Y-39212181D01*
X127374840Y-45225923D01*
X127313517Y-45259408D01*
X127246898Y-45255524D01*
X127194981Y-45237702D01*
X127051594Y-45213775D01*
X126966049Y-45199500D01*
X126733951Y-45199500D01*
X126695550Y-45205908D01*
X126505015Y-45237702D01*
X126285504Y-45313061D01*
X126285495Y-45313064D01*
X126081371Y-45423531D01*
X126081365Y-45423535D01*
X125898222Y-45566081D01*
X125898219Y-45566084D01*
X125898216Y-45566086D01*
X125898216Y-45566087D01*
X125873886Y-45592517D01*
X125741016Y-45736852D01*
X125614075Y-45931151D01*
X125520842Y-46143699D01*
X125463866Y-46368691D01*
X125463864Y-46368702D01*
X125444700Y-46599993D01*
X125444700Y-46600006D01*
X125463864Y-46831297D01*
X125463866Y-46831308D01*
X125520842Y-47056300D01*
X125614075Y-47268848D01*
X125741016Y-47463147D01*
X125741019Y-47463151D01*
X125741021Y-47463153D01*
X125898216Y-47633913D01*
X125898219Y-47633915D01*
X125898222Y-47633918D01*
X126081365Y-47776464D01*
X126081371Y-47776468D01*
X126081374Y-47776470D01*
X126285497Y-47886936D01*
X126396263Y-47924962D01*
X126505015Y-47962297D01*
X126505017Y-47962297D01*
X126505019Y-47962298D01*
X126733951Y-48000500D01*
X126733952Y-48000500D01*
X126966048Y-48000500D01*
X126966049Y-48000500D01*
X127194981Y-47962298D01*
X127414503Y-47886936D01*
X127618626Y-47776470D01*
X127643616Y-47757020D01*
X127722581Y-47695559D01*
X127801784Y-47633913D01*
X127958979Y-47463153D01*
X128085924Y-47268849D01*
X128179157Y-47056300D01*
X128236134Y-46831305D01*
X128255300Y-46600000D01*
X128255300Y-46599993D01*
X129254700Y-46599993D01*
X129254700Y-46600006D01*
X129273864Y-46831297D01*
X129273866Y-46831308D01*
X129330842Y-47056300D01*
X129424075Y-47268848D01*
X129551016Y-47463147D01*
X129551019Y-47463151D01*
X129551021Y-47463153D01*
X129708216Y-47633913D01*
X129708219Y-47633915D01*
X129708222Y-47633918D01*
X129891365Y-47776464D01*
X129891371Y-47776468D01*
X129891374Y-47776470D01*
X130095497Y-47886936D01*
X130206263Y-47924962D01*
X130315015Y-47962297D01*
X130315017Y-47962297D01*
X130315019Y-47962298D01*
X130543951Y-48000500D01*
X130543952Y-48000500D01*
X130776048Y-48000500D01*
X130776049Y-48000500D01*
X131004981Y-47962298D01*
X131224503Y-47886936D01*
X131428626Y-47776470D01*
X131453616Y-47757020D01*
X131532581Y-47695559D01*
X131611784Y-47633913D01*
X131768979Y-47463153D01*
X131895924Y-47268849D01*
X131989157Y-47056300D01*
X132046134Y-46831305D01*
X132065300Y-46600000D01*
X132065300Y-46599993D01*
X132046135Y-46368702D01*
X132046133Y-46368691D01*
X131989157Y-46143699D01*
X131895924Y-45931151D01*
X131768983Y-45736852D01*
X131768980Y-45736849D01*
X131768979Y-45736847D01*
X131611784Y-45566087D01*
X131611779Y-45566083D01*
X131611777Y-45566081D01*
X131428634Y-45423535D01*
X131428628Y-45423531D01*
X131224504Y-45313064D01*
X131224495Y-45313061D01*
X131004984Y-45237702D01*
X130833282Y-45209050D01*
X130776049Y-45199500D01*
X130543951Y-45199500D01*
X130505550Y-45205908D01*
X130315015Y-45237702D01*
X130095504Y-45313061D01*
X130095495Y-45313064D01*
X129891371Y-45423531D01*
X129891365Y-45423535D01*
X129708222Y-45566081D01*
X129708219Y-45566084D01*
X129708216Y-45566086D01*
X129708216Y-45566087D01*
X129683886Y-45592517D01*
X129551016Y-45736852D01*
X129424075Y-45931151D01*
X129330842Y-46143699D01*
X129273866Y-46368691D01*
X129273864Y-46368702D01*
X129254700Y-46599993D01*
X128255300Y-46599993D01*
X128236135Y-46368702D01*
X128236131Y-46368682D01*
X128191680Y-46193151D01*
X128194304Y-46123331D01*
X128224202Y-46075031D01*
X134862417Y-39436819D01*
X134923740Y-39403334D01*
X134950098Y-39400500D01*
X140520903Y-39400500D01*
X140587942Y-39420185D01*
X140633697Y-39472989D01*
X140643641Y-39542147D01*
X140614616Y-39605703D01*
X140608584Y-39612181D01*
X134994840Y-45225923D01*
X134933517Y-45259408D01*
X134866898Y-45255524D01*
X134814981Y-45237702D01*
X134671594Y-45213775D01*
X134586049Y-45199500D01*
X134353951Y-45199500D01*
X134315550Y-45205908D01*
X134125015Y-45237702D01*
X133905504Y-45313061D01*
X133905495Y-45313064D01*
X133701371Y-45423531D01*
X133701365Y-45423535D01*
X133518222Y-45566081D01*
X133518219Y-45566084D01*
X133518216Y-45566086D01*
X133518216Y-45566087D01*
X133493886Y-45592517D01*
X133361016Y-45736852D01*
X133234075Y-45931151D01*
X133140842Y-46143699D01*
X133083866Y-46368691D01*
X133083864Y-46368702D01*
X133064700Y-46599993D01*
X133064700Y-46600006D01*
X133083864Y-46831297D01*
X133083866Y-46831308D01*
X133140842Y-47056300D01*
X133234075Y-47268848D01*
X133361016Y-47463147D01*
X133361019Y-47463151D01*
X133361021Y-47463153D01*
X133518216Y-47633913D01*
X133518219Y-47633915D01*
X133518222Y-47633918D01*
X133701365Y-47776464D01*
X133701371Y-47776468D01*
X133701374Y-47776470D01*
X133905497Y-47886936D01*
X134016263Y-47924962D01*
X134125015Y-47962297D01*
X134125017Y-47962297D01*
X134125019Y-47962298D01*
X134353951Y-48000500D01*
X134353952Y-48000500D01*
X134586048Y-48000500D01*
X134586049Y-48000500D01*
X134814981Y-47962298D01*
X135034503Y-47886936D01*
X135238626Y-47776470D01*
X135263616Y-47757020D01*
X135342581Y-47695559D01*
X135421784Y-47633913D01*
X135578979Y-47463153D01*
X135705924Y-47268849D01*
X135799157Y-47056300D01*
X135856134Y-46831305D01*
X135875300Y-46600000D01*
X135875300Y-46599993D01*
X135856135Y-46368702D01*
X135856131Y-46368682D01*
X135811680Y-46193151D01*
X135814304Y-46123331D01*
X135844202Y-46075031D01*
X142082416Y-39836819D01*
X142143739Y-39803334D01*
X142170097Y-39800500D01*
X143388158Y-39800500D01*
X143455197Y-39820185D01*
X143500952Y-39872989D01*
X143510896Y-39942147D01*
X143481871Y-40005703D01*
X143475839Y-40012181D01*
X139519481Y-43968538D01*
X139519479Y-43968541D01*
X139501367Y-43999912D01*
X139483255Y-44031284D01*
X139451255Y-44086709D01*
X139444678Y-44098102D01*
X139440423Y-44105471D01*
X139399499Y-44258199D01*
X139399499Y-44258200D01*
X139399499Y-44426302D01*
X139399500Y-44426315D01*
X139399500Y-45442979D01*
X139379815Y-45510018D01*
X139327011Y-45555773D01*
X139257853Y-45565717D01*
X139199338Y-45540833D01*
X139102913Y-45465783D01*
X139048626Y-45423530D01*
X138898811Y-45342454D01*
X138844504Y-45313064D01*
X138844495Y-45313061D01*
X138624984Y-45237702D01*
X138453282Y-45209050D01*
X138396049Y-45199500D01*
X138163951Y-45199500D01*
X138125550Y-45205908D01*
X137935015Y-45237702D01*
X137715504Y-45313061D01*
X137715495Y-45313064D01*
X137511371Y-45423531D01*
X137511365Y-45423535D01*
X137328222Y-45566081D01*
X137328219Y-45566084D01*
X137328216Y-45566086D01*
X137328216Y-45566087D01*
X137303886Y-45592517D01*
X137171016Y-45736852D01*
X137044075Y-45931151D01*
X136950842Y-46143699D01*
X136893866Y-46368691D01*
X136893864Y-46368702D01*
X136874700Y-46599993D01*
X136874700Y-46600006D01*
X136893864Y-46831297D01*
X136893866Y-46831308D01*
X136950842Y-47056300D01*
X137044075Y-47268848D01*
X137171016Y-47463147D01*
X137171019Y-47463151D01*
X137171021Y-47463153D01*
X137328216Y-47633913D01*
X137328219Y-47633915D01*
X137328222Y-47633918D01*
X137511365Y-47776464D01*
X137511371Y-47776468D01*
X137511374Y-47776470D01*
X137715497Y-47886936D01*
X137826263Y-47924962D01*
X137935015Y-47962297D01*
X137935017Y-47962297D01*
X137935019Y-47962298D01*
X138163951Y-48000500D01*
X138163952Y-48000500D01*
X138396048Y-48000500D01*
X138396049Y-48000500D01*
X138624981Y-47962298D01*
X138844503Y-47886936D01*
X139048626Y-47776470D01*
X139048634Y-47776464D01*
X139199338Y-47659167D01*
X139264332Y-47633524D01*
X139332872Y-47647090D01*
X139383196Y-47695559D01*
X139399500Y-47757020D01*
X139399500Y-51869902D01*
X139379815Y-51936941D01*
X139363181Y-51957583D01*
X137457584Y-53863181D01*
X137396261Y-53896666D01*
X137369903Y-53899500D01*
X105059057Y-53899500D01*
X104900943Y-53899500D01*
X104748215Y-53940423D01*
X104748214Y-53940423D01*
X104748212Y-53940424D01*
X104748209Y-53940425D01*
X104698096Y-53969359D01*
X104698095Y-53969360D01*
X104670280Y-53985419D01*
X104611285Y-54019479D01*
X104611282Y-54019481D01*
X104499478Y-54131286D01*
X100704840Y-57925923D01*
X100643517Y-57959408D01*
X100576898Y-57955524D01*
X100524981Y-57937702D01*
X100395641Y-57916119D01*
X100296049Y-57899500D01*
X100063951Y-57899500D01*
X100018164Y-57907140D01*
X99835015Y-57937702D01*
X99615504Y-58013061D01*
X99615495Y-58013064D01*
X99411371Y-58123531D01*
X99411365Y-58123535D01*
X99228222Y-58266081D01*
X99228219Y-58266084D01*
X99228216Y-58266086D01*
X99228216Y-58266087D01*
X99191747Y-58305703D01*
X99071016Y-58436852D01*
X98944075Y-58631151D01*
X98850842Y-58843699D01*
X98793866Y-59068691D01*
X98793864Y-59068702D01*
X98774700Y-59299993D01*
X97775300Y-59299993D01*
X97756135Y-59068702D01*
X97756133Y-59068691D01*
X97699157Y-58843699D01*
X97605924Y-58631151D01*
X97478983Y-58436852D01*
X97478980Y-58436849D01*
X97478979Y-58436847D01*
X97321784Y-58266087D01*
X97321779Y-58266083D01*
X97321777Y-58266081D01*
X97138634Y-58123535D01*
X97138628Y-58123531D01*
X96934504Y-58013064D01*
X96934495Y-58013061D01*
X96714984Y-57937702D01*
X96543282Y-57909050D01*
X96486049Y-57899500D01*
X96253951Y-57899500D01*
X96208164Y-57907140D01*
X96025015Y-57937702D01*
X95805504Y-58013061D01*
X95805495Y-58013064D01*
X95601371Y-58123531D01*
X95601365Y-58123535D01*
X95418222Y-58266081D01*
X95418219Y-58266084D01*
X95418216Y-58266086D01*
X95418216Y-58266087D01*
X95381747Y-58305703D01*
X95261016Y-58436852D01*
X95134075Y-58631151D01*
X95040842Y-58843699D01*
X94983866Y-59068691D01*
X94983864Y-59068702D01*
X94964700Y-59299993D01*
X83100500Y-59299993D01*
X83100500Y-45652135D01*
X94969500Y-45652135D01*
X94969500Y-47547870D01*
X94969501Y-47547876D01*
X94975908Y-47607483D01*
X95026202Y-47742328D01*
X95026206Y-47742335D01*
X95112452Y-47857544D01*
X95112455Y-47857547D01*
X95227664Y-47943793D01*
X95227671Y-47943797D01*
X95362517Y-47994091D01*
X95362516Y-47994091D01*
X95369444Y-47994835D01*
X95422127Y-48000500D01*
X97317872Y-48000499D01*
X97377483Y-47994091D01*
X97512331Y-47943796D01*
X97627546Y-47857546D01*
X97713796Y-47742331D01*
X97764091Y-47607483D01*
X97770500Y-47547873D01*
X97770499Y-46599993D01*
X98774700Y-46599993D01*
X98774700Y-46600006D01*
X98793864Y-46831297D01*
X98793866Y-46831308D01*
X98850842Y-47056300D01*
X98944075Y-47268848D01*
X99071016Y-47463147D01*
X99071019Y-47463151D01*
X99071021Y-47463153D01*
X99228216Y-47633913D01*
X99228219Y-47633915D01*
X99228222Y-47633918D01*
X99411365Y-47776464D01*
X99411371Y-47776468D01*
X99411374Y-47776470D01*
X99615497Y-47886936D01*
X99726263Y-47924962D01*
X99835015Y-47962297D01*
X99835017Y-47962297D01*
X99835019Y-47962298D01*
X100063951Y-48000500D01*
X100063952Y-48000500D01*
X100296048Y-48000500D01*
X100296049Y-48000500D01*
X100524981Y-47962298D01*
X100744503Y-47886936D01*
X100948626Y-47776470D01*
X100973616Y-47757020D01*
X101052581Y-47695559D01*
X101131784Y-47633913D01*
X101288979Y-47463153D01*
X101415924Y-47268849D01*
X101509157Y-47056300D01*
X101566134Y-46831305D01*
X101585300Y-46600000D01*
X101585300Y-46599993D01*
X101566135Y-46368702D01*
X101566133Y-46368691D01*
X101509157Y-46143699D01*
X101415924Y-45931151D01*
X101288983Y-45736852D01*
X101288980Y-45736849D01*
X101288979Y-45736847D01*
X101131784Y-45566087D01*
X101131779Y-45566083D01*
X101131777Y-45566081D01*
X100948634Y-45423535D01*
X100948628Y-45423531D01*
X100744504Y-45313064D01*
X100744495Y-45313061D01*
X100524984Y-45237702D01*
X100353282Y-45209050D01*
X100296049Y-45199500D01*
X100063951Y-45199500D01*
X100025550Y-45205908D01*
X99835015Y-45237702D01*
X99615504Y-45313061D01*
X99615495Y-45313064D01*
X99411371Y-45423531D01*
X99411365Y-45423535D01*
X99228222Y-45566081D01*
X99228219Y-45566084D01*
X99228216Y-45566086D01*
X99228216Y-45566087D01*
X99203886Y-45592517D01*
X99071016Y-45736852D01*
X98944075Y-45931151D01*
X98850842Y-46143699D01*
X98793866Y-46368691D01*
X98793864Y-46368702D01*
X98774700Y-46599993D01*
X97770499Y-46599993D01*
X97770499Y-45652128D01*
X97764091Y-45592517D01*
X97754233Y-45566087D01*
X97713797Y-45457671D01*
X97713793Y-45457664D01*
X97627547Y-45342455D01*
X97627544Y-45342452D01*
X97512335Y-45256206D01*
X97512328Y-45256202D01*
X97377482Y-45205908D01*
X97377483Y-45205908D01*
X97317883Y-45199501D01*
X97317881Y-45199500D01*
X97317873Y-45199500D01*
X97317864Y-45199500D01*
X95422129Y-45199500D01*
X95422123Y-45199501D01*
X95362516Y-45205908D01*
X95227671Y-45256202D01*
X95227664Y-45256206D01*
X95112455Y-45342452D01*
X95112452Y-45342455D01*
X95026206Y-45457664D01*
X95026202Y-45457671D01*
X94975908Y-45592517D01*
X94974192Y-45608483D01*
X94969501Y-45652123D01*
X94969500Y-45652135D01*
X83100500Y-45652135D01*
X83100500Y-33100000D01*
X136980229Y-33100000D01*
X136999293Y-33415171D01*
X137056208Y-33725755D01*
X137150140Y-34027192D01*
X137150144Y-34027203D01*
X137279735Y-34315145D01*
X137443085Y-34585358D01*
X137580584Y-34760861D01*
X138436772Y-33904672D01*
X138519512Y-34018553D01*
X138676447Y-34175488D01*
X138790326Y-34258225D01*
X137934137Y-35114414D01*
X137934137Y-35114415D01*
X138109641Y-35251914D01*
X138379854Y-35415264D01*
X138667796Y-35544855D01*
X138667807Y-35544859D01*
X138969244Y-35638791D01*
X139279828Y-35695706D01*
X139595000Y-35714770D01*
X139910171Y-35695706D01*
X140220755Y-35638791D01*
X140522192Y-35544859D01*
X140522203Y-35544855D01*
X140810145Y-35415264D01*
X141080358Y-35251914D01*
X141255861Y-35114415D01*
X141255861Y-35114414D01*
X140399673Y-34258226D01*
X140513553Y-34175488D01*
X140670488Y-34018553D01*
X140753226Y-33904673D01*
X141609414Y-34760861D01*
X141609415Y-34760861D01*
X141746914Y-34585358D01*
X141910264Y-34315145D01*
X142039855Y-34027203D01*
X142039859Y-34027192D01*
X142133791Y-33725755D01*
X142190706Y-33415171D01*
X142209770Y-33100000D01*
X142190706Y-32784828D01*
X142133791Y-32474244D01*
X142039859Y-32172807D01*
X142039855Y-32172796D01*
X141910264Y-31884854D01*
X141746914Y-31614641D01*
X141609414Y-31439137D01*
X140753225Y-32295325D01*
X140670488Y-32181447D01*
X140513553Y-32024512D01*
X140399673Y-31941773D01*
X141255861Y-31085584D01*
X141255861Y-31085583D01*
X141080358Y-30948085D01*
X140810145Y-30784735D01*
X140522203Y-30655144D01*
X140522192Y-30655140D01*
X140220755Y-30561208D01*
X139910171Y-30504293D01*
X139595000Y-30485229D01*
X139279828Y-30504293D01*
X138969244Y-30561208D01*
X138667807Y-30655140D01*
X138667796Y-30655144D01*
X138379854Y-30784735D01*
X138109636Y-30948089D01*
X137934137Y-31085583D01*
X137934137Y-31085584D01*
X138790326Y-31941773D01*
X138676447Y-32024512D01*
X138519512Y-32181447D01*
X138436773Y-32295326D01*
X137580584Y-31439137D01*
X137580583Y-31439137D01*
X137443089Y-31614636D01*
X137279735Y-31884854D01*
X137150144Y-32172796D01*
X137150140Y-32172807D01*
X137056208Y-32474244D01*
X136999293Y-32784828D01*
X136980229Y-33100000D01*
X83100500Y-33100000D01*
X83100500Y-28624500D01*
X83120185Y-28557461D01*
X83172989Y-28511706D01*
X83224500Y-28500500D01*
X251975500Y-28500500D01*
X252042539Y-28520185D01*
G37*
%TD.AperFunction*%
%TD*%
M02*
