%TF.GenerationSoftware,KiCad,Pcbnew,8.0.4*%
%TF.CreationDate,2024-08-09T21:07:46+01:00*%
%TF.ProjectId,PULSAR-BREAKOUT-01,50554c53-4152-42d4-9252-45414b4f5554,rev?*%
%TF.SameCoordinates,Original*%
%TF.FileFunction,Legend,Top*%
%TF.FilePolarity,Positive*%
%FSLAX46Y46*%
G04 Gerber Fmt 4.6, Leading zero omitted, Abs format (unit mm)*
G04 Created by KiCad (PCBNEW 8.0.4) date 2024-08-09 21:07:46*
%MOMM*%
%LPD*%
G01*
G04 APERTURE LIST*
%ADD10C,0.000000*%
%ADD11C,0.150000*%
%ADD12C,0.254000*%
%ADD13C,0.200000*%
%ADD14C,0.127000*%
G04 APERTURE END LIST*
D10*
G36*
X221752510Y-35828569D02*
G01*
X221774589Y-35829875D01*
X221795789Y-35832022D01*
X221816149Y-35834985D01*
X221835708Y-35838739D01*
X221854505Y-35843260D01*
X221872581Y-35848522D01*
X221889974Y-35854500D01*
X221906724Y-35861171D01*
X221922870Y-35868509D01*
X221938452Y-35876490D01*
X221953508Y-35885088D01*
X221968079Y-35894280D01*
X221982203Y-35904039D01*
X221995920Y-35914342D01*
X222009270Y-35925164D01*
X221920766Y-36029106D01*
X221910208Y-36021889D01*
X221899588Y-36014987D01*
X221888880Y-36008421D01*
X221878058Y-36002211D01*
X221867095Y-35996378D01*
X221855964Y-35990944D01*
X221844639Y-35985928D01*
X221833092Y-35981352D01*
X221821297Y-35977236D01*
X221809228Y-35973601D01*
X221796857Y-35970469D01*
X221784159Y-35967859D01*
X221771106Y-35965793D01*
X221757672Y-35964292D01*
X221743829Y-35963376D01*
X221729552Y-35963066D01*
X221721167Y-35963172D01*
X221713130Y-35963489D01*
X221705437Y-35964011D01*
X221698081Y-35964734D01*
X221691057Y-35965654D01*
X221684360Y-35966767D01*
X221677985Y-35968067D01*
X221671926Y-35969551D01*
X221666178Y-35971214D01*
X221660735Y-35973052D01*
X221655592Y-35975060D01*
X221650744Y-35977235D01*
X221646185Y-35979571D01*
X221641909Y-35982064D01*
X221637912Y-35984709D01*
X221634188Y-35987503D01*
X221630731Y-35990441D01*
X221627537Y-35993519D01*
X221624599Y-35996732D01*
X221621912Y-36000075D01*
X221619472Y-36003545D01*
X221617272Y-36007137D01*
X221615307Y-36010846D01*
X221613572Y-36014668D01*
X221612061Y-36018599D01*
X221610770Y-36022635D01*
X221609691Y-36026770D01*
X221608821Y-36031001D01*
X221608154Y-36035323D01*
X221607684Y-36039731D01*
X221607406Y-36044222D01*
X221607314Y-36048791D01*
X221607584Y-36054581D01*
X221608420Y-36060335D01*
X221609860Y-36066015D01*
X221611944Y-36071584D01*
X221614712Y-36077005D01*
X221618202Y-36082241D01*
X221622453Y-36087255D01*
X221624877Y-36089667D01*
X221627506Y-36092010D01*
X221630344Y-36094280D01*
X221633398Y-36096470D01*
X221636671Y-36098577D01*
X221640169Y-36100597D01*
X221643897Y-36102524D01*
X221647859Y-36104354D01*
X221656506Y-36107704D01*
X221666150Y-36110611D01*
X221676830Y-36113037D01*
X221688584Y-36114946D01*
X221701453Y-36116299D01*
X221819524Y-36124674D01*
X221833106Y-36125829D01*
X221846174Y-36127445D01*
X221858733Y-36129509D01*
X221870790Y-36132012D01*
X221882348Y-36134944D01*
X221893414Y-36138294D01*
X221903994Y-36142051D01*
X221914092Y-36146206D01*
X221923713Y-36150748D01*
X221932865Y-36155667D01*
X221941551Y-36160952D01*
X221949777Y-36166593D01*
X221957549Y-36172581D01*
X221964872Y-36178903D01*
X221971752Y-36185551D01*
X221978194Y-36192514D01*
X221984204Y-36199781D01*
X221989786Y-36207343D01*
X221994947Y-36215188D01*
X221999691Y-36223307D01*
X222004025Y-36231689D01*
X222007953Y-36240324D01*
X222011481Y-36249202D01*
X222014615Y-36258312D01*
X222017360Y-36267643D01*
X222019721Y-36277187D01*
X222023314Y-36296867D01*
X222025438Y-36317269D01*
X222026137Y-36338311D01*
X222025761Y-36351186D01*
X222024644Y-36363711D01*
X222022804Y-36375881D01*
X222020257Y-36387694D01*
X222017020Y-36399145D01*
X222013111Y-36410231D01*
X222008546Y-36420948D01*
X222003342Y-36431291D01*
X221997516Y-36441257D01*
X221991086Y-36450842D01*
X221984068Y-36460043D01*
X221976479Y-36468855D01*
X221968336Y-36477275D01*
X221959656Y-36485299D01*
X221950457Y-36492922D01*
X221940754Y-36500142D01*
X221930566Y-36506953D01*
X221919909Y-36513354D01*
X221897255Y-36524904D01*
X221872930Y-36534761D01*
X221847069Y-36542895D01*
X221819807Y-36549276D01*
X221791282Y-36553871D01*
X221761628Y-36556651D01*
X221730981Y-36557584D01*
X221709472Y-36557089D01*
X221688170Y-36555604D01*
X221667085Y-36553126D01*
X221646230Y-36549653D01*
X221625612Y-36545183D01*
X221605244Y-36539715D01*
X221585135Y-36533246D01*
X221565296Y-36525775D01*
X221545736Y-36517298D01*
X221526467Y-36507816D01*
X221507499Y-36497325D01*
X221488841Y-36485823D01*
X221470505Y-36473309D01*
X221452501Y-36459780D01*
X221434839Y-36445235D01*
X221417529Y-36429671D01*
X221517304Y-36331326D01*
X221528969Y-36342319D01*
X221540799Y-36352615D01*
X221552827Y-36362213D01*
X221565086Y-36371111D01*
X221577609Y-36379307D01*
X221590428Y-36386800D01*
X221603577Y-36393587D01*
X221617088Y-36399667D01*
X221630995Y-36405039D01*
X221645329Y-36409700D01*
X221660125Y-36413648D01*
X221675415Y-36416883D01*
X221691232Y-36419402D01*
X221707609Y-36421203D01*
X221724578Y-36422285D01*
X221742173Y-36422646D01*
X221749745Y-36422556D01*
X221757179Y-36422285D01*
X221764468Y-36421833D01*
X221771607Y-36421201D01*
X221778587Y-36420390D01*
X221785402Y-36419398D01*
X221792046Y-36418227D01*
X221798511Y-36416877D01*
X221804792Y-36415348D01*
X221810881Y-36413640D01*
X221816772Y-36411754D01*
X221822457Y-36409689D01*
X221827931Y-36407447D01*
X221833186Y-36405026D01*
X221838216Y-36402428D01*
X221843014Y-36399652D01*
X221847573Y-36396700D01*
X221851887Y-36393571D01*
X221855949Y-36390265D01*
X221859752Y-36386782D01*
X221863289Y-36383124D01*
X221866554Y-36379290D01*
X221869540Y-36375280D01*
X221872240Y-36371094D01*
X221874647Y-36366734D01*
X221876756Y-36362198D01*
X221878558Y-36357488D01*
X221880048Y-36352604D01*
X221881218Y-36347545D01*
X221882063Y-36342312D01*
X221882574Y-36336906D01*
X221882746Y-36331326D01*
X221882636Y-36326684D01*
X221882309Y-36322243D01*
X221881769Y-36318000D01*
X221881022Y-36313949D01*
X221880072Y-36310086D01*
X221878924Y-36306406D01*
X221877583Y-36302907D01*
X221876055Y-36299582D01*
X221874343Y-36296428D01*
X221872453Y-36293441D01*
X221870389Y-36290616D01*
X221868157Y-36287949D01*
X221865761Y-36285435D01*
X221863206Y-36283070D01*
X221860497Y-36280850D01*
X221857639Y-36278770D01*
X221854637Y-36276826D01*
X221851495Y-36275014D01*
X221844812Y-36271768D01*
X221837631Y-36268996D01*
X221829988Y-36266664D01*
X221821925Y-36264737D01*
X221813478Y-36263180D01*
X221804688Y-36261959D01*
X221795592Y-36261039D01*
X221669069Y-36249807D01*
X221647313Y-36247255D01*
X221626364Y-36243298D01*
X221616218Y-36240796D01*
X221606304Y-36237948D01*
X221596633Y-36234755D01*
X221587214Y-36231219D01*
X221578060Y-36227340D01*
X221569178Y-36223122D01*
X221560581Y-36218564D01*
X221552278Y-36213670D01*
X221544280Y-36208440D01*
X221536596Y-36202876D01*
X221529238Y-36196980D01*
X221522215Y-36190752D01*
X221515538Y-36184196D01*
X221509217Y-36177311D01*
X221503262Y-36170101D01*
X221497685Y-36162566D01*
X221492494Y-36154708D01*
X221487700Y-36146529D01*
X221483314Y-36138029D01*
X221479346Y-36129212D01*
X221475807Y-36120077D01*
X221472705Y-36110628D01*
X221470053Y-36100865D01*
X221467860Y-36090790D01*
X221466136Y-36080404D01*
X221464892Y-36069710D01*
X221464138Y-36058708D01*
X221463884Y-36047401D01*
X221464219Y-36034034D01*
X221465215Y-36021079D01*
X221466857Y-36008538D01*
X221469130Y-35996411D01*
X221472020Y-35984699D01*
X221475512Y-35973403D01*
X221479591Y-35962523D01*
X221484242Y-35952060D01*
X221489452Y-35942016D01*
X221495204Y-35932390D01*
X221501486Y-35923184D01*
X221508281Y-35914398D01*
X221515575Y-35906033D01*
X221523354Y-35898090D01*
X221531603Y-35890569D01*
X221540308Y-35883472D01*
X221549452Y-35876799D01*
X221559023Y-35870551D01*
X221569005Y-35864729D01*
X221579383Y-35859333D01*
X221590143Y-35854364D01*
X221601271Y-35849824D01*
X221624568Y-35842030D01*
X221649159Y-35835957D01*
X221674925Y-35831612D01*
X221701748Y-35829000D01*
X221729513Y-35828128D01*
X221752510Y-35828569D01*
G37*
G36*
X218679049Y-35828187D02*
G01*
X218689064Y-35828596D01*
X218698824Y-35829267D01*
X218708330Y-35830188D01*
X218717586Y-35831353D01*
X218726595Y-35832749D01*
X218735362Y-35834369D01*
X218743888Y-35836202D01*
X218752178Y-35838239D01*
X218760235Y-35840470D01*
X218768062Y-35842886D01*
X218775662Y-35845478D01*
X218783039Y-35848235D01*
X218790196Y-35851149D01*
X218797137Y-35854210D01*
X218803864Y-35857407D01*
X218816693Y-35864176D01*
X218828708Y-35871379D01*
X218839938Y-35878940D01*
X218850408Y-35886783D01*
X218860146Y-35894832D01*
X218869177Y-35903010D01*
X218877529Y-35911241D01*
X218885228Y-35919448D01*
X218895129Y-35930788D01*
X218904286Y-35942235D01*
X218912716Y-35953928D01*
X218920431Y-35966008D01*
X218927446Y-35978615D01*
X218933776Y-35991889D01*
X218939435Y-36005970D01*
X218944437Y-36020999D01*
X218948797Y-36037115D01*
X218952529Y-36054458D01*
X218955648Y-36073169D01*
X218958167Y-36093388D01*
X218960102Y-36115254D01*
X218961466Y-36138909D01*
X218962274Y-36164491D01*
X218962540Y-36192142D01*
X218962274Y-36220024D01*
X218961466Y-36245810D01*
X218960102Y-36269644D01*
X218958167Y-36291665D01*
X218955648Y-36312017D01*
X218952529Y-36330840D01*
X218948797Y-36348277D01*
X218944437Y-36364470D01*
X218939435Y-36379560D01*
X218933776Y-36393689D01*
X218927446Y-36406999D01*
X218920431Y-36419631D01*
X218912716Y-36431728D01*
X218904286Y-36443431D01*
X218895129Y-36454883D01*
X218885228Y-36466224D01*
X218877529Y-36474430D01*
X218869177Y-36482659D01*
X218860146Y-36490833D01*
X218850408Y-36498876D01*
X218839938Y-36506713D01*
X218828708Y-36514268D01*
X218816693Y-36521464D01*
X218803864Y-36528225D01*
X218790196Y-36534476D01*
X218775662Y-36540140D01*
X218760235Y-36545141D01*
X218743888Y-36549403D01*
X218726595Y-36552851D01*
X218708330Y-36555407D01*
X218689064Y-36556997D01*
X218668773Y-36557544D01*
X218658494Y-36557406D01*
X218648474Y-36556997D01*
X218638712Y-36556328D01*
X218629203Y-36555407D01*
X218619944Y-36554245D01*
X218610932Y-36552851D01*
X218602163Y-36551234D01*
X218593635Y-36549403D01*
X218585343Y-36547369D01*
X218577284Y-36545141D01*
X218569456Y-36542728D01*
X218561854Y-36540140D01*
X218554475Y-36537386D01*
X218547317Y-36534476D01*
X218540375Y-36531419D01*
X218533647Y-36528225D01*
X218520817Y-36521464D01*
X218508800Y-36514268D01*
X218497569Y-36506713D01*
X218487098Y-36498876D01*
X218477361Y-36490833D01*
X218468329Y-36482659D01*
X218459977Y-36474430D01*
X218452278Y-36466224D01*
X218442378Y-36454883D01*
X218433221Y-36443433D01*
X218424794Y-36431731D01*
X218417082Y-36419637D01*
X218410069Y-36407007D01*
X218403743Y-36393699D01*
X218398087Y-36379572D01*
X218393089Y-36364485D01*
X218388732Y-36348294D01*
X218385004Y-36330857D01*
X218381889Y-36312034D01*
X218379372Y-36291682D01*
X218377440Y-36269658D01*
X218376078Y-36245822D01*
X218375272Y-36220030D01*
X218375006Y-36192142D01*
X218518357Y-36192142D01*
X218518459Y-36210776D01*
X218518773Y-36227757D01*
X218519313Y-36243208D01*
X218520095Y-36257256D01*
X218521133Y-36270028D01*
X218522440Y-36281648D01*
X218524032Y-36292242D01*
X218525923Y-36301937D01*
X218528126Y-36310858D01*
X218530657Y-36319131D01*
X218533529Y-36326881D01*
X218536758Y-36334235D01*
X218540357Y-36341319D01*
X218544341Y-36348257D01*
X218548724Y-36355176D01*
X218553520Y-36362203D01*
X218557747Y-36367660D01*
X218562505Y-36372927D01*
X218567765Y-36377984D01*
X218573499Y-36382806D01*
X218579677Y-36387372D01*
X218586272Y-36391659D01*
X218593254Y-36395644D01*
X218600595Y-36399306D01*
X218608265Y-36402621D01*
X218616236Y-36405566D01*
X218624480Y-36408121D01*
X218632967Y-36410261D01*
X218641668Y-36411965D01*
X218650556Y-36413210D01*
X218659600Y-36413974D01*
X218668773Y-36414233D01*
X218677939Y-36413973D01*
X218686977Y-36413209D01*
X218695859Y-36411962D01*
X218704557Y-36410256D01*
X218713040Y-36408113D01*
X218721282Y-36405556D01*
X218729251Y-36402608D01*
X218736921Y-36399291D01*
X218744262Y-36395628D01*
X218751246Y-36391641D01*
X218757843Y-36387354D01*
X218764025Y-36382789D01*
X218769763Y-36377969D01*
X218775028Y-36372916D01*
X218779792Y-36367653D01*
X218781977Y-36364950D01*
X218784025Y-36362203D01*
X218788821Y-36355177D01*
X218793203Y-36348260D01*
X218797185Y-36341328D01*
X218800782Y-36334257D01*
X218804007Y-36326924D01*
X218806876Y-36319204D01*
X218809403Y-36310974D01*
X218811603Y-36302111D01*
X218813490Y-36292490D01*
X218815078Y-36281987D01*
X218816382Y-36270479D01*
X218817417Y-36257843D01*
X218818196Y-36243953D01*
X218818735Y-36228687D01*
X218819149Y-36193531D01*
X218819048Y-36174895D01*
X218818735Y-36157913D01*
X218818196Y-36142458D01*
X218817417Y-36128405D01*
X218816382Y-36115629D01*
X218815078Y-36104004D01*
X218813490Y-36093404D01*
X218811603Y-36083705D01*
X218809403Y-36074781D01*
X218806876Y-36066507D01*
X218804007Y-36058756D01*
X218800782Y-36051403D01*
X218797185Y-36044324D01*
X218793203Y-36037392D01*
X218788821Y-36030483D01*
X218784025Y-36023470D01*
X218779792Y-36018013D01*
X218775028Y-36012745D01*
X218769763Y-36007688D01*
X218764025Y-36002866D01*
X218757843Y-35998300D01*
X218751246Y-35994013D01*
X218744262Y-35990028D01*
X218736921Y-35986366D01*
X218729251Y-35983052D01*
X218721281Y-35980106D01*
X218713040Y-35977551D01*
X218704557Y-35975411D01*
X218695859Y-35973707D01*
X218686977Y-35972462D01*
X218677939Y-35971698D01*
X218668773Y-35971439D01*
X218659600Y-35971699D01*
X218650556Y-35972464D01*
X218641668Y-35973710D01*
X218632967Y-35975416D01*
X218624480Y-35977559D01*
X218616236Y-35980116D01*
X218608265Y-35983064D01*
X218600595Y-35986381D01*
X218593254Y-35990044D01*
X218586272Y-35994031D01*
X218579677Y-35998318D01*
X218573499Y-36002883D01*
X218567765Y-36007703D01*
X218562505Y-36012756D01*
X218557747Y-36018019D01*
X218555565Y-36020722D01*
X218553520Y-36023470D01*
X218548724Y-36030482D01*
X218544341Y-36037390D01*
X218540357Y-36044315D01*
X218536758Y-36051382D01*
X218533529Y-36058713D01*
X218530657Y-36066433D01*
X218528126Y-36074665D01*
X218525923Y-36083532D01*
X218524032Y-36093157D01*
X218522440Y-36103665D01*
X218521133Y-36115177D01*
X218520095Y-36127819D01*
X218519313Y-36141713D01*
X218518773Y-36156982D01*
X218518357Y-36192142D01*
X218375006Y-36192142D01*
X218375272Y-36164491D01*
X218376078Y-36138910D01*
X218377440Y-36115258D01*
X218379372Y-36093393D01*
X218381889Y-36073177D01*
X218385004Y-36054468D01*
X218388732Y-36037127D01*
X218393089Y-36021014D01*
X218398087Y-36005987D01*
X218403743Y-35991907D01*
X218410069Y-35978633D01*
X218417082Y-35966025D01*
X218424794Y-35953943D01*
X218433221Y-35942246D01*
X218442378Y-35930795D01*
X218452278Y-35919448D01*
X218459977Y-35911241D01*
X218468329Y-35903010D01*
X218477361Y-35894832D01*
X218487098Y-35886783D01*
X218497569Y-35878940D01*
X218508800Y-35871379D01*
X218520817Y-35864176D01*
X218533647Y-35857407D01*
X218547317Y-35851149D01*
X218561854Y-35845478D01*
X218577284Y-35840470D01*
X218593635Y-35836202D01*
X218610932Y-35832749D01*
X218629203Y-35830189D01*
X218648474Y-35828596D01*
X218668773Y-35828048D01*
X218679049Y-35828187D01*
G37*
G36*
X224158196Y-36953965D02*
G01*
X224172742Y-36954980D01*
X224187122Y-36956660D01*
X224201315Y-36958997D01*
X224215300Y-36961981D01*
X224229056Y-36965603D01*
X224242562Y-36969855D01*
X224255797Y-36974727D01*
X224268739Y-36980211D01*
X224281367Y-36986297D01*
X224293661Y-36992976D01*
X224305599Y-37000240D01*
X224317161Y-37008080D01*
X224328324Y-37016485D01*
X224339069Y-37025448D01*
X224349373Y-37034960D01*
X224359217Y-37045011D01*
X224368578Y-37055592D01*
X224377436Y-37066695D01*
X224385770Y-37078310D01*
X224393558Y-37090428D01*
X224400779Y-37103041D01*
X224407413Y-37116139D01*
X224413438Y-37129713D01*
X224418833Y-37143755D01*
X224423577Y-37158255D01*
X224427649Y-37173205D01*
X224431029Y-37188594D01*
X224433693Y-37204416D01*
X224435623Y-37220659D01*
X224436796Y-37237316D01*
X224437192Y-37254377D01*
X224437192Y-37372527D01*
X223993129Y-37372527D01*
X223993337Y-37383290D01*
X223993957Y-37393715D01*
X223994981Y-37403803D01*
X223996399Y-37413552D01*
X223998204Y-37422964D01*
X224000388Y-37432036D01*
X224002943Y-37440770D01*
X224005860Y-37449165D01*
X224009131Y-37457220D01*
X224012747Y-37464936D01*
X224016702Y-37472312D01*
X224020985Y-37479347D01*
X224025590Y-37486042D01*
X224030508Y-37492396D01*
X224035731Y-37498409D01*
X224041250Y-37504081D01*
X224047058Y-37509411D01*
X224053145Y-37514400D01*
X224059505Y-37519046D01*
X224066128Y-37523350D01*
X224073007Y-37527311D01*
X224080133Y-37530929D01*
X224087499Y-37534204D01*
X224095095Y-37537135D01*
X224102914Y-37539722D01*
X224110947Y-37541966D01*
X224119186Y-37543865D01*
X224127624Y-37545419D01*
X224136251Y-37546628D01*
X224145060Y-37547492D01*
X224154042Y-37548011D01*
X224163190Y-37548184D01*
X224173497Y-37547890D01*
X224183874Y-37547014D01*
X224194291Y-37545567D01*
X224204716Y-37543558D01*
X224215119Y-37540998D01*
X224225467Y-37537896D01*
X224235731Y-37534262D01*
X224245878Y-37530107D01*
X224255879Y-37525440D01*
X224265702Y-37520271D01*
X224275315Y-37514611D01*
X224284689Y-37508469D01*
X224293791Y-37501856D01*
X224302592Y-37494781D01*
X224311058Y-37487255D01*
X224319161Y-37479287D01*
X224423182Y-37567869D01*
X224409761Y-37582597D01*
X224395872Y-37596226D01*
X224381538Y-37608776D01*
X224366786Y-37620268D01*
X224351639Y-37630722D01*
X224336122Y-37640159D01*
X224320259Y-37648600D01*
X224304075Y-37656065D01*
X224287596Y-37662574D01*
X224270844Y-37668149D01*
X224253846Y-37672810D01*
X224236625Y-37676577D01*
X224219206Y-37679471D01*
X224201614Y-37681513D01*
X224183873Y-37682723D01*
X224166008Y-37683122D01*
X224138361Y-37682261D01*
X224110440Y-37679529D01*
X224082528Y-37674705D01*
X224054909Y-37667565D01*
X224027867Y-37657888D01*
X224014651Y-37652029D01*
X224001686Y-37645452D01*
X223989008Y-37638129D01*
X223976651Y-37630034D01*
X223964651Y-37621137D01*
X223953045Y-37611411D01*
X223941866Y-37600829D01*
X223931152Y-37589363D01*
X223920937Y-37576984D01*
X223911257Y-37563666D01*
X223902147Y-37549380D01*
X223893643Y-37534098D01*
X223885780Y-37517793D01*
X223878595Y-37500437D01*
X223872121Y-37482002D01*
X223866396Y-37462461D01*
X223861454Y-37441785D01*
X223857331Y-37419947D01*
X223854062Y-37396919D01*
X223851684Y-37372673D01*
X223850231Y-37347182D01*
X223849738Y-37320418D01*
X223850190Y-37295007D01*
X223851524Y-37270673D01*
X223853050Y-37254417D01*
X223993129Y-37254417D01*
X224293881Y-37254417D01*
X224293322Y-37244419D01*
X224292432Y-37234718D01*
X224291216Y-37225317D01*
X224289682Y-37216215D01*
X224287835Y-37207415D01*
X224285683Y-37198918D01*
X224283231Y-37190725D01*
X224280486Y-37182837D01*
X224277455Y-37175256D01*
X224274144Y-37167983D01*
X224270559Y-37161019D01*
X224266707Y-37154366D01*
X224262594Y-37148025D01*
X224258227Y-37141996D01*
X224253612Y-37136283D01*
X224248756Y-37130885D01*
X224243665Y-37125804D01*
X224238346Y-37121041D01*
X224232804Y-37116598D01*
X224227048Y-37112476D01*
X224221082Y-37108677D01*
X224214913Y-37105201D01*
X224208549Y-37102049D01*
X224201994Y-37099224D01*
X224195257Y-37096727D01*
X224188342Y-37094558D01*
X224181257Y-37092720D01*
X224174009Y-37091212D01*
X224166603Y-37090038D01*
X224159046Y-37089197D01*
X224151344Y-37088692D01*
X224143505Y-37088523D01*
X224135661Y-37088692D01*
X224127948Y-37089197D01*
X224120373Y-37090038D01*
X224112943Y-37091212D01*
X224105666Y-37092720D01*
X224098548Y-37094558D01*
X224091597Y-37096727D01*
X224084820Y-37099224D01*
X224078224Y-37102049D01*
X224071816Y-37105201D01*
X224065605Y-37108677D01*
X224059596Y-37112476D01*
X224053797Y-37116598D01*
X224048215Y-37121041D01*
X224042858Y-37125803D01*
X224037733Y-37130884D01*
X224032846Y-37136282D01*
X224028206Y-37141996D01*
X224023819Y-37148024D01*
X224019693Y-37154366D01*
X224015834Y-37161019D01*
X224012251Y-37167983D01*
X224008949Y-37175256D01*
X224005937Y-37182837D01*
X224003222Y-37190725D01*
X224000811Y-37198918D01*
X223998711Y-37207415D01*
X223996929Y-37216215D01*
X223995472Y-37225317D01*
X223994349Y-37234718D01*
X223993565Y-37244419D01*
X223993129Y-37254417D01*
X223853050Y-37254417D01*
X223853708Y-37247400D01*
X223856711Y-37225168D01*
X223860500Y-37203960D01*
X223865044Y-37183759D01*
X223870310Y-37164547D01*
X223876267Y-37146306D01*
X223882883Y-37129018D01*
X223890126Y-37112665D01*
X223897965Y-37097230D01*
X223906366Y-37082695D01*
X223915298Y-37069042D01*
X223924730Y-37056254D01*
X223934629Y-37044312D01*
X223944963Y-37033199D01*
X223955701Y-37022897D01*
X223966811Y-37013388D01*
X223978261Y-37004656D01*
X223990018Y-36996680D01*
X224002052Y-36989445D01*
X224014329Y-36982933D01*
X224026819Y-36977124D01*
X224039488Y-36972003D01*
X224052306Y-36967551D01*
X224065241Y-36963750D01*
X224078260Y-36960582D01*
X224091331Y-36958030D01*
X224117504Y-36954703D01*
X224143505Y-36953625D01*
X224158196Y-36953965D01*
G37*
G36*
X219428453Y-35828543D02*
G01*
X219443951Y-35829884D01*
X219458896Y-35832073D01*
X219473288Y-35835074D01*
X219487129Y-35838849D01*
X219500422Y-35843362D01*
X219513167Y-35848575D01*
X219525368Y-35854450D01*
X219537025Y-35860952D01*
X219548141Y-35868043D01*
X219558717Y-35875685D01*
X219568756Y-35883843D01*
X219578259Y-35892478D01*
X219587228Y-35901553D01*
X219595665Y-35911032D01*
X219603572Y-35920877D01*
X219610621Y-35930348D01*
X219617037Y-35939915D01*
X219622843Y-35949773D01*
X219628065Y-35960120D01*
X219630464Y-35965537D01*
X219632727Y-35971150D01*
X219634856Y-35976982D01*
X219636854Y-35983059D01*
X219638725Y-35989404D01*
X219640471Y-35996043D01*
X219643602Y-36010298D01*
X219646272Y-36026019D01*
X219648506Y-36043402D01*
X219650329Y-36062644D01*
X219651764Y-36083939D01*
X219652838Y-36107483D01*
X219653574Y-36133472D01*
X219653998Y-36162103D01*
X219654134Y-36193570D01*
X219653574Y-36253186D01*
X219651764Y-36302364D01*
X219650329Y-36323521D01*
X219648506Y-36342649D01*
X219646272Y-36359940D01*
X219643602Y-36375587D01*
X219640471Y-36389784D01*
X219636854Y-36402725D01*
X219632727Y-36414602D01*
X219628065Y-36425608D01*
X219622843Y-36435937D01*
X219617037Y-36445783D01*
X219610621Y-36455337D01*
X219603572Y-36464794D01*
X219595665Y-36474640D01*
X219587228Y-36484119D01*
X219578259Y-36493194D01*
X219568756Y-36501829D01*
X219558717Y-36509986D01*
X219548141Y-36517629D01*
X219537025Y-36524719D01*
X219525368Y-36531221D01*
X219513167Y-36537097D01*
X219506863Y-36539789D01*
X219500422Y-36542310D01*
X219493844Y-36544656D01*
X219487129Y-36546822D01*
X219480277Y-36548804D01*
X219473288Y-36550597D01*
X219466161Y-36552197D01*
X219458896Y-36553598D01*
X219451493Y-36554797D01*
X219443951Y-36555788D01*
X219436271Y-36556566D01*
X219428452Y-36557128D01*
X219420495Y-36557469D01*
X219412397Y-36557584D01*
X219398869Y-36557192D01*
X219385687Y-36556035D01*
X219372834Y-36554137D01*
X219360295Y-36551522D01*
X219348053Y-36548215D01*
X219336090Y-36544241D01*
X219324392Y-36539625D01*
X219312940Y-36534391D01*
X219301720Y-36528564D01*
X219290713Y-36522169D01*
X219279904Y-36515230D01*
X219269277Y-36507773D01*
X219258814Y-36499821D01*
X219248499Y-36491400D01*
X219238316Y-36482534D01*
X219228247Y-36473247D01*
X219227731Y-37038001D01*
X219236887Y-37027793D01*
X219246430Y-37018242D01*
X219256352Y-37009349D01*
X219266644Y-37001115D01*
X219277298Y-36993538D01*
X219288307Y-36986620D01*
X219299661Y-36980360D01*
X219311353Y-36974759D01*
X219323374Y-36969816D01*
X219335716Y-36965531D01*
X219348371Y-36961906D01*
X219361331Y-36958939D01*
X219374586Y-36956632D01*
X219388130Y-36954984D01*
X219401954Y-36953994D01*
X219416049Y-36953665D01*
X219426500Y-36953916D01*
X219437016Y-36954667D01*
X219447570Y-36955917D01*
X219458137Y-36957664D01*
X219468691Y-36959906D01*
X219479204Y-36962641D01*
X219489653Y-36965868D01*
X219500010Y-36969584D01*
X219510250Y-36973789D01*
X219520346Y-36978479D01*
X219530272Y-36983654D01*
X219540004Y-36989311D01*
X219549514Y-36995449D01*
X219558776Y-37002066D01*
X219567766Y-37009159D01*
X219576456Y-37016728D01*
X219584820Y-37024771D01*
X219592833Y-37033285D01*
X219600469Y-37042269D01*
X219607702Y-37051721D01*
X219614505Y-37061639D01*
X219620854Y-37072022D01*
X219626720Y-37082867D01*
X219632080Y-37094174D01*
X219636906Y-37105939D01*
X219641174Y-37118161D01*
X219644856Y-37130839D01*
X219647927Y-37143971D01*
X219650360Y-37157554D01*
X219652131Y-37171588D01*
X219653212Y-37186069D01*
X219653578Y-37200997D01*
X219653578Y-37674707D01*
X219510227Y-37674707D01*
X219510227Y-37250250D01*
X219510051Y-37241273D01*
X219509529Y-37232538D01*
X219508667Y-37224048D01*
X219507473Y-37215806D01*
X219505956Y-37207814D01*
X219504121Y-37200075D01*
X219501977Y-37192593D01*
X219499531Y-37185370D01*
X219496790Y-37178409D01*
X219493763Y-37171712D01*
X219490456Y-37165282D01*
X219486877Y-37159123D01*
X219483033Y-37153237D01*
X219478932Y-37147627D01*
X219474582Y-37142295D01*
X219469989Y-37137245D01*
X219465161Y-37132479D01*
X219460107Y-37128000D01*
X219454832Y-37123811D01*
X219449345Y-37119915D01*
X219443653Y-37116314D01*
X219437764Y-37113012D01*
X219431685Y-37110011D01*
X219425423Y-37107314D01*
X219418986Y-37104923D01*
X219412382Y-37102843D01*
X219405617Y-37101074D01*
X219398700Y-37099621D01*
X219391638Y-37098486D01*
X219384437Y-37097672D01*
X219377107Y-37097181D01*
X219369654Y-37097017D01*
X219362075Y-37097181D01*
X219354626Y-37097672D01*
X219347316Y-37098486D01*
X219340151Y-37099621D01*
X219333139Y-37101074D01*
X219326286Y-37102843D01*
X219319600Y-37104923D01*
X219313088Y-37107314D01*
X219306758Y-37110011D01*
X219300615Y-37113012D01*
X219294669Y-37116315D01*
X219288925Y-37119915D01*
X219283392Y-37123811D01*
X219278076Y-37128000D01*
X219272984Y-37132479D01*
X219268123Y-37137245D01*
X219263502Y-37142295D01*
X219259127Y-37147627D01*
X219255004Y-37153237D01*
X219251143Y-37159123D01*
X219247548Y-37165283D01*
X219244229Y-37171712D01*
X219241192Y-37178409D01*
X219238443Y-37185370D01*
X219235992Y-37192594D01*
X219233843Y-37200076D01*
X219232006Y-37207814D01*
X219230486Y-37215806D01*
X219229292Y-37224048D01*
X219228430Y-37232538D01*
X219227907Y-37241273D01*
X219227731Y-37250250D01*
X219227731Y-37674708D01*
X219084341Y-37674708D01*
X219084341Y-36193530D01*
X219228248Y-36193530D01*
X219228810Y-36232480D01*
X219229776Y-36252009D01*
X219231432Y-36271313D01*
X219233952Y-36290196D01*
X219237513Y-36308464D01*
X219242288Y-36325920D01*
X219245186Y-36334282D01*
X219248453Y-36342369D01*
X219252112Y-36350154D01*
X219256184Y-36357615D01*
X219260691Y-36364725D01*
X219265654Y-36371462D01*
X219271097Y-36377801D01*
X219277040Y-36383716D01*
X219283505Y-36389184D01*
X219290515Y-36394181D01*
X219298092Y-36398681D01*
X219306256Y-36402660D01*
X219315031Y-36406094D01*
X219324437Y-36408959D01*
X219334498Y-36411229D01*
X219345234Y-36412882D01*
X219356668Y-36413891D01*
X219368821Y-36414233D01*
X219381100Y-36413911D01*
X219392652Y-36412958D01*
X219403499Y-36411396D01*
X219413662Y-36409245D01*
X219423165Y-36406526D01*
X219432029Y-36403258D01*
X219440276Y-36399464D01*
X219447929Y-36395163D01*
X219455009Y-36390375D01*
X219461539Y-36385123D01*
X219467541Y-36379425D01*
X219473037Y-36373304D01*
X219478049Y-36366779D01*
X219482599Y-36359870D01*
X219486710Y-36352600D01*
X219490403Y-36344988D01*
X219493701Y-36337054D01*
X219496626Y-36328820D01*
X219499200Y-36320306D01*
X219501444Y-36311533D01*
X219503382Y-36302521D01*
X219505036Y-36293291D01*
X219507577Y-36274259D01*
X219509245Y-36254602D01*
X219510217Y-36234485D01*
X219510671Y-36214073D01*
X219510783Y-36193530D01*
X219510217Y-36152093D01*
X219509245Y-36131784D01*
X219507577Y-36111964D01*
X219505036Y-36092796D01*
X219501444Y-36074442D01*
X219496626Y-36057065D01*
X219493701Y-36048794D01*
X219490403Y-36040828D01*
X219486710Y-36033187D01*
X219482599Y-36025892D01*
X219478049Y-36018963D01*
X219473037Y-36012420D01*
X219467541Y-36006284D01*
X219461539Y-36000575D01*
X219455009Y-35995313D01*
X219447929Y-35990519D01*
X219440276Y-35986213D01*
X219432029Y-35982415D01*
X219423165Y-35979146D01*
X219413662Y-35976426D01*
X219403499Y-35974274D01*
X219392652Y-35972713D01*
X219381100Y-35971761D01*
X219368821Y-35971439D01*
X219356671Y-35971781D01*
X219345240Y-35972790D01*
X219334507Y-35974443D01*
X219324449Y-35976715D01*
X219315044Y-35979583D01*
X219306271Y-35983021D01*
X219298108Y-35987006D01*
X219290532Y-35991513D01*
X219283523Y-35996518D01*
X219277057Y-36001998D01*
X219271114Y-36007928D01*
X219265672Y-36014283D01*
X219260708Y-36021040D01*
X219256200Y-36028174D01*
X219252128Y-36035661D01*
X219248468Y-36043477D01*
X219245200Y-36051598D01*
X219242301Y-36059999D01*
X219239749Y-36068657D01*
X219237523Y-36077547D01*
X219235601Y-36086645D01*
X219233960Y-36095927D01*
X219231437Y-36114945D01*
X219229780Y-36134408D01*
X219228812Y-36154122D01*
X219228359Y-36173894D01*
X219228248Y-36193530D01*
X219084341Y-36193530D01*
X219084341Y-35836541D01*
X219228247Y-35836541D01*
X219228247Y-35911035D01*
X219236929Y-35901993D01*
X219246083Y-35893341D01*
X219255690Y-35885105D01*
X219265727Y-35877313D01*
X219276176Y-35869990D01*
X219287016Y-35863163D01*
X219298226Y-35856860D01*
X219309785Y-35851106D01*
X219321674Y-35845930D01*
X219333872Y-35841357D01*
X219346358Y-35837414D01*
X219359112Y-35834128D01*
X219372113Y-35831525D01*
X219385342Y-35829634D01*
X219398777Y-35828479D01*
X219412397Y-35828088D01*
X219428453Y-35828543D01*
G37*
G36*
X223886430Y-35828293D02*
G01*
X223896901Y-35829020D01*
X223907155Y-35830216D01*
X223917201Y-35831868D01*
X223927048Y-35833966D01*
X223936704Y-35836495D01*
X223946179Y-35839445D01*
X223955480Y-35842802D01*
X223964618Y-35846555D01*
X223973600Y-35850690D01*
X223982435Y-35855197D01*
X223991133Y-35860061D01*
X223999701Y-35865272D01*
X224008149Y-35870816D01*
X224016486Y-35876682D01*
X224024720Y-35882857D01*
X223920699Y-36006563D01*
X223914484Y-36002003D01*
X223908468Y-35997796D01*
X223902617Y-35993934D01*
X223896898Y-35990410D01*
X223891278Y-35987215D01*
X223885724Y-35984340D01*
X223880203Y-35981778D01*
X223874681Y-35979521D01*
X223869126Y-35977560D01*
X223863505Y-35975887D01*
X223857783Y-35974494D01*
X223851929Y-35973372D01*
X223845909Y-35972515D01*
X223839689Y-35971912D01*
X223833238Y-35971556D01*
X223826520Y-35971440D01*
X223813368Y-35971970D01*
X223800350Y-35973575D01*
X223787565Y-35976275D01*
X223775110Y-35980091D01*
X223769038Y-35982424D01*
X223763086Y-35985043D01*
X223757265Y-35987952D01*
X223751589Y-35991153D01*
X223746070Y-35994648D01*
X223740720Y-35998440D01*
X223735551Y-36002531D01*
X223730576Y-36006925D01*
X223725807Y-36011624D01*
X223721256Y-36016630D01*
X223716936Y-36021946D01*
X223712859Y-36027574D01*
X223709038Y-36033517D01*
X223705484Y-36039778D01*
X223702210Y-36046360D01*
X223699228Y-36053264D01*
X223696551Y-36060493D01*
X223694191Y-36068050D01*
X223692160Y-36075938D01*
X223690471Y-36084159D01*
X223689135Y-36092716D01*
X223688166Y-36101611D01*
X223687576Y-36110847D01*
X223687376Y-36120427D01*
X223687376Y-36549091D01*
X223543985Y-36549091D01*
X223543985Y-35836502D01*
X223687376Y-35836502D01*
X223687376Y-35912385D01*
X223690155Y-35912385D01*
X223698815Y-35902176D01*
X223707927Y-35892626D01*
X223717476Y-35883733D01*
X223727450Y-35875499D01*
X223737838Y-35867922D01*
X223748625Y-35861004D01*
X223759800Y-35854744D01*
X223771350Y-35849143D01*
X223783262Y-35844200D01*
X223795524Y-35839915D01*
X223808123Y-35836290D01*
X223821047Y-35833323D01*
X223834282Y-35831016D01*
X223847817Y-35829367D01*
X223861638Y-35828378D01*
X223875733Y-35828048D01*
X223886430Y-35828293D01*
G37*
G36*
X222130166Y-30500000D02*
G01*
X222131677Y-30500112D01*
X222133180Y-30500297D01*
X222134674Y-30500552D01*
X222136155Y-30500877D01*
X222137623Y-30501268D01*
X222139074Y-30501725D01*
X222140506Y-30502245D01*
X222141918Y-30502826D01*
X222143306Y-30503467D01*
X222144669Y-30504166D01*
X222146004Y-30504920D01*
X222147309Y-30505729D01*
X222148582Y-30506589D01*
X222149821Y-30507501D01*
X222151023Y-30508460D01*
X222152187Y-30509466D01*
X222153309Y-30510517D01*
X222154388Y-30511611D01*
X222155422Y-30512746D01*
X222156407Y-30513920D01*
X222157343Y-30515132D01*
X222158226Y-30516379D01*
X222159055Y-30517660D01*
X222159827Y-30518972D01*
X222160541Y-30520314D01*
X222161192Y-30521685D01*
X222161781Y-30523082D01*
X222162304Y-30524503D01*
X222162759Y-30525947D01*
X222163143Y-30527411D01*
X222163456Y-30528894D01*
X222289067Y-31203701D01*
X222289384Y-31205196D01*
X222289769Y-31206696D01*
X222290735Y-31209702D01*
X222291947Y-31212699D01*
X222293388Y-31215666D01*
X222295042Y-31218585D01*
X222296891Y-31221435D01*
X222298918Y-31224198D01*
X222301107Y-31226853D01*
X222303440Y-31229382D01*
X222305902Y-31231764D01*
X222308474Y-31233979D01*
X222311140Y-31236009D01*
X222313883Y-31237834D01*
X222316686Y-31239434D01*
X222318105Y-31240143D01*
X222319532Y-31240789D01*
X222320966Y-31241369D01*
X222322404Y-31241880D01*
X222774683Y-31427022D01*
X222777493Y-31428259D01*
X222780473Y-31429292D01*
X222783596Y-31430124D01*
X222786838Y-31430755D01*
X222790170Y-31431187D01*
X222793568Y-31431424D01*
X222797005Y-31431465D01*
X222800455Y-31431314D01*
X222803891Y-31430971D01*
X222807287Y-31430439D01*
X222810618Y-31429719D01*
X222813856Y-31428814D01*
X222816976Y-31427725D01*
X222819951Y-31426453D01*
X222822756Y-31425001D01*
X222825364Y-31423371D01*
X223389124Y-31036497D01*
X223390394Y-31035670D01*
X223391702Y-31034907D01*
X223393044Y-31034209D01*
X223394418Y-31033574D01*
X223395821Y-31033002D01*
X223397250Y-31032495D01*
X223398703Y-31032050D01*
X223400176Y-31031668D01*
X223401666Y-31031348D01*
X223403171Y-31031091D01*
X223406213Y-31030763D01*
X223409279Y-31030680D01*
X223412347Y-31030842D01*
X223415392Y-31031245D01*
X223418393Y-31031888D01*
X223421326Y-31032769D01*
X223422760Y-31033298D01*
X223424168Y-31033885D01*
X223425548Y-31034531D01*
X223426897Y-31035235D01*
X223428211Y-31035997D01*
X223429488Y-31036816D01*
X223430726Y-31037693D01*
X223431920Y-31038627D01*
X223433070Y-31039617D01*
X223434170Y-31040664D01*
X223908952Y-31515446D01*
X223909999Y-31516547D01*
X223910988Y-31517696D01*
X223911921Y-31518891D01*
X223912797Y-31520129D01*
X223913614Y-31521408D01*
X223914374Y-31522723D01*
X223915720Y-31525454D01*
X223916831Y-31528299D01*
X223917707Y-31531235D01*
X223918345Y-31534240D01*
X223918745Y-31537289D01*
X223918903Y-31540360D01*
X223918818Y-31543430D01*
X223918490Y-31546475D01*
X223917915Y-31549474D01*
X223917092Y-31552401D01*
X223916587Y-31553832D01*
X223916019Y-31555236D01*
X223915389Y-31556610D01*
X223914695Y-31557953D01*
X223913939Y-31559261D01*
X223913118Y-31560531D01*
X223532991Y-32114568D01*
X223531357Y-32117187D01*
X223529906Y-32119996D01*
X223528640Y-32122970D01*
X223527562Y-32126083D01*
X223526672Y-32129310D01*
X223525973Y-32132625D01*
X223525466Y-32136003D01*
X223525153Y-32139418D01*
X223525035Y-32142844D01*
X223525114Y-32146257D01*
X223525392Y-32149630D01*
X223525870Y-32152938D01*
X223526550Y-32156156D01*
X223527433Y-32159258D01*
X223528521Y-32162218D01*
X223529816Y-32165011D01*
X223729802Y-32631577D01*
X223730944Y-32634442D01*
X223732348Y-32637281D01*
X223733995Y-32640077D01*
X223735864Y-32642812D01*
X223737935Y-32645471D01*
X223740189Y-32648035D01*
X223742606Y-32650489D01*
X223745166Y-32652815D01*
X223747850Y-32654997D01*
X223750636Y-32657017D01*
X223753507Y-32658858D01*
X223756441Y-32660504D01*
X223759419Y-32661938D01*
X223762421Y-32663142D01*
X223765427Y-32664101D01*
X223768418Y-32664796D01*
X224420841Y-32786121D01*
X224422320Y-32786440D01*
X224423781Y-32786831D01*
X224425222Y-32787292D01*
X224426640Y-32787820D01*
X224428034Y-32788413D01*
X224429402Y-32789069D01*
X224430742Y-32789786D01*
X224432052Y-32790561D01*
X224434575Y-32792279D01*
X224436957Y-32794204D01*
X224439182Y-32796319D01*
X224441235Y-32798607D01*
X224443102Y-32801050D01*
X224444767Y-32803630D01*
X224446217Y-32806330D01*
X224446855Y-32807719D01*
X224447434Y-32809131D01*
X224447952Y-32810565D01*
X224448406Y-32812017D01*
X224448795Y-32813486D01*
X224449116Y-32814970D01*
X224449369Y-32816466D01*
X224449550Y-32817972D01*
X224449659Y-32819486D01*
X224449694Y-32821006D01*
X224449614Y-33492478D01*
X224449576Y-33493995D01*
X224449464Y-33495506D01*
X224449278Y-33497011D01*
X224449022Y-33498506D01*
X224448697Y-33499989D01*
X224448304Y-33501459D01*
X224447847Y-33502912D01*
X224447326Y-33504347D01*
X224446743Y-33505761D01*
X224446101Y-33507152D01*
X224445401Y-33508518D01*
X224444646Y-33509856D01*
X224443836Y-33511164D01*
X224442974Y-33512440D01*
X224442062Y-33513682D01*
X224441101Y-33514887D01*
X224440094Y-33516053D01*
X224439042Y-33517178D01*
X224437948Y-33518259D01*
X224436813Y-33519295D01*
X224435638Y-33520283D01*
X224434427Y-33521220D01*
X224433180Y-33522104D01*
X224431900Y-33522934D01*
X224430588Y-33523707D01*
X224429247Y-33524420D01*
X224427878Y-33525072D01*
X224426483Y-33525659D01*
X224425064Y-33526180D01*
X224423623Y-33526633D01*
X224422162Y-33527015D01*
X224420682Y-33527324D01*
X223784293Y-33645751D01*
X223782795Y-33646059D01*
X223781293Y-33646435D01*
X223779791Y-33646879D01*
X223778291Y-33647388D01*
X223775303Y-33648592D01*
X223772351Y-33650030D01*
X223769452Y-33651686D01*
X223766626Y-33653540D01*
X223763892Y-33655576D01*
X223761269Y-33657777D01*
X223758775Y-33660125D01*
X223756430Y-33662602D01*
X223754253Y-33665191D01*
X223752263Y-33667875D01*
X223750478Y-33670636D01*
X223748919Y-33673457D01*
X223747603Y-33676320D01*
X223747042Y-33677762D01*
X223746550Y-33679208D01*
X223547875Y-34175500D01*
X223546645Y-34178323D01*
X223545621Y-34181313D01*
X223544798Y-34184443D01*
X223544177Y-34187689D01*
X223543753Y-34191023D01*
X223543526Y-34194421D01*
X223543493Y-34197856D01*
X223543653Y-34201302D01*
X223544002Y-34204734D01*
X223544540Y-34208126D01*
X223545264Y-34211451D01*
X223546172Y-34214685D01*
X223547262Y-34217800D01*
X223548532Y-34220772D01*
X223549981Y-34223574D01*
X223551605Y-34226181D01*
X223913118Y-34752954D01*
X223913945Y-34754224D01*
X223914708Y-34755532D01*
X223915407Y-34756875D01*
X223916041Y-34758251D01*
X223916613Y-34759656D01*
X223917121Y-34761087D01*
X223917565Y-34762542D01*
X223917947Y-34764017D01*
X223918267Y-34765510D01*
X223918524Y-34767018D01*
X223918852Y-34770067D01*
X223918935Y-34773141D01*
X223918773Y-34776215D01*
X223918370Y-34779268D01*
X223917727Y-34782276D01*
X223916846Y-34785216D01*
X223916317Y-34786653D01*
X223915730Y-34788064D01*
X223915084Y-34789446D01*
X223914380Y-34790797D01*
X223913618Y-34792114D01*
X223912799Y-34793393D01*
X223911922Y-34794632D01*
X223910989Y-34795828D01*
X223909998Y-34796977D01*
X223908951Y-34798078D01*
X223434090Y-35272860D01*
X223432996Y-35273899D01*
X223431853Y-35274883D01*
X223430664Y-35275811D01*
X223429431Y-35276682D01*
X223428157Y-35277496D01*
X223426846Y-35278253D01*
X223424122Y-35279594D01*
X223421281Y-35280704D01*
X223418348Y-35281580D01*
X223415345Y-35282220D01*
X223412297Y-35282623D01*
X223409225Y-35282785D01*
X223406154Y-35282706D01*
X223403107Y-35282382D01*
X223400107Y-35281812D01*
X223397177Y-35280993D01*
X223395746Y-35280490D01*
X223394342Y-35279924D01*
X223392966Y-35279295D01*
X223391623Y-35278603D01*
X223390315Y-35277847D01*
X223389045Y-35277027D01*
X222871559Y-34921864D01*
X222868958Y-34920244D01*
X222866172Y-34918824D01*
X222863226Y-34917604D01*
X222860147Y-34916585D01*
X222856958Y-34915767D01*
X222853686Y-34915149D01*
X222850356Y-34914734D01*
X222846993Y-34914521D01*
X222843622Y-34914511D01*
X222840270Y-34914704D01*
X222836960Y-34915101D01*
X222833720Y-34915702D01*
X222830573Y-34916508D01*
X222827546Y-34917519D01*
X222824663Y-34918735D01*
X222821950Y-34920157D01*
X222593747Y-35041998D01*
X222592382Y-35042646D01*
X222591006Y-35043217D01*
X222589622Y-35043710D01*
X222588230Y-35044126D01*
X222586835Y-35044466D01*
X222585437Y-35044732D01*
X222584040Y-35044923D01*
X222582646Y-35045041D01*
X222581257Y-35045087D01*
X222579876Y-35045061D01*
X222578505Y-35044965D01*
X222577147Y-35044799D01*
X222575803Y-35044565D01*
X222574476Y-35044262D01*
X222573169Y-35043892D01*
X222571884Y-35043456D01*
X222570623Y-35042955D01*
X222569389Y-35042389D01*
X222568184Y-35041760D01*
X222567010Y-35041067D01*
X222565870Y-35040314D01*
X222564767Y-35039499D01*
X222563701Y-35038623D01*
X222562677Y-35037689D01*
X222561696Y-35036696D01*
X222560761Y-35035646D01*
X222559874Y-35034539D01*
X222559037Y-35033377D01*
X222558253Y-35032159D01*
X222557525Y-35030888D01*
X222556853Y-35029563D01*
X222556242Y-35028187D01*
X222085747Y-33891219D01*
X222085203Y-33889805D01*
X222084731Y-33888369D01*
X222084330Y-33886914D01*
X222083999Y-33885443D01*
X222083738Y-33883959D01*
X222083546Y-33882465D01*
X222083420Y-33880962D01*
X222083362Y-33879454D01*
X222083369Y-33877944D01*
X222083441Y-33876433D01*
X222083577Y-33874926D01*
X222083775Y-33873424D01*
X222084036Y-33871930D01*
X222084358Y-33870447D01*
X222084740Y-33868978D01*
X222085181Y-33867526D01*
X222085681Y-33866092D01*
X222086238Y-33864680D01*
X222086852Y-33863293D01*
X222087521Y-33861932D01*
X222088245Y-33860602D01*
X222089023Y-33859304D01*
X222089854Y-33858042D01*
X222090736Y-33856817D01*
X222091670Y-33855633D01*
X222092654Y-33854493D01*
X222093687Y-33853399D01*
X222094768Y-33852353D01*
X222095897Y-33851359D01*
X222097072Y-33850420D01*
X222098293Y-33849537D01*
X222099558Y-33848714D01*
X222156668Y-33813749D01*
X222160779Y-33811131D01*
X222165168Y-33808143D01*
X222169752Y-33804850D01*
X222174448Y-33801317D01*
X222179175Y-33797609D01*
X222183848Y-33793791D01*
X222188386Y-33789929D01*
X222192705Y-33786087D01*
X222230511Y-33760209D01*
X222266591Y-33732113D01*
X222300848Y-33701895D01*
X222333182Y-33669654D01*
X222363496Y-33635487D01*
X222391690Y-33599493D01*
X222417667Y-33561769D01*
X222441327Y-33522413D01*
X222462573Y-33481524D01*
X222481305Y-33439198D01*
X222497426Y-33395534D01*
X222510836Y-33350631D01*
X222521438Y-33304585D01*
X222529132Y-33257494D01*
X222533821Y-33209458D01*
X222535406Y-33160572D01*
X222534440Y-33122358D01*
X222531572Y-33084645D01*
X222526850Y-33047481D01*
X222520320Y-33010912D01*
X222512028Y-32974984D01*
X222502022Y-32939745D01*
X222490347Y-32905241D01*
X222477051Y-32871518D01*
X222462181Y-32838624D01*
X222445782Y-32806605D01*
X222427902Y-32775507D01*
X222408587Y-32745378D01*
X222387884Y-32716264D01*
X222365840Y-32688211D01*
X222342501Y-32661267D01*
X222317914Y-32635477D01*
X222292125Y-32610889D01*
X222265182Y-32587549D01*
X222237130Y-32565504D01*
X222208017Y-32544801D01*
X222177890Y-32525485D01*
X222146794Y-32507605D01*
X222114776Y-32491206D01*
X222081884Y-32476335D01*
X222048164Y-32463039D01*
X222013662Y-32451364D01*
X221978425Y-32441358D01*
X221942501Y-32433066D01*
X221905934Y-32426536D01*
X221868773Y-32421813D01*
X221831064Y-32418946D01*
X221792853Y-32417979D01*
X221754642Y-32418946D01*
X221716933Y-32421813D01*
X221679771Y-32426536D01*
X221643204Y-32433066D01*
X221607278Y-32441358D01*
X221572041Y-32451364D01*
X221537538Y-32463039D01*
X221503816Y-32476335D01*
X221470922Y-32491206D01*
X221438903Y-32507605D01*
X221407806Y-32525485D01*
X221377676Y-32544801D01*
X221348562Y-32565504D01*
X221320508Y-32587549D01*
X221293563Y-32610889D01*
X221267773Y-32635477D01*
X221243184Y-32661267D01*
X221219843Y-32688211D01*
X221197797Y-32716264D01*
X221177092Y-32745378D01*
X221157775Y-32775507D01*
X221139894Y-32806605D01*
X221123494Y-32838624D01*
X221108622Y-32871518D01*
X221095324Y-32905241D01*
X221083649Y-32939745D01*
X221073641Y-32974984D01*
X221065349Y-33010912D01*
X221058818Y-33047481D01*
X221054095Y-33084645D01*
X221051227Y-33122358D01*
X221050260Y-33160572D01*
X221050659Y-33185115D01*
X221051846Y-33209458D01*
X221053809Y-33233588D01*
X221056536Y-33257494D01*
X221060015Y-33281164D01*
X221064232Y-33304585D01*
X221069177Y-33327744D01*
X221074836Y-33350631D01*
X221081198Y-33373232D01*
X221088249Y-33395535D01*
X221095978Y-33417527D01*
X221104372Y-33439198D01*
X221113419Y-33460534D01*
X221123107Y-33481524D01*
X221144355Y-33522413D01*
X221168016Y-33561769D01*
X221193994Y-33599493D01*
X221222188Y-33635487D01*
X221252501Y-33669654D01*
X221284834Y-33701895D01*
X221319087Y-33732113D01*
X221355163Y-33760209D01*
X221392962Y-33786087D01*
X221397306Y-33789929D01*
X221401859Y-33793791D01*
X221406542Y-33797609D01*
X221411273Y-33801317D01*
X221415973Y-33804850D01*
X221420561Y-33808143D01*
X221424956Y-33811131D01*
X221429078Y-33813749D01*
X221486188Y-33848714D01*
X221487461Y-33849537D01*
X221488688Y-33850420D01*
X221489869Y-33851359D01*
X221491003Y-33852353D01*
X221492088Y-33853399D01*
X221493125Y-33854493D01*
X221495049Y-33856817D01*
X221496766Y-33859304D01*
X221498270Y-33861932D01*
X221499554Y-33864680D01*
X221500610Y-33867526D01*
X221501430Y-33870447D01*
X221502009Y-33873424D01*
X221502339Y-33876433D01*
X221502412Y-33879454D01*
X221502222Y-33882465D01*
X221502026Y-33883959D01*
X221501761Y-33885443D01*
X221501427Y-33886914D01*
X221501023Y-33888369D01*
X221500547Y-33889805D01*
X221500000Y-33891219D01*
X221029465Y-35028147D01*
X221028853Y-35029524D01*
X221028182Y-35030849D01*
X221027453Y-35032121D01*
X221026668Y-35033339D01*
X221025831Y-35034503D01*
X221024943Y-35035610D01*
X221024006Y-35036662D01*
X221023024Y-35037655D01*
X221021999Y-35038591D01*
X221020932Y-35039467D01*
X221019827Y-35040283D01*
X221018686Y-35041039D01*
X221017511Y-35041732D01*
X221016305Y-35042363D01*
X221015070Y-35042929D01*
X221013808Y-35043432D01*
X221012522Y-35043869D01*
X221011214Y-35044239D01*
X221009887Y-35044542D01*
X221008543Y-35044777D01*
X221007184Y-35044944D01*
X221005813Y-35045040D01*
X221004432Y-35045065D01*
X221003044Y-35045019D01*
X221001651Y-35044900D01*
X221000255Y-35044707D01*
X220998859Y-35044440D01*
X220997465Y-35044098D01*
X220996076Y-35043680D01*
X220994694Y-35043184D01*
X220993321Y-35042611D01*
X220991960Y-35041958D01*
X220763757Y-34920118D01*
X220761051Y-34918696D01*
X220758173Y-34917481D01*
X220755149Y-34916472D01*
X220752004Y-34915668D01*
X220748764Y-34915070D01*
X220745455Y-34914675D01*
X220742101Y-34914485D01*
X220738729Y-34914497D01*
X220735364Y-34914711D01*
X220732031Y-34915128D01*
X220728757Y-34915745D01*
X220725566Y-34916563D01*
X220722484Y-34917580D01*
X220719536Y-34918796D01*
X220716749Y-34920211D01*
X220714148Y-34921824D01*
X220196702Y-35276988D01*
X220195428Y-35277808D01*
X220194117Y-35278564D01*
X220192771Y-35279256D01*
X220191393Y-35279885D01*
X220189987Y-35280451D01*
X220188554Y-35280954D01*
X220187098Y-35281394D01*
X220185622Y-35281772D01*
X220184129Y-35282088D01*
X220182621Y-35282342D01*
X220179573Y-35282666D01*
X220176502Y-35282746D01*
X220173430Y-35282583D01*
X220170381Y-35282181D01*
X220167378Y-35281541D01*
X220164444Y-35280665D01*
X220163011Y-35280139D01*
X220161603Y-35279555D01*
X220160223Y-35278913D01*
X220158876Y-35278213D01*
X220157563Y-35277456D01*
X220156287Y-35276642D01*
X220155052Y-35275772D01*
X220153860Y-35274844D01*
X220152714Y-35273860D01*
X220151617Y-35272820D01*
X219676756Y-34798039D01*
X219675712Y-34796938D01*
X219674725Y-34795788D01*
X219673795Y-34794593D01*
X219672921Y-34793354D01*
X219672104Y-34792075D01*
X219671345Y-34790758D01*
X219669999Y-34788025D01*
X219668886Y-34785176D01*
X219668008Y-34782237D01*
X219667366Y-34779229D01*
X219666963Y-34776176D01*
X219666801Y-34773101D01*
X219666882Y-34770028D01*
X219667208Y-34766979D01*
X219667782Y-34763978D01*
X219668604Y-34761047D01*
X219669110Y-34759616D01*
X219669678Y-34758211D01*
X219670310Y-34756836D01*
X219671006Y-34755492D01*
X219671765Y-34754184D01*
X219672589Y-34752914D01*
X220034062Y-34226142D01*
X220035700Y-34223535D01*
X220037159Y-34220733D01*
X220038438Y-34217761D01*
X220039535Y-34214645D01*
X220040448Y-34211412D01*
X220041175Y-34208086D01*
X220041714Y-34204695D01*
X220042064Y-34201263D01*
X220042223Y-34197816D01*
X220042189Y-34194381D01*
X220041961Y-34190984D01*
X220041535Y-34187649D01*
X220040912Y-34184404D01*
X220040088Y-34181274D01*
X220039062Y-34178284D01*
X220037833Y-34175461D01*
X219839157Y-33679169D01*
X219838668Y-33677723D01*
X219838110Y-33676281D01*
X219836796Y-33673417D01*
X219835236Y-33670597D01*
X219833449Y-33667836D01*
X219831454Y-33665152D01*
X219829271Y-33662562D01*
X219826919Y-33660085D01*
X219824418Y-33657738D01*
X219821787Y-33655537D01*
X219819046Y-33653501D01*
X219816214Y-33651646D01*
X219813311Y-33649991D01*
X219810356Y-33648553D01*
X219807369Y-33647348D01*
X219804368Y-33646396D01*
X219802869Y-33646019D01*
X219801375Y-33645712D01*
X219164986Y-33527285D01*
X219163502Y-33526976D01*
X219162038Y-33526594D01*
X219160594Y-33526141D01*
X219159173Y-33525620D01*
X219157776Y-33525032D01*
X219156406Y-33524381D01*
X219155063Y-33523667D01*
X219153751Y-33522895D01*
X219152470Y-33522065D01*
X219151223Y-33521180D01*
X219148837Y-33519256D01*
X219146609Y-33517139D01*
X219144551Y-33514848D01*
X219142681Y-33512401D01*
X219141011Y-33509816D01*
X219139558Y-33507112D01*
X219138336Y-33504307D01*
X219137816Y-33502873D01*
X219137360Y-33501419D01*
X219136968Y-33499950D01*
X219136644Y-33498466D01*
X219136388Y-33496971D01*
X219136203Y-33495467D01*
X219136091Y-33493955D01*
X219136053Y-33492439D01*
X219136014Y-32820966D01*
X219136051Y-32819450D01*
X219136163Y-32817940D01*
X219136348Y-32816437D01*
X219136603Y-32814944D01*
X219136926Y-32813463D01*
X219137317Y-32811996D01*
X219137772Y-32810546D01*
X219138291Y-32809115D01*
X219138871Y-32807704D01*
X219139511Y-32806317D01*
X219140208Y-32804955D01*
X219140961Y-32803620D01*
X219141769Y-32802316D01*
X219142628Y-32801043D01*
X219143538Y-32799804D01*
X219144497Y-32798602D01*
X219145502Y-32797439D01*
X219146553Y-32796316D01*
X219147646Y-32795236D01*
X219148780Y-32794202D01*
X219149954Y-32793215D01*
X219151166Y-32792278D01*
X219152413Y-32791392D01*
X219153695Y-32790561D01*
X219155008Y-32789785D01*
X219156351Y-32789069D01*
X219157723Y-32788413D01*
X219159122Y-32787820D01*
X219160545Y-32787292D01*
X219161992Y-32786831D01*
X219163459Y-32786440D01*
X219164946Y-32786121D01*
X219817329Y-32664796D01*
X219818828Y-32664482D01*
X219820334Y-32664101D01*
X219823351Y-32663142D01*
X219826361Y-32661938D01*
X219829346Y-32660504D01*
X219832284Y-32658858D01*
X219835156Y-32657017D01*
X219837943Y-32654997D01*
X219840626Y-32652815D01*
X219843183Y-32650489D01*
X219845596Y-32648035D01*
X219847846Y-32645471D01*
X219849911Y-32642812D01*
X219851774Y-32640077D01*
X219853413Y-32637281D01*
X219854810Y-32634442D01*
X219855411Y-32633012D01*
X219855945Y-32631577D01*
X220055970Y-32165011D01*
X220057258Y-32162218D01*
X220058340Y-32159258D01*
X220059219Y-32156156D01*
X220059895Y-32152938D01*
X220060370Y-32149630D01*
X220060646Y-32146257D01*
X220060725Y-32142844D01*
X220060608Y-32139418D01*
X220060298Y-32136003D01*
X220059795Y-32132625D01*
X220059102Y-32129310D01*
X220058219Y-32126083D01*
X220057150Y-32122970D01*
X220055895Y-32119996D01*
X220054456Y-32117187D01*
X220052835Y-32114568D01*
X219672668Y-31560531D01*
X219671841Y-31559261D01*
X219671078Y-31557953D01*
X219670380Y-31556610D01*
X219669746Y-31555236D01*
X219669176Y-31553832D01*
X219668669Y-31552401D01*
X219668225Y-31550948D01*
X219667844Y-31549474D01*
X219667526Y-31547982D01*
X219667270Y-31546475D01*
X219666944Y-31543430D01*
X219666864Y-31540360D01*
X219667028Y-31537289D01*
X219667432Y-31534240D01*
X219668077Y-31531235D01*
X219668957Y-31528299D01*
X219669486Y-31526864D01*
X219670073Y-31525454D01*
X219670718Y-31524073D01*
X219671421Y-31522723D01*
X219672181Y-31521408D01*
X219672999Y-31520129D01*
X219673873Y-31518891D01*
X219674804Y-31517696D01*
X219675792Y-31516547D01*
X219676835Y-31515446D01*
X220151657Y-31040665D01*
X220152754Y-31039617D01*
X220153900Y-31038627D01*
X220155092Y-31037693D01*
X220156327Y-31036816D01*
X220157603Y-31035997D01*
X220158916Y-31035235D01*
X220161643Y-31033885D01*
X220164484Y-31032769D01*
X220167418Y-31031888D01*
X220170421Y-31031245D01*
X220173470Y-31030842D01*
X220176542Y-31030680D01*
X220179613Y-31030763D01*
X220182661Y-31031091D01*
X220185662Y-31031668D01*
X220188594Y-31032495D01*
X220190027Y-31033003D01*
X220191433Y-31033574D01*
X220192811Y-31034209D01*
X220194157Y-31034907D01*
X220195468Y-31035670D01*
X220196742Y-31036497D01*
X220760463Y-31423371D01*
X220763064Y-31425001D01*
X220765862Y-31426453D01*
X220768832Y-31427725D01*
X220771948Y-31428814D01*
X220775183Y-31429719D01*
X220778511Y-31430439D01*
X220781906Y-31430971D01*
X220785342Y-31431314D01*
X220788792Y-31431465D01*
X220792230Y-31431424D01*
X220795631Y-31431188D01*
X220798967Y-31430755D01*
X220802212Y-31430124D01*
X220805341Y-31429293D01*
X220808327Y-31428259D01*
X220811144Y-31427022D01*
X221263462Y-31241880D01*
X221266341Y-31240789D01*
X221269192Y-31239434D01*
X221271998Y-31237834D01*
X221274743Y-31236009D01*
X221277410Y-31233979D01*
X221279982Y-31231764D01*
X221282442Y-31229382D01*
X221284774Y-31226853D01*
X221286961Y-31224198D01*
X221288986Y-31221435D01*
X221290833Y-31218585D01*
X221292484Y-31215666D01*
X221293923Y-31212699D01*
X221295133Y-31209702D01*
X221296097Y-31206696D01*
X221296800Y-31203701D01*
X221422371Y-30528894D01*
X221422683Y-30527411D01*
X221423068Y-30525947D01*
X221423523Y-30524503D01*
X221424046Y-30523082D01*
X221424634Y-30521685D01*
X221425286Y-30520314D01*
X221425999Y-30518972D01*
X221426771Y-30517660D01*
X221427599Y-30516379D01*
X221428482Y-30515132D01*
X221430403Y-30512746D01*
X221432514Y-30510517D01*
X221434798Y-30508460D01*
X221437237Y-30506589D01*
X221439813Y-30504920D01*
X221442508Y-30503467D01*
X221443894Y-30502826D01*
X221445304Y-30502245D01*
X221446734Y-30501725D01*
X221448182Y-30501268D01*
X221449647Y-30500877D01*
X221451126Y-30500552D01*
X221452617Y-30500297D01*
X221454117Y-30500112D01*
X221455625Y-30500000D01*
X221457137Y-30499962D01*
X222128650Y-30499962D01*
X222130166Y-30500000D01*
G37*
G36*
X221903225Y-37461069D02*
G01*
X221906042Y-37461069D01*
X222067650Y-36962118D01*
X222171671Y-36962118D01*
X222333278Y-37461069D01*
X222336176Y-37461069D01*
X222472423Y-36962118D01*
X222624267Y-36962118D01*
X222396620Y-37674708D01*
X222270056Y-37674708D01*
X222121069Y-37175716D01*
X222118251Y-37175716D01*
X221969265Y-37674708D01*
X221842780Y-37674708D01*
X221615093Y-36962118D01*
X221766858Y-36962118D01*
X221903225Y-37461069D01*
G37*
G36*
X222960897Y-36260960D02*
G01*
X222961073Y-36269930D01*
X222961595Y-36278658D01*
X222962458Y-36287143D01*
X222963653Y-36295381D01*
X222965173Y-36303369D01*
X222967012Y-36311104D01*
X222969161Y-36318584D01*
X222971614Y-36325806D01*
X222974364Y-36332766D01*
X222977402Y-36339462D01*
X222980723Y-36345892D01*
X222984318Y-36352051D01*
X222988181Y-36357938D01*
X222992305Y-36363550D01*
X222996681Y-36368883D01*
X223001304Y-36373935D01*
X223006165Y-36378702D01*
X223011257Y-36383183D01*
X223016574Y-36387375D01*
X223022108Y-36391273D01*
X223027852Y-36394876D01*
X223033798Y-36398181D01*
X223039940Y-36401185D01*
X223046270Y-36403884D01*
X223052781Y-36406277D01*
X223059466Y-36408360D01*
X223066317Y-36410130D01*
X223073328Y-36411585D01*
X223080491Y-36412722D01*
X223087798Y-36413537D01*
X223095243Y-36414028D01*
X223102819Y-36414193D01*
X223110276Y-36414028D01*
X223117610Y-36413537D01*
X223124813Y-36412722D01*
X223131878Y-36411585D01*
X223138798Y-36410130D01*
X223145565Y-36408360D01*
X223152172Y-36406277D01*
X223158611Y-36403884D01*
X223164875Y-36401185D01*
X223170956Y-36398181D01*
X223176847Y-36394876D01*
X223182540Y-36391273D01*
X223188029Y-36387375D01*
X223193304Y-36383183D01*
X223198360Y-36378702D01*
X223203189Y-36373935D01*
X223207782Y-36368883D01*
X223212134Y-36363550D01*
X223216235Y-36357938D01*
X223220079Y-36352051D01*
X223223659Y-36345892D01*
X223226966Y-36339462D01*
X223229994Y-36332766D01*
X223232735Y-36325806D01*
X223235181Y-36318584D01*
X223237325Y-36311104D01*
X223239160Y-36303369D01*
X223240678Y-36295381D01*
X223241872Y-36287143D01*
X223242734Y-36278658D01*
X223243256Y-36269930D01*
X223243432Y-36260960D01*
X223243432Y-35836501D01*
X223386743Y-35836501D01*
X223386743Y-36549170D01*
X223243432Y-36549170D01*
X223243432Y-36473208D01*
X223240654Y-36473208D01*
X223231994Y-36483416D01*
X223222885Y-36492967D01*
X223213342Y-36501859D01*
X223203381Y-36510094D01*
X223193016Y-36517670D01*
X223182261Y-36524588D01*
X223171131Y-36530848D01*
X223159642Y-36536450D01*
X223147807Y-36541393D01*
X223135642Y-36545677D01*
X223123162Y-36549302D01*
X223110381Y-36552269D01*
X223097314Y-36554576D01*
X223083975Y-36556225D01*
X223070380Y-36557214D01*
X223056544Y-36557544D01*
X223045966Y-36557293D01*
X223035331Y-36556541D01*
X223013995Y-36553544D01*
X222992740Y-36548567D01*
X222982208Y-36545340D01*
X222971773Y-36541624D01*
X222961462Y-36537420D01*
X222951300Y-36532729D01*
X222941312Y-36527555D01*
X222931526Y-36521898D01*
X222921966Y-36515760D01*
X222912658Y-36509143D01*
X222903628Y-36502049D01*
X222894901Y-36494480D01*
X222886504Y-36486438D01*
X222878462Y-36477924D01*
X222870801Y-36468940D01*
X222863547Y-36459488D01*
X222856725Y-36449570D01*
X222850361Y-36439187D01*
X222844481Y-36428342D01*
X222839111Y-36417035D01*
X222834276Y-36405270D01*
X222830002Y-36393048D01*
X222826315Y-36380370D01*
X222823241Y-36367238D01*
X222820805Y-36353655D01*
X222819033Y-36339621D01*
X222817951Y-36325140D01*
X222817585Y-36310212D01*
X222817585Y-35836501D01*
X222960897Y-35836501D01*
X222960897Y-36260960D01*
G37*
G36*
X221538378Y-37674708D02*
G01*
X221395026Y-37674708D01*
X221395026Y-37600214D01*
X221386351Y-37609243D01*
X221377202Y-37617885D01*
X221367599Y-37626114D01*
X221357563Y-37633903D01*
X221347115Y-37641224D01*
X221336275Y-37648051D01*
X221325065Y-37654356D01*
X221313503Y-37660112D01*
X221301612Y-37665293D01*
X221289412Y-37669871D01*
X221276924Y-37673819D01*
X221264167Y-37677110D01*
X221251164Y-37679717D01*
X221237934Y-37681612D01*
X221224498Y-37682769D01*
X221210876Y-37683161D01*
X221202776Y-37683046D01*
X221194815Y-37682706D01*
X221186994Y-37682144D01*
X221179313Y-37681365D01*
X221171770Y-37680374D01*
X221164367Y-37679176D01*
X221157102Y-37677774D01*
X221149975Y-37676175D01*
X221142987Y-37674382D01*
X221136136Y-37672399D01*
X221129423Y-37670233D01*
X221122847Y-37667887D01*
X221116408Y-37665366D01*
X221110106Y-37662674D01*
X221097911Y-37656799D01*
X221086259Y-37650297D01*
X221075149Y-37643206D01*
X221064579Y-37635564D01*
X221054545Y-37627406D01*
X221045047Y-37618771D01*
X221036082Y-37609696D01*
X221027647Y-37600217D01*
X221019741Y-37590372D01*
X221012685Y-37580901D01*
X221006263Y-37571334D01*
X221000452Y-37561476D01*
X220995225Y-37551130D01*
X220990559Y-37540101D01*
X220986429Y-37528194D01*
X220982810Y-37515212D01*
X220979677Y-37500961D01*
X220977005Y-37485244D01*
X220974769Y-37467866D01*
X220972946Y-37448631D01*
X220971510Y-37427344D01*
X220969699Y-37377830D01*
X220969140Y-37317759D01*
X221112491Y-37317759D01*
X221112603Y-37338545D01*
X221113056Y-37359169D01*
X221114029Y-37379467D01*
X221115697Y-37399278D01*
X221118238Y-37418439D01*
X221119891Y-37427724D01*
X221121829Y-37436786D01*
X221124074Y-37445604D01*
X221126648Y-37454158D01*
X221129572Y-37462427D01*
X221132870Y-37470391D01*
X221136564Y-37478030D01*
X221140674Y-37485324D01*
X221145225Y-37492252D01*
X221150237Y-37498793D01*
X221155732Y-37504928D01*
X221161734Y-37510636D01*
X221168264Y-37515897D01*
X221175345Y-37520691D01*
X221182997Y-37524996D01*
X221191245Y-37528794D01*
X221200109Y-37532063D01*
X221209611Y-37534783D01*
X221219775Y-37536934D01*
X221230622Y-37538496D01*
X221242174Y-37539448D01*
X221254453Y-37539770D01*
X221266606Y-37539428D01*
X221278040Y-37538419D01*
X221288776Y-37536768D01*
X221298836Y-37534497D01*
X221308243Y-37531631D01*
X221317017Y-37528195D01*
X221325182Y-37524213D01*
X221332758Y-37519709D01*
X221339768Y-37514706D01*
X221346234Y-37509230D01*
X221352177Y-37503303D01*
X221357620Y-37496952D01*
X221362583Y-37490198D01*
X221367090Y-37483068D01*
X221371162Y-37475584D01*
X221374820Y-37467772D01*
X221378088Y-37459655D01*
X221380986Y-37451257D01*
X221385761Y-37433717D01*
X221389321Y-37415344D01*
X221391842Y-37396332D01*
X221393498Y-37376874D01*
X221394464Y-37357163D01*
X221395026Y-37317759D01*
X221394915Y-37298366D01*
X221394464Y-37278805D01*
X221393498Y-37259273D01*
X221391842Y-37239964D01*
X221389321Y-37221074D01*
X221387682Y-37211848D01*
X221385761Y-37202800D01*
X221383536Y-37193955D01*
X221380986Y-37185337D01*
X221378088Y-37176971D01*
X221374820Y-37168881D01*
X221371162Y-37161091D01*
X221367090Y-37153627D01*
X221362583Y-37146513D01*
X221357620Y-37139772D01*
X221352177Y-37133431D01*
X221346234Y-37127512D01*
X221339768Y-37122041D01*
X221332758Y-37117041D01*
X221325182Y-37112539D01*
X221317017Y-37108557D01*
X221308243Y-37105120D01*
X221298836Y-37102254D01*
X221288776Y-37099982D01*
X221278040Y-37098329D01*
X221266606Y-37097319D01*
X221254453Y-37096977D01*
X221242174Y-37097299D01*
X221230622Y-37098251D01*
X221219775Y-37099813D01*
X221209611Y-37101964D01*
X221200109Y-37104684D01*
X221191245Y-37107951D01*
X221182997Y-37111746D01*
X221175345Y-37116048D01*
X221168264Y-37120836D01*
X221161734Y-37126089D01*
X221155732Y-37131787D01*
X221150237Y-37137910D01*
X221145225Y-37144436D01*
X221140674Y-37151345D01*
X221136564Y-37158617D01*
X221132870Y-37166231D01*
X221129572Y-37174167D01*
X221126648Y-37182403D01*
X221121829Y-37199695D01*
X221118238Y-37217944D01*
X221115697Y-37236983D01*
X221114029Y-37256649D01*
X221113056Y-37276777D01*
X221112491Y-37317759D01*
X220969140Y-37317759D01*
X220969275Y-37286522D01*
X220969699Y-37258094D01*
X220970436Y-37232279D01*
X220971510Y-37208886D01*
X220972946Y-37187719D01*
X220974770Y-37168585D01*
X220977005Y-37151291D01*
X220979677Y-37135642D01*
X220982810Y-37121446D01*
X220984557Y-37114831D01*
X220986429Y-37108508D01*
X220988429Y-37102450D01*
X220990560Y-37096634D01*
X220992824Y-37091036D01*
X220995225Y-37085631D01*
X221000452Y-37075306D01*
X221006263Y-37065463D01*
X221012685Y-37055911D01*
X221019741Y-37046455D01*
X221027647Y-37036596D01*
X221036082Y-37027108D01*
X221045047Y-37018026D01*
X221054545Y-37009387D01*
X221064579Y-37001228D01*
X221075149Y-36993585D01*
X221086259Y-36986497D01*
X221097911Y-36979998D01*
X221110106Y-36974126D01*
X221122847Y-36968918D01*
X221136136Y-36964411D01*
X221149975Y-36960640D01*
X221164367Y-36957644D01*
X221179313Y-36955458D01*
X221194815Y-36954120D01*
X221210876Y-36953665D01*
X221224405Y-36954057D01*
X221237587Y-36955214D01*
X221250439Y-36957112D01*
X221262979Y-36959727D01*
X221275221Y-36963034D01*
X221287183Y-36967008D01*
X221298882Y-36971624D01*
X221310333Y-36976858D01*
X221321554Y-36982685D01*
X221332560Y-36989080D01*
X221343369Y-36996019D01*
X221353997Y-37003477D01*
X221364460Y-37011428D01*
X221374775Y-37019850D01*
X221384958Y-37028715D01*
X221395026Y-37038001D01*
X221395026Y-36673908D01*
X221538378Y-36673908D01*
X221538378Y-37674708D01*
G37*
G36*
X224931619Y-35828388D02*
G01*
X224946160Y-35829403D01*
X224960536Y-35831083D01*
X224974726Y-35833420D01*
X224988709Y-35836404D01*
X225002464Y-35840026D01*
X225015970Y-35844278D01*
X225029206Y-35849151D01*
X225042150Y-35854635D01*
X225054781Y-35860722D01*
X225067078Y-35867402D01*
X225079020Y-35874667D01*
X225090586Y-35882508D01*
X225101754Y-35890915D01*
X225112504Y-35899879D01*
X225122814Y-35909392D01*
X225132663Y-35919445D01*
X225142030Y-35930029D01*
X225150894Y-35941134D01*
X225159233Y-35952752D01*
X225167027Y-35964873D01*
X225174254Y-35977489D01*
X225180894Y-35990591D01*
X225186924Y-36004169D01*
X225192324Y-36018216D01*
X225197073Y-36032720D01*
X225201149Y-36047675D01*
X225204531Y-36063070D01*
X225207199Y-36078897D01*
X225209131Y-36095147D01*
X225210305Y-36111811D01*
X225210702Y-36128879D01*
X225210702Y-36246949D01*
X224766559Y-36246949D01*
X224766767Y-36257719D01*
X224767387Y-36268151D01*
X224768411Y-36278245D01*
X224769829Y-36288000D01*
X224771634Y-36297417D01*
X224773819Y-36306495D01*
X224776373Y-36315233D01*
X224779290Y-36323633D01*
X224782561Y-36331692D01*
X224786177Y-36339411D01*
X224790132Y-36346790D01*
X224794415Y-36353829D01*
X224799020Y-36360527D01*
X224803938Y-36366883D01*
X224809161Y-36372899D01*
X224814680Y-36378572D01*
X224820488Y-36383904D01*
X224826575Y-36388894D01*
X224832935Y-36393542D01*
X224839559Y-36397847D01*
X224846437Y-36401809D01*
X224853564Y-36405427D01*
X224860929Y-36408703D01*
X224868525Y-36411635D01*
X224876344Y-36414222D01*
X224884377Y-36416466D01*
X224892617Y-36418365D01*
X224901054Y-36419920D01*
X224909682Y-36421129D01*
X224918490Y-36421993D01*
X224927473Y-36422512D01*
X224936620Y-36422685D01*
X224946940Y-36422390D01*
X224957328Y-36421512D01*
X224967751Y-36420061D01*
X224978180Y-36418048D01*
X224988584Y-36415483D01*
X224998932Y-36412376D01*
X225009194Y-36408737D01*
X225019338Y-36404578D01*
X225029335Y-36399908D01*
X225039153Y-36394738D01*
X225048762Y-36389077D01*
X225058130Y-36382937D01*
X225067229Y-36376328D01*
X225076025Y-36369260D01*
X225084490Y-36361743D01*
X225092592Y-36353788D01*
X225196613Y-36442291D01*
X225183205Y-36457019D01*
X225169325Y-36470648D01*
X225154998Y-36483198D01*
X225140250Y-36494690D01*
X225125104Y-36505144D01*
X225109587Y-36514581D01*
X225093722Y-36523022D01*
X225077536Y-36530487D01*
X225061052Y-36536996D01*
X225044296Y-36542571D01*
X225027292Y-36547232D01*
X225010066Y-36550999D01*
X224992643Y-36553893D01*
X224975047Y-36555935D01*
X224957304Y-36557145D01*
X224939438Y-36557544D01*
X224911791Y-36556682D01*
X224883870Y-36553951D01*
X224855958Y-36549127D01*
X224828339Y-36541988D01*
X224801297Y-36532312D01*
X224788081Y-36526454D01*
X224775116Y-36519878D01*
X224762438Y-36512557D01*
X224750081Y-36504462D01*
X224738081Y-36495567D01*
X224726475Y-36485843D01*
X224715297Y-36475263D01*
X224704582Y-36463799D01*
X224694367Y-36451423D01*
X224684687Y-36438107D01*
X224675577Y-36423824D01*
X224667073Y-36408546D01*
X224659210Y-36392245D01*
X224652025Y-36374893D01*
X224645552Y-36356462D01*
X224639826Y-36336926D01*
X224634884Y-36316255D01*
X224630761Y-36294422D01*
X224627493Y-36271400D01*
X224625114Y-36247161D01*
X224623661Y-36221676D01*
X224623168Y-36194919D01*
X224623620Y-36169508D01*
X224624953Y-36145174D01*
X224626478Y-36128919D01*
X224766558Y-36128919D01*
X225067311Y-36128919D01*
X225066745Y-36118914D01*
X225065848Y-36109208D01*
X225064628Y-36099801D01*
X225063089Y-36090695D01*
X225061239Y-36081892D01*
X225059083Y-36073391D01*
X225056629Y-36065196D01*
X225053882Y-36057307D01*
X225050850Y-36049724D01*
X225047538Y-36042451D01*
X225043953Y-36035487D01*
X225040101Y-36028834D01*
X225035989Y-36022493D01*
X225031623Y-36016466D01*
X225027010Y-36010754D01*
X225022156Y-36005358D01*
X225017067Y-36000279D01*
X225011750Y-35995518D01*
X225006211Y-35991078D01*
X225000456Y-35986958D01*
X224994493Y-35983161D01*
X224988327Y-35979687D01*
X224981964Y-35976539D01*
X224975412Y-35973716D01*
X224968677Y-35971221D01*
X224961765Y-35969054D01*
X224954682Y-35967217D01*
X224947435Y-35965712D01*
X224940030Y-35964539D01*
X224932474Y-35963699D01*
X224924773Y-35963194D01*
X224916934Y-35963026D01*
X224909091Y-35963194D01*
X224901378Y-35963699D01*
X224893803Y-35964539D01*
X224886373Y-35965712D01*
X224879096Y-35967217D01*
X224871978Y-35969054D01*
X224865027Y-35971221D01*
X224858250Y-35973716D01*
X224851654Y-35976539D01*
X224845246Y-35979687D01*
X224839034Y-35983161D01*
X224833025Y-35986958D01*
X224827226Y-35991077D01*
X224821645Y-35995518D01*
X224816288Y-36000278D01*
X224811162Y-36005357D01*
X224806276Y-36010754D01*
X224801636Y-36016466D01*
X224797249Y-36022493D01*
X224793122Y-36028834D01*
X224789264Y-36035486D01*
X224785680Y-36042450D01*
X224782379Y-36049724D01*
X224779367Y-36057306D01*
X224776652Y-36065196D01*
X224774240Y-36073391D01*
X224772140Y-36081891D01*
X224770358Y-36090695D01*
X224768902Y-36099801D01*
X224767778Y-36109208D01*
X224766995Y-36118914D01*
X224766558Y-36128919D01*
X224626478Y-36128919D01*
X224627136Y-36121899D01*
X224630138Y-36099666D01*
X224633925Y-36078457D01*
X224638467Y-36058254D01*
X224643731Y-36039039D01*
X224649686Y-36020795D01*
X224656300Y-36003504D01*
X224663540Y-35987149D01*
X224671376Y-35971711D01*
X224679775Y-35957172D01*
X224688705Y-35943516D01*
X224698134Y-35930723D01*
X224708031Y-35918778D01*
X224718363Y-35907661D01*
X224729100Y-35897356D01*
X224740208Y-35887843D01*
X224751657Y-35879107D01*
X224763413Y-35871128D01*
X224775446Y-35863890D01*
X224787724Y-35857374D01*
X224800214Y-35851562D01*
X224812885Y-35846438D01*
X224825704Y-35841983D01*
X224838641Y-35838180D01*
X224851663Y-35835010D01*
X224864738Y-35832456D01*
X224890921Y-35829126D01*
X224916935Y-35828048D01*
X224931619Y-35828388D01*
G37*
G36*
X222411705Y-35828187D02*
G01*
X222421727Y-35828596D01*
X222431492Y-35829267D01*
X222441003Y-35830188D01*
X222450264Y-35831353D01*
X222459278Y-35832749D01*
X222468047Y-35834369D01*
X222476577Y-35836202D01*
X222484869Y-35838239D01*
X222492928Y-35840470D01*
X222500757Y-35842886D01*
X222508358Y-35845478D01*
X222515736Y-35848235D01*
X222522894Y-35851149D01*
X222529835Y-35854210D01*
X222536563Y-35857407D01*
X222549391Y-35864176D01*
X222561406Y-35871379D01*
X222572634Y-35878940D01*
X222583102Y-35886783D01*
X222592838Y-35894832D01*
X222601868Y-35903010D01*
X222610218Y-35911241D01*
X222617917Y-35919448D01*
X222627817Y-35930788D01*
X222636973Y-35942235D01*
X222645401Y-35953928D01*
X222653113Y-35966008D01*
X222660125Y-35978615D01*
X222666452Y-35991889D01*
X222672107Y-36005970D01*
X222677106Y-36020999D01*
X222681462Y-36037115D01*
X222685191Y-36054458D01*
X222688306Y-36073169D01*
X222690822Y-36093388D01*
X222692754Y-36115254D01*
X222694116Y-36138909D01*
X222694923Y-36164491D01*
X222695189Y-36192142D01*
X222694923Y-36220024D01*
X222694116Y-36245810D01*
X222692754Y-36269644D01*
X222690822Y-36291665D01*
X222688306Y-36312017D01*
X222685191Y-36330840D01*
X222681462Y-36348277D01*
X222677106Y-36364470D01*
X222672107Y-36379560D01*
X222666452Y-36393689D01*
X222660125Y-36406999D01*
X222653113Y-36419631D01*
X222645401Y-36431728D01*
X222636973Y-36443431D01*
X222627817Y-36454883D01*
X222617917Y-36466224D01*
X222610218Y-36474430D01*
X222601867Y-36482659D01*
X222592838Y-36490833D01*
X222583102Y-36498876D01*
X222572634Y-36506713D01*
X222561406Y-36514268D01*
X222549391Y-36521464D01*
X222536563Y-36528225D01*
X222522894Y-36534476D01*
X222508358Y-36540140D01*
X222492928Y-36545141D01*
X222476577Y-36549403D01*
X222459278Y-36552851D01*
X222441003Y-36555407D01*
X222421727Y-36556997D01*
X222401422Y-36557544D01*
X222391146Y-36557406D01*
X222381131Y-36556997D01*
X222371372Y-36556328D01*
X222361867Y-36555407D01*
X222352611Y-36554245D01*
X222343603Y-36552851D01*
X222334838Y-36551234D01*
X222326312Y-36549403D01*
X222318024Y-36547369D01*
X222309969Y-36545141D01*
X222302144Y-36542728D01*
X222294545Y-36540140D01*
X222287170Y-36537386D01*
X222280015Y-36534476D01*
X222273076Y-36531419D01*
X222266350Y-36528225D01*
X222253525Y-36521464D01*
X222241513Y-36514268D01*
X222230287Y-36506713D01*
X222219820Y-36498876D01*
X222210085Y-36490833D01*
X222201055Y-36482659D01*
X222192705Y-36474430D01*
X222185006Y-36466224D01*
X222175105Y-36454883D01*
X222165946Y-36443433D01*
X222157515Y-36431731D01*
X222149797Y-36419637D01*
X222142779Y-36407007D01*
X222136446Y-36393699D01*
X222130783Y-36379572D01*
X222125777Y-36364485D01*
X222121414Y-36348294D01*
X222117678Y-36330857D01*
X222114556Y-36312034D01*
X222112034Y-36291682D01*
X222110097Y-36269658D01*
X222108731Y-36245822D01*
X222107922Y-36220030D01*
X222107655Y-36192142D01*
X222251046Y-36192142D01*
X222251147Y-36210776D01*
X222251461Y-36227757D01*
X222252002Y-36243208D01*
X222252784Y-36257256D01*
X222253822Y-36270028D01*
X222255131Y-36281648D01*
X222256724Y-36292242D01*
X222258616Y-36301937D01*
X222260821Y-36310858D01*
X222263355Y-36319131D01*
X222266231Y-36326881D01*
X222269463Y-36334235D01*
X222273067Y-36341319D01*
X222277056Y-36348257D01*
X222281445Y-36355176D01*
X222286248Y-36362203D01*
X222290462Y-36367660D01*
X222295210Y-36372927D01*
X222300463Y-36377984D01*
X222306192Y-36382806D01*
X222312368Y-36387372D01*
X222318961Y-36391659D01*
X222325943Y-36395644D01*
X222333283Y-36399306D01*
X222340953Y-36402621D01*
X222348924Y-36405566D01*
X222357166Y-36408121D01*
X222365650Y-36410261D01*
X222374347Y-36411965D01*
X222383227Y-36413210D01*
X222392262Y-36413974D01*
X222401421Y-36414233D01*
X222410594Y-36413973D01*
X222419639Y-36413209D01*
X222428526Y-36411962D01*
X222437228Y-36410256D01*
X222445715Y-36408113D01*
X222453958Y-36405556D01*
X222461929Y-36402608D01*
X222469600Y-36399291D01*
X222476940Y-36395628D01*
X222483922Y-36391641D01*
X222490517Y-36387354D01*
X222496696Y-36382789D01*
X222502430Y-36377969D01*
X222507690Y-36372916D01*
X222512447Y-36367653D01*
X222514629Y-36364950D01*
X222516674Y-36362203D01*
X222521477Y-36355177D01*
X222525863Y-36348260D01*
X222529848Y-36341328D01*
X222533447Y-36334257D01*
X222536673Y-36326924D01*
X222539542Y-36319204D01*
X222542069Y-36310974D01*
X222544267Y-36302111D01*
X222546152Y-36292490D01*
X222547737Y-36281987D01*
X222549039Y-36270479D01*
X222550071Y-36257843D01*
X222550849Y-36243953D01*
X222551386Y-36228687D01*
X222551798Y-36193531D01*
X222551697Y-36174895D01*
X222551386Y-36157913D01*
X222550849Y-36142458D01*
X222550071Y-36128405D01*
X222549039Y-36115629D01*
X222547737Y-36104004D01*
X222546152Y-36093404D01*
X222544267Y-36083705D01*
X222542069Y-36074781D01*
X222539542Y-36066507D01*
X222536673Y-36058756D01*
X222533447Y-36051403D01*
X222529848Y-36044324D01*
X222525863Y-36037392D01*
X222521477Y-36030483D01*
X222516674Y-36023470D01*
X222512447Y-36018013D01*
X222507690Y-36012745D01*
X222502430Y-36007688D01*
X222496696Y-36002866D01*
X222490517Y-35998300D01*
X222483922Y-35994013D01*
X222476940Y-35990028D01*
X222469600Y-35986366D01*
X222461929Y-35983052D01*
X222453958Y-35980106D01*
X222445715Y-35977551D01*
X222437228Y-35975411D01*
X222428526Y-35973707D01*
X222419639Y-35972462D01*
X222410594Y-35971698D01*
X222401421Y-35971439D01*
X222392262Y-35971699D01*
X222383227Y-35972464D01*
X222374347Y-35973710D01*
X222365650Y-35975416D01*
X222357166Y-35977559D01*
X222348924Y-35980116D01*
X222340953Y-35983064D01*
X222333283Y-35986381D01*
X222325943Y-35990044D01*
X222318961Y-35994031D01*
X222312368Y-35998318D01*
X222306192Y-36002883D01*
X222300463Y-36007703D01*
X222295210Y-36012756D01*
X222290462Y-36018019D01*
X222288286Y-36020722D01*
X222286248Y-36023470D01*
X222281445Y-36030482D01*
X222277056Y-36037390D01*
X222273067Y-36044315D01*
X222269463Y-36051382D01*
X222266231Y-36058713D01*
X222263355Y-36066433D01*
X222260821Y-36074665D01*
X222258616Y-36083532D01*
X222256724Y-36093157D01*
X222255131Y-36103665D01*
X222253822Y-36115177D01*
X222252784Y-36127819D01*
X222252002Y-36141713D01*
X222251461Y-36156982D01*
X222251046Y-36192142D01*
X222107655Y-36192142D01*
X222107922Y-36164491D01*
X222108731Y-36138910D01*
X222110097Y-36115258D01*
X222112034Y-36093393D01*
X222114556Y-36073177D01*
X222117678Y-36054468D01*
X222121414Y-36037127D01*
X222125777Y-36021014D01*
X222130783Y-36005987D01*
X222136446Y-35991907D01*
X222142779Y-35978633D01*
X222149797Y-35966025D01*
X222157515Y-35953943D01*
X222165946Y-35942246D01*
X222175105Y-35930795D01*
X222185006Y-35919448D01*
X222192705Y-35911241D01*
X222201055Y-35903010D01*
X222210085Y-35894832D01*
X222219820Y-35886783D01*
X222230287Y-35878940D01*
X222241513Y-35871379D01*
X222253526Y-35864176D01*
X222266350Y-35857407D01*
X222280015Y-35851149D01*
X222294545Y-35845478D01*
X222309969Y-35840470D01*
X222326313Y-35836202D01*
X222343603Y-35832749D01*
X222361867Y-35830189D01*
X222381131Y-35828596D01*
X222401422Y-35828048D01*
X222411705Y-35828187D01*
G37*
G36*
X220827913Y-36953910D02*
G01*
X220838387Y-36954637D01*
X220848645Y-36955832D01*
X220858695Y-36957485D01*
X220868547Y-36959583D01*
X220878208Y-36962112D01*
X220887687Y-36965062D01*
X220896993Y-36968419D01*
X220906133Y-36972172D01*
X220915117Y-36976307D01*
X220923953Y-36980814D01*
X220932649Y-36985678D01*
X220941213Y-36990889D01*
X220949655Y-36996433D01*
X220957982Y-37002299D01*
X220966203Y-37008474D01*
X220862222Y-37132180D01*
X220856006Y-37127605D01*
X220849989Y-37123386D01*
X220844136Y-37119514D01*
X220838415Y-37115981D01*
X220832792Y-37112778D01*
X220827236Y-37109897D01*
X220821713Y-37107330D01*
X220816189Y-37105069D01*
X220810632Y-37103104D01*
X220805010Y-37101429D01*
X220799288Y-37100034D01*
X220793435Y-37098912D01*
X220787417Y-37098053D01*
X220781201Y-37097450D01*
X220774754Y-37097094D01*
X220768043Y-37096977D01*
X220754897Y-37097509D01*
X220741883Y-37099116D01*
X220729098Y-37101820D01*
X220716643Y-37105640D01*
X220710570Y-37107975D01*
X220704617Y-37110597D01*
X220698795Y-37113508D01*
X220693117Y-37116711D01*
X220687595Y-37120209D01*
X220682243Y-37124003D01*
X220677071Y-37128097D01*
X220672094Y-37132493D01*
X220667322Y-37137193D01*
X220662768Y-37142200D01*
X220658445Y-37147517D01*
X220654365Y-37153146D01*
X220650541Y-37159090D01*
X220646984Y-37165351D01*
X220643707Y-37171932D01*
X220640723Y-37178835D01*
X220638043Y-37186062D01*
X220635681Y-37193617D01*
X220633648Y-37201502D01*
X220631957Y-37209720D01*
X220630620Y-37218272D01*
X220629650Y-37227162D01*
X220629059Y-37236392D01*
X220628859Y-37245964D01*
X220628859Y-37674708D01*
X220485508Y-37674708D01*
X220485508Y-36962118D01*
X220628859Y-36962118D01*
X220628859Y-37038001D01*
X220631677Y-37038001D01*
X220640337Y-37027793D01*
X220649447Y-37018243D01*
X220658994Y-37009350D01*
X220668966Y-37001116D01*
X220679351Y-36993539D01*
X220690135Y-36986621D01*
X220701306Y-36980361D01*
X220712853Y-36974759D01*
X220724761Y-36969816D01*
X220737020Y-36965532D01*
X220749615Y-36961907D01*
X220762536Y-36958940D01*
X220775769Y-36956633D01*
X220789301Y-36954984D01*
X220803121Y-36953995D01*
X220817216Y-36953665D01*
X220827913Y-36953910D01*
G37*
G36*
X224340986Y-35828199D02*
G01*
X224350931Y-35828649D01*
X224360745Y-35829392D01*
X224370427Y-35830422D01*
X224389393Y-35833319D01*
X224407827Y-35837292D01*
X224425728Y-35842295D01*
X224443091Y-35848280D01*
X224459916Y-35855200D01*
X224476200Y-35863008D01*
X224491940Y-35871656D01*
X224507133Y-35881097D01*
X224521779Y-35891284D01*
X224535873Y-35902170D01*
X224549414Y-35913707D01*
X224562400Y-35925848D01*
X224574828Y-35938546D01*
X224586695Y-35951754D01*
X224481284Y-36045933D01*
X224474526Y-36037915D01*
X224467413Y-36030220D01*
X224459957Y-36022876D01*
X224452168Y-36015909D01*
X224444056Y-36009345D01*
X224435633Y-36003212D01*
X224426909Y-35997536D01*
X224417894Y-35992344D01*
X224408599Y-35987663D01*
X224399035Y-35983519D01*
X224389212Y-35979939D01*
X224379140Y-35976951D01*
X224368831Y-35974579D01*
X224358295Y-35972853D01*
X224347543Y-35971797D01*
X224336584Y-35971439D01*
X224315271Y-35972219D01*
X224295110Y-35974581D01*
X224285470Y-35976367D01*
X224276130Y-35978562D01*
X224267093Y-35981169D01*
X224258362Y-35984195D01*
X224249943Y-35987642D01*
X224241839Y-35991516D01*
X224234053Y-35995820D01*
X224226590Y-36000560D01*
X224219453Y-36005738D01*
X224212646Y-36011361D01*
X224206174Y-36017432D01*
X224200039Y-36023956D01*
X224194247Y-36030936D01*
X224188800Y-36038378D01*
X224183702Y-36046285D01*
X224178958Y-36054663D01*
X224174571Y-36063515D01*
X224170546Y-36072845D01*
X224166886Y-36082659D01*
X224163594Y-36092961D01*
X224160675Y-36103755D01*
X224158133Y-36115044D01*
X224155971Y-36126835D01*
X224154194Y-36139130D01*
X224151808Y-36165254D01*
X224151006Y-36193451D01*
X224151207Y-36207692D01*
X224151808Y-36221418D01*
X224152806Y-36234634D01*
X224154196Y-36247343D01*
X224155974Y-36259549D01*
X224158136Y-36271258D01*
X224160680Y-36282472D01*
X224163600Y-36293196D01*
X224166892Y-36303434D01*
X224170554Y-36313191D01*
X224174581Y-36322469D01*
X224178969Y-36331274D01*
X224183714Y-36339610D01*
X224188813Y-36347480D01*
X224194261Y-36354889D01*
X224200054Y-36361840D01*
X224206190Y-36368338D01*
X224212663Y-36374388D01*
X224219470Y-36379992D01*
X224226607Y-36385156D01*
X224234071Y-36389883D01*
X224241857Y-36394177D01*
X224249961Y-36398043D01*
X224258379Y-36401485D01*
X224267109Y-36404506D01*
X224276145Y-36407111D01*
X224285483Y-36409304D01*
X224295121Y-36411089D01*
X224305054Y-36412471D01*
X224315278Y-36413452D01*
X224325789Y-36414038D01*
X224336584Y-36414233D01*
X224342088Y-36414143D01*
X224347542Y-36413875D01*
X224352944Y-36413432D01*
X224358294Y-36412819D01*
X224368828Y-36411092D01*
X224379135Y-36408721D01*
X224389204Y-36405732D01*
X224399024Y-36402152D01*
X224408586Y-36398009D01*
X224417879Y-36393327D01*
X224426892Y-36388135D01*
X224435616Y-36382459D01*
X224444039Y-36376326D01*
X224452151Y-36369763D01*
X224459942Y-36362796D01*
X224467402Y-36355451D01*
X224474519Y-36347757D01*
X224481284Y-36339739D01*
X224586695Y-36433917D01*
X224574834Y-36447104D01*
X224562413Y-36459785D01*
X224549432Y-36471912D01*
X224535895Y-36483438D01*
X224521804Y-36494315D01*
X224507161Y-36504496D01*
X224491968Y-36513933D01*
X224476229Y-36522579D01*
X224459945Y-36530385D01*
X224443119Y-36537305D01*
X224425753Y-36543291D01*
X224407850Y-36548295D01*
X224389411Y-36552270D01*
X224370440Y-36555168D01*
X224350938Y-36556942D01*
X224330908Y-36557544D01*
X224300182Y-36556313D01*
X224269811Y-36552569D01*
X224240020Y-36546236D01*
X224211033Y-36537238D01*
X224196912Y-36531715D01*
X224183075Y-36525497D01*
X224169553Y-36518574D01*
X224156371Y-36510937D01*
X224143560Y-36502576D01*
X224131145Y-36493481D01*
X224119157Y-36483644D01*
X224107622Y-36473054D01*
X224096568Y-36461702D01*
X224086025Y-36449578D01*
X224076019Y-36436672D01*
X224066579Y-36422976D01*
X224057733Y-36408480D01*
X224049509Y-36393173D01*
X224041935Y-36377047D01*
X224035040Y-36360092D01*
X224028850Y-36342298D01*
X224023395Y-36323655D01*
X224018702Y-36304155D01*
X224014799Y-36283787D01*
X224011715Y-36262543D01*
X224009477Y-36240411D01*
X224008114Y-36217384D01*
X224007654Y-36193451D01*
X224008114Y-36169406D01*
X224009477Y-36146273D01*
X224011715Y-36124042D01*
X224014799Y-36102705D01*
X224018702Y-36082250D01*
X224023395Y-36062669D01*
X224028850Y-36043951D01*
X224035040Y-36026086D01*
X224041935Y-36009066D01*
X224049509Y-35992879D01*
X224057733Y-35977517D01*
X224066579Y-35962970D01*
X224076019Y-35949227D01*
X224086025Y-35936280D01*
X224096568Y-35924118D01*
X224107622Y-35912731D01*
X224119157Y-35902110D01*
X224131145Y-35892245D01*
X224143560Y-35883127D01*
X224156371Y-35874745D01*
X224169553Y-35867089D01*
X224183075Y-35860151D01*
X224196912Y-35853919D01*
X224211033Y-35848385D01*
X224225412Y-35843539D01*
X224240020Y-35839370D01*
X224254829Y-35835870D01*
X224269811Y-35833028D01*
X224284938Y-35830835D01*
X224300182Y-35829280D01*
X224330908Y-35828048D01*
X224340986Y-35828199D01*
G37*
G36*
X222944597Y-36954371D02*
G01*
X222975495Y-36956546D01*
X223004917Y-36960273D01*
X223019044Y-36962745D01*
X223032765Y-36965637D01*
X223046069Y-36968960D01*
X223058943Y-36972723D01*
X223071375Y-36976937D01*
X223083353Y-36981614D01*
X223094865Y-36986763D01*
X223105898Y-36992395D01*
X223116442Y-36998521D01*
X223126482Y-37005150D01*
X223136009Y-37012294D01*
X223145008Y-37019964D01*
X223153468Y-37028169D01*
X223161378Y-37036920D01*
X223168724Y-37046228D01*
X223175496Y-37056104D01*
X223181679Y-37066557D01*
X223187264Y-37077598D01*
X223192237Y-37089239D01*
X223196586Y-37101489D01*
X223200299Y-37114359D01*
X223203364Y-37127859D01*
X223205769Y-37142001D01*
X223207502Y-37156794D01*
X223208551Y-37172249D01*
X223208903Y-37188377D01*
X223208903Y-37674708D01*
X223065473Y-37674708D01*
X223065473Y-37611446D01*
X223062695Y-37611446D01*
X223056920Y-37620368D01*
X223050643Y-37628669D01*
X223043821Y-37636354D01*
X223036414Y-37643430D01*
X223028380Y-37649904D01*
X223019679Y-37655782D01*
X223010271Y-37661069D01*
X223000112Y-37665774D01*
X222989164Y-37669901D01*
X222977385Y-37673457D01*
X222964733Y-37676449D01*
X222951169Y-37678882D01*
X222936650Y-37680764D01*
X222921136Y-37682100D01*
X222904586Y-37682897D01*
X222886958Y-37683162D01*
X222872263Y-37682888D01*
X222857958Y-37682074D01*
X222844051Y-37680732D01*
X222830545Y-37678873D01*
X222817446Y-37676510D01*
X222804758Y-37673655D01*
X222792487Y-37670319D01*
X222780637Y-37666513D01*
X222769213Y-37662251D01*
X222758220Y-37657543D01*
X222747663Y-37652402D01*
X222737546Y-37646839D01*
X222727876Y-37640867D01*
X222718656Y-37634497D01*
X222709892Y-37627740D01*
X222701588Y-37620609D01*
X222693749Y-37613116D01*
X222686381Y-37605272D01*
X222679488Y-37597090D01*
X222673074Y-37588580D01*
X222667146Y-37579756D01*
X222661708Y-37570628D01*
X222656764Y-37561209D01*
X222652320Y-37551510D01*
X222648380Y-37541544D01*
X222644950Y-37531322D01*
X222642034Y-37520855D01*
X222639637Y-37510157D01*
X222637764Y-37499238D01*
X222636420Y-37488111D01*
X222635611Y-37476786D01*
X222635340Y-37465277D01*
X222635492Y-37458252D01*
X222770356Y-37458252D01*
X222770807Y-37467130D01*
X222772178Y-37475824D01*
X222774501Y-37484281D01*
X222777806Y-37492446D01*
X222779836Y-37496403D01*
X222782124Y-37500266D01*
X222784673Y-37504031D01*
X222787487Y-37507688D01*
X222790569Y-37511233D01*
X222793924Y-37514658D01*
X222797555Y-37517957D01*
X222801466Y-37521122D01*
X222805662Y-37524148D01*
X222810145Y-37527027D01*
X222814920Y-37529752D01*
X222819991Y-37532318D01*
X222825361Y-37534717D01*
X222831034Y-37536942D01*
X222837015Y-37538988D01*
X222843306Y-37540846D01*
X222856838Y-37543976D01*
X222871659Y-37546278D01*
X222887801Y-37547699D01*
X222905294Y-37548184D01*
X222926780Y-37548015D01*
X222946476Y-37547425D01*
X222964440Y-37546287D01*
X222980725Y-37544476D01*
X222988256Y-37543279D01*
X222995388Y-37541867D01*
X223002129Y-37540223D01*
X223008485Y-37538333D01*
X223014463Y-37536180D01*
X223020071Y-37533748D01*
X223025314Y-37531023D01*
X223030201Y-37527988D01*
X223034737Y-37524627D01*
X223038931Y-37520926D01*
X223042788Y-37516867D01*
X223046317Y-37512436D01*
X223049523Y-37507616D01*
X223052414Y-37502393D01*
X223054996Y-37496750D01*
X223057277Y-37490671D01*
X223059264Y-37484141D01*
X223060964Y-37477144D01*
X223062383Y-37469665D01*
X223063528Y-37461687D01*
X223064407Y-37453195D01*
X223065026Y-37444173D01*
X223065392Y-37434606D01*
X223065513Y-37424478D01*
X223065512Y-37424478D01*
X223065512Y-37372448D01*
X222894062Y-37372448D01*
X222886287Y-37372546D01*
X222878775Y-37372840D01*
X222871524Y-37373325D01*
X222864533Y-37374000D01*
X222857802Y-37374862D01*
X222851329Y-37375907D01*
X222845113Y-37377134D01*
X222839154Y-37378538D01*
X222833450Y-37380117D01*
X222828000Y-37381869D01*
X222822804Y-37383790D01*
X222817859Y-37385878D01*
X222813166Y-37388129D01*
X222808723Y-37390542D01*
X222804529Y-37393112D01*
X222800583Y-37395838D01*
X222796885Y-37398717D01*
X222793432Y-37401745D01*
X222790224Y-37404919D01*
X222787261Y-37408238D01*
X222784540Y-37411698D01*
X222782061Y-37415295D01*
X222779824Y-37419029D01*
X222777826Y-37422895D01*
X222776067Y-37426890D01*
X222774546Y-37431013D01*
X222773261Y-37435259D01*
X222772213Y-37439627D01*
X222771399Y-37444112D01*
X222770819Y-37448714D01*
X222770472Y-37453428D01*
X222770356Y-37458252D01*
X222635492Y-37458252D01*
X222635570Y-37454658D01*
X222636262Y-37444152D01*
X222637413Y-37433773D01*
X222639024Y-37423537D01*
X222641093Y-37413458D01*
X222643619Y-37403551D01*
X222646603Y-37393830D01*
X222650042Y-37384311D01*
X222653936Y-37375008D01*
X222658285Y-37365935D01*
X222663087Y-37357107D01*
X222668342Y-37348540D01*
X222674049Y-37340247D01*
X222680207Y-37332243D01*
X222686816Y-37324544D01*
X222693874Y-37317163D01*
X222701380Y-37310116D01*
X222709335Y-37303417D01*
X222717736Y-37297081D01*
X222726584Y-37291122D01*
X222735877Y-37285556D01*
X222745615Y-37280397D01*
X222755797Y-37275659D01*
X222766422Y-37271358D01*
X222777489Y-37267507D01*
X222788997Y-37264122D01*
X222800946Y-37261218D01*
X222813335Y-37258809D01*
X222826163Y-37256910D01*
X222839430Y-37255535D01*
X222853133Y-37254699D01*
X222867273Y-37254417D01*
X223065473Y-37254417D01*
X223065473Y-37179924D01*
X223064958Y-37167786D01*
X223064311Y-37162090D01*
X223063400Y-37156637D01*
X223062222Y-37151426D01*
X223060775Y-37146450D01*
X223059055Y-37141709D01*
X223057060Y-37137196D01*
X223054788Y-37132910D01*
X223052234Y-37128847D01*
X223049397Y-37125002D01*
X223046273Y-37121373D01*
X223042859Y-37117955D01*
X223039154Y-37114746D01*
X223035154Y-37111742D01*
X223030856Y-37108938D01*
X223026257Y-37106332D01*
X223021354Y-37103920D01*
X223010627Y-37099664D01*
X222998653Y-37096141D01*
X222985407Y-37093323D01*
X222970868Y-37091180D01*
X222955013Y-37089685D01*
X222937819Y-37088809D01*
X222919264Y-37088524D01*
X222905751Y-37088692D01*
X222893119Y-37089210D01*
X222881323Y-37090096D01*
X222870321Y-37091368D01*
X222865104Y-37092155D01*
X222860069Y-37093044D01*
X222855211Y-37094040D01*
X222850524Y-37095144D01*
X222846003Y-37096357D01*
X222841642Y-37097684D01*
X222837436Y-37099125D01*
X222833380Y-37100683D01*
X222829469Y-37102361D01*
X222825695Y-37104160D01*
X222822056Y-37106083D01*
X222818544Y-37108133D01*
X222815155Y-37110311D01*
X222811882Y-37112620D01*
X222808722Y-37115063D01*
X222805667Y-37117640D01*
X222802714Y-37120356D01*
X222799856Y-37123211D01*
X222797087Y-37126209D01*
X222794404Y-37129351D01*
X222791799Y-37132640D01*
X222789268Y-37136078D01*
X222786806Y-37139668D01*
X222784406Y-37143412D01*
X222671932Y-37057686D01*
X222682490Y-37044000D01*
X222693616Y-37031407D01*
X222705316Y-37019879D01*
X222717596Y-37009387D01*
X222730461Y-36999901D01*
X222743917Y-36991392D01*
X222757971Y-36983831D01*
X222772629Y-36977190D01*
X222787895Y-36971439D01*
X222803777Y-36966549D01*
X222820280Y-36962491D01*
X222837410Y-36959236D01*
X222855173Y-36956755D01*
X222873574Y-36955019D01*
X222892621Y-36953999D01*
X222912319Y-36953665D01*
X222944597Y-36954371D01*
G37*
G36*
X223708776Y-36953910D02*
G01*
X223719240Y-36954637D01*
X223729491Y-36955832D01*
X223739537Y-36957485D01*
X223749387Y-36959583D01*
X223759049Y-36962112D01*
X223768530Y-36965062D01*
X223777839Y-36968419D01*
X223786983Y-36972172D01*
X223795972Y-36976307D01*
X223804813Y-36980814D01*
X223813513Y-36985678D01*
X223822082Y-36990889D01*
X223830527Y-36996433D01*
X223838857Y-37002299D01*
X223847079Y-37008474D01*
X223743058Y-37132180D01*
X223736843Y-37127605D01*
X223730826Y-37123386D01*
X223724975Y-37119514D01*
X223719256Y-37115981D01*
X223713636Y-37112778D01*
X223708082Y-37109897D01*
X223702561Y-37107330D01*
X223697040Y-37105069D01*
X223691485Y-37103104D01*
X223685863Y-37101429D01*
X223680142Y-37100034D01*
X223674288Y-37098912D01*
X223668267Y-37098053D01*
X223662048Y-37097450D01*
X223655596Y-37097094D01*
X223648879Y-37096977D01*
X223635727Y-37097509D01*
X223622709Y-37099116D01*
X223609923Y-37101820D01*
X223597469Y-37105640D01*
X223591397Y-37107975D01*
X223585444Y-37110597D01*
X223579624Y-37113508D01*
X223573948Y-37116711D01*
X223568429Y-37120209D01*
X223563078Y-37124003D01*
X223557910Y-37128097D01*
X223552935Y-37132493D01*
X223548166Y-37137193D01*
X223543615Y-37142200D01*
X223539295Y-37147517D01*
X223535218Y-37153146D01*
X223531396Y-37159090D01*
X223527842Y-37165351D01*
X223524568Y-37171932D01*
X223521586Y-37178835D01*
X223518909Y-37186062D01*
X223516549Y-37193617D01*
X223514518Y-37201502D01*
X223512829Y-37209720D01*
X223511494Y-37218272D01*
X223510525Y-37227162D01*
X223509934Y-37236392D01*
X223509735Y-37245964D01*
X223509735Y-37674708D01*
X223366423Y-37674708D01*
X223366423Y-36962118D01*
X223509735Y-36962118D01*
X223509735Y-37038001D01*
X223512592Y-37038001D01*
X223521252Y-37027793D01*
X223530361Y-37018243D01*
X223539906Y-37009350D01*
X223549876Y-37001116D01*
X223560257Y-36993539D01*
X223571038Y-36986621D01*
X223582206Y-36980361D01*
X223593748Y-36974759D01*
X223605653Y-36969816D01*
X223617908Y-36965532D01*
X223630500Y-36961907D01*
X223643418Y-36958940D01*
X223656648Y-36956633D01*
X223670179Y-36954984D01*
X223683997Y-36953995D01*
X223698091Y-36953665D01*
X223708776Y-36953910D01*
G37*
G36*
X220059271Y-35828388D02*
G01*
X220073817Y-35829403D01*
X220088198Y-35831083D01*
X220102392Y-35833420D01*
X220116378Y-35836404D01*
X220130135Y-35840026D01*
X220143642Y-35844278D01*
X220156878Y-35849151D01*
X220169821Y-35854635D01*
X220182452Y-35860722D01*
X220194747Y-35867402D01*
X220206687Y-35874667D01*
X220218250Y-35882508D01*
X220229416Y-35890915D01*
X220240162Y-35899879D01*
X220250469Y-35909392D01*
X220260314Y-35919445D01*
X220269677Y-35930029D01*
X220278537Y-35941134D01*
X220286872Y-35952752D01*
X220294662Y-35964873D01*
X220301885Y-35977489D01*
X220308520Y-35990591D01*
X220314546Y-36004169D01*
X220319943Y-36018216D01*
X220324688Y-36032720D01*
X220328762Y-36047675D01*
X220332142Y-36063070D01*
X220334807Y-36078897D01*
X220336737Y-36095147D01*
X220337911Y-36111811D01*
X220338307Y-36128879D01*
X220338307Y-36246949D01*
X219894164Y-36246949D01*
X219894373Y-36257719D01*
X219894993Y-36268151D01*
X219896017Y-36278245D01*
X219897436Y-36288000D01*
X219899242Y-36297417D01*
X219901427Y-36306495D01*
X219903983Y-36315233D01*
X219906901Y-36323633D01*
X219910173Y-36331692D01*
X219913792Y-36339411D01*
X219917748Y-36346790D01*
X219922033Y-36353829D01*
X219926640Y-36360527D01*
X219931559Y-36366883D01*
X219936784Y-36372899D01*
X219942305Y-36378572D01*
X219948114Y-36383904D01*
X219954204Y-36388894D01*
X219960565Y-36393542D01*
X219967191Y-36397847D01*
X219974071Y-36401809D01*
X219981199Y-36405427D01*
X219988566Y-36408703D01*
X219996163Y-36411635D01*
X220003984Y-36414222D01*
X220012018Y-36416466D01*
X220020258Y-36418365D01*
X220028697Y-36419920D01*
X220037325Y-36421129D01*
X220046134Y-36421993D01*
X220055117Y-36422512D01*
X220064265Y-36422685D01*
X220074585Y-36422390D01*
X220084974Y-36421512D01*
X220095399Y-36420061D01*
X220105831Y-36418048D01*
X220116237Y-36415483D01*
X220126588Y-36412376D01*
X220136852Y-36408737D01*
X220146998Y-36404578D01*
X220156996Y-36399908D01*
X220166815Y-36394738D01*
X220176424Y-36389077D01*
X220185792Y-36382937D01*
X220194888Y-36376328D01*
X220203681Y-36369260D01*
X220212141Y-36361743D01*
X220220236Y-36353788D01*
X220324257Y-36442291D01*
X220310836Y-36457019D01*
X220296947Y-36470648D01*
X220282613Y-36483198D01*
X220267860Y-36494690D01*
X220252712Y-36505144D01*
X220237194Y-36514581D01*
X220221330Y-36523022D01*
X220205145Y-36530487D01*
X220188663Y-36536996D01*
X220171909Y-36542571D01*
X220154908Y-36547232D01*
X220137683Y-36550999D01*
X220120259Y-36553893D01*
X220102662Y-36555935D01*
X220084915Y-36557145D01*
X220067043Y-36557544D01*
X220039403Y-36556682D01*
X220011488Y-36553951D01*
X219983581Y-36549127D01*
X219955967Y-36541988D01*
X219928929Y-36532312D01*
X219915715Y-36526454D01*
X219902751Y-36519878D01*
X219890074Y-36512557D01*
X219877718Y-36504462D01*
X219865720Y-36495567D01*
X219854114Y-36485843D01*
X219842937Y-36475263D01*
X219832223Y-36463799D01*
X219822009Y-36451423D01*
X219812329Y-36438107D01*
X219803220Y-36423824D01*
X219794716Y-36408546D01*
X219786854Y-36392245D01*
X219779669Y-36374893D01*
X219773196Y-36356462D01*
X219767470Y-36336926D01*
X219762529Y-36316255D01*
X219758406Y-36294422D01*
X219755137Y-36271400D01*
X219752758Y-36247161D01*
X219751305Y-36221676D01*
X219750813Y-36194919D01*
X219751264Y-36169508D01*
X219752598Y-36145174D01*
X219754123Y-36128919D01*
X219894164Y-36128919D01*
X220194956Y-36128919D01*
X220194393Y-36118914D01*
X220193500Y-36109208D01*
X220192282Y-36099801D01*
X220190745Y-36090695D01*
X220188897Y-36081892D01*
X220186743Y-36073391D01*
X220184290Y-36065196D01*
X220181544Y-36057307D01*
X220178512Y-36049724D01*
X220175201Y-36042451D01*
X220171616Y-36035487D01*
X220167764Y-36028834D01*
X220163652Y-36022493D01*
X220159285Y-36016466D01*
X220154671Y-36010754D01*
X220149816Y-36005358D01*
X220144726Y-36000279D01*
X220139408Y-35995518D01*
X220133868Y-35991078D01*
X220128112Y-35986958D01*
X220122147Y-35983161D01*
X220115980Y-35979687D01*
X220109617Y-35976539D01*
X220103064Y-35973716D01*
X220096327Y-35971221D01*
X220089414Y-35969054D01*
X220082330Y-35967217D01*
X220075082Y-35965712D01*
X220067677Y-35964539D01*
X220060120Y-35963699D01*
X220052419Y-35963194D01*
X220044580Y-35963026D01*
X220036736Y-35963194D01*
X220029023Y-35963699D01*
X220021448Y-35964539D01*
X220014018Y-35965712D01*
X220006741Y-35967217D01*
X219999623Y-35969054D01*
X219992672Y-35971221D01*
X219985894Y-35973716D01*
X219979298Y-35976539D01*
X219972890Y-35979687D01*
X219966678Y-35983161D01*
X219960669Y-35986958D01*
X219954869Y-35991077D01*
X219949287Y-35995518D01*
X219943929Y-36000278D01*
X219938803Y-36005357D01*
X219933915Y-36010754D01*
X219929274Y-36016466D01*
X219924885Y-36022493D01*
X219920758Y-36028834D01*
X219916898Y-36035486D01*
X219913312Y-36042450D01*
X219910009Y-36049724D01*
X219906995Y-36057306D01*
X219904278Y-36065196D01*
X219901864Y-36073391D01*
X219899762Y-36081891D01*
X219897977Y-36090695D01*
X219896518Y-36099801D01*
X219895391Y-36109208D01*
X219894604Y-36118914D01*
X219894164Y-36128919D01*
X219754123Y-36128919D01*
X219754782Y-36121899D01*
X219757784Y-36099666D01*
X219761572Y-36078457D01*
X219766115Y-36058254D01*
X219771380Y-36039039D01*
X219777336Y-36020795D01*
X219783951Y-36003504D01*
X219791193Y-35987149D01*
X219799030Y-35971711D01*
X219807430Y-35957172D01*
X219816361Y-35943516D01*
X219825792Y-35930723D01*
X219835690Y-35918778D01*
X219846023Y-35907661D01*
X219856760Y-35897356D01*
X219867870Y-35887843D01*
X219879319Y-35879107D01*
X219891076Y-35871128D01*
X219903109Y-35863890D01*
X219915386Y-35857374D01*
X219927876Y-35851562D01*
X219940546Y-35846438D01*
X219953365Y-35841983D01*
X219966301Y-35838180D01*
X219979321Y-35835010D01*
X219992395Y-35832456D01*
X220018573Y-35829126D01*
X220044580Y-35828048D01*
X220059271Y-35828388D01*
G37*
G36*
X220063728Y-36954371D02*
G01*
X220094631Y-36956546D01*
X220124056Y-36960273D01*
X220138184Y-36962745D01*
X220151906Y-36965637D01*
X220165211Y-36968960D01*
X220178085Y-36972723D01*
X220190517Y-36976937D01*
X220202495Y-36981614D01*
X220214006Y-36986763D01*
X220225039Y-36992395D01*
X220235582Y-36998521D01*
X220245622Y-37005150D01*
X220255147Y-37012294D01*
X220264145Y-37019964D01*
X220272604Y-37028169D01*
X220280513Y-37036920D01*
X220287858Y-37046228D01*
X220294628Y-37056104D01*
X220300810Y-37066557D01*
X220306394Y-37077598D01*
X220311365Y-37089239D01*
X220315713Y-37101489D01*
X220319426Y-37114359D01*
X220322490Y-37127859D01*
X220324895Y-37142001D01*
X220326627Y-37156794D01*
X220327676Y-37172249D01*
X220328028Y-37188377D01*
X220328028Y-37674708D01*
X220184637Y-37674708D01*
X220184637Y-37611446D01*
X220181819Y-37611446D01*
X220176052Y-37620368D01*
X220169782Y-37628669D01*
X220162967Y-37636354D01*
X220155566Y-37643430D01*
X220147539Y-37649904D01*
X220138844Y-37655782D01*
X220129440Y-37661069D01*
X220119287Y-37665774D01*
X220108341Y-37669901D01*
X220096564Y-37673457D01*
X220083914Y-37676449D01*
X220070349Y-37678882D01*
X220055828Y-37680764D01*
X220040311Y-37682100D01*
X220023756Y-37682897D01*
X220006123Y-37683162D01*
X219991427Y-37682888D01*
X219977123Y-37682074D01*
X219963216Y-37680732D01*
X219949711Y-37678873D01*
X219936613Y-37676510D01*
X219923926Y-37673655D01*
X219911656Y-37670319D01*
X219899807Y-37666513D01*
X219888385Y-37662251D01*
X219877393Y-37657543D01*
X219866838Y-37652402D01*
X219856723Y-37646839D01*
X219847055Y-37640867D01*
X219837837Y-37634497D01*
X219829074Y-37627740D01*
X219820772Y-37620609D01*
X219812935Y-37613116D01*
X219805569Y-37605272D01*
X219798677Y-37597090D01*
X219792266Y-37588580D01*
X219786339Y-37579756D01*
X219780902Y-37570628D01*
X219775960Y-37561209D01*
X219771517Y-37551510D01*
X219767579Y-37541544D01*
X219764150Y-37531322D01*
X219761235Y-37520855D01*
X219758839Y-37510157D01*
X219756967Y-37499238D01*
X219755624Y-37488111D01*
X219754814Y-37476786D01*
X219754543Y-37465277D01*
X219754696Y-37458252D01*
X219889441Y-37458252D01*
X219889892Y-37467130D01*
X219891263Y-37475824D01*
X219893586Y-37484281D01*
X219896891Y-37492446D01*
X219898922Y-37496403D01*
X219901210Y-37500266D01*
X219903760Y-37504031D01*
X219906574Y-37507688D01*
X219909657Y-37511233D01*
X219913012Y-37514658D01*
X219916644Y-37517957D01*
X219920556Y-37521122D01*
X219924753Y-37524148D01*
X219929237Y-37527027D01*
X219934014Y-37529752D01*
X219939086Y-37532318D01*
X219944457Y-37534717D01*
X219950132Y-37536942D01*
X219956115Y-37538988D01*
X219962408Y-37540846D01*
X219975944Y-37543976D01*
X219990770Y-37546278D01*
X220006918Y-37547699D01*
X220024418Y-37548184D01*
X220045904Y-37548015D01*
X220065601Y-37547425D01*
X220083564Y-37546287D01*
X220099850Y-37544476D01*
X220107380Y-37543279D01*
X220114513Y-37541867D01*
X220121253Y-37540223D01*
X220127609Y-37538333D01*
X220133588Y-37536180D01*
X220139195Y-37533748D01*
X220144438Y-37531023D01*
X220149325Y-37527988D01*
X220153862Y-37524627D01*
X220158055Y-37520926D01*
X220161913Y-37516867D01*
X220165441Y-37512436D01*
X220168647Y-37507616D01*
X220171538Y-37502393D01*
X220174120Y-37496750D01*
X220176402Y-37490671D01*
X220178389Y-37484141D01*
X220180088Y-37477144D01*
X220181507Y-37469665D01*
X220182652Y-37461687D01*
X220183531Y-37453195D01*
X220184150Y-37444173D01*
X220184516Y-37434606D01*
X220184637Y-37424478D01*
X220184637Y-37372448D01*
X220013187Y-37372448D01*
X220005408Y-37372546D01*
X219997892Y-37372840D01*
X219990638Y-37373325D01*
X219983645Y-37374000D01*
X219976911Y-37374862D01*
X219970435Y-37375907D01*
X219964217Y-37377134D01*
X219958256Y-37378538D01*
X219952550Y-37380117D01*
X219947098Y-37381869D01*
X219941900Y-37383790D01*
X219936954Y-37385878D01*
X219932259Y-37388129D01*
X219927815Y-37390542D01*
X219923620Y-37393112D01*
X219919673Y-37395838D01*
X219915974Y-37398717D01*
X219912520Y-37401745D01*
X219909312Y-37404919D01*
X219906348Y-37408238D01*
X219903627Y-37411698D01*
X219901147Y-37415295D01*
X219898909Y-37419029D01*
X219896911Y-37422895D01*
X219895152Y-37426890D01*
X219893631Y-37431013D01*
X219892346Y-37435259D01*
X219891298Y-37439627D01*
X219890484Y-37444112D01*
X219889904Y-37448714D01*
X219889557Y-37453428D01*
X219889441Y-37458252D01*
X219754696Y-37458252D01*
X219754774Y-37454658D01*
X219755465Y-37444152D01*
X219756615Y-37433773D01*
X219758224Y-37423537D01*
X219760292Y-37413458D01*
X219762816Y-37403551D01*
X219765797Y-37393830D01*
X219769234Y-37384311D01*
X219773126Y-37375008D01*
X219777472Y-37365935D01*
X219782271Y-37357107D01*
X219787523Y-37348540D01*
X219793227Y-37340247D01*
X219799382Y-37332243D01*
X219805988Y-37324544D01*
X219813043Y-37317163D01*
X219820547Y-37310116D01*
X219828499Y-37303417D01*
X219836898Y-37297081D01*
X219845743Y-37291122D01*
X219855035Y-37285556D01*
X219864771Y-37280397D01*
X219874952Y-37275659D01*
X219885575Y-37271358D01*
X219896642Y-37267507D01*
X219908151Y-37264122D01*
X219920100Y-37261218D01*
X219932490Y-37258809D01*
X219945319Y-37256910D01*
X219958588Y-37255535D01*
X219972294Y-37254699D01*
X219986438Y-37254417D01*
X220184637Y-37254417D01*
X220184637Y-37179924D01*
X220184122Y-37167786D01*
X220183475Y-37162090D01*
X220182564Y-37156637D01*
X220181386Y-37151426D01*
X220179939Y-37146450D01*
X220178220Y-37141709D01*
X220176225Y-37137196D01*
X220173952Y-37132910D01*
X220171399Y-37128847D01*
X220168562Y-37125002D01*
X220165439Y-37121373D01*
X220162026Y-37117955D01*
X220158321Y-37114746D01*
X220154322Y-37111742D01*
X220150024Y-37108938D01*
X220145426Y-37106332D01*
X220140525Y-37103920D01*
X220129801Y-37099664D01*
X220117829Y-37096141D01*
X220104588Y-37093323D01*
X220090053Y-37091180D01*
X220074204Y-37089685D01*
X220057016Y-37088809D01*
X220038468Y-37088524D01*
X220024954Y-37088692D01*
X220012319Y-37089210D01*
X220000519Y-37090096D01*
X219989512Y-37091368D01*
X219984292Y-37092155D01*
X219979254Y-37093044D01*
X219974393Y-37094040D01*
X219969702Y-37095144D01*
X219965178Y-37096357D01*
X219960813Y-37097684D01*
X219956604Y-37099125D01*
X219952544Y-37100683D01*
X219948629Y-37102361D01*
X219944852Y-37104160D01*
X219941209Y-37106083D01*
X219937693Y-37108133D01*
X219934301Y-37110311D01*
X219931025Y-37112620D01*
X219927861Y-37115063D01*
X219924804Y-37117640D01*
X219921848Y-37120356D01*
X219918987Y-37123211D01*
X219916217Y-37126209D01*
X219913531Y-37129351D01*
X219910925Y-37132640D01*
X219908393Y-37136078D01*
X219905930Y-37139668D01*
X219903530Y-37143412D01*
X219791096Y-37057686D01*
X219801653Y-37044000D01*
X219812777Y-37031407D01*
X219824473Y-37019879D01*
X219836748Y-37009387D01*
X219849608Y-36999901D01*
X219863058Y-36991392D01*
X219877106Y-36983831D01*
X219891758Y-36977190D01*
X219907019Y-36971439D01*
X219922896Y-36966549D01*
X219939396Y-36962491D01*
X219956524Y-36959236D01*
X219974286Y-36956755D01*
X219992689Y-36955019D01*
X220011739Y-36953999D01*
X220031443Y-36953665D01*
X220063728Y-36954371D01*
G37*
G36*
X220802823Y-35828299D02*
G01*
X220813339Y-35829051D01*
X220834460Y-35832048D01*
X220855527Y-35837025D01*
X220876333Y-35843969D01*
X220886572Y-35848174D01*
X220896668Y-35852865D01*
X220906595Y-35858041D01*
X220916327Y-35863699D01*
X220925837Y-35869838D01*
X220935099Y-35876456D01*
X220944088Y-35883551D01*
X220952778Y-35891122D01*
X220961143Y-35899166D01*
X220969156Y-35907682D01*
X220976792Y-35916669D01*
X220984025Y-35926124D01*
X220990828Y-35936045D01*
X220997176Y-35946431D01*
X221003043Y-35957280D01*
X221008403Y-35968590D01*
X221013229Y-35980360D01*
X221017497Y-35992587D01*
X221021179Y-36005270D01*
X221024249Y-36018407D01*
X221026683Y-36031997D01*
X221028454Y-36046036D01*
X221029535Y-36060525D01*
X221029901Y-36075460D01*
X221029901Y-36549091D01*
X220886550Y-36549091D01*
X220886550Y-36124713D01*
X220886374Y-36115736D01*
X220885851Y-36107001D01*
X220884990Y-36098511D01*
X220883796Y-36090269D01*
X220882278Y-36082277D01*
X220880444Y-36074539D01*
X220878299Y-36067057D01*
X220875853Y-36059833D01*
X220873113Y-36052872D01*
X220870086Y-36046175D01*
X220866779Y-36039746D01*
X220863199Y-36033586D01*
X220859356Y-36027700D01*
X220855255Y-36022090D01*
X220850904Y-36016758D01*
X220846312Y-36011708D01*
X220841484Y-36006942D01*
X220836429Y-36002463D01*
X220831155Y-35998274D01*
X220825668Y-35994378D01*
X220819976Y-35990777D01*
X220814087Y-35987475D01*
X220808008Y-35984474D01*
X220801746Y-35981777D01*
X220795309Y-35979386D01*
X220788705Y-35977305D01*
X220781940Y-35975537D01*
X220775023Y-35974084D01*
X220767960Y-35972949D01*
X220760760Y-35972134D01*
X220753430Y-35971644D01*
X220745977Y-35971480D01*
X220738397Y-35971644D01*
X220730949Y-35972134D01*
X220723638Y-35972949D01*
X220716472Y-35974084D01*
X220709459Y-35975537D01*
X220702605Y-35977305D01*
X220695918Y-35979386D01*
X220689405Y-35981777D01*
X220683073Y-35984474D01*
X220676929Y-35987475D01*
X220670981Y-35990777D01*
X220665236Y-35994378D01*
X220659700Y-35998274D01*
X220654382Y-36002463D01*
X220649288Y-36006942D01*
X220644426Y-36011708D01*
X220639803Y-36016758D01*
X220635426Y-36022089D01*
X220631302Y-36027700D01*
X220627438Y-36033586D01*
X220623842Y-36039745D01*
X220620521Y-36046175D01*
X220617482Y-36052872D01*
X220614733Y-36059833D01*
X220612279Y-36067056D01*
X220610130Y-36074538D01*
X220608291Y-36082277D01*
X220606771Y-36090269D01*
X220605576Y-36098511D01*
X220604713Y-36107001D01*
X220604190Y-36115736D01*
X220604015Y-36124713D01*
X220604015Y-36549091D01*
X220460663Y-36549091D01*
X220460663Y-35836502D01*
X220604015Y-35836502D01*
X220604015Y-35912385D01*
X220606872Y-35912385D01*
X220615525Y-35902176D01*
X220624629Y-35892626D01*
X220634171Y-35883733D01*
X220644139Y-35875499D01*
X220654519Y-35867922D01*
X220665300Y-35861004D01*
X220676469Y-35854744D01*
X220688013Y-35849143D01*
X220699920Y-35844200D01*
X220712177Y-35839915D01*
X220724772Y-35836290D01*
X220737692Y-35833323D01*
X220750924Y-35831016D01*
X220764457Y-35829367D01*
X220778277Y-35828378D01*
X220792371Y-35828048D01*
X220802823Y-35828299D01*
G37*
D11*
X216999999Y-39649931D02*
X216523809Y-39649931D01*
X216523809Y-39649931D02*
X216523809Y-38649931D01*
X217333333Y-39649931D02*
X217333333Y-38983264D01*
X217333333Y-38649931D02*
X217285714Y-38697550D01*
X217285714Y-38697550D02*
X217333333Y-38745169D01*
X217333333Y-38745169D02*
X217380952Y-38697550D01*
X217380952Y-38697550D02*
X217333333Y-38649931D01*
X217333333Y-38649931D02*
X217333333Y-38745169D01*
X218238094Y-39602312D02*
X218142856Y-39649931D01*
X218142856Y-39649931D02*
X217952380Y-39649931D01*
X217952380Y-39649931D02*
X217857142Y-39602312D01*
X217857142Y-39602312D02*
X217809523Y-39554692D01*
X217809523Y-39554692D02*
X217761904Y-39459454D01*
X217761904Y-39459454D02*
X217761904Y-39173740D01*
X217761904Y-39173740D02*
X217809523Y-39078502D01*
X217809523Y-39078502D02*
X217857142Y-39030883D01*
X217857142Y-39030883D02*
X217952380Y-38983264D01*
X217952380Y-38983264D02*
X218142856Y-38983264D01*
X218142856Y-38983264D02*
X218238094Y-39030883D01*
X219047618Y-39602312D02*
X218952380Y-39649931D01*
X218952380Y-39649931D02*
X218761904Y-39649931D01*
X218761904Y-39649931D02*
X218666666Y-39602312D01*
X218666666Y-39602312D02*
X218619047Y-39507073D01*
X218619047Y-39507073D02*
X218619047Y-39126121D01*
X218619047Y-39126121D02*
X218666666Y-39030883D01*
X218666666Y-39030883D02*
X218761904Y-38983264D01*
X218761904Y-38983264D02*
X218952380Y-38983264D01*
X218952380Y-38983264D02*
X219047618Y-39030883D01*
X219047618Y-39030883D02*
X219095237Y-39126121D01*
X219095237Y-39126121D02*
X219095237Y-39221359D01*
X219095237Y-39221359D02*
X218619047Y-39316597D01*
X219523809Y-38983264D02*
X219523809Y-39649931D01*
X219523809Y-39078502D02*
X219571428Y-39030883D01*
X219571428Y-39030883D02*
X219666666Y-38983264D01*
X219666666Y-38983264D02*
X219809523Y-38983264D01*
X219809523Y-38983264D02*
X219904761Y-39030883D01*
X219904761Y-39030883D02*
X219952380Y-39126121D01*
X219952380Y-39126121D02*
X219952380Y-39649931D01*
X220380952Y-39602312D02*
X220476190Y-39649931D01*
X220476190Y-39649931D02*
X220666666Y-39649931D01*
X220666666Y-39649931D02*
X220761904Y-39602312D01*
X220761904Y-39602312D02*
X220809523Y-39507073D01*
X220809523Y-39507073D02*
X220809523Y-39459454D01*
X220809523Y-39459454D02*
X220761904Y-39364216D01*
X220761904Y-39364216D02*
X220666666Y-39316597D01*
X220666666Y-39316597D02*
X220523809Y-39316597D01*
X220523809Y-39316597D02*
X220428571Y-39268978D01*
X220428571Y-39268978D02*
X220380952Y-39173740D01*
X220380952Y-39173740D02*
X220380952Y-39126121D01*
X220380952Y-39126121D02*
X220428571Y-39030883D01*
X220428571Y-39030883D02*
X220523809Y-38983264D01*
X220523809Y-38983264D02*
X220666666Y-38983264D01*
X220666666Y-38983264D02*
X220761904Y-39030883D01*
X221619047Y-39602312D02*
X221523809Y-39649931D01*
X221523809Y-39649931D02*
X221333333Y-39649931D01*
X221333333Y-39649931D02*
X221238095Y-39602312D01*
X221238095Y-39602312D02*
X221190476Y-39507073D01*
X221190476Y-39507073D02*
X221190476Y-39126121D01*
X221190476Y-39126121D02*
X221238095Y-39030883D01*
X221238095Y-39030883D02*
X221333333Y-38983264D01*
X221333333Y-38983264D02*
X221523809Y-38983264D01*
X221523809Y-38983264D02*
X221619047Y-39030883D01*
X221619047Y-39030883D02*
X221666666Y-39126121D01*
X221666666Y-39126121D02*
X221666666Y-39221359D01*
X221666666Y-39221359D02*
X221190476Y-39316597D01*
X222523809Y-39649931D02*
X222523809Y-38649931D01*
X222523809Y-39602312D02*
X222428571Y-39649931D01*
X222428571Y-39649931D02*
X222238095Y-39649931D01*
X222238095Y-39649931D02*
X222142857Y-39602312D01*
X222142857Y-39602312D02*
X222095238Y-39554692D01*
X222095238Y-39554692D02*
X222047619Y-39459454D01*
X222047619Y-39459454D02*
X222047619Y-39173740D01*
X222047619Y-39173740D02*
X222095238Y-39078502D01*
X222095238Y-39078502D02*
X222142857Y-39030883D01*
X222142857Y-39030883D02*
X222238095Y-38983264D01*
X222238095Y-38983264D02*
X222428571Y-38983264D01*
X222428571Y-38983264D02*
X222523809Y-39030883D01*
X224190476Y-38983264D02*
X224190476Y-39649931D01*
X223761905Y-38983264D02*
X223761905Y-39507073D01*
X223761905Y-39507073D02*
X223809524Y-39602312D01*
X223809524Y-39602312D02*
X223904762Y-39649931D01*
X223904762Y-39649931D02*
X224047619Y-39649931D01*
X224047619Y-39649931D02*
X224142857Y-39602312D01*
X224142857Y-39602312D02*
X224190476Y-39554692D01*
X224666667Y-38983264D02*
X224666667Y-39649931D01*
X224666667Y-39078502D02*
X224714286Y-39030883D01*
X224714286Y-39030883D02*
X224809524Y-38983264D01*
X224809524Y-38983264D02*
X224952381Y-38983264D01*
X224952381Y-38983264D02*
X225047619Y-39030883D01*
X225047619Y-39030883D02*
X225095238Y-39126121D01*
X225095238Y-39126121D02*
X225095238Y-39649931D01*
X226000000Y-39649931D02*
X226000000Y-38649931D01*
X226000000Y-39602312D02*
X225904762Y-39649931D01*
X225904762Y-39649931D02*
X225714286Y-39649931D01*
X225714286Y-39649931D02*
X225619048Y-39602312D01*
X225619048Y-39602312D02*
X225571429Y-39554692D01*
X225571429Y-39554692D02*
X225523810Y-39459454D01*
X225523810Y-39459454D02*
X225523810Y-39173740D01*
X225523810Y-39173740D02*
X225571429Y-39078502D01*
X225571429Y-39078502D02*
X225619048Y-39030883D01*
X225619048Y-39030883D02*
X225714286Y-38983264D01*
X225714286Y-38983264D02*
X225904762Y-38983264D01*
X225904762Y-38983264D02*
X226000000Y-39030883D01*
X226857143Y-39602312D02*
X226761905Y-39649931D01*
X226761905Y-39649931D02*
X226571429Y-39649931D01*
X226571429Y-39649931D02*
X226476191Y-39602312D01*
X226476191Y-39602312D02*
X226428572Y-39507073D01*
X226428572Y-39507073D02*
X226428572Y-39126121D01*
X226428572Y-39126121D02*
X226476191Y-39030883D01*
X226476191Y-39030883D02*
X226571429Y-38983264D01*
X226571429Y-38983264D02*
X226761905Y-38983264D01*
X226761905Y-38983264D02*
X226857143Y-39030883D01*
X226857143Y-39030883D02*
X226904762Y-39126121D01*
X226904762Y-39126121D02*
X226904762Y-39221359D01*
X226904762Y-39221359D02*
X226428572Y-39316597D01*
X227333334Y-39649931D02*
X227333334Y-38983264D01*
X227333334Y-39173740D02*
X227380953Y-39078502D01*
X227380953Y-39078502D02*
X227428572Y-39030883D01*
X227428572Y-39030883D02*
X227523810Y-38983264D01*
X227523810Y-38983264D02*
X227619048Y-38983264D01*
X216428571Y-41164636D02*
X216380952Y-41212256D01*
X216380952Y-41212256D02*
X216238095Y-41259875D01*
X216238095Y-41259875D02*
X216142857Y-41259875D01*
X216142857Y-41259875D02*
X216000000Y-41212256D01*
X216000000Y-41212256D02*
X215904762Y-41117017D01*
X215904762Y-41117017D02*
X215857143Y-41021779D01*
X215857143Y-41021779D02*
X215809524Y-40831303D01*
X215809524Y-40831303D02*
X215809524Y-40688446D01*
X215809524Y-40688446D02*
X215857143Y-40497970D01*
X215857143Y-40497970D02*
X215904762Y-40402732D01*
X215904762Y-40402732D02*
X216000000Y-40307494D01*
X216000000Y-40307494D02*
X216142857Y-40259875D01*
X216142857Y-40259875D02*
X216238095Y-40259875D01*
X216238095Y-40259875D02*
X216380952Y-40307494D01*
X216380952Y-40307494D02*
X216428571Y-40355113D01*
X216857143Y-40736065D02*
X217190476Y-40736065D01*
X217333333Y-41259875D02*
X216857143Y-41259875D01*
X216857143Y-41259875D02*
X216857143Y-40259875D01*
X216857143Y-40259875D02*
X217333333Y-40259875D01*
X218333333Y-41259875D02*
X218000000Y-40783684D01*
X217761905Y-41259875D02*
X217761905Y-40259875D01*
X217761905Y-40259875D02*
X218142857Y-40259875D01*
X218142857Y-40259875D02*
X218238095Y-40307494D01*
X218238095Y-40307494D02*
X218285714Y-40355113D01*
X218285714Y-40355113D02*
X218333333Y-40450351D01*
X218333333Y-40450351D02*
X218333333Y-40593208D01*
X218333333Y-40593208D02*
X218285714Y-40688446D01*
X218285714Y-40688446D02*
X218238095Y-40736065D01*
X218238095Y-40736065D02*
X218142857Y-40783684D01*
X218142857Y-40783684D02*
X217761905Y-40783684D01*
X218761905Y-41259875D02*
X218761905Y-40259875D01*
X218761905Y-40259875D02*
X219333333Y-41259875D01*
X219333333Y-41259875D02*
X219333333Y-40259875D01*
X219809524Y-40878922D02*
X220571429Y-40878922D01*
X221238095Y-40259875D02*
X221428571Y-40259875D01*
X221428571Y-40259875D02*
X221523809Y-40307494D01*
X221523809Y-40307494D02*
X221619047Y-40402732D01*
X221619047Y-40402732D02*
X221666666Y-40593208D01*
X221666666Y-40593208D02*
X221666666Y-40926541D01*
X221666666Y-40926541D02*
X221619047Y-41117017D01*
X221619047Y-41117017D02*
X221523809Y-41212256D01*
X221523809Y-41212256D02*
X221428571Y-41259875D01*
X221428571Y-41259875D02*
X221238095Y-41259875D01*
X221238095Y-41259875D02*
X221142857Y-41212256D01*
X221142857Y-41212256D02*
X221047619Y-41117017D01*
X221047619Y-41117017D02*
X221000000Y-40926541D01*
X221000000Y-40926541D02*
X221000000Y-40593208D01*
X221000000Y-40593208D02*
X221047619Y-40402732D01*
X221047619Y-40402732D02*
X221142857Y-40307494D01*
X221142857Y-40307494D02*
X221238095Y-40259875D01*
X222095238Y-41259875D02*
X222095238Y-40259875D01*
X222095238Y-40736065D02*
X222666666Y-40736065D01*
X222666666Y-41259875D02*
X222666666Y-40259875D01*
X223619047Y-41259875D02*
X223142857Y-41259875D01*
X223142857Y-41259875D02*
X223142857Y-40259875D01*
X223952381Y-40878922D02*
X224714286Y-40878922D01*
X225142857Y-41212256D02*
X225285714Y-41259875D01*
X225285714Y-41259875D02*
X225523809Y-41259875D01*
X225523809Y-41259875D02*
X225619047Y-41212256D01*
X225619047Y-41212256D02*
X225666666Y-41164636D01*
X225666666Y-41164636D02*
X225714285Y-41069398D01*
X225714285Y-41069398D02*
X225714285Y-40974160D01*
X225714285Y-40974160D02*
X225666666Y-40878922D01*
X225666666Y-40878922D02*
X225619047Y-40831303D01*
X225619047Y-40831303D02*
X225523809Y-40783684D01*
X225523809Y-40783684D02*
X225333333Y-40736065D01*
X225333333Y-40736065D02*
X225238095Y-40688446D01*
X225238095Y-40688446D02*
X225190476Y-40640827D01*
X225190476Y-40640827D02*
X225142857Y-40545589D01*
X225142857Y-40545589D02*
X225142857Y-40450351D01*
X225142857Y-40450351D02*
X225190476Y-40355113D01*
X225190476Y-40355113D02*
X225238095Y-40307494D01*
X225238095Y-40307494D02*
X225333333Y-40259875D01*
X225333333Y-40259875D02*
X225571428Y-40259875D01*
X225571428Y-40259875D02*
X225714285Y-40307494D01*
X226809524Y-40593208D02*
X227047619Y-41259875D01*
X227047619Y-41259875D02*
X227285714Y-40593208D01*
X227619048Y-40355113D02*
X227666667Y-40307494D01*
X227666667Y-40307494D02*
X227761905Y-40259875D01*
X227761905Y-40259875D02*
X228000000Y-40259875D01*
X228000000Y-40259875D02*
X228095238Y-40307494D01*
X228095238Y-40307494D02*
X228142857Y-40355113D01*
X228142857Y-40355113D02*
X228190476Y-40450351D01*
X228190476Y-40450351D02*
X228190476Y-40545589D01*
X228190476Y-40545589D02*
X228142857Y-40688446D01*
X228142857Y-40688446D02*
X227571429Y-41259875D01*
X227571429Y-41259875D02*
X228190476Y-41259875D01*
X214785712Y-42869819D02*
X214690474Y-42822200D01*
X214690474Y-42822200D02*
X214642855Y-42774580D01*
X214642855Y-42774580D02*
X214595236Y-42679342D01*
X214595236Y-42679342D02*
X214595236Y-42393628D01*
X214595236Y-42393628D02*
X214642855Y-42298390D01*
X214642855Y-42298390D02*
X214690474Y-42250771D01*
X214690474Y-42250771D02*
X214785712Y-42203152D01*
X214785712Y-42203152D02*
X214928569Y-42203152D01*
X214928569Y-42203152D02*
X215023807Y-42250771D01*
X215023807Y-42250771D02*
X215071426Y-42298390D01*
X215071426Y-42298390D02*
X215119045Y-42393628D01*
X215119045Y-42393628D02*
X215119045Y-42679342D01*
X215119045Y-42679342D02*
X215071426Y-42774580D01*
X215071426Y-42774580D02*
X215023807Y-42822200D01*
X215023807Y-42822200D02*
X214928569Y-42869819D01*
X214928569Y-42869819D02*
X214785712Y-42869819D01*
X215547617Y-42869819D02*
X215547617Y-42203152D01*
X215547617Y-42393628D02*
X215595236Y-42298390D01*
X215595236Y-42298390D02*
X215642855Y-42250771D01*
X215642855Y-42250771D02*
X215738093Y-42203152D01*
X215738093Y-42203152D02*
X215833331Y-42203152D01*
X217357141Y-42869819D02*
X217357141Y-42346009D01*
X217357141Y-42346009D02*
X217309522Y-42250771D01*
X217309522Y-42250771D02*
X217214284Y-42203152D01*
X217214284Y-42203152D02*
X217023808Y-42203152D01*
X217023808Y-42203152D02*
X216928570Y-42250771D01*
X217357141Y-42822200D02*
X217261903Y-42869819D01*
X217261903Y-42869819D02*
X217023808Y-42869819D01*
X217023808Y-42869819D02*
X216928570Y-42822200D01*
X216928570Y-42822200D02*
X216880951Y-42726961D01*
X216880951Y-42726961D02*
X216880951Y-42631723D01*
X216880951Y-42631723D02*
X216928570Y-42536485D01*
X216928570Y-42536485D02*
X217023808Y-42488866D01*
X217023808Y-42488866D02*
X217261903Y-42488866D01*
X217261903Y-42488866D02*
X217357141Y-42441247D01*
X217833332Y-42203152D02*
X217833332Y-42869819D01*
X217833332Y-42298390D02*
X217880951Y-42250771D01*
X217880951Y-42250771D02*
X217976189Y-42203152D01*
X217976189Y-42203152D02*
X218119046Y-42203152D01*
X218119046Y-42203152D02*
X218214284Y-42250771D01*
X218214284Y-42250771D02*
X218261903Y-42346009D01*
X218261903Y-42346009D02*
X218261903Y-42869819D01*
X218642856Y-42203152D02*
X218880951Y-42869819D01*
X219119046Y-42203152D02*
X218880951Y-42869819D01*
X218880951Y-42869819D02*
X218785713Y-43107914D01*
X218785713Y-43107914D02*
X218738094Y-43155533D01*
X218738094Y-43155533D02*
X218642856Y-43203152D01*
X220404761Y-42869819D02*
X220309523Y-42822200D01*
X220309523Y-42822200D02*
X220261904Y-42726961D01*
X220261904Y-42726961D02*
X220261904Y-41869819D01*
X221214285Y-42869819D02*
X221214285Y-42346009D01*
X221214285Y-42346009D02*
X221166666Y-42250771D01*
X221166666Y-42250771D02*
X221071428Y-42203152D01*
X221071428Y-42203152D02*
X220880952Y-42203152D01*
X220880952Y-42203152D02*
X220785714Y-42250771D01*
X221214285Y-42822200D02*
X221119047Y-42869819D01*
X221119047Y-42869819D02*
X220880952Y-42869819D01*
X220880952Y-42869819D02*
X220785714Y-42822200D01*
X220785714Y-42822200D02*
X220738095Y-42726961D01*
X220738095Y-42726961D02*
X220738095Y-42631723D01*
X220738095Y-42631723D02*
X220785714Y-42536485D01*
X220785714Y-42536485D02*
X220880952Y-42488866D01*
X220880952Y-42488866D02*
X221119047Y-42488866D01*
X221119047Y-42488866D02*
X221214285Y-42441247D01*
X221547619Y-42203152D02*
X221928571Y-42203152D01*
X221690476Y-41869819D02*
X221690476Y-42726961D01*
X221690476Y-42726961D02*
X221738095Y-42822200D01*
X221738095Y-42822200D02*
X221833333Y-42869819D01*
X221833333Y-42869819D02*
X221928571Y-42869819D01*
X222642857Y-42822200D02*
X222547619Y-42869819D01*
X222547619Y-42869819D02*
X222357143Y-42869819D01*
X222357143Y-42869819D02*
X222261905Y-42822200D01*
X222261905Y-42822200D02*
X222214286Y-42726961D01*
X222214286Y-42726961D02*
X222214286Y-42346009D01*
X222214286Y-42346009D02*
X222261905Y-42250771D01*
X222261905Y-42250771D02*
X222357143Y-42203152D01*
X222357143Y-42203152D02*
X222547619Y-42203152D01*
X222547619Y-42203152D02*
X222642857Y-42250771D01*
X222642857Y-42250771D02*
X222690476Y-42346009D01*
X222690476Y-42346009D02*
X222690476Y-42441247D01*
X222690476Y-42441247D02*
X222214286Y-42536485D01*
X223119048Y-42869819D02*
X223119048Y-42203152D01*
X223119048Y-42393628D02*
X223166667Y-42298390D01*
X223166667Y-42298390D02*
X223214286Y-42250771D01*
X223214286Y-42250771D02*
X223309524Y-42203152D01*
X223309524Y-42203152D02*
X223404762Y-42203152D01*
X224404763Y-42203152D02*
X224642858Y-42869819D01*
X224642858Y-42869819D02*
X224880953Y-42203152D01*
X225642858Y-42822200D02*
X225547620Y-42869819D01*
X225547620Y-42869819D02*
X225357144Y-42869819D01*
X225357144Y-42869819D02*
X225261906Y-42822200D01*
X225261906Y-42822200D02*
X225214287Y-42726961D01*
X225214287Y-42726961D02*
X225214287Y-42346009D01*
X225214287Y-42346009D02*
X225261906Y-42250771D01*
X225261906Y-42250771D02*
X225357144Y-42203152D01*
X225357144Y-42203152D02*
X225547620Y-42203152D01*
X225547620Y-42203152D02*
X225642858Y-42250771D01*
X225642858Y-42250771D02*
X225690477Y-42346009D01*
X225690477Y-42346009D02*
X225690477Y-42441247D01*
X225690477Y-42441247D02*
X225214287Y-42536485D01*
X226119049Y-42869819D02*
X226119049Y-42203152D01*
X226119049Y-42393628D02*
X226166668Y-42298390D01*
X226166668Y-42298390D02*
X226214287Y-42250771D01*
X226214287Y-42250771D02*
X226309525Y-42203152D01*
X226309525Y-42203152D02*
X226404763Y-42203152D01*
X226690478Y-42822200D02*
X226785716Y-42869819D01*
X226785716Y-42869819D02*
X226976192Y-42869819D01*
X226976192Y-42869819D02*
X227071430Y-42822200D01*
X227071430Y-42822200D02*
X227119049Y-42726961D01*
X227119049Y-42726961D02*
X227119049Y-42679342D01*
X227119049Y-42679342D02*
X227071430Y-42584104D01*
X227071430Y-42584104D02*
X226976192Y-42536485D01*
X226976192Y-42536485D02*
X226833335Y-42536485D01*
X226833335Y-42536485D02*
X226738097Y-42488866D01*
X226738097Y-42488866D02*
X226690478Y-42393628D01*
X226690478Y-42393628D02*
X226690478Y-42346009D01*
X226690478Y-42346009D02*
X226738097Y-42250771D01*
X226738097Y-42250771D02*
X226833335Y-42203152D01*
X226833335Y-42203152D02*
X226976192Y-42203152D01*
X226976192Y-42203152D02*
X227071430Y-42250771D01*
X227547621Y-42869819D02*
X227547621Y-42203152D01*
X227547621Y-41869819D02*
X227500002Y-41917438D01*
X227500002Y-41917438D02*
X227547621Y-41965057D01*
X227547621Y-41965057D02*
X227595240Y-41917438D01*
X227595240Y-41917438D02*
X227547621Y-41869819D01*
X227547621Y-41869819D02*
X227547621Y-41965057D01*
X228166668Y-42869819D02*
X228071430Y-42822200D01*
X228071430Y-42822200D02*
X228023811Y-42774580D01*
X228023811Y-42774580D02*
X227976192Y-42679342D01*
X227976192Y-42679342D02*
X227976192Y-42393628D01*
X227976192Y-42393628D02*
X228023811Y-42298390D01*
X228023811Y-42298390D02*
X228071430Y-42250771D01*
X228071430Y-42250771D02*
X228166668Y-42203152D01*
X228166668Y-42203152D02*
X228309525Y-42203152D01*
X228309525Y-42203152D02*
X228404763Y-42250771D01*
X228404763Y-42250771D02*
X228452382Y-42298390D01*
X228452382Y-42298390D02*
X228500001Y-42393628D01*
X228500001Y-42393628D02*
X228500001Y-42679342D01*
X228500001Y-42679342D02*
X228452382Y-42774580D01*
X228452382Y-42774580D02*
X228404763Y-42822200D01*
X228404763Y-42822200D02*
X228309525Y-42869819D01*
X228309525Y-42869819D02*
X228166668Y-42869819D01*
X228928573Y-42203152D02*
X228928573Y-42869819D01*
X228928573Y-42298390D02*
X228976192Y-42250771D01*
X228976192Y-42250771D02*
X229071430Y-42203152D01*
X229071430Y-42203152D02*
X229214287Y-42203152D01*
X229214287Y-42203152D02*
X229309525Y-42250771D01*
X229309525Y-42250771D02*
X229357144Y-42346009D01*
X229357144Y-42346009D02*
X229357144Y-42869819D01*
X108771429Y-31620099D02*
X108771429Y-30620099D01*
X108771429Y-30620099D02*
X109152381Y-30620099D01*
X109152381Y-30620099D02*
X109247619Y-30667718D01*
X109247619Y-30667718D02*
X109295238Y-30715337D01*
X109295238Y-30715337D02*
X109342857Y-30810575D01*
X109342857Y-30810575D02*
X109342857Y-30953432D01*
X109342857Y-30953432D02*
X109295238Y-31048670D01*
X109295238Y-31048670D02*
X109247619Y-31096289D01*
X109247619Y-31096289D02*
X109152381Y-31143908D01*
X109152381Y-31143908D02*
X108771429Y-31143908D01*
X109771429Y-30620099D02*
X109771429Y-31429622D01*
X109771429Y-31429622D02*
X109819048Y-31524860D01*
X109819048Y-31524860D02*
X109866667Y-31572480D01*
X109866667Y-31572480D02*
X109961905Y-31620099D01*
X109961905Y-31620099D02*
X110152381Y-31620099D01*
X110152381Y-31620099D02*
X110247619Y-31572480D01*
X110247619Y-31572480D02*
X110295238Y-31524860D01*
X110295238Y-31524860D02*
X110342857Y-31429622D01*
X110342857Y-31429622D02*
X110342857Y-30620099D01*
X111295238Y-31620099D02*
X110819048Y-31620099D01*
X110819048Y-31620099D02*
X110819048Y-30620099D01*
X111580953Y-31572480D02*
X111723810Y-31620099D01*
X111723810Y-31620099D02*
X111961905Y-31620099D01*
X111961905Y-31620099D02*
X112057143Y-31572480D01*
X112057143Y-31572480D02*
X112104762Y-31524860D01*
X112104762Y-31524860D02*
X112152381Y-31429622D01*
X112152381Y-31429622D02*
X112152381Y-31334384D01*
X112152381Y-31334384D02*
X112104762Y-31239146D01*
X112104762Y-31239146D02*
X112057143Y-31191527D01*
X112057143Y-31191527D02*
X111961905Y-31143908D01*
X111961905Y-31143908D02*
X111771429Y-31096289D01*
X111771429Y-31096289D02*
X111676191Y-31048670D01*
X111676191Y-31048670D02*
X111628572Y-31001051D01*
X111628572Y-31001051D02*
X111580953Y-30905813D01*
X111580953Y-30905813D02*
X111580953Y-30810575D01*
X111580953Y-30810575D02*
X111628572Y-30715337D01*
X111628572Y-30715337D02*
X111676191Y-30667718D01*
X111676191Y-30667718D02*
X111771429Y-30620099D01*
X111771429Y-30620099D02*
X112009524Y-30620099D01*
X112009524Y-30620099D02*
X112152381Y-30667718D01*
X112533334Y-31334384D02*
X113009524Y-31334384D01*
X112438096Y-31620099D02*
X112771429Y-30620099D01*
X112771429Y-30620099D02*
X113104762Y-31620099D01*
X114009524Y-31620099D02*
X113676191Y-31143908D01*
X113438096Y-31620099D02*
X113438096Y-30620099D01*
X113438096Y-30620099D02*
X113819048Y-30620099D01*
X113819048Y-30620099D02*
X113914286Y-30667718D01*
X113914286Y-30667718D02*
X113961905Y-30715337D01*
X113961905Y-30715337D02*
X114009524Y-30810575D01*
X114009524Y-30810575D02*
X114009524Y-30953432D01*
X114009524Y-30953432D02*
X113961905Y-31048670D01*
X113961905Y-31048670D02*
X113914286Y-31096289D01*
X113914286Y-31096289D02*
X113819048Y-31143908D01*
X113819048Y-31143908D02*
X113438096Y-31143908D01*
X115057144Y-30620099D02*
X115628572Y-30620099D01*
X115342858Y-31620099D02*
X115342858Y-30620099D01*
X115961906Y-31620099D02*
X115961906Y-30620099D01*
X116438096Y-31620099D02*
X116438096Y-30620099D01*
X116438096Y-30620099D02*
X116771429Y-31334384D01*
X116771429Y-31334384D02*
X117104762Y-30620099D01*
X117104762Y-30620099D02*
X117104762Y-31620099D01*
X117580953Y-31620099D02*
X117580953Y-30620099D01*
X118057143Y-31620099D02*
X118057143Y-30620099D01*
X118057143Y-30620099D02*
X118628571Y-31620099D01*
X118628571Y-31620099D02*
X118628571Y-30620099D01*
X119628571Y-30667718D02*
X119533333Y-30620099D01*
X119533333Y-30620099D02*
X119390476Y-30620099D01*
X119390476Y-30620099D02*
X119247619Y-30667718D01*
X119247619Y-30667718D02*
X119152381Y-30762956D01*
X119152381Y-30762956D02*
X119104762Y-30858194D01*
X119104762Y-30858194D02*
X119057143Y-31048670D01*
X119057143Y-31048670D02*
X119057143Y-31191527D01*
X119057143Y-31191527D02*
X119104762Y-31382003D01*
X119104762Y-31382003D02*
X119152381Y-31477241D01*
X119152381Y-31477241D02*
X119247619Y-31572480D01*
X119247619Y-31572480D02*
X119390476Y-31620099D01*
X119390476Y-31620099D02*
X119485714Y-31620099D01*
X119485714Y-31620099D02*
X119628571Y-31572480D01*
X119628571Y-31572480D02*
X119676190Y-31524860D01*
X119676190Y-31524860D02*
X119676190Y-31191527D01*
X119676190Y-31191527D02*
X119485714Y-31191527D01*
X111604762Y-33182424D02*
X111747619Y-33230043D01*
X111747619Y-33230043D02*
X111985714Y-33230043D01*
X111985714Y-33230043D02*
X112080952Y-33182424D01*
X112080952Y-33182424D02*
X112128571Y-33134804D01*
X112128571Y-33134804D02*
X112176190Y-33039566D01*
X112176190Y-33039566D02*
X112176190Y-32944328D01*
X112176190Y-32944328D02*
X112128571Y-32849090D01*
X112128571Y-32849090D02*
X112080952Y-32801471D01*
X112080952Y-32801471D02*
X111985714Y-32753852D01*
X111985714Y-32753852D02*
X111795238Y-32706233D01*
X111795238Y-32706233D02*
X111700000Y-32658614D01*
X111700000Y-32658614D02*
X111652381Y-32610995D01*
X111652381Y-32610995D02*
X111604762Y-32515757D01*
X111604762Y-32515757D02*
X111604762Y-32420519D01*
X111604762Y-32420519D02*
X111652381Y-32325281D01*
X111652381Y-32325281D02*
X111700000Y-32277662D01*
X111700000Y-32277662D02*
X111795238Y-32230043D01*
X111795238Y-32230043D02*
X112033333Y-32230043D01*
X112033333Y-32230043D02*
X112176190Y-32277662D01*
X112795238Y-32753852D02*
X112795238Y-33230043D01*
X112461905Y-32230043D02*
X112795238Y-32753852D01*
X112795238Y-32753852D02*
X113128571Y-32230043D01*
X113414286Y-33182424D02*
X113557143Y-33230043D01*
X113557143Y-33230043D02*
X113795238Y-33230043D01*
X113795238Y-33230043D02*
X113890476Y-33182424D01*
X113890476Y-33182424D02*
X113938095Y-33134804D01*
X113938095Y-33134804D02*
X113985714Y-33039566D01*
X113985714Y-33039566D02*
X113985714Y-32944328D01*
X113985714Y-32944328D02*
X113938095Y-32849090D01*
X113938095Y-32849090D02*
X113890476Y-32801471D01*
X113890476Y-32801471D02*
X113795238Y-32753852D01*
X113795238Y-32753852D02*
X113604762Y-32706233D01*
X113604762Y-32706233D02*
X113509524Y-32658614D01*
X113509524Y-32658614D02*
X113461905Y-32610995D01*
X113461905Y-32610995D02*
X113414286Y-32515757D01*
X113414286Y-32515757D02*
X113414286Y-32420519D01*
X113414286Y-32420519D02*
X113461905Y-32325281D01*
X113461905Y-32325281D02*
X113509524Y-32277662D01*
X113509524Y-32277662D02*
X113604762Y-32230043D01*
X113604762Y-32230043D02*
X113842857Y-32230043D01*
X113842857Y-32230043D02*
X113985714Y-32277662D01*
X114271429Y-32230043D02*
X114842857Y-32230043D01*
X114557143Y-33230043D02*
X114557143Y-32230043D01*
X115176191Y-32706233D02*
X115509524Y-32706233D01*
X115652381Y-33230043D02*
X115176191Y-33230043D01*
X115176191Y-33230043D02*
X115176191Y-32230043D01*
X115176191Y-32230043D02*
X115652381Y-32230043D01*
X116080953Y-33230043D02*
X116080953Y-32230043D01*
X116080953Y-32230043D02*
X116414286Y-32944328D01*
X116414286Y-32944328D02*
X116747619Y-32230043D01*
X116747619Y-32230043D02*
X116747619Y-33230043D01*
X105604762Y-36449931D02*
X105604762Y-35449931D01*
X105604762Y-35449931D02*
X105985714Y-35449931D01*
X105985714Y-35449931D02*
X106080952Y-35497550D01*
X106080952Y-35497550D02*
X106128571Y-35545169D01*
X106128571Y-35545169D02*
X106176190Y-35640407D01*
X106176190Y-35640407D02*
X106176190Y-35783264D01*
X106176190Y-35783264D02*
X106128571Y-35878502D01*
X106128571Y-35878502D02*
X106080952Y-35926121D01*
X106080952Y-35926121D02*
X105985714Y-35973740D01*
X105985714Y-35973740D02*
X105604762Y-35973740D01*
X106604762Y-35449931D02*
X106604762Y-36259454D01*
X106604762Y-36259454D02*
X106652381Y-36354692D01*
X106652381Y-36354692D02*
X106700000Y-36402312D01*
X106700000Y-36402312D02*
X106795238Y-36449931D01*
X106795238Y-36449931D02*
X106985714Y-36449931D01*
X106985714Y-36449931D02*
X107080952Y-36402312D01*
X107080952Y-36402312D02*
X107128571Y-36354692D01*
X107128571Y-36354692D02*
X107176190Y-36259454D01*
X107176190Y-36259454D02*
X107176190Y-35449931D01*
X108128571Y-36449931D02*
X107652381Y-36449931D01*
X107652381Y-36449931D02*
X107652381Y-35449931D01*
X108414286Y-36402312D02*
X108557143Y-36449931D01*
X108557143Y-36449931D02*
X108795238Y-36449931D01*
X108795238Y-36449931D02*
X108890476Y-36402312D01*
X108890476Y-36402312D02*
X108938095Y-36354692D01*
X108938095Y-36354692D02*
X108985714Y-36259454D01*
X108985714Y-36259454D02*
X108985714Y-36164216D01*
X108985714Y-36164216D02*
X108938095Y-36068978D01*
X108938095Y-36068978D02*
X108890476Y-36021359D01*
X108890476Y-36021359D02*
X108795238Y-35973740D01*
X108795238Y-35973740D02*
X108604762Y-35926121D01*
X108604762Y-35926121D02*
X108509524Y-35878502D01*
X108509524Y-35878502D02*
X108461905Y-35830883D01*
X108461905Y-35830883D02*
X108414286Y-35735645D01*
X108414286Y-35735645D02*
X108414286Y-35640407D01*
X108414286Y-35640407D02*
X108461905Y-35545169D01*
X108461905Y-35545169D02*
X108509524Y-35497550D01*
X108509524Y-35497550D02*
X108604762Y-35449931D01*
X108604762Y-35449931D02*
X108842857Y-35449931D01*
X108842857Y-35449931D02*
X108985714Y-35497550D01*
X109366667Y-36164216D02*
X109842857Y-36164216D01*
X109271429Y-36449931D02*
X109604762Y-35449931D01*
X109604762Y-35449931D02*
X109938095Y-36449931D01*
X110842857Y-36449931D02*
X110509524Y-35973740D01*
X110271429Y-36449931D02*
X110271429Y-35449931D01*
X110271429Y-35449931D02*
X110652381Y-35449931D01*
X110652381Y-35449931D02*
X110747619Y-35497550D01*
X110747619Y-35497550D02*
X110795238Y-35545169D01*
X110795238Y-35545169D02*
X110842857Y-35640407D01*
X110842857Y-35640407D02*
X110842857Y-35783264D01*
X110842857Y-35783264D02*
X110795238Y-35878502D01*
X110795238Y-35878502D02*
X110747619Y-35926121D01*
X110747619Y-35926121D02*
X110652381Y-35973740D01*
X110652381Y-35973740D02*
X110271429Y-35973740D01*
X111271429Y-36068978D02*
X112033334Y-36068978D01*
X112842857Y-35926121D02*
X112985714Y-35973740D01*
X112985714Y-35973740D02*
X113033333Y-36021359D01*
X113033333Y-36021359D02*
X113080952Y-36116597D01*
X113080952Y-36116597D02*
X113080952Y-36259454D01*
X113080952Y-36259454D02*
X113033333Y-36354692D01*
X113033333Y-36354692D02*
X112985714Y-36402312D01*
X112985714Y-36402312D02*
X112890476Y-36449931D01*
X112890476Y-36449931D02*
X112509524Y-36449931D01*
X112509524Y-36449931D02*
X112509524Y-35449931D01*
X112509524Y-35449931D02*
X112842857Y-35449931D01*
X112842857Y-35449931D02*
X112938095Y-35497550D01*
X112938095Y-35497550D02*
X112985714Y-35545169D01*
X112985714Y-35545169D02*
X113033333Y-35640407D01*
X113033333Y-35640407D02*
X113033333Y-35735645D01*
X113033333Y-35735645D02*
X112985714Y-35830883D01*
X112985714Y-35830883D02*
X112938095Y-35878502D01*
X112938095Y-35878502D02*
X112842857Y-35926121D01*
X112842857Y-35926121D02*
X112509524Y-35926121D01*
X114080952Y-36449931D02*
X113747619Y-35973740D01*
X113509524Y-36449931D02*
X113509524Y-35449931D01*
X113509524Y-35449931D02*
X113890476Y-35449931D01*
X113890476Y-35449931D02*
X113985714Y-35497550D01*
X113985714Y-35497550D02*
X114033333Y-35545169D01*
X114033333Y-35545169D02*
X114080952Y-35640407D01*
X114080952Y-35640407D02*
X114080952Y-35783264D01*
X114080952Y-35783264D02*
X114033333Y-35878502D01*
X114033333Y-35878502D02*
X113985714Y-35926121D01*
X113985714Y-35926121D02*
X113890476Y-35973740D01*
X113890476Y-35973740D02*
X113509524Y-35973740D01*
X114509524Y-35926121D02*
X114842857Y-35926121D01*
X114985714Y-36449931D02*
X114509524Y-36449931D01*
X114509524Y-36449931D02*
X114509524Y-35449931D01*
X114509524Y-35449931D02*
X114985714Y-35449931D01*
X115366667Y-36164216D02*
X115842857Y-36164216D01*
X115271429Y-36449931D02*
X115604762Y-35449931D01*
X115604762Y-35449931D02*
X115938095Y-36449931D01*
X116271429Y-36449931D02*
X116271429Y-35449931D01*
X116842857Y-36449931D02*
X116414286Y-35878502D01*
X116842857Y-35449931D02*
X116271429Y-36021359D01*
X117461905Y-35449931D02*
X117652381Y-35449931D01*
X117652381Y-35449931D02*
X117747619Y-35497550D01*
X117747619Y-35497550D02*
X117842857Y-35592788D01*
X117842857Y-35592788D02*
X117890476Y-35783264D01*
X117890476Y-35783264D02*
X117890476Y-36116597D01*
X117890476Y-36116597D02*
X117842857Y-36307073D01*
X117842857Y-36307073D02*
X117747619Y-36402312D01*
X117747619Y-36402312D02*
X117652381Y-36449931D01*
X117652381Y-36449931D02*
X117461905Y-36449931D01*
X117461905Y-36449931D02*
X117366667Y-36402312D01*
X117366667Y-36402312D02*
X117271429Y-36307073D01*
X117271429Y-36307073D02*
X117223810Y-36116597D01*
X117223810Y-36116597D02*
X117223810Y-35783264D01*
X117223810Y-35783264D02*
X117271429Y-35592788D01*
X117271429Y-35592788D02*
X117366667Y-35497550D01*
X117366667Y-35497550D02*
X117461905Y-35449931D01*
X118319048Y-35449931D02*
X118319048Y-36259454D01*
X118319048Y-36259454D02*
X118366667Y-36354692D01*
X118366667Y-36354692D02*
X118414286Y-36402312D01*
X118414286Y-36402312D02*
X118509524Y-36449931D01*
X118509524Y-36449931D02*
X118700000Y-36449931D01*
X118700000Y-36449931D02*
X118795238Y-36402312D01*
X118795238Y-36402312D02*
X118842857Y-36354692D01*
X118842857Y-36354692D02*
X118890476Y-36259454D01*
X118890476Y-36259454D02*
X118890476Y-35449931D01*
X119223810Y-35449931D02*
X119795238Y-35449931D01*
X119509524Y-36449931D02*
X119509524Y-35449931D01*
X120128572Y-36068978D02*
X120890477Y-36068978D01*
X121557143Y-35449931D02*
X121652381Y-35449931D01*
X121652381Y-35449931D02*
X121747619Y-35497550D01*
X121747619Y-35497550D02*
X121795238Y-35545169D01*
X121795238Y-35545169D02*
X121842857Y-35640407D01*
X121842857Y-35640407D02*
X121890476Y-35830883D01*
X121890476Y-35830883D02*
X121890476Y-36068978D01*
X121890476Y-36068978D02*
X121842857Y-36259454D01*
X121842857Y-36259454D02*
X121795238Y-36354692D01*
X121795238Y-36354692D02*
X121747619Y-36402312D01*
X121747619Y-36402312D02*
X121652381Y-36449931D01*
X121652381Y-36449931D02*
X121557143Y-36449931D01*
X121557143Y-36449931D02*
X121461905Y-36402312D01*
X121461905Y-36402312D02*
X121414286Y-36354692D01*
X121414286Y-36354692D02*
X121366667Y-36259454D01*
X121366667Y-36259454D02*
X121319048Y-36068978D01*
X121319048Y-36068978D02*
X121319048Y-35830883D01*
X121319048Y-35830883D02*
X121366667Y-35640407D01*
X121366667Y-35640407D02*
X121414286Y-35545169D01*
X121414286Y-35545169D02*
X121461905Y-35497550D01*
X121461905Y-35497550D02*
X121557143Y-35449931D01*
X122842857Y-36449931D02*
X122271429Y-36449931D01*
X122557143Y-36449931D02*
X122557143Y-35449931D01*
X122557143Y-35449931D02*
X122461905Y-35592788D01*
X122461905Y-35592788D02*
X122366667Y-35688026D01*
X122366667Y-35688026D02*
X122271429Y-35735645D01*
X97366666Y-39003152D02*
X97366666Y-39812676D01*
X97366666Y-39812676D02*
X97319047Y-39907914D01*
X97319047Y-39907914D02*
X97271428Y-39955533D01*
X97271428Y-39955533D02*
X97176190Y-40003152D01*
X97176190Y-40003152D02*
X97033333Y-40003152D01*
X97033333Y-40003152D02*
X96938095Y-39955533D01*
X97366666Y-39622200D02*
X97271428Y-39669819D01*
X97271428Y-39669819D02*
X97080952Y-39669819D01*
X97080952Y-39669819D02*
X96985714Y-39622200D01*
X96985714Y-39622200D02*
X96938095Y-39574580D01*
X96938095Y-39574580D02*
X96890476Y-39479342D01*
X96890476Y-39479342D02*
X96890476Y-39193628D01*
X96890476Y-39193628D02*
X96938095Y-39098390D01*
X96938095Y-39098390D02*
X96985714Y-39050771D01*
X96985714Y-39050771D02*
X97080952Y-39003152D01*
X97080952Y-39003152D02*
X97271428Y-39003152D01*
X97271428Y-39003152D02*
X97366666Y-39050771D01*
X97842857Y-39669819D02*
X97842857Y-39003152D01*
X97842857Y-38669819D02*
X97795238Y-38717438D01*
X97795238Y-38717438D02*
X97842857Y-38765057D01*
X97842857Y-38765057D02*
X97890476Y-38717438D01*
X97890476Y-38717438D02*
X97842857Y-38669819D01*
X97842857Y-38669819D02*
X97842857Y-38765057D01*
X98176190Y-39003152D02*
X98557142Y-39003152D01*
X98319047Y-38669819D02*
X98319047Y-39526961D01*
X98319047Y-39526961D02*
X98366666Y-39622200D01*
X98366666Y-39622200D02*
X98461904Y-39669819D01*
X98461904Y-39669819D02*
X98557142Y-39669819D01*
X98890476Y-39669819D02*
X98890476Y-38669819D01*
X99319047Y-39669819D02*
X99319047Y-39146009D01*
X99319047Y-39146009D02*
X99271428Y-39050771D01*
X99271428Y-39050771D02*
X99176190Y-39003152D01*
X99176190Y-39003152D02*
X99033333Y-39003152D01*
X99033333Y-39003152D02*
X98938095Y-39050771D01*
X98938095Y-39050771D02*
X98890476Y-39098390D01*
X100223809Y-39003152D02*
X100223809Y-39669819D01*
X99795238Y-39003152D02*
X99795238Y-39526961D01*
X99795238Y-39526961D02*
X99842857Y-39622200D01*
X99842857Y-39622200D02*
X99938095Y-39669819D01*
X99938095Y-39669819D02*
X100080952Y-39669819D01*
X100080952Y-39669819D02*
X100176190Y-39622200D01*
X100176190Y-39622200D02*
X100223809Y-39574580D01*
X100700000Y-39669819D02*
X100700000Y-38669819D01*
X100700000Y-39050771D02*
X100795238Y-39003152D01*
X100795238Y-39003152D02*
X100985714Y-39003152D01*
X100985714Y-39003152D02*
X101080952Y-39050771D01*
X101080952Y-39050771D02*
X101128571Y-39098390D01*
X101128571Y-39098390D02*
X101176190Y-39193628D01*
X101176190Y-39193628D02*
X101176190Y-39479342D01*
X101176190Y-39479342D02*
X101128571Y-39574580D01*
X101128571Y-39574580D02*
X101080952Y-39622200D01*
X101080952Y-39622200D02*
X100985714Y-39669819D01*
X100985714Y-39669819D02*
X100795238Y-39669819D01*
X100795238Y-39669819D02*
X100700000Y-39622200D01*
X101604762Y-39574580D02*
X101652381Y-39622200D01*
X101652381Y-39622200D02*
X101604762Y-39669819D01*
X101604762Y-39669819D02*
X101557143Y-39622200D01*
X101557143Y-39622200D02*
X101604762Y-39574580D01*
X101604762Y-39574580D02*
X101604762Y-39669819D01*
X102509523Y-39622200D02*
X102414285Y-39669819D01*
X102414285Y-39669819D02*
X102223809Y-39669819D01*
X102223809Y-39669819D02*
X102128571Y-39622200D01*
X102128571Y-39622200D02*
X102080952Y-39574580D01*
X102080952Y-39574580D02*
X102033333Y-39479342D01*
X102033333Y-39479342D02*
X102033333Y-39193628D01*
X102033333Y-39193628D02*
X102080952Y-39098390D01*
X102080952Y-39098390D02*
X102128571Y-39050771D01*
X102128571Y-39050771D02*
X102223809Y-39003152D01*
X102223809Y-39003152D02*
X102414285Y-39003152D01*
X102414285Y-39003152D02*
X102509523Y-39050771D01*
X103080952Y-39669819D02*
X102985714Y-39622200D01*
X102985714Y-39622200D02*
X102938095Y-39574580D01*
X102938095Y-39574580D02*
X102890476Y-39479342D01*
X102890476Y-39479342D02*
X102890476Y-39193628D01*
X102890476Y-39193628D02*
X102938095Y-39098390D01*
X102938095Y-39098390D02*
X102985714Y-39050771D01*
X102985714Y-39050771D02*
X103080952Y-39003152D01*
X103080952Y-39003152D02*
X103223809Y-39003152D01*
X103223809Y-39003152D02*
X103319047Y-39050771D01*
X103319047Y-39050771D02*
X103366666Y-39098390D01*
X103366666Y-39098390D02*
X103414285Y-39193628D01*
X103414285Y-39193628D02*
X103414285Y-39479342D01*
X103414285Y-39479342D02*
X103366666Y-39574580D01*
X103366666Y-39574580D02*
X103319047Y-39622200D01*
X103319047Y-39622200D02*
X103223809Y-39669819D01*
X103223809Y-39669819D02*
X103080952Y-39669819D01*
X103842857Y-39669819D02*
X103842857Y-39003152D01*
X103842857Y-39098390D02*
X103890476Y-39050771D01*
X103890476Y-39050771D02*
X103985714Y-39003152D01*
X103985714Y-39003152D02*
X104128571Y-39003152D01*
X104128571Y-39003152D02*
X104223809Y-39050771D01*
X104223809Y-39050771D02*
X104271428Y-39146009D01*
X104271428Y-39146009D02*
X104271428Y-39669819D01*
X104271428Y-39146009D02*
X104319047Y-39050771D01*
X104319047Y-39050771D02*
X104414285Y-39003152D01*
X104414285Y-39003152D02*
X104557142Y-39003152D01*
X104557142Y-39003152D02*
X104652381Y-39050771D01*
X104652381Y-39050771D02*
X104700000Y-39146009D01*
X104700000Y-39146009D02*
X104700000Y-39669819D01*
X105890475Y-38622200D02*
X105033333Y-39907914D01*
X106223809Y-39669819D02*
X106223809Y-38669819D01*
X106223809Y-38669819D02*
X106461904Y-38669819D01*
X106461904Y-38669819D02*
X106604761Y-38717438D01*
X106604761Y-38717438D02*
X106699999Y-38812676D01*
X106699999Y-38812676D02*
X106747618Y-38907914D01*
X106747618Y-38907914D02*
X106795237Y-39098390D01*
X106795237Y-39098390D02*
X106795237Y-39241247D01*
X106795237Y-39241247D02*
X106747618Y-39431723D01*
X106747618Y-39431723D02*
X106699999Y-39526961D01*
X106699999Y-39526961D02*
X106604761Y-39622200D01*
X106604761Y-39622200D02*
X106461904Y-39669819D01*
X106461904Y-39669819D02*
X106223809Y-39669819D01*
X107652380Y-39669819D02*
X107652380Y-39146009D01*
X107652380Y-39146009D02*
X107604761Y-39050771D01*
X107604761Y-39050771D02*
X107509523Y-39003152D01*
X107509523Y-39003152D02*
X107319047Y-39003152D01*
X107319047Y-39003152D02*
X107223809Y-39050771D01*
X107652380Y-39622200D02*
X107557142Y-39669819D01*
X107557142Y-39669819D02*
X107319047Y-39669819D01*
X107319047Y-39669819D02*
X107223809Y-39622200D01*
X107223809Y-39622200D02*
X107176190Y-39526961D01*
X107176190Y-39526961D02*
X107176190Y-39431723D01*
X107176190Y-39431723D02*
X107223809Y-39336485D01*
X107223809Y-39336485D02*
X107319047Y-39288866D01*
X107319047Y-39288866D02*
X107557142Y-39288866D01*
X107557142Y-39288866D02*
X107652380Y-39241247D01*
X108033333Y-39003152D02*
X108271428Y-39669819D01*
X108271428Y-39669819D02*
X108509523Y-39003152D01*
X108890476Y-39669819D02*
X108890476Y-39003152D01*
X108890476Y-38669819D02*
X108842857Y-38717438D01*
X108842857Y-38717438D02*
X108890476Y-38765057D01*
X108890476Y-38765057D02*
X108938095Y-38717438D01*
X108938095Y-38717438D02*
X108890476Y-38669819D01*
X108890476Y-38669819D02*
X108890476Y-38765057D01*
X109795237Y-39669819D02*
X109795237Y-38669819D01*
X109795237Y-39622200D02*
X109699999Y-39669819D01*
X109699999Y-39669819D02*
X109509523Y-39669819D01*
X109509523Y-39669819D02*
X109414285Y-39622200D01*
X109414285Y-39622200D02*
X109366666Y-39574580D01*
X109366666Y-39574580D02*
X109319047Y-39479342D01*
X109319047Y-39479342D02*
X109319047Y-39193628D01*
X109319047Y-39193628D02*
X109366666Y-39098390D01*
X109366666Y-39098390D02*
X109414285Y-39050771D01*
X109414285Y-39050771D02*
X109509523Y-39003152D01*
X109509523Y-39003152D02*
X109699999Y-39003152D01*
X109699999Y-39003152D02*
X109795237Y-39050771D01*
X110223809Y-39384104D02*
X110699999Y-39384104D01*
X110128571Y-39669819D02*
X110461904Y-38669819D01*
X110461904Y-38669819D02*
X110795237Y-39669819D01*
X111128571Y-39003152D02*
X111128571Y-39669819D01*
X111128571Y-39098390D02*
X111176190Y-39050771D01*
X111176190Y-39050771D02*
X111271428Y-39003152D01*
X111271428Y-39003152D02*
X111414285Y-39003152D01*
X111414285Y-39003152D02*
X111509523Y-39050771D01*
X111509523Y-39050771D02*
X111557142Y-39146009D01*
X111557142Y-39146009D02*
X111557142Y-39669819D01*
X112033333Y-39003152D02*
X112033333Y-39669819D01*
X112033333Y-39098390D02*
X112080952Y-39050771D01*
X112080952Y-39050771D02*
X112176190Y-39003152D01*
X112176190Y-39003152D02*
X112319047Y-39003152D01*
X112319047Y-39003152D02*
X112414285Y-39050771D01*
X112414285Y-39050771D02*
X112461904Y-39146009D01*
X112461904Y-39146009D02*
X112461904Y-39669819D01*
X112938095Y-39669819D02*
X112938095Y-39003152D01*
X112938095Y-38669819D02*
X112890476Y-38717438D01*
X112890476Y-38717438D02*
X112938095Y-38765057D01*
X112938095Y-38765057D02*
X112985714Y-38717438D01*
X112985714Y-38717438D02*
X112938095Y-38669819D01*
X112938095Y-38669819D02*
X112938095Y-38765057D01*
X113319047Y-39003152D02*
X113509523Y-39669819D01*
X113509523Y-39669819D02*
X113699999Y-39193628D01*
X113699999Y-39193628D02*
X113890475Y-39669819D01*
X113890475Y-39669819D02*
X114080951Y-39003152D01*
X114842856Y-39622200D02*
X114747618Y-39669819D01*
X114747618Y-39669819D02*
X114557142Y-39669819D01*
X114557142Y-39669819D02*
X114461904Y-39622200D01*
X114461904Y-39622200D02*
X114414285Y-39526961D01*
X114414285Y-39526961D02*
X114414285Y-39146009D01*
X114414285Y-39146009D02*
X114461904Y-39050771D01*
X114461904Y-39050771D02*
X114557142Y-39003152D01*
X114557142Y-39003152D02*
X114747618Y-39003152D01*
X114747618Y-39003152D02*
X114842856Y-39050771D01*
X114842856Y-39050771D02*
X114890475Y-39146009D01*
X114890475Y-39146009D02*
X114890475Y-39241247D01*
X114890475Y-39241247D02*
X114414285Y-39336485D01*
X115461904Y-39669819D02*
X115366666Y-39622200D01*
X115366666Y-39622200D02*
X115319047Y-39526961D01*
X115319047Y-39526961D02*
X115319047Y-38669819D01*
X115985714Y-39669819D02*
X115890476Y-39622200D01*
X115890476Y-39622200D02*
X115842857Y-39526961D01*
X115842857Y-39526961D02*
X115842857Y-38669819D01*
X117080952Y-38622200D02*
X116223810Y-39907914D01*
X117414286Y-39669819D02*
X117414286Y-38669819D01*
X117414286Y-38669819D02*
X117795238Y-38669819D01*
X117795238Y-38669819D02*
X117890476Y-38717438D01*
X117890476Y-38717438D02*
X117938095Y-38765057D01*
X117938095Y-38765057D02*
X117985714Y-38860295D01*
X117985714Y-38860295D02*
X117985714Y-39003152D01*
X117985714Y-39003152D02*
X117938095Y-39098390D01*
X117938095Y-39098390D02*
X117890476Y-39146009D01*
X117890476Y-39146009D02*
X117795238Y-39193628D01*
X117795238Y-39193628D02*
X117414286Y-39193628D01*
X118414286Y-38669819D02*
X118414286Y-39479342D01*
X118414286Y-39479342D02*
X118461905Y-39574580D01*
X118461905Y-39574580D02*
X118509524Y-39622200D01*
X118509524Y-39622200D02*
X118604762Y-39669819D01*
X118604762Y-39669819D02*
X118795238Y-39669819D01*
X118795238Y-39669819D02*
X118890476Y-39622200D01*
X118890476Y-39622200D02*
X118938095Y-39574580D01*
X118938095Y-39574580D02*
X118985714Y-39479342D01*
X118985714Y-39479342D02*
X118985714Y-38669819D01*
X119938095Y-39669819D02*
X119461905Y-39669819D01*
X119461905Y-39669819D02*
X119461905Y-38669819D01*
X120223810Y-39622200D02*
X120366667Y-39669819D01*
X120366667Y-39669819D02*
X120604762Y-39669819D01*
X120604762Y-39669819D02*
X120700000Y-39622200D01*
X120700000Y-39622200D02*
X120747619Y-39574580D01*
X120747619Y-39574580D02*
X120795238Y-39479342D01*
X120795238Y-39479342D02*
X120795238Y-39384104D01*
X120795238Y-39384104D02*
X120747619Y-39288866D01*
X120747619Y-39288866D02*
X120700000Y-39241247D01*
X120700000Y-39241247D02*
X120604762Y-39193628D01*
X120604762Y-39193628D02*
X120414286Y-39146009D01*
X120414286Y-39146009D02*
X120319048Y-39098390D01*
X120319048Y-39098390D02*
X120271429Y-39050771D01*
X120271429Y-39050771D02*
X120223810Y-38955533D01*
X120223810Y-38955533D02*
X120223810Y-38860295D01*
X120223810Y-38860295D02*
X120271429Y-38765057D01*
X120271429Y-38765057D02*
X120319048Y-38717438D01*
X120319048Y-38717438D02*
X120414286Y-38669819D01*
X120414286Y-38669819D02*
X120652381Y-38669819D01*
X120652381Y-38669819D02*
X120795238Y-38717438D01*
X121176191Y-39384104D02*
X121652381Y-39384104D01*
X121080953Y-39669819D02*
X121414286Y-38669819D01*
X121414286Y-38669819D02*
X121747619Y-39669819D01*
X122652381Y-39669819D02*
X122319048Y-39193628D01*
X122080953Y-39669819D02*
X122080953Y-38669819D01*
X122080953Y-38669819D02*
X122461905Y-38669819D01*
X122461905Y-38669819D02*
X122557143Y-38717438D01*
X122557143Y-38717438D02*
X122604762Y-38765057D01*
X122604762Y-38765057D02*
X122652381Y-38860295D01*
X122652381Y-38860295D02*
X122652381Y-39003152D01*
X122652381Y-39003152D02*
X122604762Y-39098390D01*
X122604762Y-39098390D02*
X122557143Y-39146009D01*
X122557143Y-39146009D02*
X122461905Y-39193628D01*
X122461905Y-39193628D02*
X122080953Y-39193628D01*
X123080953Y-39288866D02*
X123842858Y-39288866D01*
X124652381Y-39146009D02*
X124795238Y-39193628D01*
X124795238Y-39193628D02*
X124842857Y-39241247D01*
X124842857Y-39241247D02*
X124890476Y-39336485D01*
X124890476Y-39336485D02*
X124890476Y-39479342D01*
X124890476Y-39479342D02*
X124842857Y-39574580D01*
X124842857Y-39574580D02*
X124795238Y-39622200D01*
X124795238Y-39622200D02*
X124700000Y-39669819D01*
X124700000Y-39669819D02*
X124319048Y-39669819D01*
X124319048Y-39669819D02*
X124319048Y-38669819D01*
X124319048Y-38669819D02*
X124652381Y-38669819D01*
X124652381Y-38669819D02*
X124747619Y-38717438D01*
X124747619Y-38717438D02*
X124795238Y-38765057D01*
X124795238Y-38765057D02*
X124842857Y-38860295D01*
X124842857Y-38860295D02*
X124842857Y-38955533D01*
X124842857Y-38955533D02*
X124795238Y-39050771D01*
X124795238Y-39050771D02*
X124747619Y-39098390D01*
X124747619Y-39098390D02*
X124652381Y-39146009D01*
X124652381Y-39146009D02*
X124319048Y-39146009D01*
X125890476Y-39669819D02*
X125557143Y-39193628D01*
X125319048Y-39669819D02*
X125319048Y-38669819D01*
X125319048Y-38669819D02*
X125700000Y-38669819D01*
X125700000Y-38669819D02*
X125795238Y-38717438D01*
X125795238Y-38717438D02*
X125842857Y-38765057D01*
X125842857Y-38765057D02*
X125890476Y-38860295D01*
X125890476Y-38860295D02*
X125890476Y-39003152D01*
X125890476Y-39003152D02*
X125842857Y-39098390D01*
X125842857Y-39098390D02*
X125795238Y-39146009D01*
X125795238Y-39146009D02*
X125700000Y-39193628D01*
X125700000Y-39193628D02*
X125319048Y-39193628D01*
X126319048Y-39146009D02*
X126652381Y-39146009D01*
X126795238Y-39669819D02*
X126319048Y-39669819D01*
X126319048Y-39669819D02*
X126319048Y-38669819D01*
X126319048Y-38669819D02*
X126795238Y-38669819D01*
X127176191Y-39384104D02*
X127652381Y-39384104D01*
X127080953Y-39669819D02*
X127414286Y-38669819D01*
X127414286Y-38669819D02*
X127747619Y-39669819D01*
X128080953Y-39669819D02*
X128080953Y-38669819D01*
X128652381Y-39669819D02*
X128223810Y-39098390D01*
X128652381Y-38669819D02*
X128080953Y-39241247D01*
X129271429Y-38669819D02*
X129461905Y-38669819D01*
X129461905Y-38669819D02*
X129557143Y-38717438D01*
X129557143Y-38717438D02*
X129652381Y-38812676D01*
X129652381Y-38812676D02*
X129700000Y-39003152D01*
X129700000Y-39003152D02*
X129700000Y-39336485D01*
X129700000Y-39336485D02*
X129652381Y-39526961D01*
X129652381Y-39526961D02*
X129557143Y-39622200D01*
X129557143Y-39622200D02*
X129461905Y-39669819D01*
X129461905Y-39669819D02*
X129271429Y-39669819D01*
X129271429Y-39669819D02*
X129176191Y-39622200D01*
X129176191Y-39622200D02*
X129080953Y-39526961D01*
X129080953Y-39526961D02*
X129033334Y-39336485D01*
X129033334Y-39336485D02*
X129033334Y-39003152D01*
X129033334Y-39003152D02*
X129080953Y-38812676D01*
X129080953Y-38812676D02*
X129176191Y-38717438D01*
X129176191Y-38717438D02*
X129271429Y-38669819D01*
X130128572Y-38669819D02*
X130128572Y-39479342D01*
X130128572Y-39479342D02*
X130176191Y-39574580D01*
X130176191Y-39574580D02*
X130223810Y-39622200D01*
X130223810Y-39622200D02*
X130319048Y-39669819D01*
X130319048Y-39669819D02*
X130509524Y-39669819D01*
X130509524Y-39669819D02*
X130604762Y-39622200D01*
X130604762Y-39622200D02*
X130652381Y-39574580D01*
X130652381Y-39574580D02*
X130700000Y-39479342D01*
X130700000Y-39479342D02*
X130700000Y-38669819D01*
X131033334Y-38669819D02*
X131604762Y-38669819D01*
X131319048Y-39669819D02*
X131319048Y-38669819D01*
D12*
X167976667Y-39304318D02*
X167976667Y-40211461D01*
X167976667Y-40211461D02*
X167916190Y-40392889D01*
X167916190Y-40392889D02*
X167795238Y-40513842D01*
X167795238Y-40513842D02*
X167613809Y-40574318D01*
X167613809Y-40574318D02*
X167492857Y-40574318D01*
X169125714Y-39727651D02*
X169125714Y-40574318D01*
X168823333Y-39243842D02*
X168520952Y-40150984D01*
X168520952Y-40150984D02*
X169307143Y-40150984D01*
D11*
X146131666Y-42969819D02*
X146131666Y-43684104D01*
X146131666Y-43684104D02*
X146084047Y-43826961D01*
X146084047Y-43826961D02*
X145988809Y-43922200D01*
X145988809Y-43922200D02*
X145845952Y-43969819D01*
X145845952Y-43969819D02*
X145750714Y-43969819D01*
X146560238Y-43065057D02*
X146607857Y-43017438D01*
X146607857Y-43017438D02*
X146703095Y-42969819D01*
X146703095Y-42969819D02*
X146941190Y-42969819D01*
X146941190Y-42969819D02*
X147036428Y-43017438D01*
X147036428Y-43017438D02*
X147084047Y-43065057D01*
X147084047Y-43065057D02*
X147131666Y-43160295D01*
X147131666Y-43160295D02*
X147131666Y-43255533D01*
X147131666Y-43255533D02*
X147084047Y-43398390D01*
X147084047Y-43398390D02*
X146512619Y-43969819D01*
X146512619Y-43969819D02*
X147131666Y-43969819D01*
X196531666Y-42969819D02*
X196531666Y-43684104D01*
X196531666Y-43684104D02*
X196484047Y-43826961D01*
X196484047Y-43826961D02*
X196388809Y-43922200D01*
X196388809Y-43922200D02*
X196245952Y-43969819D01*
X196245952Y-43969819D02*
X196150714Y-43969819D01*
X196912619Y-42969819D02*
X197531666Y-42969819D01*
X197531666Y-42969819D02*
X197198333Y-43350771D01*
X197198333Y-43350771D02*
X197341190Y-43350771D01*
X197341190Y-43350771D02*
X197436428Y-43398390D01*
X197436428Y-43398390D02*
X197484047Y-43446009D01*
X197484047Y-43446009D02*
X197531666Y-43541247D01*
X197531666Y-43541247D02*
X197531666Y-43779342D01*
X197531666Y-43779342D02*
X197484047Y-43874580D01*
X197484047Y-43874580D02*
X197436428Y-43922200D01*
X197436428Y-43922200D02*
X197341190Y-43969819D01*
X197341190Y-43969819D02*
X197055476Y-43969819D01*
X197055476Y-43969819D02*
X196960238Y-43922200D01*
X196960238Y-43922200D02*
X196912619Y-43874580D01*
X95611666Y-42969819D02*
X95611666Y-43684104D01*
X95611666Y-43684104D02*
X95564047Y-43826961D01*
X95564047Y-43826961D02*
X95468809Y-43922200D01*
X95468809Y-43922200D02*
X95325952Y-43969819D01*
X95325952Y-43969819D02*
X95230714Y-43969819D01*
X96611666Y-43969819D02*
X96040238Y-43969819D01*
X96325952Y-43969819D02*
X96325952Y-42969819D01*
X96325952Y-42969819D02*
X96230714Y-43112676D01*
X96230714Y-43112676D02*
X96135476Y-43207914D01*
X96135476Y-43207914D02*
X96040238Y-43255533D01*
D12*
%TO.C,J4*%
X136610000Y-26700000D02*
X136610000Y-38460000D01*
X136610000Y-38460000D02*
X200490000Y-38460000D01*
X145485000Y-21590000D02*
X145485000Y-26700000D01*
X191615000Y-21590000D02*
X145485000Y-21590000D01*
X191615000Y-26700000D02*
X191615000Y-21590000D01*
X200490000Y-26700000D02*
X136610000Y-26700000D01*
X200490000Y-38460000D02*
X200490000Y-26700000D01*
X135872340Y-35467000D02*
G75*
G02*
X135585660Y-35467000I-143340J0D01*
G01*
X135585660Y-35467000D02*
G75*
G02*
X135872340Y-35467000I143340J0D01*
G01*
D13*
%TO.C,J2*%
X143740000Y-46600000D02*
G75*
G02*
X143540000Y-46600000I-100000J0D01*
G01*
X143540000Y-46600000D02*
G75*
G02*
X143740000Y-46600000I100000J0D01*
G01*
D14*
X191400000Y-45400000D02*
X191400000Y-67300000D01*
X190020000Y-45400000D02*
X191400000Y-45400000D01*
X144290000Y-67300000D02*
X191400000Y-67300000D01*
X144290000Y-67300000D02*
X144290000Y-45400000D01*
X144290000Y-45400000D02*
X145670000Y-45400000D01*
%TO.C,J3*%
X194690000Y-45400000D02*
X196070000Y-45400000D01*
X194690000Y-67300000D02*
X194690000Y-45400000D01*
X194690000Y-67300000D02*
X241800000Y-67300000D01*
X240420000Y-45400000D02*
X241800000Y-45400000D01*
X241800000Y-45400000D02*
X241800000Y-67300000D01*
D13*
X194140000Y-46600000D02*
G75*
G02*
X193940000Y-46600000I-100000J0D01*
G01*
X193940000Y-46600000D02*
G75*
G02*
X194140000Y-46600000I100000J0D01*
G01*
D14*
%TO.C,J1*%
X93770000Y-45400000D02*
X95150000Y-45400000D01*
X93770000Y-67300000D02*
X93770000Y-45400000D01*
X93770000Y-67300000D02*
X140880000Y-67300000D01*
X139500000Y-45400000D02*
X140880000Y-45400000D01*
X140880000Y-45400000D02*
X140880000Y-67300000D01*
D13*
X93220000Y-46600000D02*
G75*
G02*
X93020000Y-46600000I-100000J0D01*
G01*
X93020000Y-46600000D02*
G75*
G02*
X93220000Y-46600000I100000J0D01*
G01*
%TD*%
M02*
